<?xml version="1.0" encoding="utf-8"?>
<!-- Generator: Adobe Illustrator 26.3.1, SVG Export Plug-In . SVG Version: 6.00 Build 0)  -->
<svg version="1.1" id="Layer_1" xmlns="http://www.w3.org/2000/svg" xmlns:xlink="http://www.w3.org/1999/xlink" x="0px" y="0px"
	 viewBox="0 0 341.5 119.3" style="enable-background:new 0 0 341.5 119.3;" xml:space="preserve">
<style type="text/css">
	.st0{clip-path:url(#SVGID_00000131342203036579276630000016307723738593715887_);}
	.st1{fill:#231F20;}
</style>
<g>
	<defs>
		<rect id="SVGID_1_" x="-200.4" y="-614.1" width="1581.6" height="2046.8"/>
	</defs>
	<clipPath id="SVGID_00000132065915752146009550000017777953351684063165_">
		<use xlink:href="#SVGID_1_"  style="overflow:visible;"/>
	</clipPath>
	
		<g transform="matrix(2.42287 0 0 -2.42287 -187.863 1343.238)" style="clip-path:url(#SVGID_00000132065915752146009550000017777953351684063165_);">
		<path class="st1" d="M199.9,533.1h-11.4l2.2,9.3h-4.1l-2.2-9.3h-3.7l-0.2-0.7h3.7l-4.9-20.5c-0.3-1.1-0.6-2.3-0.6-3.7
			c0-1.6,1-3.1,3.3-3.1c4.1,0,6.1,5.7,6.3,6.4l-0.6,0.2c-0.4-1-2-4.7-3.9-4.7c-0.8,0-1.1,0.5-1.1,1.4c0,0.6,0.1,1.2,0.3,1.9l5.2,22
			h7.4l-5-20.5c-0.3-1.1-0.6-2.4-0.6-3.5c0-1.7,1-3.2,3.3-3.2c4.1,0,6.1,5.7,6.3,6.4l-0.6,0.2c-0.4-0.9-2-4.7-3.8-4.7
			c-1,0-1.2,0.6-1.2,1.5c0,0.6,0.1,1.1,0.3,1.8L199.9,533.1L199.9,533.1z M172.8,507.1c-1,0-1.2,0.6-1.2,1.4c0,0.6,0.1,1.3,0.3,1.9
			l3.6,14.9c0.3,1.4,0.7,2.6,0.7,4.2c0,1.8-1.1,4.1-4.3,4.1c-3.7,0-5.6-3.2-6.4-4.6l1,4.1h-7.7l-0.2-0.7h3.7l-6.4-26.7h4.1l4.4,18.1
			c1,4.1,3.4,8.3,6.1,8.3c1.6,0,2.1-1.1,2.1-2.2c0-1-0.3-2-0.6-3.2l-3.5-14.8c-0.2-1-0.6-2.6-0.6-3.8c0-1.6,1-2.9,3.3-2.9
			c4.1,0,6.1,5.7,6.4,6.4l-0.6,0.2C176.1,510.6,174.6,507.1,172.8,507.1 M149.7,510.4l5.5,22.7h-4.1l-0.7-2.9
			c-0.2,0.6-0.7,3.5-4.3,3.5c-4.8,0-7.2-4.2-8.7-8.4c-0.9-2.5-2.8-8.8-2.9-13.1c-0.2-4.6,1.9-7,5.2-7c3.1,0,5.1,3.3,5.8,5
			c-0.1-0.2-0.2-1.1-0.2-1.8c-0.1-1.7,1.1-3.2,3.3-3.2c4.2,0,6.1,5.8,6.3,6.4l-0.6,0.2c-0.4-1-1.9-4.7-3.9-4.7
			c-0.8,0-1.2,0.6-1.1,1.6C149.4,509.1,149.5,509.7,149.7,510.4 M146.5,514.4c-1.3-4.4-3.3-7.8-5.7-7.8c-1.7,0-2.5,1.1-2.4,3.5
			c0.2,5.4,3.1,14.9,3.8,17c1.1,3.5,2.7,5.6,4.7,5.6c1.9,0,2.8-1.7,2.7-3.7C149.4,526,148.1,520.1,146.5,514.4 M128.4,507.1
			c-0.8,0-1.1,0.5-1.1,1.4c0,0.6,0.1,1.1,0.2,1.9l10.5,43.1h-7.8l-0.2-0.7h3.7l-9.8-40.8c-0.3-1.2-0.6-2.5-0.6-3.8
			c0-1.5,0.8-2.9,3.2-2.9c4.2,0,6.2,5.5,6.5,6.4l-0.6,0.2C131.9,510.7,130.2,507.1,128.4,507.1 M199.7,543.3c-1.4,0-2.3-1.1-2.3-2.8
			c0-1.3,0.8-2.4,2.1-2.4c1.3,0,2.3,1.1,2.3,2.7C201.8,542.3,201,543.3,199.7,543.3 M213,533.7c-4.8,0-7.4-3.7-8.8-8.4
			c-1-3-2.5-7.9-2.5-13.3c0-2.8,1.2-6.9,6.3-6.9c5.4,0,7.7,7.2,8,8l-0.7,0.4c-0.7-1.9-2.7-6.8-6.1-6.8c-2.2,0-3.4,1.8-3.4,5.2
			c0,4.9,1.4,9.9,2.6,13.9c1.5,4.9,2.5,7.2,4.7,7.2c1.5,0,2.4-0.7,2.4-1.7c0-1.4-0.8-2-0.8-3.3c0-1.1,0.8-2,1.8-2c1.2,0,2,1.1,2,2.8
			C218.5,530.6,217.5,533.7,213,533.7 M116.9,507.1c-0.7,0-1.2,0.5-1.2,1.4c0,0.5,0.1,1.2,0.3,1.9l5.3,22h4.3l0.2,0.7h-4.3l2.3,9.3
			h-4.1l-2.3-9.3H114l-0.2-0.7h3.3l-4.9-20.5c-0.3-1.1-0.6-2.3-0.6-3.8c0-1.4,0.8-2.9,3.2-2.9c4.3,0,6.1,5.6,6.5,6.4l-0.6,0.2
			C120.4,510.8,118.7,507.1,116.9,507.1 M82.2,538.9h-1.4l3.2,13.4h0.6c1.5,0,1.8-0.2,1.4-2.9h0.3l0.8,3.3h-7.5l-0.8-3.3h0.3
			c0.8,2.3,1.2,2.9,2.7,2.9h0.7l-3.2-13.4H78l-0.1-0.4H82L82.2,538.9L82.2,538.9z M85.2,538.5h1.4l1.5,6c0.4,1.6,1.2,2.9,2.1,2.9
			c0.6,0,0.7-0.4,0.7-0.7c0-0.4-0.1-0.8-0.2-1.3l-1.1-4.6c-0.1-0.2-0.2-1-0.2-1.4c0-0.6,0.3-1.1,1.1-1.1c1.5,0,2.1,1.8,2.3,2.2
			l-0.3,0.1c-0.2-0.4-0.7-1.6-1.3-1.6c-0.2,0-0.3,0.1-0.3,0.5c0,0.3,0.1,0.9,0.2,1.1l1.1,4.5c0.1,0.5,0.2,1,0.2,1.5
			c0,0.7-0.4,1.4-1.5,1.4c-1.2,0-2-1.1-2.2-1.5l1.5,6.1h-2.4l-0.1-0.4h1L85.2,538.5L85.2,538.5z M95.6,538.3c1.9,0,2.8,2.3,2.9,2.8
			l-0.3,0.2c-0.3-0.8-1.1-2.2-2.3-2.2c-0.7,0-1.1,0.5-1.1,1.5c0,0.7,0.1,1.3,0.2,1.9c1.7,0.4,4.7,2,4.7,4.1c0,1-0.5,1.6-1.7,1.6
			c-2.2,0-4.6-3.8-4.6-7.4C93.4,539.5,93.9,538.3,95.6,538.3 M97.9,547.8c0.5,0,0.7-0.2,0.7-0.7c0-1.6-1.5-3.5-3.5-4.1
			C95.6,545.4,96.9,547.8,97.9,547.8"/>
	</g>
</g>
<path class="st1" d="M80.5,0L6.4,116.3h-6L0,118h18.6l0.4-1.7H8.6L37,71.7h26.5l-4.7,44.6h-8.7l-0.4,1.7h27l0.4-1.7h-7.6L81.8,0
	C81.8,0,80.5,0,80.5,0z M63.8,69.8H38.2l30.3-47.5h0.3C68.8,22.3,63.8,69.8,63.8,69.8z"/>
</svg>
