<?xml version="1.0" encoding="UTF-8"?><svg id="a" xmlns="http://www.w3.org/2000/svg" viewBox="0 0 512 161.74"><defs><style>.b{fill:#c00;}</style></defs><path d="M403.29,0H209.29c-17.67,0-28.34,2.38-37.03,7.71-7.29,4.63-14.03,10.94-19.36,18.66-3.65,5.19-6.59,10.52-8.84,16.13v-.14c0-21.04-13.61-38.01-32.68-40.96-5.05-.7-13.61-1.4-19.92-1.4H0V161.6H89.35c23.29,0,33.39-2.67,42.08-10.66,8-7.29,12.06-18.66,12.06-31.98v-1.12c6.73,18.94,18.52,32.68,33.95,38.15,10.94,3.93,24.97,5.61,45.03,5.61h37.17v-41.52h-26.79c-32.26-.14-42.78,2.81-48.39-20.62h75.33V62.98h-75.33s3.79-21.32,26.09-21.32h74.2v120.07h46.85V41.52h58.91L403.29,0ZM39.7,41.66h50.64c12.48,0,11.92,10.52,11.92,10.52,0,10.94-11.92,10.52-11.92,10.52H39.7v-21.04Zm62.56,68.03c0,10.94-11.92,10.52-11.92,10.52H39.7v-21.04h50.64c12.62,0,11.92,10.52,11.92,10.52m18.1-28.76c7.43-3.09,13.89-9.4,18.1-17.25-.7,4.91-.98,10.24-.98,15.85,0,6.31,.42,12.34,1.26,18.1-3.79-7.29-9.96-12.91-18.38-16.69"/><path class="b" d="M512,62.7h-64.81L427.27,0l-19.78,62.7h-64.81l52.46,37.59-20.2,61.02,52.32-37.87,52.32,37.87-20.2-61.02,52.6-37.59Zm-84.59,41.8l-22.72,16.55,8.84-26.65-23-16.41h28.2l8.7-28.2,8.7,28.2h28.2l-22.86,16.41,8.84,26.65-22.86-16.55Z"/></svg>