<?xml version="1.0" encoding="UTF-8"?><svg id="layer" xmlns="http://www.w3.org/2000/svg" viewBox="0 0 600 89.9"><path d="M0,89.9V.1H33.4C49.4,.1,60.1,6.3,60.1,23.4c0,8.1-2.6,14.7-9.9,18.4v.3c12.8,1.5,18.3,10.2,18.3,22.8,0,18.8-16.1,25-32.5,25H0ZM23.3,35.3h2.6c6.2,0,12.6-1.1,12.6-8.7,0-8.2-7.3-8.7-13.6-8.7h-1.7v17.4h.1Zm0,36.7h3c6.9,0,18.6,.4,18.6-9.5,0-10.8-11.6-9.8-19.2-9.8h-2.4v19.3ZM97,0h28l16.8,24.4L158.6,0h28l-33.1,46.7v43.1h-23.4V46.7L97,0Zm207.8,89.9h-29.1l-22-34.6h-.2v34.6h-23.4V.1h34.9c17.8,0,31.2,8.5,31.2,27.6,0,12.4-6.9,23.1-19.7,25.4l28.3,36.8Zm-51.4-49.6h2.2c7.6,0,16.2-1.4,16.2-11.2s-8.6-11.2-16.2-11.2h-2.2v22.4ZM349.2,0h33.1c25,0,45.6,19.7,45.6,44.9s-20.7,44.9-45.6,44.9h-33.1V0h0Zm23.3,70.1h5.2c13.9,0,25.8-7.6,25.8-25.1,0-16.1-10.6-25.1-25.6-25.1h-5.4v50.2Zm125.4,19.8h-23.4V.1h23.4V89.9Zm74.4-70.1v15h26.3v19.8h-26.3v15.5h27.7v19.8h-51.1V.1h51.1V19.9h-27.7v-.1Z"/></svg>