<?xml version="1.0" encoding="UTF-8"?><svg id="Layer_2" xmlns="http://www.w3.org/2000/svg" viewBox="0 0 1000 344.92"><defs><style>.cls-1{fill:#fdc600;}.cls-1,.cls-2{fill-rule:evenodd;}</style></defs><path class="cls-2" d="M864.97,186.72l-38.32,132.8h27.63l4.01-16.93h35.65l3.57,16.93h28.07l-38.77-132.8h-21.84Zm11.14,36.1c0,1.78,.37,4.46,1.11,8.03,.75,3.56,1.41,6.83,2.01,9.8l8.91,38.77h-24.51l9.36-38.77c.59-2.97,1.26-6.24,2-9.8,.75-3.57,1.12-6.24,1.12-8.03Z"/><path class="cls-2" d="M737.08,186.28v133.24h26.74v-42.34h11.58l17.83,42.34h26.3l-18.72-47.68c5.65-3.86,10.25-9.14,13.82-15.82,3.56-6.68,5.34-14.34,5.34-22.95v-3.12c0-12.47-3.79-22.87-11.37-31.19-7.57-8.32-17.3-12.47-29.18-12.47h-42.34Zm26.74,24.95h12.92c4.75,0,8.76,1.56,12.03,4.68,3.26,3.12,4.9,7.95,4.9,14.48v.9c0,7.42-1.63,12.78-4.9,16.04-3.26,3.26-7.28,4.9-12.03,4.9h-12.92v-41Z"/><path class="cls-2" d="M808.38,25.85V159.09h42.78c6.83,0,13.14-1.33,18.94-4,5.8-2.68,10.62-6.39,14.48-11.14,3.86-4.76,6.91-10.78,9.14-18.05,2.23-7.28,3.34-15.08,3.34-23.4v-24.07c0-7.42-1.11-14.4-3.34-20.94-2.23-6.54-5.28-12.19-9.14-16.94-3.86-4.75-8.69-8.39-14.48-10.91-5.8-2.52-12.11-3.79-18.94-3.79h-42.78Zm26.74,24.95h12.92c3.86,0,7.13,.59,9.8,1.79,2.67,1.18,4.9,2.97,6.68,5.34,2.08,2.67,3.57,5.8,4.46,9.36,.89,3.57,1.34,7.58,1.34,12.04v21.38c0,5.65-.45,10.62-1.34,14.93-.89,4.31-2.38,7.95-4.46,10.92-1.78,2.38-4.01,4.31-6.68,5.79-2.67,1.49-5.94,2.23-9.8,2.23h-12.92V50.81Z"/><path class="cls-2" d="M506.68,24.08c-6.23,0-11.65,.82-16.26,2.44-4.6,1.64-8.84,3.8-12.71,6.47-5.64,5.05-10.1,11.73-13.37,20.05-3.26,8.32-4.9,18.71-4.9,31.19v16.04c0,12.78,1.64,23.48,4.9,32.08,3.27,8.62,7.73,15.15,13.37,19.61,3.86,2.98,8.1,5.27,12.71,6.91,4.6,1.64,10.03,2.45,16.26,2.45,5.65,0,10.78-.81,15.38-2.45s8.84-3.93,12.7-6.91c5.94-4.46,10.4-10.99,13.37-19.61,2.97-8.61,4.46-19.16,4.46-31.64v-16.48c0-12.48-1.49-22.87-4.46-31.19-2.97-8.32-7.42-15-13.37-20.05-3.87-2.67-8.1-4.83-12.7-6.47-4.6-1.63-9.73-2.44-15.38-2.44Zm0,24.95c2.68,0,5.06,.44,7.14,1.34,2.08,.89,3.86,2.23,5.34,4,2.08,2.38,3.72,6.02,4.9,10.92,1.19,4.9,1.79,11.51,1.79,19.83v15.15c0,8.32-.59,14.86-1.79,19.61-1.18,4.75-2.82,8.32-4.9,10.7-1.49,2.08-3.34,3.64-5.57,4.67-2.23,1.04-4.54,1.56-6.91,1.56-2.97,0-5.64-.51-8.02-1.56-2.38-1.04-4.31-2.59-5.8-4.67-2.08-2.38-3.71-5.94-4.9-10.7-1.19-4.75-1.78-11.29-1.78-19.61v-15.15c0-8.32,.59-14.93,1.78-19.83,1.19-4.9,2.82-8.55,4.9-10.92,1.49-1.78,3.42-3.12,5.8-4,2.38-.9,5.05-1.34,8.02-1.34Z"/><polygon class="cls-2" points="934.49 186.28 934.49 319.52 1000 319.52 1000 295.01 961.22 295.01 961.22 186.28 934.49 186.28"/><polygon class="cls-2" points="671.56 211.21 671.56 319.5 697.85 319.5 697.85 211.21 722.81 211.21 722.81 186.26 646.6 186.26 646.6 211.21 671.56 211.21"/><polygon class="cls-2" points="549.46 186.28 549.46 319.52 573.52 319.52 573.52 242.43 609.62 319.52 633.24 319.52 633.24 186.28 608.73 186.28 608.73 264.26 572.63 186.28 549.46 186.28"/><polygon class="cls-2" points="462.12 186.28 462.12 319.52 529.86 319.52 529.86 295.01 488.85 295.01 488.85 264.26 523.62 264.26 523.62 239.3 488.85 239.3 488.85 211.23 529.86 211.23 529.86 186.28 462.12 186.28"/><path class="cls-2" d="M392.58,215.24c1.49-2.08,3.34-3.49,5.57-4.24,2.23-.74,4.68-1.11,7.35-1.11,3.57,0,7.06,.9,10.47,2.67,3.42,1.78,6.16,5.35,8.24,10.7l23.62-9.8c-3.86-10.1-9.58-17.53-17.16-22.28-7.58-4.75-15.97-7.13-25.18-7.13-5.65,0-10.92,.89-15.82,2.67-4.9,1.78-9.13,4.16-12.7,7.13-5.64,4.75-10.03,11.29-13.14,19.61-3.12,8.32-4.68,18.71-4.68,31.2v16.49c0,12.78,1.56,23.33,4.68,31.64,3.12,8.32,7.5,14.86,13.14,19.61,3.57,2.98,7.8,5.21,12.7,6.68,4.91,1.49,10.17,2.23,15.82,2.23,9.8,0,18.35-2.3,25.62-6.9s12.85-11.51,16.71-20.72l-23.62-10.7c-2.08,5.34-4.75,8.91-8.02,10.7-3.27,1.78-6.83,2.67-10.7,2.67-2.67,0-5.13-.38-7.35-1.11-2.23-.74-4.08-2.15-5.57-4.23-2.08-2.08-3.71-5.57-4.9-10.48-1.19-4.9-1.78-11.51-1.78-19.83v-14.71c0-8.91,.59-15.75,1.78-20.5,1.19-4.75,2.82-8.17,4.9-10.24h0Z"/><polygon class="cls-2" points="619.86 159.08 641.7 159.08 661.31 86.45 669.78 159.08 694.29 159.08 679.14 25.84 654.18 25.84 631.01 109.62 607.84 25.84 582.43 25.84 566.83 159.08 591.8 159.08 599.81 86.45 619.86 159.08"/><polygon class="cls-2" points="715.23 25.85 715.23 159.09 785.65 159.09 785.65 134.58 741.53 134.58 741.53 103.84 780.3 103.84 780.3 78.43 741.53 78.43 741.53 50.8 785.65 50.8 785.65 25.85 715.23 25.85"/><polygon class="cls-2" points="934.49 94.9 934.49 159.07 961.23 159.07 961.23 94.9 998.66 25.83 969.69 25.83 947.41 67.71 926.03 25.83 897.06 25.83 934.49 94.9"/><path class="cls-2" d="M392.58,54.37c1.49-1.78,3.34-3.12,5.57-4,2.23-.9,4.68-1.34,7.35-1.34,3.57,0,7.06,.97,10.47,2.9,3.42,1.93,6.16,5.72,8.24,11.36l23.62-10.69c-3.86-10.11-9.58-17.38-17.16-21.84-7.58-4.46-15.97-6.68-25.18-6.68-5.65,0-10.92,.82-15.82,2.45-4.9,1.64-9.13,3.79-12.7,6.47-5.64,5.05-10.03,11.73-13.14,20.05-3.12,8.32-4.68,18.71-4.68,31.19v16.04c0,12.78,1.56,23.47,4.68,32.08,3.12,8.62,7.5,15.15,13.14,19.61,3.57,2.98,7.8,5.27,12.7,6.91,4.91,1.64,10.17,2.45,15.82,2.45,9.8,0,18.35-2.3,25.62-6.9,7.28-4.6,12.85-11.66,16.71-21.17l-23.62-10.25c-2.08,5.05-4.75,8.62-8.02,10.7-3.27,2.08-6.83,3.12-10.7,3.12-2.67,0-5.13-.51-7.35-1.56-2.23-1.04-4.08-2.59-5.57-4.67-2.08-2.38-3.71-5.94-4.9-10.7-1.19-4.75-1.78-11.29-1.78-19.61v-15.15c0-8.32,.59-14.93,1.78-19.83,1.19-4.9,2.82-8.55,4.9-10.92Z"/><path class="cls-1" d="M190.74,195.62c-3.86,7.13-9.44,12.85-16.71,17.16-7.29,4.31-15.23,6.46-23.85,6.46-12.77,0-23.69-4.53-32.75-13.59-9.06-9.06-13.59-19.98-13.59-32.75s4.53-23.77,13.59-32.98c9.06-9.21,19.98-13.81,32.75-13.81,8.62,0,16.56,2.3,23.85,6.9,7.28,4.6,12.85,10.32,16.71,17.16l36.1-20.5c-7.43-13.37-17.97-24.14-31.64-32.31-13.67-8.16-28.67-12.25-45.02-12.25-11.88,0-23.17,2.31-33.87,6.91-10.7,4.6-19.98,10.85-27.85,18.71-7.87,7.88-14.11,17.15-18.71,27.85-4.6,10.7-6.91,22.13-6.91,34.32s2.31,23.61,6.91,34.31c4.6,10.7,10.85,19.98,18.71,27.85,7.88,7.88,17.16,14.11,27.85,18.71,10.7,4.6,21.99,6.91,33.87,6.91,16.05,0,30.98-4.16,44.79-12.48,13.81-8.31,24.43-19.01,31.87-32.08l-36.09-20.5Z"/><path class="cls-1" d="M322.64,172.02c0,23.77-4.53,46.2-13.6,67.3-9.06,21.09-21.32,39.44-36.77,55.03-15.45,15.6-33.72,27.92-54.81,36.98-21.1,9.06-43.53,13.6-67.3,13.6-32.08,0-61.42-8.17-88.01-24.51-26.59-16.34-47.3-37.73-62.16-64.17l36.1-19.61c10.99,19.61,26.74,35.5,47.24,47.69,20.51,12.18,42.79,18.27,66.85,18.27,17.83,0,34.76-3.42,50.8-10.25,16.04-6.83,29.93-16.11,41.67-27.85,11.74-11.73,21.1-25.55,28.08-41.44,6.98-15.89,10.47-32.9,10.47-51.03v.9c0-18.13-3.49-35.14-10.47-51.03-6.98-15.89-16.34-29.71-28.08-41.44-11.73-11.74-25.62-21.02-41.67-27.85-16.04-6.83-32.98-10.25-50.8-10.25-24.06,0-46.34,6.09-66.85,18.27-20.5,12.19-36.24,28.08-47.24,47.69L0,88.69C14.86,62.24,35.57,40.85,62.16,24.51,88.75,8.17,118.1,0,150.18,0c23.77,0,46.2,4.53,67.3,13.6,21.09,9.06,39.36,21.39,54.81,36.98,15.45,15.6,27.71,33.94,36.77,55.03,9.06,21.1,13.6,43.53,13.6,67.3v-.89Z"/></svg>