<?xml version="1.0" encoding="UTF-8"?><svg id="Layer_1" xmlns="http://www.w3.org/2000/svg" viewBox="0 0 1000 464.62"><defs><style>.cls-1{fill:#fff;}.cls-2{fill:#c00;}</style></defs><path class="cls-2" d="M75.81,232.46c0,85.22,69.33,154.56,154.56,154.56h144.37c9.07,0,16.1-8.62,16.1-16.04V87.75c0-17.89,14.56-32.45,32.44-32.45,11.48,0,22.17,6.08,27.9,15.89,.72,1.23,44.43,76.59,90.7,156.38,44.21,76.24,89.93,155.08,90.65,156.31,2.31,3.95,6.84,6.49,11.53,6.49,7.43,0,13.49-6.05,13.49-13.49V87.75c0-17.89,14.55-32.45,32.45-32.45,11.48,0,22.17,6.08,27.9,15.89,.73,1.23,44.4,76.59,90.64,156.38,44.17,76.22,89.85,155.04,90.59,156.31,2.31,3.95,6.84,6.49,11.53,6.49,7.43,0,13.48-6.05,13.48-13.49V2.02h-56.9V225.15s-103.1-177.46-106.44-183.17c-15.05-25.73-43.59-41.98-73.97-41.98-47.58,0-86.17,38.6-86.17,86.18V225.15S497.54,47.69,494.19,41.98C479.14,16.26,450.6,0,420.22,0c-47.58,0-86.17,38.6-86.17,86.18v228.36c.03,8.31-6.22,15.55-15.31,15.57h-87.76c-53.93,0-97.65-43.72-97.65-97.65s43.72-97.65,97.65-97.65h73.51v-56.9h-74.12c-85.22,0-154.56,69.33-154.56,154.56"/><path class="cls-2" d="M943.09,2.02V376.88c0,17.9-14.55,32.45-32.45,32.45-11.48,0-22.17-6.08-27.9-15.88-.72-1.23-44.4-76.59-90.63-156.38-44.18-76.22-89.85-155.04-90.59-156.31-2.3-3.95-6.84-6.5-11.53-6.5-7.43,0-13.48,6.05-13.48,13.48V376.88c0,17.9-14.56,32.45-32.45,32.45-11.48,0-22.16-6.08-27.9-15.88-.72-1.23-44.43-76.59-90.7-156.38-44.22-76.24-89.93-155.07-90.66-156.31-2.31-3.95-6.84-6.5-11.53-6.5-7.43,0-13.48,6.05-13.48,13.48V370.98c0,18.65-16.38,35.01-35.06,35.01H230.37c-95.68,0-173.53-77.84-173.53-173.53S134.69,58.93,230.37,58.93h74.11V2.02h-74.05C103.17,2.02,0,105.19,0,232.45s103.17,230.44,230.44,230.44h145.75c55.21,.03,90.72-32.32,90.64-91.99V239.47s103.84,178.73,106.45,183.17c15.05,25.73,43.59,41.98,73.97,41.98,47.59,0,86.17-38.6,86.17-86.18V239.47s103.1,177.47,106.44,183.17c15.06,25.73,43.6,41.98,73.97,41.98,47.58,0,86.17-38.6,86.17-86.18V2.02h-56.91Z"/><path class="cls-1" d="M56.85,232.46c0,95.69,77.84,173.53,173.53,173.53h144.37c18.68,0,35.07-16.36,35.07-35.01V87.75c0-7.43,6.04-13.48,13.48-13.48,4.69,0,9.22,2.55,11.53,6.49,.72,1.24,46.44,80.08,90.66,156.31,46.27,79.79,89.98,155.14,90.7,156.38,5.74,9.8,16.42,15.88,27.9,15.88,17.9,0,32.45-14.56,32.45-32.45V87.75c0-7.43,6.04-13.48,13.48-13.48,4.69,0,9.22,2.55,11.53,6.49,.74,1.27,46.42,80.09,90.59,156.31,46.23,79.79,89.91,155.15,90.63,156.39,5.73,9.8,16.42,15.88,27.9,15.88,17.9,0,32.45-14.56,32.45-32.45V2.02h-18.97V376.88c0,7.44-6.04,13.49-13.48,13.49-4.69,0-9.22-2.55-11.53-6.49-.74-1.27-46.42-80.09-90.59-156.31-46.24-79.79-89.91-155.15-90.64-156.38-5.73-9.8-16.42-15.89-27.9-15.89-17.9,0-32.45,14.56-32.45,32.45V376.88c0,7.44-6.05,13.49-13.48,13.49-4.69,0-9.22-2.55-11.53-6.49-.72-1.24-46.44-80.07-90.66-156.31-46.27-79.79-89.98-155.14-90.7-156.38-5.73-9.8-16.42-15.89-27.9-15.89-17.89,0-32.44,14.56-32.44,32.45V370.97c0,7.42-7.03,16.04-16.1,16.04H230.37c-85.22,0-154.56-69.33-154.56-154.56S145.15,77.9,230.37,77.9h74.11v-18.97h-74.11c-95.68,0-173.53,77.84-173.53,173.53"/></svg>