<?xml version="1.0" encoding="UTF-8"?><svg id="a" xmlns="http://www.w3.org/2000/svg" viewBox="0 0 3132 848.93"><defs><style>.b{fill:#d61507;}</style></defs><path class="b" d="M0,325.22v261.85c0,144.44,117.42,261.85,261.85,261.85h261.85v-177.05H261.85c-46.59,0-84.8-38.21-84.8-84.8v-102.51H471.52v-159.35H177.05V177.06h346.65V0H0V325.22Z"/><path class="b" d="M1931.76,325.22v261.85c0,144.44,117.41,261.85,261.85,261.85h261.85v-177.05h-261.85c-46.59,0-84.8-38.21-84.8-84.8v-102.51h294.47v-159.35h-294.47V177.06h346.65V0h-523.71V325.22Z"/><polygon class="b" points="1274.79 177.06 1477.01 177.06 1477.01 848.93 1654.99 848.93 1654.99 177.06 1857.21 177.06 1857.21 0 1274.79 0 1274.79 177.06"/><path class="b" d="M617.83,261.86V848.93h177.05v-256.26l227.38-56.84v313.11h177.05V0h-319.63c-144.44,0-261.85,117.42-261.85,261.86m405.36,114.62l-227.38,56.84v-171.46c0-46.59,38.21-84.8,84.8-84.8h142.58v199.42Z"/><path class="b" d="M3132,284.22c0-37.27-7.46-74.55-21.43-108.1-13.98-33.55-34.48-63.37-59.64-89.46-25.16-26.09-54.98-46.59-88.53-61.5-35.41-15.84-72.69-23.3-111.82-23.3h-300.99V848h177.05v-281.42h122.07c9.32,0,17.71-.93,27.02-.93l96.91,282.35h159.35l-114.62-337.34c69.89-51.25,114.62-133.26,114.62-226.44m-282.35,105.3h-122.07V178.92h122.07l7.46,.93c54.98,3.73,96.91,50.32,96.91,104.37,.93,57.78-46.59,105.3-104.37,105.3"/></svg>