<?xml version="1.0" encoding="UTF-8"?><svg id="a" xmlns="http://www.w3.org/2000/svg" viewBox="0 0 114.94 30.72"><defs><style>.b{fill:#9d9e9e;}.c{fill-rule:evenodd;}</style></defs><path class="c" d="M10.29,0l-.27,4.02h-1.97l-.18-2.5h-3.13V7.51h1.34c.1-.45,.18-.89,.36-1.34h1.43v4.11h-1.34l-.36-1.34h-1.34v6.35h3.13l.27-2.77,2.15,.1,.18,4.2H.27v-1.43l1.43-.27V1.7l-1.7-.27V0H10.29ZM46.59,22.45c0-.45,.1-.81,.1-1.16l1.07-.27V6.72c-.45-.1-.81-.1-1.25-.18v-1.16l3.4-.45c.1,.45,.27,.89,.36,1.25,.1,0,.1-.1,.18-.1,.81-.98,1.88-1.25,3.13-1.16,1.52,.18,2.42,1.16,2.77,2.5,.18,.63,.36,1.25,.36,1.88,.1,1.34,.1,2.68-.1,3.93-.1,.45-.27,.98-.45,1.43-.63,1.34-1.7,2.15-3.13,2.24-.81,.1-1.52,0-2.24-.36h-.18v4.48l1.16,.27c0,.36-.1,.72-.1,1.16h-5.09Zm4.03-7.43c.89,.36,1.8,.45,2.68,.1,.16-.07,.29-.2,.36-.36,.1-.45,.27-.89,.27-1.34,.18-1.34,.18-2.77,.1-4.11,0-.49-.09-.97-.27-1.43-.27-.98-.98-1.34-1.97-1.16h-.18c-.63,.1-.98,.54-.98,1.16v7.14h0Zm33.99,.27l1.16,.27c0,.45,0,.81-.1,1.25h-3.93V8.77c0-.36-.1-.72-.18-1.07-.1-.45-.45-.63-.89-.72s-.81-.1-1.16,.1-.63,.36-.63,.81v7.42l1.16,.27c0,.36-.1,.81-.1,1.25h-5.01v-1.25l1.16-.27V6.81c-.45-.1-.81-.1-1.25-.18v-1.27l3.3-.45,.27,1.07c.27-.18,.54-.45,.81-.63,1.07-.72,2.32-.81,3.49-.36,.98,.36,1.52,1.16,1.7,2.24,.1,.27,.1,.63,.1,.89v6.71c.07,.14,.1,.29,.09,.45h.02Zm-69.22,.1l1.16,.27c0,.45-.1,.81-.1,1.25h-5.1c0-.36,0-.81,.1-1.25l1.07-.27c.1-.27,.1-8.05,0-8.5-.36-.1-.81-.1-1.25-.18v-1.26l3.3-.45,.27,1.07,.27-.27c1.07-.89,2.33-1.16,3.67-.81,1.16,.27,1.8,1.07,2.06,2.24,.1,.27,.1,.63,.1,.89v7.15l1.16,.27v1.26h-3.93v-7.78c0-.27,0-.63-.1-.89-.1-.72-.54-1.07-1.16-1.16-.54-.1-.98,0-1.34,.45-.18,.18-.18,.36-.18,.63v7.33h.01ZM102.68,6.53c-.45,0-.81-.1-1.25-.1v-1.07l3.85-.45c.18,.45,.36,.89,.36,1.43V15.37l1.16,.27c0,.45-.1,.81-.1,1.25h-3.3c-.1-.27-.18-.63-.27-.98-.1,.1-.18,.18-.27,.18-1.34,1.25-3.13,1.07-4.29,.54-.89-.45-1.34-1.16-1.52-2.15-.1-.36-.1-.63-.1-.98V6.61c-.45-.1-.89-.1-1.25-.18v-1.06l3.76-.45c.1,.45,.27,.81,.27,1.25v6.8c0,.27,0,.63,.1,.89,.1,.81,.63,1.34,1.43,1.34,.27,0,.63-.1,.89-.1,.27-.1,.71-.63,.71-.89V6.78c-.18-.1-.18-.18-.18-.27h0Zm-62.42,5.11c0,.98,.18,1.8,.63,2.59,.45,.63,1.07,.98,1.88,1.07,.81,0,1.52-.18,2.24-.45,.1,0,.18-.1,.36-.1,.18,.36,.27,.72,.45,1.07-.18,.18-.45,.27-.63,.45-1.43,.81-2.95,1.07-4.47,.54-1.34-.36-2.15-1.25-2.77-2.5-.63-1.34-.81-2.77-.63-4.2,.1-.89,.27-1.8,.63-2.59,.63-1.34,1.6-2.24,3.04-2.5s2.68-.1,3.76,.89c.63,.63,.98,1.43,1.25,2.24,.27,.89,.36,1.7,.36,2.59,0,.27-.18,.54-.27,.89h-5.81Zm3.49-1.51c0-.36-.1-.63-.1-.89-.1-.72-.18-1.34-.54-1.97-.36-.72-.98-.89-1.7-.63-.27,.1-.45,.27-.63,.54-.36,.98-.54,1.97-.63,2.95v.27l3.58-.27h.01Zm51.25,1.52l-5.81,.1c-.1,.45,0,.81,.1,1.16,.09,.59,.34,1.14,.71,1.6,.45,.54,.98,.81,1.7,.81s1.43-.1,2.15-.36c.18-.1,.27-.1,.45-.18,.18,.36,.27,.72,.45,1.07-.1,0-.1,.1-.18,.1-1.25,.89-2.59,1.16-4.11,1.07-1.8-.18-3.04-1.25-3.67-2.95-.89-2.15-.81-4.29,.1-6.44,.54-1.34,1.52-2.33,3.04-2.59,1.16-.27,2.32-.18,3.3,.54,.71,.54,1.16,1.25,1.52,1.97,.36,.98,.54,2.15,.54,3.22,0,.27-.18,.54-.27,.89h0Zm-2.24-1.53c0-.81-.1-1.52-.36-2.24-.1-.36-.27-.72-.54-.98-.45-.63-1.88-.45-2.06,.36-.18,.63-.36,1.25-.45,1.97-.1,.36-.1,.72-.1,1.16l3.49-.27h.01Zm-18.34,1.52l-5.81,.1c0,1.07,.18,1.97,.81,2.77,.45,.54,.98,.81,1.6,.81,.71,0,1.52-.1,2.15-.36,.18-.1,.27-.1,.45-.18,.18,.36,.27,.72,.45,1.07-.18,.1-.27,.18-.36,.27-1.28,.79-2.81,1.08-4.29,.81-1.43-.27-2.42-1.16-3.04-2.42-.63-1.34-.81-2.68-.71-4.11,.1-.98,.27-1.88,.63-2.77,.45-1.07,1.16-1.88,2.24-2.33,1.25-.54,2.5-.54,3.76,.1,.81,.45,1.34,1.16,1.7,1.97,.45,1.07,.63,2.24,.63,3.4,.1,.27-.1,.54-.18,.89v-.02Zm-2.23-1.52c0-.36-.1-.72-.1-1.07-.1-.63-.18-1.25-.54-1.8-.45-.72-1.07-.98-1.8-.63-.18,.1-.36,.18-.45,.45-.36,.72-.54,1.52-.63,2.33,0,.27-.1,.54-.1,.89,1.16,0,2.32-.1,3.58-.18h.03ZM32.65,5.01l.27,1.07c.18-.1,.27-.18,.45-.27,.81-.45,1.7-.72,2.59-.81,.45-.1,.81,.1,1.07,.45l-.36,3.13c-.63,0-1.25-.1-1.88-.1-.1-.54-.18-1.07-.18-1.7-.45,0-.81,.18-1.16,.45V15.28l1.16,.27c0,.36,0,.81-.1,1.16h-5v-1.16l1.07-.27V6.79c-.45-.1-.81-.1-1.25-.18v-1.25c1.07,0,2.15-.18,3.3-.36h0Zm74.68,11.82c0-.45,0-.81,.1-1.16l1.07-.27V6.9c-.36-.1-.81-.1-1.25-.18v-1.26l3.4-.45,.27,.98,1.43-.63c.54-.18,.98-.27,1.52-.36,.45-.1,.81,0,1.07,.45l-.36,3.13c-.63,0-1.25-.1-1.88-.1-.1-.54-.18-1.16-.18-1.7l-1.16,.45V15.37l1.16,.27c0,.36-.1,.81-.1,1.16h-5.1v.02ZM62.87,6.8l-1.16,.45V15.38l1.16,.27c0,.45-.1,.81-.1,1.16h-5.01v-1.16l1.07-.27V6.89c-.45-.1-.81-.1-1.25-.18v-1.25l3.4-.45,.27,.98,.98-.54c.63-.27,1.25-.45,1.97-.54,.54,0,.89,.18,1.16,.54l-.36,3.13c-.63,0-1.25-.1-1.88-.1l-.27-1.7h0ZM26.2,2.77v2.42h2.07c-.1,.54-.1,.98-.1,1.52-.63,0-1.25,.1-1.88,.18v7.6c.1,.45,.36,.81,.89,.81h1.16c0,.45,.1,.81,.1,1.25-.27,.18-.63,.27-.98,.36-.72,.18-1.43,.18-2.15,.1-1.07-.18-1.8-.89-1.97-2.06V6.9c-.45-.1-.89-.18-1.34-.18,0-.45,0-.98,.1-1.43,.54,0,.98-.1,1.52-.1l.63-2.24,1.97-.18h-.02Z"/><path class="b" d="M97.27,30.02c0,.4-.4,.7-.8,.7-.5,0-.9-.3-.9-.7s.4-.7,.9-.7,.8,.3,.8,.7Zm-1.4,0c0,.3,.3,.5,.6,.5s.6-.2,.6-.5-.3-.5-.6-.5c-.4,0-.6,.2-.6,.5Zm.5,.4h-.2v-.7h.3q.2,0,.3,.1l.1,.1c0,.1-.1,.1-.2,.2,.1,0,.1,.1,.2,.2q0,.1,.1,.2h-.3s0-.1-.1-.1c0-.1-.1-.1-.1-.1h-.1v.1Zm0-.4q.2,0,.2-.1c0-.1-.1-.1-.1-.1h-.1v.2Z"/></svg>