<?xml version="1.0" encoding="UTF-8"?><svg id="layer" xmlns="http://www.w3.org/2000/svg" viewBox="0 0 600 124.5"><defs><style>.cls-1{fill:#ef4229;}</style></defs><path class="cls-1" d="M98.6,86.7c-2.7,0-4.4-1.1-5.4-2.7V39.6c1.7-1.3,3.7-2.2,6.2-2.2,8.5,0,10.9,11,10.9,23.6-.1,18.7-5.3,25.7-11.7,25.7Zm10.3-59.5c-6.5,0-11.9,2.9-15.8,7.5l-.5-6.2h-22.8l-.1,96h23.5v-32.1c3.2,2.7,7.8,4.3,12.7,4.3,15.7,0,27.5-14.7,27.5-34.8,0-18.6-7.9-34.7-24.5-34.7Zm261,1.5h23.4V95.2h-23.4V28.7Zm-6.2,12.3c0,7.7-4.4,13-11.6,13s-10.8-5.1-10.8-10c0-1.7,.6-4.9,2.3-7.4-2.9-1.6-11.2,1.8-14.1,11.4v47.1h-23.4V28.6h23l.3,11.1c4.2-7.9,10.6-12.5,18.5-12.5,10.3,0,15.8,6.5,15.8,13.8Zm-90.4-12.3h23.4V95.2h-23.4v-14.7c-2.4,6.5-8,16.3-20.1,16.3s-18.6-9.9-18.6-20.5V38.3c0-5-1.4-7.5-3.2-8.3v-1.3h26.6v40.8c0,10.1,4.5,10.8,7.2,10.8,3.7,0,6.5-3.2,8.1-7.8V28.7h0Zm326.7,44.9c0,13.4-12,22.9-29.1,22.9-9,0-17.6-4.5-22.5-4.5-3.5,0-4.4,1-4.4,1l-.8-18.4h2.1c9.4,12.5,15.9,17.9,25.6,17.9,6.3,0,11.6-3.1,11.6-8.5,0-5.8-5.2-7.2-12.7-9-20.3-5.2-26-14-26-25.9,0-13.1,11.5-22.1,25.8-22.1,4.9,0,9.5,1,13,2.2,2.2,.7,8.4,3.4,12.6,3.1v17.8h-2c-7.9-11.6-14.8-19.2-23.5-19.2-5.5,0-8.6,3.4-8.6,7.8,0,5.4,5.1,6.9,14.2,9.5,16.4,5.2,24.7,11.5,24.7,25.4Zm-87.5-44.9h23.4V95.2h-23.4v-14.7c-2.4,6.5-8,16.3-20.1,16.3s-18.6-9.9-18.6-20.5V38.3c0-5-1.4-7.5-3.2-8.3v-1.3h26.7v40.8c0,10.1,4.5,10.8,7.2,10.8,3.7,0,6.5-3.2,8.1-7.8V28.7h-.1Zm-79.2,63.7c-6.8,0-9.2-9.2-9.2-30.6s2.5-30.6,9.2-30.6,9.2,9.2,9.2,30.6-2.5,30.6-9.2,30.6Zm0-65.2c-21.2,0-33.4,15.5-33.4,34.6s12.3,34.6,33.4,34.6,33.3-15.5,33.3-34.6c.1-19.1-12.2-34.6-33.3-34.6Zm-293.2,1.5h23.4V95.2h-23.4V28.7Zm87.3,44.4l1.5,.5c-1.7,8.8-9.8,23-28.1,23-20.7,0-30.6-16.1-30.6-34.7,0-20,13.1-34.8,32.7-34.8,14.5,0,23.4,7.7,23.4,16.1,0,5.1-3.8,9.2-9.5,9.2-4.1,0-8.3-3.8-8.3-8.5s2.9-7.5,6.4-8c-1.2-2.2-3.2-3.8-7-3.8-6.4,0-13.6,7.9-13.6,27.1,0,12.5,6.1,23.6,18.5,23.6,9.9-.1,14.6-9.7,14.6-9.7h0ZM370.1,10.6c0-5.9,5.1-10.6,11.5-10.6s11.5,4.7,11.5,10.6-5.1,10.6-11.5,10.6-11.5-4.7-11.5-10.6Zm-229.8,0c0-5.9,5.1-10.6,11.5-10.6s11.5,4.7,11.5,10.6-5.1,10.6-11.5,10.6-11.5-4.7-11.5-10.6ZM26.3,63.1c-2.1-14.4,2.1-30.2,7.9-30.2s8.4,11.9,8.5,25.7l-16.4,4.5Zm7.6-35.8C12.6,27.3,0,43.5,0,62c0,11.1,4.4,21.3,12.4,27.7,5.2,4.5,12.1,7.3,20.5,7.3,21.8,0,29.1-17.9,30.1-23h-.1c0-.1,0-.2,.1-.3l-1.5-.5s-7.3,9.6-18.2,9.6c-3.4,0-6.7-1.2-9.4-3.1-3.2-2.6-5.5-6.6-6.3-10.7l36.7-10.6v-.3c-.9-18-13.6-30.8-30.4-30.8Z"/></svg>