<?xml version="1.0" encoding="UTF-8"?><svg id="a" xmlns="http://www.w3.org/2000/svg" viewBox="0 0 512 126.18"><defs><style>.b{fill:#c00;}</style></defs><path class="b" d="M16.13,0H126.22l-4.63,36.04H11.64L16.13,0Zm-6.59,49.23H119.91l-3.37,29.31H47.68l-1.82,14.02H114.86l-4.35,33.52H0L9.54,49.23Zm118.51-13.18s.7-12.34,3.79-18.65c2.95-6.03,6.73-10.38,13.18-14.02,3.79-2.1,10.66-3.37,10.66-3.37h198.31s8.27,.14,11.92,1.54c3.79,1.54,9.4,3.93,12.34,11.08,2.95,6.87,2.24,9.12,2.24,15.99s-.14,7.29-.14,7.29H128.05v.14Zm-1.82,13.46h101.54s8.98,0,13.18,2.52c4.35,2.95,6.31,6.45,7.57,11.92,1.26,5.61-2.24,33.66-4.21,40.53-2.24,6.73-4.77,13.04-15.29,18.23-9.4,4.77-23.7,3.23-23.7,3.23H117.67l5.19-33.52h82.05l1.68-14.17h-56.66s-9.26,1.26-17.81-6.17c-5.19-4.49-5.89-11.36-6.17-14.31-.28-1.68,.28-8.27,.28-8.27Zm131.98,0h119.77s-1.12,13.88-4.35,18.79c-3.23,5.05-6.17,7.85-11.64,9.12-5.61,1.26-13.88,1.26-13.88,1.26h-52.03l-5.47,47.4h-41.79l9.4-76.58Zm127.91-13.18h124.4s2.38-10.94,1.12-17.67c-1.26-6.87-4.35-11.5-9.4-14.73-6.59-4.63-18.79-3.79-18.65-3.79h-92.42l-5.05,36.18Zm-1.68,13.18h41.23l-9.4,76.44h-40.95l9.12-76.44Zm82.89,.42h40.81l-9.4,76.16h-40.67l9.26-76.16Z"/></svg>