<?xml version="1.0" encoding="utf-8"?>
<!-- Generator: Adobe Illustrator 26.3.1, SVG Export Plug-In . SVG Version: 6.00 Build 0)  -->
<svg version="1.1" id="layer" xmlns="http://www.w3.org/2000/svg" xmlns:xlink="http://www.w3.org/1999/xlink" x="0px" y="0px"
	 viewBox="0 0 600 78.6" style="enable-background:new 0 0 600 78.6;" xml:space="preserve">
<path d="M0,1.5v75.6h17.3V47.4h27.3V32.8H17V16.1h32.3V1.5H0z M443.7,77.1h17V1.5h-17V77.1z M492,1.5l28.9,47.8V1.5h16.2v75.6h-15.9
	l-29.9-47.8v47.8h-16.2V1.5H492z M549.4,1.5v75.6H600V62.5h-33.6v-17h27.7V32h-27.7V16.1h32.4V1.5H549.4z M87.8,14.6
	c11,0,16.4,9.7,16.4,24.7S98.8,64,87.8,64s-16.4-9.7-16.4-24.7C71.3,24.3,76.8,14.6,87.8,14.6 M53.8,39.3c0,21.4,10,39.3,34,39.3
	s34-17.9,34-39.3S111.8,0,87.8,0S53.8,17.9,53.8,39.3 M221.1,16.1h3.7c15.6,0,22.4,5.9,22.4,23.2s-6.8,23.2-22.4,23.2h-3.7V16.1z
	 M204.1,77.1h18.8c25.7,0,41.5-10.9,41.5-37.8S248.6,1.5,222.9,1.5h-18.8L204.1,77.1L204.1,77.1z M353.7,1.5l12.4,50.8l14.6-50.8
	h13.1l14.1,50.8l12-50.8h16.2l-20.3,75.6h-14.5l-14.7-47.3L372,77.2h-15.1L337.1,1.6h16.6V1.5z M162.8,14.6c11,0,16.4,9.7,16.4,24.7
	S173.8,64,162.8,64s-16.4-9.7-16.4-24.7S151.8,14.6,162.8,14.6 M128.9,39.3c0,21.4,10,39.3,34,39.3s34-17.9,34-39.3S186.9,0,162.9,0
	S128.9,17.9,128.9,39.3"/>
<g transform="translate(220.845 14.32)">
	<path d="M78.1,51c6.6,0,11.6-3.1,13.7-5.2c-4.4-3.7-12-11.1-14-13.3s-7-7.7-8.8-10.3c-3.3,2.3-6.2,6.2-6.2,12.4
		C62.9,44.4,69.7,51,78.1,51 M75.5,55.5c-15.1,0-20.3-10.4-20.3-17.2c0-9.1,6.9-15.7,12.3-18.6c-3.1-4.2-3.8-7.4-3.9-10.9
		c0-6.1,5.8-14.3,17.8-14.3c3.9,0,7.3,0.8,9.4,1.8c1.1,0.5,1.2,1,1.2,2c0,2.5-0.5,8.3-0.7,9.5s-0.5,1.3-0.9,1.3s-0.5-0.3-0.5-1.5
		c0-2-0.5-4.6-2.3-6.6c-1.6-1.8-4.3-3.5-8.2-3.5S70.3,0.1,70.3,7s5.4,12.3,12.6,20.2c2.6,3,12.2,11.7,14.2,13.5
		c1.9-2.6,3.8-7.7,3.8-12.4c0-1.2-0.3-2.6-1.5-3.7c-1-1-2.6-1.2-3.8-1.2c-0.5,0-0.9-0.2-0.9-0.6c0-0.5,0.6-0.7,1.2-0.7
		c1.9,0,5,0.1,9.3,0.5c1.3,0.2,2,0.7,2,1.6c0,6.1-3.7,13.7-7.7,18.4c5.2,4.3,8.6,6.4,10.8,7.7c2.5,1.5,6.6,2.9,8.8,2.9
		c0.7,0,1.1,0.1,1.1,0.6c0,0.4-0.6,0.6-1.8,0.6h-6.8c-7.3,0-9.6-0.7-17.3-6.7C92.2,49.8,86.5,55.5,75.5,55.5"/>
</g>
</svg>
