<?xml version="1.0" encoding="UTF-8"?><svg id="layer" xmlns="http://www.w3.org/2000/svg" viewBox="0 0 600.1 136.2"><g><polygon points="0 106.6 23.3 106.6 23.3 45.6 0 45.6 0 106.6"/><g><polygon points="34.3 65.6 48.7 65.6 48.7 56 34.3 56 34.3 65.6"/><polygon points="28.6 97 53 97 53 62.9 28.6 62.9 28.6 97"/><polygon points="27.2 106.6 54.4 106.6 54.4 95.6 27.2 95.6 27.2 105.2 27.2 106.6"/></g><g><polygon points="58.3 106.6 89.8 106.6 89.8 33.6 58.3 33.6 58.3 106.6"/><polygon points="61.6 36.9 87.4 36.9 87.4 27.4 61.6 27.4 61.6 36.9"/><polygon points="68.7 31.4 77.4 31.4 77.4 24.6 68.7 24.6 68.7 31.4"/><polygon points="73 43.7 75.9 43.7 75.9 5.5 73 5.5 73 43.7"/></g><polyline points="94.6 0 126.1 16.2 126.1 106.6 94.6 106.6 94.6 0"/><g><polygon points="128.9 106.6 147.5 106.6 147.5 57.4 128.9 57.4 128.9 106.6"/><polygon points="133.2 57.5 144.7 57.5 144.7 53.3 133.2 53.3 133.2 57.5"/></g></g><g><path d="M196.2,78.7c0,3.9,1.8,6.4,6,6.4s5.9-2.5,5.9-6.4-1.7-6.4-5.9-6.4c-4.2,.1-6,2.6-6,6.4Zm6.2,36.4c-5.5,0-8.3,1.4-8.3,4.7s2.8,4.7,8.3,4.7,8.4-1.4,8.4-4.7c-.1-3.3-2.8-4.7-8.4-4.7Zm23.8-40.7h-6.2c.2,1.5,.3,2.9,.4,4.4,0,12.2-6.3,18.3-18.2,18.3h-2.6c-1.8,.1-3.2,1.6-3.1,3.4v.1c-.2,1.6,.9,3,2.5,3.2h3.4c13.8,0,20.9,5.6,20.9,16.1s-7.1,16.3-20.9,16.3-20.9-5.8-20.9-16.3c-.3-4.7,1.7-9.2,5.4-12.1-1.4-2.2-2.1-4.7-2.1-7.3-.2-3.2,1-6.3,3.2-8.6-3-3.7-4.5-8.4-4.2-13.2,0-12.1,6.4-18.3,18.3-18.3h24v14h.1Z"/><path d="M248.7,85.7c0,8,2.4,12,8,12s7.9-3.9,7.9-12-2.4-12-7.9-12-8,3.9-8,12Zm8,25.3c-14.5,0-22.3-8.4-22.3-25.2s7.8-25.2,22.3-25.2,22.3,8.4,22.3,25.2-7.8,25.2-22.3,25.2Z"/><path d="M303.7,74.4v10.8c0,10.6,0,13.6,6.4,13.6,2-.1,3.9-.8,5.5-2v11.1c-3.1,1.8-6.5,2.8-10.1,2.9-13.4,0-15.1-7-15.1-22v-14.5h-7.3v-13.6h7.4v-11.2l13.2-5.8v17.1h11.9v13.6h-11.9"/><path d="M337.8,111h-14.1V37.2l14.1-6V63.8c3.9-2.2,8.1-3.6,12.6-4.1,10.7,0,14,7.4,14,17.5v33.8h-14.1v-30.3c0-5-2.1-6.7-5-6.7-2.6,.3-5.1,1.3-7.3,2.9v34"/><path d="M401,77.2c-1.6-2.3-4.2-3.6-7-3.6-5.5,0-7.4,4.3-7.4,12.2s1.9,12.1,7.4,12.1c2.8,0,5.4-1.3,7-3.6v-17.1Zm14.2-16.7v36.1c0,4.5,1.1,5.5,3.4,5.5,.9,0,1.8-.3,2.6-.7v6.8c-2.9,1.7-6.2,2.6-9.5,2.7-3.2,.1-6.3-1.4-8.3-3.9-3.2,2.5-7.1,3.8-11.1,3.8-13,0-19.6-9-19.6-25.2s6.7-25.2,19.6-25.2c4.4,0,8.7,1.6,11.9,4.6l11-4.5Z"/><path d="M442.8,111h-13.4v-44.8l13.4-5.6v5.8c3.4-2.2,7.2-3.6,11.2-4,4.1-.3,8.1,1.9,10.1,5.5,3.9-3,8.5-4.9,13.4-5.5,9.6,0,12.5,7,12.5,16.6v32.1h-13.2v-28.9c0-5-1.8-6.3-4.3-6.3-2.3,.3-4.4,1.3-6.1,2.9v32.3h-13.4v-28.9c0-5-1.8-6.3-4.3-6.3-2.3,.3-4.4,1.3-6.1,2.9l.2,32.2"/><path d="M514.7,58v53h-8.1V61.5l8.1-3.5Zm-8.1-13.1h8.1v-9.6h-8.1v9.6Z"/><path d="M531,96.9c3.5,4.3,8.6,7,14.1,7.4,4.2,0,7.9-1.7,7.9-7.2s-4.4-7-8.3-8.4c-6.2-2.4-13.7-5.6-13.7-15.1-.2-7.1,5.5-13,12.6-13.2,.5,0,1.1,0,1.6,.1,4-.1,7.9,.9,11.3,2.9v7.6c-3.2-2.5-7.2-3.9-11.3-3.9s-7.9,1.8-7.9,6.5,3.5,6,7.3,7.4c6.2,2.4,14.7,6.2,14.7,16.3,.5,7.1-4.9,13.3-12,13.8-.8,.1-1.5,0-2.3,0-5.2,0-10.2-2-14.1-5.5v-8.7"/><path d="M583.2,67.2v23.2c0,10.7,1.9,13.2,8.9,13.2,2.8-.3,5.5-1,8-2.2v7c-3.1,1.4-6.4,2.2-9.7,2.5-12.5,0-14.7-8-14.7-20.4v-23.2h-8.2v-6.5h8.1v-13.7l7.6-3.4v17.1h16.8v6.5h-16.8"/></g></svg>