<?xml version="1.0" encoding="UTF-8"?><svg id="a" xmlns="http://www.w3.org/2000/svg" viewBox="0 0 365.5 150.51"><polygon points="67 57.25 41 57.25 41 1.25 0 1.25 0 149.25 41 149.25 41 94.25 67 94.25 67 149.25 108 149.25 108 1.25 67 1.25 67 57.25"/><path d="M359.58,45.95c-5.73-13.53-15.24-24.98-27.24-33.09-6-4.05-12.63-7.27-19.72-9.48C305.54,1.18,298,0,290.25,0c-10.34,0-20.28,2.11-29.3,5.92-13.53,5.73-24.98,15.24-33.09,27.24-2.33,3.44-4.37,7.1-6.11,10.93,.11-1.56,.17-3.34,.17-5.06C221.92,7.54,189.92,1.25,178.68,1.25h-62.68V149.25h65.27s38.92,1.49,38.92-43.49c0-1.06-.03-2.2-.09-3.18,.27,.7,.53,1.34,.82,2.03,5.73,13.53,15.24,24.95,27.24,33.06,6,4.05,12.63,7.26,19.72,9.46,7.08,2.2,14.62,3.38,22.37,3.38,10.34,0,20.28-2.11,29.3-5.93,13.53-5.73,24.98-15.24,33.09-27.24,4.05-6,7.27-12.63,9.48-19.72,2.2-7.08,3.39-14.62,3.39-22.37,0-10.34-2.11-20.28-5.92-29.3ZM174.35,114.25h-21.35v-23h21.35s8.65,.26,8.65,10.64c0,11.24-8.65,12.36-8.65,12.36Zm0-55h-21.35v-22h21.35s8.65-.2,8.65,10.44-8.65,11.56-8.65,11.56Zm25.95,14.53c5.23-.95,11.24-3.66,15.59-10.11-.59,3.78-.89,7.65-.89,11.58,0,4.01,.32,7.95,.93,11.81-7.26-12.78-20.79-12.32-15.64-13.28Zm124.23,15.94c-2.81,6.65-7.55,12.37-13.5,16.38-2.97,2.01-6.24,3.59-9.71,4.67-3.48,1.08-7.17,1.67-11.07,1.67-5.19,0-10.03-1.04-14.47-2.91-6.65-2.81-12.37-7.55-16.38-13.5-2.01-2.97-3.59-6.24-4.67-9.71-1.08-3.48-1.67-7.17-1.67-11.07,0-5.19,1.04-10.03,2.91-14.47,2.81-6.65,7.55-12.37,13.5-16.38,2.97-2.01,6.24-3.59,9.71-4.67,3.48-1.08,7.17-1.67,11.07-1.67,5.19,0,10.03,1.04,14.47,2.91,6.65,2.81,12.37,7.55,16.38,13.5,2.01,2.97,3.59,6.24,4.67,9.71,1.08,3.48,1.67,7.17,1.67,11.07,0,5.19-1.04,10.03-2.91,14.47Z"/><circle cx="290.25" cy="75.25" r="30.27"/></svg>