<?xml version="1.0" encoding="UTF-8"?><svg id="a" xmlns="http://www.w3.org/2000/svg" viewBox="0 0 365 85.52"><defs><style>.b{fill:#ff1817;}</style></defs><polygon class="b" points="212.46 77.69 213.62 73.88 204.6 73.88 205.7 70.35 216.68 70.35 217.85 66.49 201.57 66.49 195.85 85.24 212.13 85.24 213.3 81.39 202.29 81.39 203.43 77.69 212.46 77.69"/><path class="b" d="M189.45,66.49h-9.89l-5.72,18.75h5.28l1.96-6.44h3.69l2.74,6.44h5.6l-3.33-6.93c3.17-.6,5.12-2.21,5.91-4.86l.14-.45c1.2-3.95-1.26-6.51-6.38-6.51m1.03,6.08l-.04,.17c-.59,1.88-1.95,2.52-4.1,2.52h-4.18l1.61-5.24h4.59c1.97,0,2.64,.89,2.13,2.55"/><path class="b" d="M274.62,66.49h-9.89l-5.72,18.75h5.28l1.96-6.44h3.69l2.74,6.44h5.6l-3.33-6.93c3.17-.6,5.12-2.21,5.91-4.86l.14-.45c1.2-3.95-1.26-6.51-6.38-6.51m1.03,6.08l-.04,.17c-.59,1.88-1.95,2.52-4.1,2.52h-4.18l1.61-5.24h4.59c1.97,0,2.64,.89,2.13,2.55"/><polygon class="b" points="316.53 77.69 317.69 73.88 308.67 73.88 309.77 70.35 320.75 70.35 321.92 66.49 305.64 66.49 299.92 85.24 316.2 85.24 317.38 81.39 306.36 81.39 307.5 77.69 316.53 77.69"/><path class="b" d="M231.04,66.49h-9.23l-5.71,18.75h5.28l1.79-5.9h5.44c5.18,0,7.75-1.73,8.91-5.52l.2-.67c1.15-3.75-.72-6.67-6.68-6.67m1.27,6.39l-.13,.41c-.54,1.78-1.88,2.52-4.12,2.52h-3.81l1.77-5.8h4.1c2.23,0,2.82,.79,2.19,2.86"/><polygon class="b" points="301.52 70.35 302.69 66.5 284.5 66.5 283.32 70.35 289.9 70.35 285.34 85.24 290.66 85.24 295.21 70.35 301.52 70.35"/><path class="b" d="M335.66,66.49h-9.89l-5.72,18.75h5.28l1.96-6.44h3.62l2.81,6.44h5.6l-3.33-6.93c3.16-.6,5.11-2.21,5.9-4.86l.14-.45c1.2-3.95-1.26-6.51-6.38-6.51m1.03,6.08l-.04,.17c-.59,1.88-1.95,2.52-4.1,2.52h-4.18l1.61-5.24h4.59c1.97,0,2.64,.89,2.13,2.55"/><path class="b" d="M251.09,66.09c-6.44,0-9.86,2.34-11.5,7.71l-.51,1.66c-2.01,6.57,1.75,9.76,7.6,9.76,6.44,0,9.86-2.34,11.5-7.71l.49-1.66c2.01-6.58-1.75-9.77-7.59-9.77m2.72,8.57l-.79,2.55c-.83,2.71-2.32,4.06-5.37,4.06-3.34,0-4.54-1.78-3.69-4.6l.79-2.55c.83-2.71,2.33-4.06,5.36-4.06,3.35,0,4.55,1.79,3.7,4.61"/><polygon class="b" points="194.53 3.38 195.49 .26 183.94 .26 179.54 14.7 191.08 14.7 192.04 11.58 184.64 11.58 185.42 9.04 191.28 9.04 192.22 5.95 186.37 5.95 187.17 3.38 194.53 3.38"/><polygon class="b" points="164.88 3.38 165.83 .26 152.78 .26 151.84 3.38 156.5 3.38 153.04 14.7 157.19 14.7 160.64 3.38 164.88 3.38"/><polygon class="b" points="176.83 .26 175.15 5.78 170.38 5.78 172.06 .26 167.9 .26 163.49 14.7 167.65 14.7 169.44 8.86 174.22 8.86 172.43 14.7 176.59 14.7 180.99 .26 176.83 .26"/><path class="b" d="M261.61,18.9c-12.37,0-22.98,12.89-22.98,26.13,0,9.74,6.8,16.52,14.19,16.52,12.37,0,22.98-12.9,22.98-26.14,0-9.74-6.81-16.51-14.2-16.51m-3.36,38.92c-1.69,1.69-3.59,2.81-6.11,2.81-3.59,0-6.18-2.2-6.18-8.95,0-7.8,4.08-22.89,10.23-29.05,1.68-1.69,3.59-2.81,6.1-2.81,3.59,0,6.18,2.2,6.18,8.95,0,7.8-4.08,22.89-10.23,29.05"/><path class="b" d="M83.02,18.9c-12.37,0-22.98,12.89-22.98,26.13,0,9.74,6.8,16.52,14.19,16.52,12.37,0,22.98-12.9,22.98-26.14,0-9.74-6.81-16.51-14.2-16.51m-3.36,38.92c-1.69,1.69-3.59,2.81-6.11,2.81-3.59,0-6.18-2.2-6.18-8.95,0-7.8,4.08-22.89,10.23-29.05,1.68-1.69,3.59-2.81,6.1-2.81,3.59,0,6.18,2.2,6.18,8.95,0,7.8-4.08,22.89-10.23,29.05"/><path class="b" d="M301.03,18.9c-12.37,0-22.98,12.89-22.98,26.13,0,9.74,6.8,16.52,14.19,16.52,12.37,0,22.98-12.9,22.98-26.14,0-9.74-6.81-16.51-14.2-16.51m-3.36,38.92c-1.69,1.69-3.59,2.81-6.11,2.81-3.59,0-6.18-2.2-6.18-8.95,0-7.8,4.08-22.89,10.23-29.05,1.68-1.69,3.59-2.81,6.1-2.81,3.59,0,6.18,2.2,6.18,8.95,0,7.8-4.08,22.89-10.23,29.05"/><path class="b" d="M232.23,19.14c-2.77,0-4.67,2.24-4.67,4.65s2.16,4.53,4.58,4.53c2.17,0,3.85-1.48,4.35-3.09,.18,.96,.25,1.97,.25,3.02,0,13.94-11.92,31.77-20.65,31.77-2.91,0-4.93-1.81-2.19-9.69l9.36-30.37h-8.52l-6.05,19.71c-4.42,14.1-10.98,20.35-14.84,20.35-2.69,0-4.31-1.95-2.23-8.7l9.5-31.37-.22-.27c-1.56,.13-5.16,.27-9.47,.27h-5.07l-.56,.53,.29,.34h6.2l-7.85,25.73c-3.01,9.78,1.54,15,8.28,15,4.77,0,9.89-5.28,13.54-13.31-1.66,8.17,2.3,13.31,8.2,13.31,12.32,0,23.43-20.19,23.43-33.67,0-6.51-2.43-8.74-5.67-8.74"/><polygon class="b" points="57.68 59.64 49.72 59.64 67.57 1.13 74.88 1.13 75.44 .6 75.14 .26 51.35 .26 50.79 .79 51.08 1.13 58.43 1.13 49.71 29.71 26.14 29.71 34.86 1.13 41.55 1.13 42.11 .6 41.81 .26 18.02 .26 17.46 .79 17.76 1.13 25.71 1.13 7.87 59.64 .56 59.64 0 60.16 .29 60.51 24.09 60.51 24.65 59.98 24.35 59.64 17.01 59.64 25.88 30.58 49.45 30.58 40.59 59.64 33.89 59.64 33.33 60.16 33.62 60.51 57.42 60.51 57.98 59.98 57.68 59.64"/><path class="b" d="M117.46,46.14l-.44,.3c-4.96,11.41-7.72,13.22-9.51,13.22s-2.73-1.26-.94-7.28L122.45,.26,122.24,0c-1.56,.12-5.15,.26-9.46,.26h-5.07l-.56,.53,.29,.34h6.2l-14.51,47.56c-2.37,8.71,.88,12.86,6.5,12.86,3.5,0,7.05-2.34,12.2-14.85l-.38-.56Z"/><path class="b" d="M139.17,46.14l-.44,.3c-4.96,11.41-7.72,13.22-9.51,13.22s-2.73-1.26-.94-7.28L144.16,.26l-.22-.26c-1.56,.12-5.15,.26-9.46,.26h-5.07l-.56,.53,.29,.34h6.2l-14.51,47.56c-2.37,8.71,.88,12.86,6.5,12.86,3.49,0,7.05-2.34,12.2-14.85l-.38-.56Z"/><path class="b" d="M168.28,37.42c-5.08,16.67-11.61,22.59-15.64,22.59-2.72,0-4.13-2.17-2.54-7.65l9.76-32.42-.21-.26c-1.55,.12-5.16,.26-9.47,.26h-5.07l-.56,.53,.3,.34h6.2l-7.87,25.67c-3,10.01,1.64,15.06,8.32,15.06,4.58,0,9.5-4.41,13.4-12.88l-6.47,20.97c-3.52,11.71-7.68,14.98-12.16,14.98-4.75,0-8.25-1.66-9.77-4.25,.69,.63,1.78,1.09,3,1.09,2.74-.09,4.79-2.18,4.79-4.86s-2.09-4.83-4.76-4.83-4.89,2.15-4.89,5.31c0,4.79,4.75,8.44,11.52,8.44,8.6,0,17.32-4.26,21.81-19.03l14.2-46.54h-8.52l-5.35,17.48Z"/><path class="b" d="M365,.26l-.22-.26c-1.55,.12-5.15,.26-9.46,.26h-5.07l-.55,.53,.29,.34h6.2l-7.95,26.14c-.2-5.13-3.32-8.37-7.81-8.37-11.19,0-23.19,14.09-23.19,27.48,0,10.5,5.86,15.17,11.24,15.17,4.67,0,9.52-3.66,13-10.88-1.36,7.49,1.85,10.88,6.71,10.88,3.5,0,7.05-2.34,12.21-14.85l-.39-.56-.44,.3c-4.96,11.41-7.72,13.22-9.51,13.22s-2.73-1.26-.94-7.28L365,.26Zm-18.42,32.56l-2.7,8.78c-4.68,15.35-11.18,19.03-14.78,19.03-3.22,0-4.47-2.31-4.47-7.68,0-15.04,9.76-32.99,17.1-32.99,3.71,0,7.22,4.98,4.86,12.86"/></svg>