<?xml version="1.0" encoding="utf-8"?>
<!-- Generator: Adobe Illustrator 26.2.1, SVG Export Plug-In . SVG Version: 6.00 Build 0)  -->
<svg version="1.1" id="layer" xmlns="http://www.w3.org/2000/svg" xmlns:xlink="http://www.w3.org/1999/xlink" x="0px" y="0px"
	 viewBox="0 0 600 74.9" style="enable-background:new 0 0 600 74.9;" xml:space="preserve">
<path d="M44.7,1.8v27.4h-29V1.8H0v71.5h15.7V42.4h28.9v30.9h15.7V1.8H44.7z M119,1.8l-16.6,28.3L85.6,1.8H68l26.2,43.7v27.9H110V46
	l26.5-44.1H119V1.8z M176.5,1.8c3.9-0.1,7.8,0.6,11.4,2c2.9,1.1,5.5,2.9,7.7,5.2c1.9,2.1,3.4,4.6,4.3,7.3c1.8,5.5,1.8,11.5,0,17
	c-0.9,2.7-2.4,5.2-4.3,7.4c-2.2,2.3-4.8,4-7.7,5.2c-3.6,1.4-7.5,2-11.4,1.9H160v25.6h-15.7V1.8H176.5z M172.2,35.4
	c1.7,0,3.5-0.1,5.2-0.4c1.6-0.2,3.1-0.8,4.4-1.6c1.3-0.8,2.3-1.9,3.1-3.3c0.8-1.7,1.2-3.6,1.1-5.5c0.1-1.9-0.3-3.8-1.1-5.5
	c-0.7-1.3-1.8-2.5-3.1-3.2c-1.4-0.8-2.9-1.3-4.4-1.6c-1.7-0.3-3.5-0.4-5.2-0.4H160v21.4L172.2,35.4L172.2,35.4z M263.8,1.8V15H226
	v15.3h34.7v12.2H226V60h38.6v13.2h-54.3V1.8H263.8z M308.4,1.8c3.1,0,6.3,0.3,9.3,0.9c2.5,0.5,5,1.5,7.1,2.9c2,1.4,3.6,3.3,4.7,5.5
	c1.2,2.6,1.8,5.5,1.7,8.4c0.1,3.2-0.7,6.4-2.4,9c-1.8,2.6-4.3,4.6-7.2,5.9c4,0.9,7.5,3.3,9.9,6.6c2.2,3.4,3.4,7.4,3.3,11.5
	c0.1,3.3-0.7,6.5-2.1,9.4c-1.4,2.6-3.3,4.8-5.7,6.5c-2.5,1.7-5.2,3-8.1,3.7c-3.1,0.8-6.2,1.2-9.4,1.2h-34.7V1.8H308.4z M306.4,30.7
	c2.5,0.1,4.9-0.6,6.9-2c1.9-1.6,3-4,2.8-6.5c0.1-1.4-0.3-2.8-0.9-4.1c-0.6-1-1.4-1.9-2.4-2.5c-1.1-0.6-2.2-1.1-3.5-1.3
	c-1.3-0.2-2.7-0.3-4.1-0.3h-14.7v16.7H306.4L306.4,30.7z M307.3,61.1c1.5,0,3-0.1,4.4-0.4c1.3-0.3,2.6-0.8,3.7-1.5s1.9-1.7,2.5-2.9
	c0.7-1.4,1-3,0.9-4.6c0-3.7-1-6.3-3.1-7.9c-2.4-1.7-5.3-2.5-8.2-2.3h-17.1v19.6H307.3z M397.4,1.8V15h-37.8v15.3h34.7v12.2h-34.7V60
	h38.6v13.2h-54.3V1.8H397.4z M447.3,1.8l26.8,71.5h-16.3l-5.4-15.9h-26.8L420,73.3h-15.8l27-71.5H447.3z M448.2,45.7l-8.9-26.2h-0.2
	l-9.3,26.2H448.2z M492.9,55.7c0.8,1.6,2.1,3,3.6,4.1s3.3,1.9,5.1,2.3c2,0.5,4,0.8,6,0.7c1.5,0,3-0.1,4.5-0.3
	c1.6-0.2,3.1-0.7,4.5-1.4c1.4-0.6,2.6-1.6,3.6-2.8c1-1.3,1.5-2.9,1.4-4.5c0.1-1.7-0.6-3.4-1.8-4.7c-1.4-1.3-3.1-2.3-4.9-3
	c-2.2-0.9-4.5-1.6-6.8-2.1c-2.6-0.6-5.1-1.3-7.7-2c-2.7-0.7-5.3-1.5-7.8-2.4c-2.4-0.9-4.7-2.2-6.8-3.8c-4.4-3.3-6.9-8.6-6.7-14.1
	c-0.1-3.3,0.7-6.6,2.4-9.6c1.5-2.7,3.5-5,6-6.8c2.6-1.8,5.5-3.2,8.6-4c3.1-0.9,6.4-1.3,9.6-1.3c3.6,0,7.2,0.4,10.7,1.2
	c3.3,0.8,6.4,2.1,9.2,4c2.6,1.9,4.8,4.3,6.4,7.1c1.7,3.3,2.5,7,2.4,10.7H519c0-1.9-0.5-3.7-1.3-5.4c-0.7-1.3-1.8-2.5-3.1-3.3
	c-1.3-0.9-2.8-1.5-4.4-1.8c-1.8-0.3-3.6-0.5-5.4-0.5c-1.3,0-2.5,0.1-3.8,0.4c-1.2,0.3-2.4,0.7-3.4,1.4c-1,0.7-1.9,1.5-2.6,2.5
	c-0.7,1.1-1.1,2.5-1,3.8c-0.1,1.2,0.2,2.4,0.8,3.4c0.8,1.1,1.9,1.9,3.2,2.4c2.1,0.9,4.3,1.7,6.5,2.2c2.8,0.8,6.4,1.7,10.9,2.8
	c1.3,0.3,3.2,0.8,5.6,1.5c2.5,0.8,4.9,1.9,7.1,3.4c2.4,1.6,4.5,3.7,6.1,6.2c1.8,3,2.7,6.4,2.5,9.9c0,3.1-0.6,6.3-1.9,9.1
	c-1.3,2.8-3.2,5.3-5.7,7.3c-2.8,2.2-6,3.8-9.4,4.8c-4.2,1.2-8.5,1.8-12.9,1.8c-3.9,0-7.7-0.5-11.5-1.4c-3.5-0.9-6.9-2.4-9.8-4.6
	c-2.8-2.1-5.2-4.8-6.8-7.9c-1.7-3.5-2.6-7.5-2.4-11.4h15.2C491.5,51.8,491.9,53.9,492.9,55.7 M541.4,15V1.8H600V15h-21.4v58.3h-15.7
	V15H541.4z"/>
</svg>
