<?xml version="1.0" encoding="UTF-8"?><svg id="a" xmlns="http://www.w3.org/2000/svg" viewBox="0 0 102 35.24"><defs><style>.b{fill-rule:evenodd;}</style></defs><path class="b" d="M0,0V8.12H4.53V27.05H0v7.55H24.07v-7.55h-4.53V8.12h4.53V0H0M25.34,11.89v3.77h3.39v11.38h-3.39v7.55h18.81v-7.55h-3.59l.02-3.64c.01-3.22,.02-3.67,.08-3.92,.49-1.98,1.79-3.26,3.75-3.68,.5-.11,1.62-.1,2.15,.01,1.39,.3,2.28,1.09,2.62,2.32l.09,.33,.02,8.59h-3.51v7.55h18.4v-7.41l.29,.55c1.34,2.57,3.68,4.61,6.77,5.9,2.76,1.16,6.17,1.72,9.59,1.57,1.61-.07,2.69-.19,3.9-.44,3.67-.76,6.36-2.49,7.98-5.13,.83-1.36,1.54-3.51,1.55-4.69v-.11h-10.12v.24c0,.35-.11,.96-.25,1.33-.44,1.22-1.38,2.02-2.77,2.38-.48,.13-1.56,.18-2.13,.1-.75-.1-1.47-.37-1.95-.73-.26-.19-.67-.61-.84-.87-.45-.67-.77-1.63-.93-2.82-.22-1.62-.17-4.63,.1-6.06,.11-.62,.34-1.3,.59-1.76,.55-1.04,1.36-1.64,2.57-1.93,.41-.09,.54-.11,1.25-.11,.7,0,.84,0,1.16,.09,1.87,.48,2.76,1.98,3.01,5.05,.02,.33,.05,.62,.06,.62,0,.01,1.13-.11,7.66-.83l2.44-.27c.07,0-.12-1.23-.33-2.08-1.08-4.3-4.25-7.23-9.1-8.4-1.84-.44-3.62-.6-5.81-.5-1.93,.09-3.29,.28-4.9,.69-4.73,1.2-8.19,3.83-9.79,7.46-.96,2.17-1.29,4.81-.92,7.39,.14,.96,.44,2.09,.81,2.99l.09,.22h-3.02v-5.26c0-5.23-.01-5.77-.15-6.58-.53-3.19-2.52-5.32-5.87-6.28-1.11-.31-2.18-.47-3.58-.53-3.19-.13-5.75,.44-7.85,1.76-.9,.56-1.55,1.11-2.38,1.99l-.82,.88-.28,.29v-5.2h-14.85v3.77Zm71.57,14.33c-.87,.19-1.53,.53-2.15,1.13-.91,.87-1.37,2.04-1.31,3.29,.11,2,1.51,3.59,3.52,4.01,.31,.07,1.2,.07,1.51,0,1.38-.29,2.47-1.1,3.07-2.31,.84-1.68,.49-3.69-.86-4.99-.63-.6-1.29-.95-2.17-1.13-.36-.08-1.25-.07-1.61,0Z"/></svg>