<?xml version="1.0" encoding="UTF-8"?><svg id="a" xmlns="http://www.w3.org/2000/svg" viewBox="0 0 820.2 499.93"><defs><style>.b{fill:#0c6bed;}</style></defs><path class="b" d="M21.8,343.03v35H9.8v-35H0v-12.4H32.4v12.4h-10.6Zm46.1,16.8h-12v18.2h-12.4v-47.4h12v16.8h12v-16.8h12v47.4h-12c.4,0,.4-18.2,.4-18.2Zm25.2-29.2h31.5v12.4h-19.5v5.3h16.8v11.1h-16.8v6.2h19.5v12.4h-31.5v-47.4h0Zm58.1,79.8v-19.1h12v-42.1h-12v-18.6h42.1v18.6h-12v42.1h12v19.1h-42.1Zm73.2,0h-18.2v-79.8h16.4l25.7,44.3v-44.3h18.6v79.8h-16.4l-25.7-43.9v43.9h-.4Zm145.8-14.2h-23.5l-4,14.2h-19l21.7-79.8h26.6l21.7,79.8h-19.1l-4.4-14.2Zm-19.1-17.8h14.7l-7.1-29.7-7.6,29.7Zm101.1-7.9v-39.9h18.2v43.9c0,13.7,2.7,18.6,9.8,18.6,6.6,0,9.8-4.9,9.8-18.6v-43.9h18.6v39.5c0,30.6-6.6,41.7-27.9,41.7-21.8,.3-28.5-11.2-28.5-41.3Zm186.2,39.9v-19.1h12v-42.1h-12v-18.6h42.1v18.6h-12v42.1h12v19.1h-42.1Zm49.2-41.3c0-25.3,12-40.3,30.6-40.3s30.6,15.1,30.6,40.3-8.4,42.6-30.6,42.6-30.6-17.3-30.6-42.6Zm42.1,0c0-13.3-4-21.3-11.5-21.3s-11.5,8-11.5,21.3c0,15.5,3.5,23.5,11.5,23.5s11.5-8,11.5-23.5Zm47.9,41.3h-18.6v-79.8h16.4l26.6,44.3v-44.3h18.2v79.8h-16.4l-26.6-44.3c0-.1,.4,44.3,.4,44.3Zm-451.3-61.2l4.9-18.6h-51.4v79.8h18.2v-29.7h19.9l4.9-18.6h-24.9v-12.9h28.4Zm59-18.6l4.9,18.6h14.2v61.2h18.2v-61.2h17.2v-18.6h-54.5Zm173.7,65.6h-23.5l-4,14.2h-19.1l21.7-79.8h26.7l21.7,79.8h-19.1c.1,0-4.4-14.2-4.4-14.2Zm-19-17.8h14.6l-7.1-29.7-7.5,29.7Zm31.9-47.8l5.3,18.6h13.7v61.2h18.2v-61.2h17.3v-18.6h-54.5ZM9.4,391.33H124.7v19.1H9.4v-19.1Z"/><g><path class="b" d="M457.1,85.03c-14.2,2.7-22.6,19.5-19.1,38.6s16.8,31.9,31,29.3c14.2-2.7,22.6-19.5,19.1-38.6-3.1-19.1-16.8-32-31-29.3Zm9.3,51.8c-4.4,.9-11.1-6.2-12.9-16.4s1.8-19.1,6.2-19.9c4.4-.9,11.1,6.2,12.9,16.4s-1.8,19.1-6.2,19.9Z"/><path class="b" d="M496.1,50.83c-14.6-15.1-31.5-21.7-48.3-19.1-16.8,3.1-61.2,20.8-98.4,41.2-29.7,16.8-50.5,32.4-62.1,47.4-.9,1.3-2.2,2.2-4,2.2l-20.8,4c-3.5,.4-7.5-.4-9.8-3.1-7.1-8.9-18.2-12.4-28.8-9.3-12.4,3.5-19.9,15.1-19.5,27.9,.4,6.6,3.1,12.9,7.5,17.3,1.8,2.2,2.7,4.9,1.3,7.5-4,8.4-3.1,18.2,2.2,26.2,5.3,8,14.2,12.4,23.9,12,1.3,0,2.2,0,3.5-.4,9.8-1.8,17.7-8.4,20.8-18.2,.9-3.1,4-5.8,8-6.2l20.4-3.5c1.8-.4,3.1,.9,3.5,2.7,7.1,32.4,20.4,61.6,38.1,86,.9,1.3,3.1,1.8,4.4,.4l27.5-21.7,3.5-2.7c6.2-4.9,4-15.1-3.5-16.8l-12-3.1c-1.8-.4-3.1-1.8-4-3.1-3.1-5.8-5.8-12-8-18.6-.9-2.2,1.3-4.9,3.5-4.4,8,1.8,16.8,3.5,26.2,4.9,41.7,6.6,89.5,8,106.4,4.9s30.6-15.1,39-34.1c8-18.2,10.2-40.3,6.2-62.9-3.2-22.8-13-43.2-26.7-57.4Zm-220.3,112.6l-6.6,.9c-9.4,1.8-17.4,8.4-20.5,17.3-1.3,4.4-5.3,7.5-9.8,7.5-5.3,.4-9.8-2.7-11.5-8-.9-3.5-.4-6.2,.4-8,4-8.9,2.2-18.6-4.4-25.3-1.3-1.3-3.1-3.5-3.1-7.1-.4-5.3,2.7-9.8,8-11.5,.4,0,.9,0,1.3-.4,4-.9,8,.9,10.6,4,5.8,7.5,15.1,10.6,24.8,9.3l6.2-1.3,6.6,4.4-4.4,6.6,6.6,4.4-4.2,7.2h0Zm199.9,28c-25.7,4.4-51.9-24.4-59-64.3-7.1-39.9,8-76.2,33.7-80.7s51.9,24.4,59,64.3c7.1,39.9-8,76.2-33.7,80.7Zm156.1-99.3l-35,6.2,13.7-19.5c1.8-2.2-.4-5.3-3.1-4.9l-61.2,10.2c-3.5,.4-6.2,4.4-4.9,8,.9,3.1,4.4,5.3,7.5,4.4l34.6-6.2-13.7,19.5c-1.8,2.2,.4,5.3,3.1,4.9l60.7-10.6c3.1-.4,5.8-3.5,5.3-6.6,0-3.7-3.5-6.3-7-5.4h0Zm-107.3-49.2l30.6-17.7-6.2,23.1c-.9,2.7,2.2,4.9,4.9,3.5l53.2-31c2.7-1.8,4.4-5.3,2.7-8.4-1.8-3.5-5.8-4.9-8.9-3.1l-31,17.7,6.2-23.1c.9-2.7-2.2-4.9-4.9-3.5l-53.6,31c-3.1,1.8-4,6.2-1.8,9.3,2.1,3,6.1,3.9,8.8,2.2h0Zm105,137.4l-35-6.2,19.5-13.7c2.2-1.8,1.3-5.3-1.3-5.8l-60.7-10.6c-3.5-.4-7.1,2.2-7.5,5.8-.4,3.5,2.2,6.2,5.3,6.6l34.6,6.2-19.6,13.7c-2.2,1.8-1.3,5.3,1.3,5.8l60.7,10.6c3.1,.4,6.6-1.3,7.5-4.4,1-3.6-1.2-7.1-4.8-8Z"/></g><path d="M69.2,487.53l-9.3-16.8h8l3.1,6.6c.9,1.8,1.8,4,1.8,4,0,0,.9-2.2,1.8-4l3.1-6.6h8l-9.3,16.8v11.5h-7.1c-.1,0-.1-11.5-.1-11.5Zm36.4-17.3c8.4,0,15.1,6.2,15.1,14.6s-6.2,15.1-15.1,15.1c-8.4,0-15.1-6.6-15.1-15.1,.4-8.4,6.6-14.6,15.1-14.6Zm0,23.1c4.4,0,7.5-3.5,7.5-8.4s-3.5-8-7.5-8-7.5,3.5-7.5,8,3.5,8.4,7.5,8.4Zm23.9-22.7h7.1v18.2c0,3.1,1.8,4.4,4.9,4.4s4.9-1.8,4.9-4.4v-18.2h7.1v18.2c0,6.6-4.9,11.1-12,11.1s-12-4.4-12-11.1v-18.2Zm34.6,0h9.8c3.1,0,4.4,0,5.8,.9,3.1,1.3,5.3,4,5.3,8.4,0,3.1-1.3,6.2-4.4,8,0,0,.4,.4,.9,1.8l5.8,10.2h-8l-4.9-9.8h-3.1v9.8h-7.1v-29.3h-.1Zm10.2,12.9c2.2,0,3.5-1.3,3.5-3.5s-.9-3.5-4.4-3.5h-2.2v7.1l3.1-.1h0Zm35-12.9h9.8c3.1,0,4.4,0,5.8,.9,3.1,1.3,5.3,4,5.3,8.4,0,3.1-1.3,6.2-4.4,8,0,0,.4,.4,.9,1.8l5.8,10.2h-8l-4.9-9.8h-3.1v9.8h-7.1v-29.3h-.1Zm10.2,12.9c2.2,0,3.5-1.3,3.5-3.5s-.9-3.5-4.4-3.5h-2.2v7.1l3.1-.1h0Zm21.7-12.9h17.7v5.8h-11v5.3h8.9v6.2h-8.9v5.3h11.5v6.2h-18.2v-28.8Zm29.3,19.6s3.1,3.1,6.6,3.1c1.3,0,3.1-.4,3.1-2.2,0-3.5-12.9-3.1-12.9-12,0-5.3,4.4-8.9,10.2-8.9,6.2,0,9.3,3.1,9.3,3.1l-3.1,5.8s-2.7-2.7-6.2-2.7c-1.3,0-3.1,.4-3.1,2.2,0,3.5,12.9,3.1,12.9,12,0,4.9-3.5,8.9-10.2,8.9s-10.2-4-10.2-4l3.6-5.3Zm31.4-13.8h-8.9v-5.8h24.4v5.8h-8.9v22.6h-7.1v-22.6h.5Zm36.4,16.4h-8.9l-1.8,6.2h-7.1l9.8-28.4h7.5l9.8,28.4h-7.1l-2.2-6.2Zm-4.4-15.9s-.4,3.1-1.3,4.9l-1.8,5.8h5.8l-1.8-5.8c-.5-1.8-.9-4.9-.9-4.9Zm20.3-6.3h7.1v18.2c0,3.1,1.8,4.4,4.9,4.4s4.9-1.8,4.9-4.4v-18.2h7.1v18.2c0,6.6-4.9,11.1-12,11.1s-12-4.4-12-11.1v-18.2Zm34.6,0h9.8c3.1,0,4.4,0,5.8,.9,3.1,1.3,5.3,4,5.3,8.4,0,3.1-1.3,6.2-4.4,8,0,0,.4,.4,.9,1.8l5.8,10.2h-8l-4.9-9.8h-3.5v9.8h-7.1v-29.3h.3Zm9.8,12.9c2.2,0,3.5-1.3,3.5-3.5s-.9-3.5-4.4-3.5h-2.2v7.1l3.1-.1h0Zm36.3,9.3h-8.9l-1.8,6.2h-7.1l9.8-28.4h7.5l9.8,28.4h-7.1l-2.2-6.2Zm-4.9-15.9s-.4,3.1-1.3,4.9l-1.8,5.8h5.8l-1.8-5.8c0-1.8-.4-4.9-.9-4.9Zm21.3-6.3h7.1l8,13.3c1.3,1.8,2.2,4.9,2.2,4.9,0,0-.4-3.1-.4-4.9v-13.3h7.1v28.4h-7.1l-8-13.3c-1.3-1.8-2.2-4.9-2.2-4.9,0,0,.4,3.1,.4,4.9v13.3h-7.1v-28.4Zm40.8,5.8h-8.9v-5.8h24.4v5.8h-8.8v22.6h-7.1v-22.6h.4Zm37.2-5.8h10.2c8.9,0,14.6,5.3,14.6,14.2s-5.8,14.2-14.6,14.2h-10.2v-28.4h0Zm9.8,22.2c4.9,0,8-2.7,8-8.4,0-5.3-3.1-8.4-8-8.4h-2.7v16.4h2.7v.4Zm24.4-22.2h17.7v5.8h-11.1v5.3h8.9v6.2h-8.9v5.3h11.5v6.2h-18.6v-28.8h.5Zm40.8-.4c7.1,0,10.6,4,10.6,4l-3.1,5.3s-3.1-3.1-7.1-3.1c-5.3,0-8,4-8,8,0,4.4,2.7,8.4,8,8.4,4.4,0,7.5-3.5,7.5-3.5l3.5,5.3s-4,4.9-11.5,4.9c-8.9,0-15.1-6.2-15.1-14.6s6.7-14.7,15.2-14.7h0Zm19.9,.4h7.1v28.4h-7.1v-28.4Zm18.2,0h10.2c8.9,0,14.6,5.3,14.6,14.2s-5.8,14.2-14.6,14.2h-10.2v-28.4h0Zm9.7,22.2c4.9,0,8-2.7,8-8.4,0-5.3-3.1-8.4-8-8.4h-2.7v16.4h2.7v.4Zm24.4-22.2h17.7v5.8h-10.6v5.3h8.9v6.2h-8.9v5.3h11.5v6.2h-18.6v-28.8Zm28,0h9.8c3.1,0,4.4,0,5.8,.9,3.1,1.3,5.3,4,5.3,8.4,0,3.1-1.3,6.2-4.4,8,0,0,.4,.4,.9,1.8l5.8,10.2h-8l-4.9-9.8h-3.1v9.8h-7.1v-29.3h-.1Zm10.1,12.9c2.2,0,3.5-1.3,3.5-3.5s-.9-3.5-4.4-3.5h-2.2v7.1l3.1-.1h0Z"/></svg>