<?xml version="1.0" encoding="UTF-8"?><svg id="a" xmlns="http://www.w3.org/2000/svg" viewBox="0 0 79.91 86.59"><defs><style>.b{fill:#d14334;}</style></defs><path class="b" d="M79.7,78.36l-2.4-12.2-4.8-31s-2.7-18.2-3.3-22c-.6-3.8-1.8-7.3-1.9-7.6-.2-.3-.3-.6-.9-1.3-.7-.7-1.3-.1-1.5,0-.3,.1-.6,1-.6,1-.2,1-.6,2.5-.9,4.3-.8,4.3-1.2,7.6-1.4,9.9-.5,4.7-1.1,9.9-1.5,12.8-.5,4.5-1.2,10-2.4,16.8-.7,4-1.8,9.7-1.9,9.6-.2-.2-.2-.3-.2-.3l-1.5-8.8-2.6-15.5S47,3.66,46.7,2.56s-.8-2-1.7-2.1c-.8-.1-1.3,.7-1.4,1.1-.1,.4-.6,2.9-.6,2.9,0,0-1.9,10.4-2.3,12-.3,1.5-1.9,11.7-2.1,12.9-.2,1.3-3.6,19.3-3.6,19.3l-2.1,9.6s-1-7.6-1.2-9.7c-.2-2.1-1.9-13-1.9-13,0,0-2.4-12.8-2.8-16.2-.3-3.5-1.4-9.1-1.4-9.1,0,0-1.6-6.3-2-7.8s-.8-2.1-.8-2.1c-.4-.6-1-.3-1.4-.2-.4,.2-.9,1.5-.9,1.5,0,0-2,5.8-2.2,6.7-.3,.9-3.9,12.1-3.9,12.1,0,0-3,10.9-3.2,11.6-.2,.6-2.6,11.9-2.9,13s-3.9,15.3-3.9,15.3c0,0-2.5,11.7-2.9,13.7-.4,2.1-1.5,9.7-1.5,10.5s.1,.8,.3,1.4,1.8,.5,3.4,.6,5.2-.1,8-.1c2.7-.1,6.1-.5,6.1-.5,0,0,13.9-1.4,14.8-1.5,.9-.1,18.8-1.3,19.8-1.4s12.1-.8,15.1-.9,9.2-1,11.2-1.2c1.9-.3,1-2.6,1-2.6M63.6,22.36s1.3-10.3,1.5-11,.8-4,.8-4c0,0,.9,3.5,1.3,5.6s1.9,12.5,1.9,12.5l.7,4.4-6.9,.5,.7-8Zm8.9,57.4c-1.3,.1-14.1,.8-14.1,.8,0,0-15,1.1-18.1,1.3-3.1,.2-22.3,1.9-22.3,1.9,0,0-7.5,.8-9.8,.8H2.6s-.6-.1-.6-.4,.2-2.7,.6-5.3c.4-2.5,3.8-18.3,3.8-18.3,0,0,4.4-18.1,4.8-19.4,.4-1.3,3.9-16.1,4.4-17.8,.6-1.7,4.3-13.4,4.3-13.4l1.9-5.9,.7,2.2-3.1,11.6-5.5,21.4s-6.4,26.2-6.9,29.1c-.5,2.9-2.6,11.6-2.6,11.6,0,0-.2,1.8-.2,2s.8,.2,.8,.2c0,0,2.7-.3,3.1-.2,.4,0,6.2,0,9.5-.2s21.5-1.4,22.5-1.5c1.1-.1,30.4-2.1,30.4-2.1,0,0,5.8-.5,6.1-.6,.3-.1,.5-.1,.5-.1l.5,1.6c.1-.1-3.8,.6-5.1,.7"/></svg>