<?xml version="1.0" encoding="UTF-8"?><svg id="layer" xmlns="http://www.w3.org/2000/svg" viewBox="0 0 600.1 298.92"><defs><style>.cls-1{fill:#0a57fa;}</style></defs><path class="cls-1" d="M10.6,282.2c0,2.6,1.3,5,3.5,6.5,2.2,1.3,4.7,1.9,7.3,1.8,1.1,0,2.2-.1,3.4-.2s2.4-.4,3.6-.9c1.1-.4,2-1,2.7-1.9s1.1-2.1,1-3.3c0-1.3-.6-2.5-1.5-3.4-1-.9-2.3-1.6-3.6-2.1-1.6-.6-3.3-1-5-1.3-1.8-.3-3.7-.8-5.7-1.2s-3.8-1-5.7-1.5c-1.7-.6-3.4-1.4-4.9-2.5s-2.7-2.5-3.5-4.1c-.9-1.9-1.3-4-1.3-6.1-.1-2.3,.6-4.6,1.9-6.5,1.3-1.8,2.9-3.2,4.8-4.3,2-1.1,4.2-1.8,6.5-2.2,2.2-.4,4.5-.6,6.8-.6s4.7,.3,7.1,.8c2.2,.5,4.2,1.3,6.1,2.5,3.9,2.5,6.4,6.7,6.8,11.3h-11c-.3-2.2-1.6-4.1-3.5-5.1-2-.9-4.1-1.3-6.2-1.3-.9,0-1.8,.1-2.7,.2-1,.1-1.9,.4-2.9,.7-.9,.3-1.6,.8-2.2,1.5s-1,1.6-.9,2.5c0,1.2,.4,2.3,1.3,3.1,1,.9,2.2,1.5,3.5,2,1.6,.6,3.3,1,5,1.3,1.8,.3,3.8,.8,5.7,1.2,1.9,.4,3.8,1,5.7,1.5,1.8,.6,3.4,1.4,5,2.5,1.4,1.1,2.6,2.4,3.5,4,1,1.8,1.4,3.9,1.3,5.9,.1,2.5-.6,5.1-2,7.2-1.3,1.9-3,3.6-5,4.8-2.1,1.3-4.4,2.2-6.9,2.7-2.5,.6-5,.8-7.5,.8-2.8,0-5.7-.3-8.4-1-2.4-.6-4.6-1.6-6.6-3.1-1.9-1.3-3.4-3.1-4.4-5.2-1.1-2.3-1.7-4.8-1.7-7.3H10.5l.1,.3h0Zm61.9,16.6c-3.5,.1-7-.6-10.2-1.9-2.9-1.2-5.5-3-7.6-5.2-2.1-2.3-3.7-5-4.7-8-1.1-3.3-1.6-6.7-1.6-10.1s.5-6.8,1.6-10.1c1-3,2.6-5.7,4.7-8,2.1-2.3,4.7-4,7.6-5.2,3.2-1.3,6.7-2,10.2-1.9,3.5-.1,7,.6,10.2,1.9,2.9,1.2,5.5,3,7.6,5.2,2.1,2.3,3.7,5,4.7,8,2.1,6.6,2.1,13.6,0,20.2-1,3-2.6,5.7-4.7,8s-4.7,4-7.6,5.2c-3.2,1.4-6.7,2-10.2,1.9Zm0-8.3c2.1,.1,4.2-.5,6.1-1.5,1.7-1,3.2-2.3,4.3-3.9,1.1-1.6,2-3.5,2.4-5.4,1-4,1-8.2,0-12.2-.5-1.9-1.3-3.8-2.4-5.4s-2.6-2.9-4.3-3.8c-1.9-1-4-1.5-6.1-1.5-2.1-.1-4.2,.5-6.1,1.5-1.7,.9-3.2,2.3-4.3,3.8-1.2,1.6-2,3.4-2.4,5.4-.5,2-.8,4-.8,6.1s.3,4.1,.8,6.2c.5,1.9,1.3,3.8,2.4,5.4s2.6,2.9,4.3,3.9c1.9,1,4,1.5,6.1,1.4h0Zm33.3-53.8h10.5v62.1h-10.5v-62.1Zm30.2,39.7c0,1.8,.3,3.6,.8,5.4,.5,1.7,1.3,3.2,2.4,4.5s2.5,2.4,4,3.1c1.8,.8,3.8,1.2,5.7,1.2,2.6,.1,5.2-.5,7.4-2,2-1.5,3.5-3.6,4.2-5.9h10c-.5,2.5-1.5,4.8-2.9,6.9-1.3,2-3,3.7-4.9,5.1s-4.1,2.5-6.4,3.1c-2.4,.7-4.9,1.1-7.4,1-3.4,.1-6.8-.6-10-1.8-2.8-1.2-5.3-2.9-7.3-5.2s-3.6-5-4.5-8c-1.1-3.3-1.6-6.7-1.5-10.1,0-3.3,.5-6.5,1.6-9.7,1-3,2.6-5.7,4.6-8,2-2.3,4.5-4.2,7.3-5.5,3-1.4,6.3-2.1,9.6-2,3.5-.1,7,.7,10.1,2.4,2.9,1.5,5.4,3.6,7.4,6.2,2,2.7,3.5,5.7,4.3,9,.9,3.4,1.1,6.9,.7,10.4h-35v-.1h-.2Zm24.5-7c-.1-1.6-.5-3.3-1-4.8s-1.3-2.8-2.4-4c-1-1.2-2.3-2.1-3.7-2.8-1.5-.7-3.2-1.1-4.8-1-1.7,0-3.4,.3-5,1-1.5,.6-2.8,1.5-3.9,2.7-1.1,1.2-2,2.5-2.6,4-.6,1.6-1,3.3-1,5l24.4-.1h0Zm67.2-3.6c-.2-2.6-1.5-5-3.6-6.7-2.1-1.6-4.7-2.4-7.3-2.2-1.5,0-2.9,.2-4.3,.7-1.6,.5-3.1,1.4-4.3,2.6-1.4,1.5-2.5,3.3-3.2,5.2-.9,2.8-1.4,5.8-1.3,8.8,0,2,.2,4,.7,5.9,.4,1.9,1.2,3.6,2.2,5.2,1,1.5,2.4,2.8,3.9,3.8,1.8,1,3.8,1.5,5.8,1.4,2.8,.1,5.6-.9,7.6-2.9,2.1-2.2,3.5-5,3.8-8h10.6c-.6,5.4-3.1,10.5-7.1,14.3-4.1,3.5-9.4,5.2-14.8,5-3.4,.1-6.8-.6-9.9-1.9-5.6-2.4-9.9-7.2-11.7-13-1.1-3.2-1.6-6.5-1.5-9.8,0-3.4,.5-6.8,1.5-10.1,.9-3,2.4-5.8,4.4-8.2,2-2.3,4.5-4.2,7.3-5.5,3.2-1.4,6.8-2,10.3-2,2.7,0,5.3,.3,7.9,1,2.4,.6,4.7,1.7,6.6,3.2,2,1.4,3.6,3.3,4.8,5.4,1.3,2.4,2.1,5,2.2,7.7l-10.6,.1h0Zm41,33c-3.5,.1-7-.6-10.2-1.9-2.9-1.2-5.5-3-7.6-5.2-2.1-2.3-3.7-5-4.7-8-1.1-3.3-1.6-6.7-1.6-10.1s.5-6.8,1.6-10.1c1-3,2.6-5.7,4.7-8,2.1-2.3,4.7-4,7.6-5.2,6.6-2.5,13.8-2.5,20.4,0,2.9,1.2,5.5,3,7.6,5.2,2.1,2.3,3.7,5,4.7,8,2.1,6.6,2.1,13.6,0,20.2-1,3-2.6,5.7-4.7,8s-4.7,4-7.6,5.2c-3.2,1.4-6.7,2-10.2,1.9Zm0-8.3c2.1,.1,4.2-.5,6.1-1.5,1.7-1,3.2-2.3,4.3-3.9,1.1-1.6,2-3.5,2.4-5.4,1-4,1-8.2,0-12.2-.5-1.9-1.3-3.8-2.4-5.4s-2.6-2.9-4.3-3.8c-1.9-1-4-1.5-6.1-1.5-2.1-.1-4.2,.5-6.1,1.5-1.7,.9-3.2,2.3-4.3,3.8-1.2,1.6-2,3.4-2.4,5.4-.5,2-.8,4-.8,6.1s.3,4.1,.8,6.2c.5,1.9,1.3,3.8,2.4,5.4s2.6,2.9,4.3,3.9c1.9,1,4,1.5,6.1,1.4h0Zm33.2-53.8h10.6v62.1h-10.6v-62.1Zm22.3,0h10.5v62.1h-10.6v-62.1h.1Zm30.2,39.7c0,1.8,.3,3.6,.8,5.4,.5,1.7,1.3,3.2,2.4,4.5s2.5,2.4,4,3.1c1.8,.8,3.8,1.2,5.7,1.2,2.6,.1,5.2-.5,7.4-2,2-1.5,3.5-3.6,4.2-5.9h10c-.5,2.5-1.5,4.8-2.9,6.9-1.3,2-3,3.7-4.9,5.1s-4.1,2.5-6.4,3.1c-2.4,.7-4.9,1.1-7.4,1-3.4,.1-6.8-.6-10-1.8-2.8-1.2-5.3-2.9-7.3-5.2s-3.6-5-4.5-8c-1.1-3.3-1.6-6.7-1.5-10.1,0-3.3,.5-6.5,1.6-9.7,1-3,2.6-5.7,4.6-8,2-2.3,4.5-4.2,7.3-5.5,3-1.4,6.3-2.1,9.6-2,3.5-.1,7,.7,10.1,2.4,2.9,1.5,5.4,3.6,7.4,6.2,2,2.7,3.5,5.7,4.3,9,.9,3.4,1.1,6.9,.7,10.4h-35v-.1h-.2Zm24.5-7c-.1-1.6-.5-3.3-1-4.8s-1.3-2.8-2.4-4c-1-1.2-2.3-2.1-3.7-2.8-1.5-.7-3.2-1.1-4.8-1-1.7,0-3.4,.3-5,1-1.5,.6-2.8,1.5-3.9,2.7s-2,2.5-2.6,4c-.6,1.6-1,3.3-1,5l24.4-.1h0Zm50.9-3.6c-.2-2.6-1.5-5-3.6-6.7-2.1-1.6-4.7-2.4-7.3-2.2-1.5,0-2.9,.2-4.3,.7-1.6,.5-3.1,1.4-4.3,2.6-1.4,1.5-2.5,3.3-3.2,5.2-.9,2.8-1.4,5.8-1.3,8.8,0,2,.2,4,.7,5.9,.4,1.9,1.2,3.6,2.2,5.2,1,1.5,2.4,2.8,3.9,3.8,1.8,1,3.8,1.5,5.8,1.4,2.8,.1,5.6-.9,7.6-2.9,2.1-2.2,3.5-5,3.8-8h10.6c-.6,5.4-3.1,10.5-7.1,14.3-4.1,3.4-9.4,5.2-14.8,5-3.4,.1-6.8-.6-9.9-1.9-5.6-2.4-9.9-7.2-11.7-13-1.1-3.2-1.6-6.5-1.5-9.8,0-3.4,.5-6.8,1.5-10.1,.9-3,2.4-5.8,4.4-8.2,2-2.3,4.5-4.2,7.3-5.5,3.2-1.4,6.8-2,10.3-2,2.7,0,5.3,.3,7.9,1,2.4,.6,4.7,1.7,6.6,3.2,2,1.4,3.6,3.3,4.8,5.4,1.3,2.4,2.1,5,2.2,7.7l-10.6,.1h0Zm14.3-15.2h8v-14.3h10.6v14.3h9.5v7.8h-9.5v25.5c0,1.1,.1,2.1,.1,2.9,0,.7,.3,1.4,.6,2,.4,.6,.9,1,1.5,1.3,.9,.3,1.8,.5,2.8,.4,.8,0,1.5,0,2.2-.1,.8,0,1.5-.1,2.2-.3v8.1c-1.2,.1-2.3,.3-3.4,.3-1.1,.1-2.3,.2-3.4,.2-2.3,.1-4.5-.2-6.7-.8-1.5-.4-2.9-1.2-4-2.3-1-1.1-1.7-2.4-2-3.8-.4-1.7-.6-3.5-.6-5.2v-28.2h-8l.1-7.8h0Zm57.5,48.2c-3.5,.1-7-.6-10.2-1.9-2.9-1.2-5.5-3-7.6-5.2-2.1-2.3-3.7-5-4.7-8-1.1-3.3-1.6-6.7-1.6-10.1s.5-6.8,1.6-10.1c1-3,2.6-5.7,4.7-8,2.1-2.3,4.7-4,7.6-5.2,6.6-2.5,13.8-2.5,20.4,0,2.9,1.2,5.5,3,7.6,5.2,2.1,2.3,3.7,5,4.7,8,2.1,6.6,2.1,13.6,0,20.2-1,3-2.6,5.7-4.7,8-2.1,2.3-4.7,4-7.6,5.2-3.2,1.4-6.7,2-10.2,1.9Zm0-8.3c2.1,.1,4.2-.5,6.1-1.5,1.7-1,3.2-2.3,4.3-3.9s2-3.5,2.4-5.4c1-4,1-8.2,0-12.2-.5-1.9-1.3-3.8-2.4-5.4-1.1-1.6-2.6-2.9-4.3-3.8-1.9-1-4-1.5-6.1-1.5-2.1-.1-4.2,.5-6.1,1.5-1.7,.9-3.2,2.3-4.3,3.8-1.2,1.6-2,3.4-2.4,5.4-.5,2-.8,4-.8,6.1s.3,4.1,.8,6.2c.5,1.9,1.3,3.8,2.4,5.4,1.1,1.6,2.6,2.9,4.3,3.9,1.9,1,4,1.5,6.1,1.4h0Zm32.9-39.5h9.9v9.2h.2c.3-1.4,.9-2.7,1.8-3.8,.9-1.3,2-2.4,3.2-3.4,1.3-1,2.7-1.9,4.2-2.4,1.5-.6,3.1-.9,4.7-.9,.8,0,1.7,0,2.5,.1,.5,.1,.9,.1,1.4,.2v10.1c-.8-.1-1.5-.2-2.2-.3-.8-.1-1.5-.1-2.2-.1-1.7,0-3.5,.3-5,1-1.6,.7-3,1.8-4.1,3.1-1.2,1.5-2.2,3.2-2.8,5.1-.7,2.3-1.1,4.6-1,7v22.8h-10.4l-.2-47.7ZM281.3,0c-59.6,0-107.9,48.3-107.9,107.9s48.3,107.8,107.9,107.8h0c59.6,0,107.9-48.3,107.8-107.9,0-59.5-48.3-107.8-107.8-107.8h0Zm100.3,83c-.1-.1-.2-.3-.3-.4-.2-.3-.4-.7-.7-1-.1-.1-.2-.3-.3-.5-.2-.4-.5-.7-.8-1.1-.1-.2-.3-.4-.4-.6-.2-.3-.4-.6-.7-.9-.1-.2-.3-.4-.4-.6-.2-.3-.5-.6-.7-.9-.2-.2-.4-.5-.6-.7l-.6-.7-.6-.6c-.4-.4-.7-.8-1.1-1.2,0,0,0-.1-.1-.1-.4-.4-.7-.8-1.1-1.2l-.5-.5c-.4-.4-.8-.8-1.2-1.2l-.1-.1c-.4-.4-.9-.8-1.3-1.2-.1-.1-.2-.2-.4-.3-.5-.4-1-.9-1.5-1.3l-1.5-1.2-.3-.3-1.5-1.2c-1.2-1-2.6-1.9-3.9-2.8-.4-.3-.8-.6-1.2-.8-.9-.6-1.8-1.2-2.7-1.7-1.6-1-3.2-1.9-4.9-2.8-.6-.3-1.2-.7-1.8-1s-1.2-.7-1.9-1c-.3-.1-.6-.3-.8-.4-.7-.3-1.3-.6-2-.9h0c-.6-.2-1.1-.5-1.7-.7-.4-.2-.8-.4-1.2-.5-1.5-.7-3-1.3-4.5-1.9-7.7-19.9-19.1-34.9-32.2-43.2,37.2,9.4,66.2,38.4,75.5,75.5h0Zm-48.9-34.3c-.5-.2-1-.3-1.5-.5-1.9-.6-3.9-1.2-5.8-1.8-.6-.1-1.1-.3-1.7-.4-.6-.2-1.3-.3-1.8-.5-1.5-.4-3.2-.8-4.7-1.1-.6-.1-1.2-.2-1.7-.4-1.8-.4-3.5-.7-5.3-1l-2.1-.3c-.4-.1-.8-.1-1.2-.2-1.4-.2-2.8-.4-4.1-.6-2.1-11.6-6.1-27.9-12.4-36.4,16.9,4.1,32.2,19.6,42.3,43.2ZM281,4.5h.5c4.5,.4,11.4,10.3,16.4,36.9h-.1l-2-.2c-.7-.1-1.4-.1-2.1-.1-.7-.1-1.4-.1-2.1-.1-1.4-.1-2.8-.1-4.2-.2-.7,0-1.4-.1-2.1-.1h-8.4c-.7,0-1.4,.1-2.1,.1-1.4,.1-2.8,.1-4.2,.2-.7,0-1.4,.1-2.1,.1s-1.4,.1-2.1,.1l-2,.2h-.1c5.4-26.6,12.2-36.5,16.7-36.9h0Zm-21.1,37.4c-1.4,.1-2.8,.4-4.1,.6-.4,.1-.8,.1-1.2,.2l-2.1,.3c-1.8,.3-3.6,.7-5.3,1-.6,.1-1.2,.2-1.7,.4-1.6,.4-3.2,.7-4.7,1.1-.6,.1-1.2,.3-1.8,.5-.6,.1-1.1,.3-1.7,.4-2,.6-3.9,1.1-5.8,1.8-.5,.1-1,.3-1.5,.5,10-23.6,25.3-39.1,42.4-43.1-6.4,8.5-10.3,24.7-12.5,36.3Zm-3.5-34.3c-13.2,8.3-24.5,23.3-32.3,43.2-1.5,.6-3.1,1.2-4.5,1.9-.4,.1-.8,.3-1.2,.5-.6,.2-1.1,.5-1.7,.7h0c-.7,.3-1.3,.6-2,.9-.3,.1-.6,.3-.8,.4-.6,.3-1.2,.6-1.9,1s-1.2,.7-1.8,1c-1.7,.9-3.3,1.8-4.9,2.8-.9,.6-1.8,1.1-2.7,1.7-.4,.3-.8,.6-1.2,.8-1.3,.9-2.6,1.8-3.9,2.8-.5,.4-1,.7-1.5,1.2l-.3,.3-1.5,1.2c-.5,.4-1,.9-1.5,1.3-.1,.1-.2,.2-.4,.3-.4,.4-.9,.8-1.3,1.2l-.1,.1-1.2,1.2-.5,.5c-.4,.4-.7,.7-1.1,1.2l-.1,.1c-.4,.4-.7,.8-1.1,1.2l-.6,.6-.6,.7c-.2,.2-.4,.5-.6,.7-.3,.3-.5,.6-.7,.9-.1,.2-.3,.4-.4,.6-.2,.3-.4,.6-.7,.9-.1,.2-.3,.4-.4,.6-.3,.4-.5,.7-.8,1.1-.1,.1-.2,.3-.3,.5-.2,.3-.4,.7-.7,1-.1,.1-.2,.3-.3,.4,9.5-37.2,38.5-66.2,75.6-75.5h0Zm24.9,37.6c57,0,103.4,28.1,103.4,62.8s-46.4,62.7-103.4,62.7-103.4-28.2-103.4-62.8,46.4-62.7,103.4-62.7Zm-100.4,87.6c.1,.1,.2,.3,.3,.4,.2,.3,.4,.7,.6,1,.3,.5,.7,1,1,1.5l.6,.9c.2,.3,.4,.5,.6,.8,.1,.2,.3,.4,.4,.6,.2,.3,.5,.6,.7,.9,.2,.2,.4,.5,.6,.7l.6,.7,.6,.6c.3,.4,.6,.7,1,1,.4,.4,.7,.8,1.1,1.2l.8,.8,.9,.9c.4,.4,.8,.7,1.2,1.1,.4,.3,.7,.7,1.1,1,.4,.4,.9,.7,1.3,1.1,.5,.4,1,.9,1.6,1.3l.1,.1,1.5,1.2c1.2,1,2.6,1.9,3.9,2.8,.6,.4,1.3,.9,1.9,1.3,.7,.4,1.3,.9,2,1.2,1.3,.8,2.7,1.6,4,2.4,.4,.2,.9,.5,1.3,.7,.3,.1,.6,.3,.9,.4l1.2,.6c.4,.2,.7,.4,1,.5,.4,.2,.7,.4,1.1,.5,.4,.2,.7,.4,1,.5,.5,.2,1,.4,1.5,.7,.1,0,.2,.1,.2,.1l2,.9c.7,.3,1.4,.6,2.2,.9s1.6,.7,2.4,1c7.8,19.9,19.1,34.9,32.2,43.2-37.1-9.4-66.1-38.4-75.4-75.5h0Zm49,34.3l.9,.3c.6,.2,1.2,.4,1.8,.6,1.1,.4,2.2,.7,3.4,1,.6,.2,1.3,.4,1.9,.5,.8,.2,1.6,.4,2.4,.6s1.5,.4,2.4,.6c1,.2,1.9,.4,2.9,.7,.6,.1,1.2,.2,1.7,.4,1.6,.3,3.3,.7,4.9,.9,.5,.1,1.1,.2,1.6,.3,.4,.1,.9,.1,1.4,.2,1.5,.2,2.9,.4,4.4,.6,.1,0,.3,0,.4,.1,2.1,11.6,6.1,27.9,12.4,36.4-17.2-4.1-32.5-19.6-42.5-43.2h0Zm51.6,44.1h-.5c-4.5-.4-11.3-10.2-16.4-36.9h.2c.6,.1,1.1,.1,1.7,.1,2.4,.2,4.7,.4,7.1,.4l2.3,.1c.8,0,1.7,.1,2.5,.1h5.8c.8,0,1.7,0,2.5-.1l2.3-.1c2.4-.1,4.7-.2,7.1-.4,.6-.1,1.1-.1,1.7-.1h.2c-5.1,26.7-12,36.6-16.5,36.9Zm21.1-37.4c.1,0,.3,0,.4-.1,1.5-.2,2.9-.4,4.4-.6,.5-.1,.9-.1,1.4-.2s1.1-.2,1.6-.3c1.6-.3,3.3-.6,4.9-.9,.6-.1,1.2-.2,1.7-.4,1-.2,2-.4,2.9-.7,.8-.2,1.6-.4,2.4-.6s1.6-.4,2.4-.6c.7-.2,1.3-.4,1.9-.5,1.1-.3,2.3-.7,3.4-1,.6-.2,1.2-.4,1.8-.6l.9-.3c-10.1,23.6-25.4,39.1-42.5,43.1,6.3-8.4,10.3-24.7,12.4-36.3h0Zm3.5,34.5c13.2-8.3,24.5-23.3,32.3-43.2,.8-.3,1.6-.6,2.4-1,.7-.3,1.5-.6,2.2-.9s1.3-.6,2-.9c.1,0,.2-.1,.2-.1,.5-.2,1-.4,1.5-.7,.4-.1,.7-.3,1-.5,.4-.2,.7-.4,1.1-.5,.4-.2,.7-.3,1-.5l1.2-.6c.3-.1,.6-.3,.9-.4,.4-.2,.9-.4,1.3-.7,1.4-.7,2.7-1.5,4-2.4,.7-.4,1.3-.8,2-1.2s1.3-.9,1.9-1.3c1.3-.9,2.6-1.8,3.9-2.8l1.5-1.2s.1,0,.1-.1c.5-.4,1.1-.9,1.6-1.3,.4-.4,.9-.7,1.3-1.1,.4-.3,.7-.6,1.1-1s.8-.7,1.2-1.1l.9-.9,.8-.8c.4-.4,.7-.8,1.1-1.2,.3-.4,.7-.7,1-1l.6-.6,.6-.7c.2-.2,.4-.5,.6-.7,.3-.3,.5-.6,.7-.9,.1-.2,.3-.4,.4-.6,.2-.2,.4-.5,.6-.8l.6-.9c.4-.5,.7-1,1-1.5,.2-.3,.4-.6,.6-1,.1-.1,.2-.3,.3-.4-9.3,37.2-38.3,66.2-75.5,75.5h0Zm-23-149.5h-8.8c-43,0-51.6,14.8-51.6,28.9v1.2c0,13.5,9.1,24.7,37.9,27.3-4.1-7-3.4-15.9,1.8-22.2-7.9-1.5-9.1-4.3-9.1-7.1,0-4,1.7-8.2,24.6-8.2h2c24.7,0,26.9,7.6,27.4,11.3h30.8v-1.3c0-14.2-10.2-29.9-55-29.9Zm18.8,37c4.6,7,4.1,16.1-1,22.6,7.8,1.6,9.2,4.4,9.2,8.2,0,5.1-2.8,10.1-27.8,10.1h-1.8c-24.4,0-27.8-9.4-28.1-15h-30.9v1.4c0,12.5,5.7,33.9,55.4,33.9h8.8c47.6,0,55.5-16,55.5-31.7v-1.8c0-16.9-11.5-25.5-39.3-27.7Zm-27.6,10.1v.3c0,3,1.7,5.9,6.8,5.9h.1c6,0,6.9-3.2,7.1-4.1h9v.1c0,3.1-1.4,9.9-15,9.9h-2.2c-12.2,0-14.9-6.5-14.9-11.4v-.8c0-4.9,2.6-11.2,14.8-11.2h2.3c13.3,0,15,6.7,15,9.7v.1h-9.1c-.2-.9-1-4-7.1-4h-.1c-5,.1-6.7,2.8-6.7,5.5Zm0,0v.3c0,3,1.7,5.9,6.8,5.9h.1c6,0,6.9-3.2,7.1-4.1h9v.1c0,3.1-1.4,9.9-15,9.9h-2.2c-12.2,0-14.9-6.5-14.9-11.4v-.8c0-4.9,2.6-11.2,14.8-11.2h2.3c13.3,0,15,6.7,15,9.7v.1h-9.1c-.2-.9-1-4-7.1-4h-.1c-5,.1-6.7,2.8-6.7,5.5Zm294.2,176.6h13.1v2.4h-5.1v13.8h-2.8v-13.8h-5.1v-2.4h-.1Zm14.9,0h4l4.4,12.6h0l4.3-12.6h4v16.2h-2.7v-12.5h0l-4.4,12.5h-2.3l-4.4-12.5h0v12.5h-2.7l-.2-16.2h0Z"/></svg>