<?xml version="1.0" encoding="utf-8"?>
<!-- Generator: Adobe Illustrator 26.3.1, SVG Export Plug-In . SVG Version: 6.00 Build 0)  -->
<svg version="1.1" id="a" xmlns="http://www.w3.org/2000/svg" xmlns:xlink="http://www.w3.org/1999/xlink" x="0px" y="0px"
	 viewBox="0 0 387.4 81.4" style="enable-background:new 0 0 387.4 81.4;" xml:space="preserve">
<style type="text/css">
	.st0{fill-rule:evenodd;clip-rule:evenodd;}
</style>
<path class="st0" d="M123.4,4.4c6.9,0,13.5,0,20.4,0c3.5,0,7,0,10.2,1.4c2.1,0.9,3.9,2.6,4.7,4.7c0.8,2,0.7,4.1,0.7,6.2
	c0,3.6,0,7.3,0,10.9c-0.1,3.1-0.7,6.4-2.7,8.8c-0.8,1.1-2,1.9-3.2,2.4c1.6,0.3,2.8,1.7,3.7,3c1.5,2.3,2.3,5,2.3,7.8
	c0,10.2,0,20.4,0,30.5c-5.5,0-10.8,0-16.3,0c0-10.3,0-20.5,0-30.8c0-1-0.2-2.2-1-2.8c-0.8-0.6-1.8-0.5-2.7-0.3c0,11.3,0,22.6,0,33.9
	h-16.1C123.4,54.9,123.4,29.6,123.4,4.4L123.4,4.4L123.4,4.4z M10.6,8c1.7-2,5.1-2.7,8.6-3c4.2-0.4,9.7-0.3,13.9,0.1
	c1.7,0.2,3.3,0.5,4.4,0.9c2.2,0.8,3.7,1.9,4.7,4.5c1.3,3.2,1.3,7.8,1.2,11.2c0,2.8,0,6.1,0,8.8h-16c0-2.4,0-5.9,0-8.3
	c-0.1-1.4-0.2-2.8-0.9-4c-0.2-0.4-0.8-0.8-1.2-0.5c-0.6,0.4-0.9,1.2-1.1,1.9c-0.5,2-0.3,4.1-0.4,6.1c0.1,1.9,0,2.8,0.4,3.7
	c0.5,1.2,1.5,2.3,3.7,3.7c2.4,1.5,5.2,2.6,7.6,4c2.7,1.6,5.3,3.4,6.7,6.3c0.8,1.6,1.2,4.7,1.2,6.5c0,6.8,0,11.7,0,18.6
	c0,2.9-0.8,6.8-3,8.8c-1.3,1.2-3.3,2.1-5.1,2.5c-3.4,0.8-14.9,0.9-18.4,0.2c-1.8-0.4-3.4-1-4.9-1.9c-3.6-2-4.1-8.1-4.1-12.2
	c0-6.1,0-10.1,0-16.2c5.2,0,10.7,0,15.9,0c0,4.6,0,8.4,0,13c0,1.3,0.2,3.3,0.9,4c0.4,0.4,1.3,0.5,1.6,0c0.9-1.1,0.9-2.6,1-3.8
	c0-4,0-6.6,0-10.6c0.1-1.5-0.7-2.8-1.7-3.4c-1.8-1-3.6-2-5.4-3c-2.6-1.5-6.5-3.7-8.7-5.6C10.2,39,9,36.9,8.5,35.1
	c-0.8-3.4-0.7-8.5-0.7-11.3c0-2.5-0.1-4,0-6.5C7.9,14,8.7,10.1,10.6,8C10.6,8,10.6,8,10.6,8z M342.4,3.9h19.2v26.2l0.1-0.1l1.8-12.3
	l3.1-13.9h19l-8.1,23.7c-1.3,0.4-2.7,0.9-3.9,1.3l2.9,1.6c-0.1,0.2-0.2,0.8-0.3,1c-1.6,0.9-3.2,1.7-4.8,2.6c1.5,1.4,3,2.7,4.5,4.5
	c-1,0.7-3.4,1.3-5.2,1.7c-1.4,0.2-2.7,0.9-4,1.4l6.2,2.6c-1.1,1.3-3.1,2.8-4.7,4.1l6.9,1c-2,1.4-4.7,2.9-6.9,4.3
	c2.3,0.8,4.4,1.6,6.7,2.4c-0.9,0.8-2.2,1.4-3.2,2c-0.6,0.3-0.9,0.7-1.4,1.2c-0.5,0.6-0.4,0.5,0.2,0.7l8.1,1.7
	c-1.5,0.8-3.1,1.6-4.7,2.7c-1.5,1.1-1.7,1.2,0,1.5c2.2,0.4,4,0.7,6,0.8c-1,0.3-1.3,0.5-1.9,1c-0.4,0.5-1,1-1.7,1.5
	c-0.9,0.7-0.2,1.3,0.7,1.3c2.1,0,4.3,0.1,6.4,0.1c-0.5,1.6-1.1,2.7-1.9,3.9c1.8,0.2,2.8,0.1,4.5,0l1.2,4.2l0.2,0.7l0,0l0,0.1h-19
	l-4.4-21.7l-2.2-15l-0.1-0.1v36.8h-19.2L342.4,3.9L342.4,3.9L342.4,3.9z M267.6,51.7h4.5V19.5c0-1.5-0.9-2.8-2.3-2.8l0,0
	c-1.4,0-2.2,1.3-2.2,2.8L267.6,51.7L267.6,51.7L267.6,51.7z M272.1,64.8h-4.5v14.9h-19.1V17.3c0-4.1,0.9-7.2,2.1-9
	c1.7-2.6,5-3.7,8.6-4.2c4-0.5,17.3-0.6,21.2,0c3.4,0.5,6.7,1.7,8.4,4.3c1.2,1.8,2.4,4.8,2.4,8.9v62.4h-19.2V64.8L272.1,64.8z
	 M100.5,51.8h3.7c0-10.3,0-20.6,0-30.8c0-1.4-0.7-2.7-1.9-2.7c0,0-1.9,0.1-1.9,2.7V51.8L100.5,51.8z M120.3,79.9h-16V65.2h-3.9v14.7
	h-16V17.8c0-4.1,0.7-7.2,1.8-9c1.5-2.6,4.3-3.7,7.3-4.2c3.3-0.5,14.5-0.6,17.8,0c2.9,0.5,5.6,1.7,7.1,4.3c1,1.8,1.9,4.8,1.9,8.9
	L120.3,79.9L120.3,79.9L120.3,79.9z M45.9,4.4h16.1v23.3h3.7V4.4H82v75.7H65.6V40.6h-3.7v39.5H45.9L45.9,4.4
	C45.9,4.4,45.9,4.4,45.9,4.4z M295.2,3.9h18.5l5.1,23.2l2.3,15.2l0-38.4h16.8v75.7h-19.5l-4.9-21.9l-2.3-16.2v38h-16.1V3.9
	L295.2,3.9L295.2,3.9z M207.8,3.9c12.5,0,24.9,0,37.3,0c0,4.3,0,8.6,0,12.9c-3,0-6.1,0-9.1,0c0,21,0,41.9,0,62.8
	c-6.4,0-12.9,0-19.3,0V16.8c-3.1,0-5.9,0-9,0C207.8,12.5,207.8,8.2,207.8,3.9L207.8,3.9L207.8,3.9z M178.5,31l1.6-13.1l2.6-13.5
	h16.2l-9.3,31.7l10.7,44h-16l-3.7-21.9l-2-15.7v37.6h-16.2V4.4h16.2L178.5,31L178.5,31L178.5,31z M139.5,18.3c0,4.5,0,9,0,13.5
	c0.9,0,1.8,0,2.6-0.5c0.7-0.5,0.9-1.5,0.9-2.3c0-2.5,0-5,0-7.5c0-0.9-0.2-2-1-2.7C141.4,18.3,140.4,18.2,139.5,18.3L139.5,18.3z"/>
</svg>
