<?xml version="1.0" encoding="utf-8"?>
<!-- Generator: Adobe Illustrator 22.1.0, SVG Export Plug-In . SVG Version: 6.00 Build 0)  -->
<svg version="1.1" xmlns="http://www.w3.org/2000/svg" xmlns:xlink="http://www.w3.org/1999/xlink" x="0px" y="0px"
	 viewBox="0 0 567.5 129.1" style="enable-background:new 0 0 567.5 129.1;" xml:space="preserve">
<style type="text/css">
	.st0{fill:#E61E25;}
</style>
<g id="Layer_1">
</g>
<g id="Layer_2">
	<g>
		<g>
			<path class="st0" d="M82.1,1.6C78.8,0.5,75.3,0,71.6,0h-51c-3.9,0-7.4,0.5-10.5,1.6c-3.5,1.5-6,3.1-7.4,4.7
				C0.9,8.7,0,10.8,0,12.8v33.9c0,6.4,8.5,13.7,25.6,21.8c17.1,8.1,25.6,15.4,25.6,21.8v17.7c0,1.1-1.9,2.4-3.8,2.4
				c-2,0-3.8-1.4-3.8-2.4v-6.4H0v14.4c0,2.2,0.9,4.4,2.7,6.6c1.7,2,4.2,3.6,7.4,4.6c2.9,1.1,6.4,1.7,10.5,1.7h51
				c3.9,0,7.4-0.6,10.5-1.7c2.8-1,5.3-2.5,7.4-4.6c1.8-1.8,2.7-4,2.7-6.6V82.3c0-6.8-8.1-14.1-24.3-22.1
				c-16.2-7.9-24.3-15.1-24.3-21.6V21c0-0.8,1.8-2.4,3.8-2.4c1.9,0,3.8,1.6,3.8,2.4v27.8h40.9v-36c0-2.4-0.9-4.5-2.7-6.5
				C87.7,4.5,85.3,2.9,82.1,1.6z"/>
		</g>
		<g>
			<path class="st0" d="M184.7,0.9c-1-0.4-2.5-0.7-4.5-0.9h-69.1c-2,0.2-4,0.6-5.9,1.1c-2,0.9-3.7,1.9-5,3.2
				c-0.8,1.2-1.4,2.4-1.8,3.7v112.9v0.2c0.4,1.4,1,2.6,1.8,3.5c1.2,1.3,2.9,2.3,5,3.2c1.9,0.7,3.9,1.2,5.9,1.3h69.1
				c1.5-0.1,3-0.4,4.5-0.9c1.5-0.5,3-1.4,4.4-2.8c0.5-0.5,0.9-1.4,1.2-2.7V6.4c-0.4-1.3-0.8-2.2-1.2-2.8
				C187.9,2.4,186.4,1.6,184.7,0.9z M149.4,108.1c-0.5,1.6-1.7,2.4-3.8,2.4c-1.8,0-3.1-0.8-3.8-2.4V21c0.7-1.6,2-2.4,3.8-2.4
				c2.1,0,3.4,0.8,3.8,2.4V108.1z"/>
		</g>
		<g>
			<path class="st0" d="M247.5,108.1c-0.5,1.6-1.7,2.4-3.8,2.4c-1.8,0-3.1-0.8-3.8-2.4V0h-43.4v120.9v0.2c0.4,1.3,1,2.4,1.8,3.5
				c1.2,1.1,2.9,2.2,5,3.2c1.9,0.6,3.9,1.1,5.9,1.3h69.1c1.5-0.2,3-0.5,4.5-0.9c1.5-0.5,3-1.4,4.4-2.8c0.5-0.5,0.9-1.4,1.2-2.8v-0.1
				V0h-40.9V108.1z"/>
		</g>
		<g>
			<path class="st0" d="M383.4,0.9c-1.7-0.6-3.6-0.9-5.6-0.9h-83.2v129.1h43.6V73.3c0.5,0,1.7,0,3.5,0c2,0,3.4,0.8,4.1,2.4v53.3H389
				V74.9c0-1.6-0.6-3-1.8-4.3c-0.8-1.4-2.5-2.5-5-3.4c-1.9-0.7-4.2-1.1-6.8-1.1c2.5,0,4.7-0.4,6.8-1.3c2.5-0.9,4.2-1.9,5-3.2
				c1.2-1.3,1.8-2.8,1.8-4.4V7.2c0-1.3-0.5-2.6-1.5-3.7C386.5,2.3,385.1,1.5,383.4,0.9z M345.9,55.6c-0.7,1.6-2.1,2.4-4.1,2.4
				c-1.8,0-3,0-3.5,0V16.8c0.5,0,1.7,0,3.5,0c2,0,3.4,0.9,4.1,2.6V55.6z"/>
		</g>
		<g>
			<polygon class="st0" points="567.5,22.5 567.5,0 493.5,0 493.5,129.1 567.5,129.1 567.5,103.2 539.4,103.2 539.4,77.5 
				567.5,77.5 567.5,51.7 539.4,51.7 539.4,22.5 			"/>
		</g>
		<g>
			<polygon class="st0" points="4,99.8 10.7,99.8 10.7,84.3 14.6,84.3 14.6,81.1 0,81.1 0,84.3 4,84.3 			"/>
		</g>
		<g>
			<polygon class="st0" points="16.5,81.1 16.5,99.8 22,99.8 22,92.3 25.4,92.3 25.4,99.8 31,99.8 31,81.1 25.4,81.1 25.4,88.6 
				22,88.6 22,81.1 			"/>
		</g>
		<g>
			<polygon class="st0" points="43.7,84.3 43.7,81.1 32.9,81.1 32.9,99.8 43.7,99.8 43.7,96 39.4,96 39.4,92.3 43.7,92.3 43.7,88.6 
				39.4,88.6 39.4,84.3 			"/>
		</g>
		<g>
			<path class="st0" d="M481.4,0.9c-1.5-0.4-3-0.7-4.5-0.9h-69.1c-2,0.2-4,0.6-5.9,1.1c-2,0.7-3.7,1.9-5,3.4
				c-0.8,1.1-1.4,2.3-1.8,3.5v113.1c0.4,1.3,1,2.5,1.8,3.7c1.5,1.5,3.2,2.6,5,3.2c1.9,0.6,3.9,1,5.9,1.1h69.1
				c1.5-0.1,2.9-0.4,4.5-0.9c1.9-0.5,3.3-1.4,4.1-2.6c0.6-0.6,1.1-1.6,1.5-2.8V69.9h-40.9v38.2c-0.5,1.6-1.7,2.4-3.8,2.4
				c-1.8,0-3.1-0.8-3.8-2.4V21c0.7-1.6,2-2.4,3.8-2.4c2.1,0,3.4,0.8,3.8,2.4v38.2H487V6.4c-0.4-1.3-0.9-2.1-1.5-2.7
				C484.5,2.5,483.1,1.6,481.4,0.9z"/>
		</g>
	</g>
</g>
</svg>
