<?xml version="1.0" encoding="UTF-8"?><svg id="Layer_1" xmlns="http://www.w3.org/2000/svg" viewBox="0 0 303.71 111.63"><defs><style>.cls-1{fill:#231f20;}</style></defs><path class="cls-1" d="M.92,.17H24.92c1.38-.09,1.2,.83,1.2,.83,0,0,4.6,41.02,4.87,42.21,.28,1.2,.92-.09,.92-.09L45.43,1.18c.28-.92,.92-.83,.92-.83h26.39c.74,0,.64,.64,.64,.64,0,0-24.37,64.01-24.74,65.39-.37,1.38-1.29,1.38-1.29,1.38H9.66c-.74,0-1.01-1.1-1.01-1.1L0,1.18C0,.27,.92,.17,.92,.17ZM118.17,67.67c1.1,0,1.01-.92,1.01-.92V1.28s.09-.92-1.01-.92h-26.03c-1.1,0-1.01,.92-1.01,.92V66.75s-.09,.92,1.01,.92h26.03ZM292.29,16.39c0-1.23-1.5-6.31-4.81-9.01-3.31-2.7-14.84-9.56-37.64-6.68-22.81,2.88-22.01,15.02-22.01,15.02V48.51s-.24,10.24,7.66,14.47c7.91,4.23,26.98,6.74,41.69,2.76,14.71-3.98,15.11-14.84,15.11-14.84v-8.9s.09-1.1-1.01-1.1h-23.26c-1.1,0-1.01,1.1-1.01,1.1l.06,8.29c0,6.31-5.21,6.01-5.21,6.01-6.19,0-6.13-6.01-6.13-6.01v-12.81h35.56c1.1,0,1.01-1.1,1.01-1.1V16.39Zm-24.8,10.3s0,.83,0,.8c0,.07,.04,.67-.36,1.1-.17,.18-.49,.4-1.02,.4h-9.32c-.54,0-.85-.22-1.02-.4-.4-.43-.36-1.03-.36-1.07v-8.43c-.02-.12-.35-3.91,1.76-6.24,1.04-1.15,2.49-1.73,4.31-1.73s3.27,.58,4.3,1.73c2.07,2.3,1.73,6.03,1.71,6.26v7.58Zm-123.66,39.98s-.09,1.1,1.01,1.1h39.15c7.11,0,12.63-2.51,12.63-2.51,4.29-2.08,10.73-6.5,10.12-18.82-.61-12.32-10.79-13.24-12.02-13.67-1.23-.43-.12-.95-.12-.95,0,0,5.15-.92,8.83-3.96,3.68-3.03,4.97-14.62-.37-21.24C197.72-.01,184.84,.08,184.84,.08h-40c-1.1,0-1.01,1.1-1.01,1.1V66.66Zm39.17-41.89c-.46,3.44-4.09,3.81-4.17,3.81h-6.22c-.54,0-.85-.22-1.02-.4-.4-.43-.36-1.03-.36-1.07,0,0,0-14.16,0-14.13,0-.07-.04-.67,.35-1.1,.17-.18,.49-.4,1.02-.4,0,0,6.22,0,6.26,0,3.44,.33,4.1,4.85,4.13,5.06,.02,.2,.43,5.04,0,8.23Zm-1.4,13.98s-.03-.04-.04-.05c0,0,0-.01-.01-.02l.05,.06Zm1.59,10.85c-.02,.79-.04,1.55-.04,2.17,0,3.84-4.57,4.66-4.61,4.67h-5.92c-.54,0-.85-.21-1.02-.4-.4-.43-.36-1.03-.36-1.07,0,0,0-16.55,0-16.52,0-.07-.04-.67,.35-1.1,.17-.18,.49-.4,1.02-.4h5.06c2.64,0,3.77,1.56,3.89,1.75,1.89,1.91,1.74,7.1,1.63,10.9Z"/><path class="cls-1" d="M301.05,62.44c1.38,0,2.66,.97,2.66,2.66s-1.29,2.66-2.66,2.66-2.66-.97-2.66-2.66,1.29-2.66,2.66-2.66Zm0,4.69c1.02,0,1.86-.83,1.86-2.03s-.83-2.03-1.86-2.03-1.86,.82-1.86,2.03,.82,2.03,1.86,2.03Zm-1.05-3.14c0-.21,.16-.32,.32-.32h.9c.63,0,1.02,.19,1.02,.85,0,.52-.32,.79-.66,.8l.47,.62c.08,.11,.09,.19,.09,.28,0,.12-.13,.25-.3,.25-.15,0-.26-.06-.37-.23l-.65-.93h-.18v.83c0,.22-.14,.32-.32,.32s-.32-.11-.32-.32v-2.17Zm.63,.83h.54c.21,0,.38-.05,.38-.32s-.18-.32-.38-.32h-.54v.64Z"/></svg>