<?xml version="1.0" encoding="UTF-8"?><svg id="a" xmlns="http://www.w3.org/2000/svg" viewBox="0 0 365 115.19"><defs><style>.b{fill:#fff;}</style></defs><path d="M226.03,.08c-12.29,.61-23.44,4.82-32.5,8.84-2.56,1.13-6.96,4.45-9.41,4.55-2.88,.12-8.12-2.78-12.02-3.9-17.21-4.95-43.4-11.4-56.81-.97-16.84-2.44-32.37,1.73-45.13,5.52-.72-10.08-10.13-16.11-21.1-12.99-7.34,2.09-13.36,6.23-20.78,9.1C13.77,15.82-.9,27.75,.04,46.57c.45,8.85,4.3,16.06,6.82,22.4,2.63,6.61,5.39,11.88,9.74,19.48-1.2,2.23-2.26,3.66-2.6,6.17-2.82,21.1,25.37,21.79,40.26,15.58,12.84-5.37,26.29-14.86,35.39-21.75-7.3,31.24,41.77,32.62,54.21,16.88,17.5,13.07,55.31,11.62,74.02,.65,17.28,13.92,55.6,8.61,78.89,3.25,12.04-2.78,22.66-5.01,30.53-10.71,8.04-5.84,13.08-14.78,15.25-26.3-1.65-4.41-4.47-7.64-7.14-11.04,1.33-2.8,1.71-7.87,.98-11.69,10.18-7.29,18.66-18.64,26.3-28.24,.91-1.15,2.65-2.65,2.26-4.22-34.82-5.43-68.41-16.25-108.75-14.28-2.55,.12-5.43,.86-7.79,.65-3.48-.31-6.47-2.04-9.73-2.59-4.32-.73-8.54-.93-12.64-.72h0Z"/><path class="b" d="M228.17,12.88c-15.75,.32-30.48,8.17-42.09,14.54-12.38,6.79-23.43,14.77-31.17,22.72,2.8-4.77,5.78-9.49,9.1-13.95,3.36-4.53,7.11-8.63,10.07-12.66-6.47-1.69-12.96-3.48-19.49-4.87-9.28-1.97-22.18-5.25-29.87-.97-2.22,1.23-4.04,4.27-6.17,4.55-1.76,.23-4.66-1.05-6.82-1.29-7.93-.88-15.23-.15-22.4,1.29-6.71,1.35-20.91,3.74-22.73,10.06-1.17,4.06,1.43,8,.97,12.02-.45,3.95-4.24,9.18-6.17,12.33-2.36,3.86-4.76,7.29-8.77,9.09-2.43-12.1,.21-22.84,2.27-33.1,1.27-6.32,3.84-12.79,1.63-19.16-6.19-.86-11.4,4.04-17.53,6.49-11.51,4.61-24.34,8.8-25.97,22.08-.92,7.47,1.89,12.23,3.89,17.54,4.3,11.4,9.6,21.05,15.91,29.86-1.72,3.16-5.77,3.98-6.18,8.43,1.83,2.6,5.65,2.93,9.42,2.93,10.89-.02,19.82-5.51,27.91-10.07,17.62-9.91,29.45-25.17,41.88-39.61,2.18-2.54,3.98-5.59,6.82-7.13,2.79,12.82-2.64,19.67-6.5,30.18-1.49,4.05-6.19,16.72-3.9,22.72,2.51,6.6,23.88,6.89,29.54,2.61,2.85-2.16,4-7.04,5.53-10.07,1.95-3.9,3.64-7.27,5.19-10.71,.09,14.22,10.65,18.4,22.08,21.43,24.28,6.42,48.76-5.05,62-12.98-1.65,10.54,2.45,11.59,10.73,13.31,21.41,4.42,42.97-.68,60.38-4.87,15.96-3.84,28.81-6.56,31.17-22.4-2.55-2.21-8.94-1.94-13.32-1.29-12.87,1.88-25.34,8.39-42.53,7.14-3.13-.23-9.9-1.32-10.39-3.24-.75-3,4.61-5.1,9.1-5.85,12.88-2.18,31.5,.02,41.87-3.9,4.98-1.88,10.98-7.3,10.38-13.31-.4-4.06-5.68-6.18-10.71-6.48-14.21-.89-24.36,7.4-39.27,4.54,1.87-2.36,2.2-6.23,4.54-8.11,10.9-.23,21.49,1.94,31.81,1.3,14.35-.9,22.44-6.94,29.22-14.93,.72-.86,2.55-1.79,1.95-3.25-24.92-3.79-58.89-13.83-89.61-10.07-3.98,.48-6.83,4.63-9.44,6.27l.02-.1c.5-2.22,1.44-3.98,1.63-6.49-5.4-1.9-10.77-2.63-16.02-2.53h0Zm12.12,15.84c3.03,3.46,9.68,3.31,13.63,5.85-5.33,1.37-12.05,1.36-16.89,3.24,1.14-2.98,2.16-6.07,3.26-9.09Zm-37.67,12.01c-1.6,7.28-4.94,15.62-6.81,23.7,10.32,.15,21.2-1.95,31.82-2.59,1.43-1.92,2.14-4.57,2.92-7.14,2.13,3.01,3.63,8.64,1.63,12.98-16.12-.22-27.7,12.97-43.51,12.99-7.08,0-13.09-4.07-9.74-12.01,4.73-11.21,16.47-19.05,23.69-27.92Z"/></svg>