<?xml version="1.0" encoding="UTF-8"?><svg id="a" xmlns="http://www.w3.org/2000/svg" viewBox="0 0 365 74.64"><defs><style>.b{fill:#fff;}.c{fill:#231f20;}</style></defs><path class="c" d="M0,0H73.05V74.64H0V0M5.38,11.71c3.26,15.17,6.18,30.43,9.32,45.63,.57,1.82,.22,4.22,1.98,5.44,3.19,.51,6.45,.38,9.67,.16,1.75,.05,2.17-2,2.48-3.32,2.19-10.82,4.58-21.61,6.76-32.43,.17-1,.48-1.98,.96-2.88,2.72,11.61,4.97,23.33,7.5,34.98,.35,1.24,.42,2.77,1.64,3.52,3.48,.42,7.05,.46,10.51-.03,1.25-.74,1.31-2.26,1.63-3.51,3.21-15.85,6.21-31.76,9.6-47.57-3.07,.02-6.13,0-9.18,0-2.44,13.79-4.4,27.67-7.09,41.42-3.03-11.66-5.06-23.6-7.7-35.37-.6-2.01-.33-4.94-2.53-5.96-2.69-.16-5.41-.17-8.1,0-1.53,.13-1.88,1.94-2.18,3.14-2.44,11.67-5,23.31-7.38,34.98-.25,1.08-.61,2.12-1.02,3.15-2.45-13.75-4.77-27.54-6.88-41.35-3.33,0-6.66,0-9.99,0Z"/><path class="b" d="M73.05,0h72.36V74.64H73.05V0m18.53,11.22c-.04,3.06-.04,6.11,0,9.17,4.16,.03,8.32,0,12.48,0-.02,11.28-.02,22.56,0,33.84-4.16,0-8.32-.02-12.48,0-.04,3.06-.04,6.11,0,9.17,11.76,.03,23.52,.03,35.28,0,.05-3.05,.04-6.11,.02-9.16-4.17-.04-8.33-.02-12.49-.02,.02-11.28,.02-22.56,0-33.84,4.16,0,8.32,.02,12.48,0,.04-3.06,.04-6.12,0-9.17-11.76-.03-23.52-.03-35.29,0Z"/><path class="c" d="M145.41,0h73.05V74.64h-73.05V0m16.5,11.72V62.91h10.12v-20.02c5.49,.02,10.98-.03,16.47,0,2-.19,4.39,1.24,4.34,3.44,.25,5.53,.73,11.05,1.07,16.58,3.21,0,6.42,0,9.63,0-.91-6.26,.21-12.73-1.56-18.87-.91-3.21-4.46-3.93-7.23-4.73,2.06-1.09,4.7-1.19,6.19-3.19,2.17-2.75,2.32-6.42,2.33-9.77-.04-3.91,.05-8.22-2.43-11.51-1.98-2.73-5.7-3.13-8.81-3.13-10.04,0-20.09,0-30.13,0Z"/><path class="b" d="M218.45,0h72.59V74.64h-72.59V0m13.05,11.23c-.04,3.04-.04,6.09-.02,9.13,2.32,.05,4.64,.05,6.96,.03,.05,11.29,.05,22.57,0,33.86-2.32-.02-4.63-.02-6.95,0-.03,3.05-.04,6.1,0,9.15,14.64,.05,29.26,.05,43.9,0,.07-6.03,.03-12.07,.03-18.1-3.18-.03-6.35-.03-9.53,0,0,2.98,0,5.95,0,8.93-5.79,0-11.58-.04-17.37,.03-.09-4.47-.03-8.95-.05-13.42h13.65v-8.71h-13.65c0-3.91,0-7.83,0-11.74,5.64,0,11.28,0,16.92,0-.02,2.6-.02,5.21,0,7.82h9.37c0-5.66,0-11.32,0-16.98-14.43-.05-28.84-.05-43.26,0Z"/><path class="c" d="M291.04,0h73.96V74.64h-73.96V0m16.5,11.72V62.91c8.51-.02,17.01,.04,25.52-.03,5.24-.1,11.35-1.07,14.51-5.77,3.69-5.9,3.13-13.12,3.78-19.77-.66-6.66-.07-13.91-3.78-19.82-2.94-4.4-8.57-5.55-13.51-5.73-8.84-.15-17.69-.03-26.52-.06Z"/><path class="c" d="M91.58,11.22c11.77-.03,23.53-.03,35.29,0,.05,3.05,.05,6.11,0,9.17-4.16,.03-8.32,0-12.48,0,.02,11.28,.02,22.56,0,33.84,4.16,0,8.32-.02,12.49,.02,.02,3.05,.03,6.11-.02,9.16-11.76,.03-23.52,.03-35.28,0-.05-3.06-.05-6.11,0-9.17,4.16-.03,8.32,0,12.48,0-.02-11.28-.02-22.56,0-33.84-4.16,0-8.32,.02-12.48,0-.04-3.06-.04-6.11,0-9.17Z"/><path class="c" d="M231.51,11.23c14.42-.05,28.84-.05,43.26,0,.02,5.66,0,11.32,0,16.98h-9.37c0-2.61,0-5.22,0-7.82-5.64,0-11.28,0-16.92,0-.02,3.91,0,7.83,0,11.74h13.65v8.71h-13.65c.02,4.47-.05,8.95,.05,13.42,5.79-.06,11.58-.02,17.37-.03,0-2.98,0-5.95,0-8.93,3.18-.04,6.35-.04,9.53,0,0,6.03,.05,12.07-.03,18.1-14.64,.05-29.26,.05-43.9,0-.05-3.05-.04-6.1,0-9.15,2.32-.03,4.63-.03,6.95,0,.05-11.29,.05-22.57,0-33.86-2.32,.02-4.64,.02-6.96-.03-.02-3.04-.02-6.09,.02-9.13Z"/><path class="b" d="M5.38,11.71c3.33,.02,6.66,0,9.99,0,2.11,13.81,4.43,27.6,6.88,41.35,.41-1.03,.77-2.07,1.02-3.15,2.38-11.67,4.94-23.31,7.38-34.98,.3-1.2,.65-3.01,2.18-3.14,2.69-.17,5.41-.16,8.1,0,2.2,1.02,1.93,3.95,2.53,5.96,2.64,11.77,4.67,23.71,7.7,35.37,2.69-13.74,4.65-27.63,7.09-41.42,3.06,0,6.12,0,9.18,0-3.4,15.81-6.39,31.72-9.6,47.57-.32,1.26-.38,2.78-1.63,3.51-3.47,.48-7.04,.45-10.51,.03-1.22-.76-1.29-2.28-1.64-3.52-2.53-11.65-4.78-23.37-7.5-34.98-.47,.9-.78,1.88-.96,2.88-2.18,10.82-4.57,21.61-6.76,32.43-.32,1.32-.74,3.38-2.48,3.32-3.21,.22-6.48,.35-9.67-.16-1.77-1.22-1.41-3.62-1.98-5.44-3.14-15.2-6.06-30.46-9.32-45.63Z"/><path class="b" d="M161.91,11.72c10.04,0,20.09,0,30.13,0,3.11,0,6.83,.4,8.81,3.13,2.48,3.29,2.39,7.59,2.43,11.51,0,3.35-.16,7.02-2.33,9.77-1.49,2-4.13,2.1-6.19,3.19,2.77,.8,6.32,1.52,7.23,4.73,1.77,6.13,.65,12.61,1.56,18.87-3.21,0-6.42,0-9.63,0-.35-5.53-.82-11.04-1.07-16.58,.05-2.2-2.34-3.63-4.34-3.44-5.49-.04-10.98,0-16.47,0v20.02h-10.12V11.72m10.12,8.41v14.83c6.05-.08,12.12,.18,18.17-.13,3.25-.19,3.29-4.1,3.42-6.54-.1-2.69,.4-6.25-2.1-8.03-6.48-.34-12.99-.04-19.49-.14Z"/><path class="b" d="M307.55,11.72c8.84,.04,17.69-.08,26.52,.06,4.94,.18,10.57,1.34,13.51,5.73,3.7,5.92,3.12,13.16,3.78,19.82-.65,6.65-.09,13.87-3.78,19.77-3.16,4.7-9.27,5.67-14.51,5.77-8.51,.06-17.01,0-25.52,.03V11.72m10.12,8.41V54.5c5.18,0,10.36,0,15.55,0,2.48,.05,5.5-.61,6.66-3.09,1.74-3.83,1.31-8.15,1.46-12.23-.19-5.12,.54-10.45-1.18-15.36-.77-2.51-3.57-3.7-6.02-3.68-5.49-.05-10.98,0-16.47-.02Z"/><path class="c" d="M172.03,20.13c6.5,.1,13.01-.2,19.49,.14,2.5,1.77,2,5.34,2.1,8.03-.13,2.44-.17,6.34-3.42,6.54-6.04,.31-12.12,.05-18.17,.13v-14.83Z"/><path class="c" d="M317.67,20.13c5.49,.03,10.98-.04,16.47,.02,2.45-.03,5.24,1.17,6.02,3.68,1.72,4.92,.99,10.25,1.18,15.36-.15,4.09,.28,8.4-1.46,12.23-1.17,2.48-4.18,3.13-6.66,3.09-5.19,0-10.37-.02-15.55,0V20.13Z"/></svg>