<?xml version="1.0" encoding="UTF-8"?><svg id="a" xmlns="http://www.w3.org/2000/svg" viewBox="0 0 110.97 133.28"><defs><style>.b{fill:#fff;}.c{fill: #e9e7dc;}</style></defs><path class="b" d="M71.31,122.59c.15-.12,.22-.19,0,0h0Z"/><path class="b" d="M4.65,65.07l.02,.16-.02-.16Z"/><path class="b" d="M73.46,63.05v-.05s.01-.06,.02-.08h0c-.06,.39-.04,.27-.02,.12Z"/><path class="b" d="M60.25,76.15h0c.15-.02,.51-.08,0,0Z"/><path class="b" d="M73.48,58.96h0c-.02-.15-.08-.51,0,0Z"/><path class="b" d="M60.26,45.74h0c.51,.08,.15,.02,0,0Z"/><g><path class="c" d="M59.09,133.27c3.06-.09,6.05-1.64,8.63-3.15,3.95-2.32,7.6-5.2,11.01-8.24,4.18-3.72,8.04-7.8,11.57-12.14,4.01-4.91,7.65-10.14,10.73-15.69,3.19-5.75,5.82-11.86,7.59-18.2,1.92-6.89,2.81-14.1,2.12-21.24-.72-7.43-2.89-14.6-6.21-21.28-3.1-6.22-7.22-11.98-12.05-16.98-4.86-5.03-10.51-9.26-16.96-12.04C68.71,1.39,61.35-.14,53.93,0c-6.99,.14-13.78,1.82-20.15,4.66-5.47,2.44-10.5,5.82-14.89,9.89-4.29,3.97-7.97,8.64-10.88,13.71-2.91,5.07-5.1,10.59-6.43,16.29C.26,50.23-.27,56.12,.13,61.94c.41,5.92,1.7,11.76,3.95,17.25,2.68,6.56,6.13,12.77,10.14,18.6,3.92,5.69,8.33,11.06,13.15,16.01,4.3,4.4,8.94,8.49,13.97,12.04,3.86,2.72,8.06,5.23,12.6,6.62,1.65,.5,3.41,.84,5.14,.81,1.1-.02,2.16-.95,2.11-2.11-.05-1.12-.93-2.13-2.11-2.11-.36,0-.72,0-1.09-.03-.19-.01-.38-.04-.57-.06-.14-.01,.59,.09,.2,.03-.11-.02-.21-.03-.32-.05-.85-.15-1.68-.36-2.5-.62-.45-.14-.9-.3-1.34-.47-.23-.09-.46-.18-.69-.27-.08-.03-.46-.19-.12-.05,.35,.15-.16-.07-.24-.1-1-.44-1.97-.92-2.93-1.44-2.18-1.18-4.27-2.52-6.28-3.96-.55-.39-1.1-.79-1.64-1.2-.28-.21-.55-.42-.82-.63,.29,.22,.06,.05-.08-.07-.15-.12-.3-.23-.45-.35-1.14-.9-2.25-1.83-3.35-2.78-4.82-4.19-9.26-8.83-13.32-13.76-.53-.65-1.06-1.3-1.57-1.96-.12-.15-.24-.3-.36-.46-.06-.08-.12-.15-.18-.23-.21-.26,.18,.23-.03-.03-.26-.33-.51-.67-.77-1.01-1.02-1.36-2.01-2.73-2.96-4.13-1.94-2.83-3.75-5.75-5.4-8.76-.81-1.48-1.59-2.98-2.32-4.51-.36-.76-.72-1.52-1.06-2.28-.16-.35-.31-.71-.46-1.06-.04-.09-.08-.18-.11-.27,.15,.34,.02,.04-.01-.03-.09-.21-.17-.41-.26-.62-1.07-2.63-1.93-5.35-2.56-8.12-.31-1.37-.57-2.75-.78-4.14-.03-.19-.05-.37-.08-.56,.05,.37,.02,.14,0-.08-.05-.37-.09-.75-.13-1.12-.07-.69-.13-1.39-.18-2.09-.18-2.78-.16-5.58,.08-8.35,.06-.69,.13-1.39,.21-2.08,.02-.16,.04-.32,.06-.48,.05-.42-.05,.34,.01-.08,.05-.37,.11-.74,.17-1.11,.22-1.37,.49-2.74,.81-4.09,.64-2.73,1.48-5.42,2.51-8.04,.12-.3,.24-.6,.36-.89,.03-.07,.06-.15,.09-.22,0,.01-.15,.35-.06,.13,.09-.2,.17-.39,.25-.59,.28-.64,.57-1.27,.87-1.9,.6-1.25,1.25-2.49,1.95-3.69,.69-1.21,1.43-2.39,2.21-3.55,.39-.58,.79-1.15,1.2-1.71,.21-.28,.41-.56,.63-.84,.11-.15,.29-.37,.06-.08,.12-.15,.23-.3,.35-.44,1.76-2.22,3.69-4.3,5.77-6.22,1.04-.96,2.11-1.88,3.22-2.75,.14-.11,.38-.29,.09-.07,.13-.1,.26-.2,.39-.3,.31-.23,.61-.46,.92-.68,.58-.42,1.16-.82,1.76-1.22,2.41-1.6,4.95-2.99,7.58-4.17,.15-.07,.31-.14,.46-.21,.1-.04,.59-.25,.37-.16-.23,.1,.22-.09,.3-.12,.18-.08,.37-.15,.55-.22,.69-.27,1.39-.53,2.09-.77,1.46-.51,2.93-.95,4.43-1.33,.88-.22,1.77-.41,2.66-.58,.4-.07,.79-.14,1.19-.21,.2-.03,.4-.06,.6-.09,.1-.01,.2-.03,.3-.04,.64-.09-.23,.02,.14-.02,1.74-.19,3.47-.34,5.22-.37,1.75-.03,3.49,.04,5.23,.2,.4,.04,.8,.08,1.2,.13,.23,.03,.47,.06,.7,.09-.37-.05,.22,.03,.34,.05,.86,.13,1.72,.28,2.58,.46,1.71,.35,3.41,.79,5.07,1.31,.83,.26,1.66,.55,2.48,.86,.41,.15,.82,.31,1.22,.48,.09,.04,.55,.23,.24,.1,.22,.09,.43,.19,.65,.28,3.22,1.43,6.29,3.2,9.12,5.31,.16,.12,.32,.24,.48,.36-.25-.19,.14,.11,.21,.17,.35,.28,.7,.57,1.05,.86,.59,.49,1.16,1,1.73,1.51,1.16,1.06,2.29,2.16,3.37,3.29,1.12,1.17,2.19,2.38,3.22,3.63,.26,.32,.52,.64,.77,.96,.12,.15,.24,.3,.35,.45,.15,.19-.02-.02-.04-.05,.08,.1,.15,.2,.23,.3,.5,.66,.99,1.33,1.47,2.02,1.97,2.81,3.73,5.76,5.24,8.84,.38,.77,.74,1.56,1.09,2.35,.08,.18,.16,.37,.24,.55,.1,.22,0,0-.02-.04,.04,.09,.08,.18,.12,.28,.18,.43,.35,.87,.52,1.3,.63,1.63,1.19,3.29,1.68,4.97,.49,1.7,.9,3.42,1.23,5.15,.08,.44,.16,.88,.23,1.31,.03,.2,.07,.41,.1,.61,.02,.1,.03,.2,.05,.31,0,.04,.06,.44,.03,.23-.03-.22,.01,.11,.02,.13,.02,.14,.03,.27,.05,.41,.02,.21,.05,.41,.07,.62,.05,.45,.09,.9,.13,1.34,.15,1.85,.21,3.71,.16,5.56-.02,.93-.07,1.85-.14,2.77-.03,.43-.07,.86-.12,1.29-.02,.22-.05,.43-.07,.65-.01,.12-.11,.89-.06,.48-.43,3.13-1.1,6.22-1.98,9.25-.44,1.51-.92,3.01-1.46,4.5-.27,.74-.54,1.48-.83,2.21-.14,.37-.29,.73-.44,1.1-.07,.17-.14,.34-.21,.5-.09,.22,.02-.06,.04-.09-.05,.11-.09,.22-.14,.33-2.47,5.74-5.57,11.19-9.11,16.33-.86,1.24-1.74,2.46-2.65,3.67-.22,.3-.45,.59-.68,.89,.22-.29,0-.01-.09,.11-.12,.16-.25,.31-.37,.47-.46,.58-.92,1.15-1.38,1.72-1.82,2.21-3.72,4.35-5.7,6.41-1.82,1.89-3.7,3.71-5.66,5.45-.9,.8-1.82,1.59-2.76,2.36-.45,.36-.9,.72-1.35,1.08-.1,.08-.21,.16-.31,.24,.29-.25,.17-.13-.03,.02-.22,.17-.44,.33-.66,.5-1.61,1.2-3.27,2.33-5,3.34-.73,.43-1.47,.83-2.22,1.2-.34,.17-.69,.33-1.04,.48-.08,.03-.15,.07-.23,.1-.13,.06,.54-.22,.2-.09-.17,.07-.34,.14-.52,.2-.56,.21-1.13,.39-1.71,.53-.25,.06-.51,.08-.76,.15,.04-.01,.66-.07,.33-.05-.06,0-.11,.01-.17,.02-.13,.01-.25,.02-.38,.02-1.1,.03-2.16,.95-2.11,2.11,.05,1.12,.93,2.14,2.11,2.11Z"/><path class="c" d="M73.59,60.94c0,.44-.02,.89-.05,1.33-.02,.22-.04,.44-.06,.66-.02,.16-.09,.56,.02-.13-.02,.14-.04,.29-.07,.43-.14,.88-.36,1.75-.64,2.6-.12,.37-.26,.73-.4,1.09-.15,.38,.22-.49,.05-.12-.04,.1-.08,.19-.13,.29-.1,.22-.21,.44-.32,.66-.39,.78-.85,1.52-1.35,2.23-.1,.14-.58,.74-.1,.16-.13,.16-.26,.33-.39,.48-.27,.32-.54,.63-.83,.93-.29,.3-.59,.59-.9,.86-.15,.14-.31,.27-.47,.41-.15,.12-.84,.62-.22,.19-.72,.5-1.42,.99-2.18,1.41-.34,.18-.68,.36-1.03,.52-.17,.08-.88,.34-.17,.08-.23,.08-.46,.18-.69,.27-.84,.3-1.7,.54-2.57,.71-.21,.04-.43,.08-.64,.11-.11,.02-.22,.03-.32,.05,.69-.11,.28-.04,.13-.02-.44,.05-.88,.08-1.32,.1-.92,.03-1.84-.01-2.76-.11-.42-.05,.55,.08,.13,.02-.11-.02-.21-.03-.32-.05-.21-.04-.43-.07-.64-.12-.44-.09-.87-.19-1.3-.32-.39-.11-.78-.24-1.16-.38-.2-.07-.39-.15-.59-.23-.38-.15,.49,.22,.12,.05-.13-.06-.26-.11-.38-.17-.79-.37-1.55-.79-2.28-1.27-.32-.21-.62-.44-.93-.66,.61,.42,0,0-.14-.12-.19-.15-.37-.31-.55-.47-.64-.58-1.24-1.2-1.79-1.87-.12-.14-.55-.75-.12-.14-.12-.17-.25-.33-.37-.5-.24-.34-.47-.69-.68-1.05-.22-.36-.42-.72-.61-1.1-.09-.19-.19-.38-.27-.57-.04-.1-.09-.19-.13-.29-.22-.51,.14,.36,0,.02-.32-.83-.6-1.66-.8-2.53-.09-.38-.17-.77-.23-1.16-.02-.11-.03-.21-.05-.32-.06-.42,.06,.55,.02,.13-.03-.25-.06-.51-.07-.76-.07-.92-.07-1.85,0-2.77,.02-.22,.04-.44,.07-.65,.05-.42-.08,.55-.02,.13,.02-.11,.03-.21,.05-.32,.07-.43,.16-.85,.26-1.27,.21-.87,.51-1.69,.82-2.52-.26,.71,0,0,.08-.17,.09-.19,.18-.38,.27-.57,.2-.4,.43-.8,.66-1.19,.2-.33,.41-.65,.63-.96,.12-.17,.25-.33,.37-.5-.43,.62,.06-.08,.19-.22,.55-.66,1.16-1.28,1.8-1.86,.16-.14,.31-.27,.47-.41,.08-.07,.59-.47,.27-.22-.32,.25,.2-.15,.29-.21,.2-.14,.4-.28,.6-.41,.73-.48,1.5-.9,2.29-1.26,.1-.04,.19-.09,.29-.13,.37-.17-.5,.2-.12,.05,.2-.08,.39-.15,.59-.23,.4-.14,.8-.28,1.21-.39,.41-.12,.83-.22,1.25-.3,.21-.04,.42-.08,.64-.12,.11-.02,.21-.03,.32-.05,.37-.06-.59,.07-.02,0,.92-.1,1.84-.14,2.76-.09,.4,.02,.81,.05,1.21,.09,.16,.02,.56,.09-.13-.02,.11,.02,.22,.03,.32,.05,.25,.04,.5,.08,.74,.13,.87,.18,1.73,.42,2.56,.73,.2,.07,.39,.16,.59,.23-.71-.26,0,0,.17,.08,.38,.18,.75,.37,1.12,.57,.36,.2,.72,.42,1.07,.65,.17,.11,.35,.23,.52,.35,.15,.11,.83,.64,.24,.16,.67,.55,1.32,1.11,1.92,1.74,.26,.28,.52,.56,.76,.85,.13,.16,.26,.32,.39,.48-.48-.59,.06,.09,.17,.24,.5,.71,.95,1.46,1.34,2.24,.09,.19,.18,.38,.27,.57,.04,.1,.09,.19,.13,.29,.17,.37-.2-.5-.05-.12,.15,.39,.3,.79,.43,1.19,.27,.85,.48,1.72,.62,2.61,.02,.11,.03,.22,.05,.32-.11-.69-.04-.28-.02-.13,.02,.22,.05,.44,.06,.66,.03,.44,.05,.89,.05,1.33,0,1.1,.97,2.16,2.11,2.11,1.14-.05,2.11-.93,2.11-2.11-.01-3.96-1.21-7.94-3.52-11.17-2.36-3.31-5.59-5.8-9.41-7.21-3.77-1.39-8.04-1.51-11.9-.43-3.73,1.05-7.2,3.26-9.67,6.26-2.63,3.2-4.19,7.03-4.52,11.16-.31,3.97,.68,8.07,2.75,11.47,1.99,3.29,4.99,6.04,8.5,7.62,3.85,1.74,8.07,2.24,12.22,1.41,3.8-.76,7.39-2.77,10.07-5.57,2.7-2.82,4.61-6.48,5.19-10.36,.16-1.06,.27-2.12,.27-3.19,0-1.1-.97-2.16-2.11-2.11-1.15,.05-2.1,.93-2.11,2.11Z"/></g></svg>