<?xml version="1.0" encoding="utf-8"?>
<!-- Generator: Adobe Illustrator 26.3.1, SVG Export Plug-In . SVG Version: 6.00 Build 0)  -->
<svg version="1.1" id="Layer_1" xmlns="http://www.w3.org/2000/svg" xmlns:xlink="http://www.w3.org/1999/xlink" x="0px" y="0px"
	 viewBox="0 0 473.9 469" style="enable-background:new 0 0 473.9 469;" xml:space="preserve">
<style type="text/css">
	.st0{fill-rule:evenodd;clip-rule:evenodd;fill:#E9E7DC;}
</style>
<g>
	<path class="st0" d="M473.9,153h-60L367.9,43.8c-2.1-5.1-5.7-9.4-10.3-12.4c-4.6-3-9.9-4.7-15.4-4.7h-11.5
		c-1.8-6.8-5.7-12.7-11.2-17C313.9,5.4,307.1,3,300.2,3H173.8c-7,0-13.8,2.4-19.3,6.6c-5.5,4.3-9.5,10.3-11.2,17h-11.5
		c-5.5,0-10.9,1.6-15.4,4.6c-4.6,3-8.1,7.4-10.3,12.4L60,153H0v63.2h15.8v216.7h0c0,9.6,3.8,18.7,10.6,25.5
		c6.8,6.8,15.9,10.6,25.5,10.6H422c9.6,0,18.7-3.8,25.5-10.6c6.8-6.8,10.6-15.9,10.6-25.5V216.3h15.8L473.9,153z M173.8,18.8h126.4
		c5.6,0,10.8,3,13.7,7.9c2.8,4.9,2.8,10.9,0,15.8c-2.8,4.9-8,7.9-13.7,7.9H173.8c-5.6,0-10.8-3-13.7-7.9c-2.8-4.9-2.8-10.9,0-15.8
		C162.9,21.8,168.1,18.8,173.8,18.8z M120.6,49.8c1.9-4.5,6.3-7.4,11.1-7.3h11.5c1.8,6.8,5.7,12.8,11.2,17
		c5.5,4.3,12.3,6.6,19.3,6.6h126.4c7,0,13.8-2.4,19.3-6.6c5.5-4.3,9.5-10.3,11.2-17h11.5c4.8,0,9.2,2.9,11.1,7.3L396.7,153l-319.6,0
		L120.6,49.8L120.6,49.8z M442.3,432.9c0,7-3.7,13.6-9.7,17.2c1.1-1.4,1.8-3.1,1.8-4.8c0.1-3.1-1.7-5.9-4.4-7.3
		c-2.8-1.4-6.1-1-8.5,1s-3.4,5.1-2.7,8.1c0.8,3,3.2,5.3,6.2,5.8c-1,0.2-2,0.3-3,0.3H51.9c-1,0-2-0.1-3-0.3c3.7-0.7,6.4-3.8,6.4-7.6
		c0-4.4-3.6-7.9-7.9-7.9s-7.9,3.5-7.9,7.9c0,1.8,0.7,3.5,1.8,4.8c-6-3.7-9.7-10.2-9.7-17.2V216.3h410.8L442.3,432.9z M458.1,200.5
		H15.8v-31.6h37.6L48,181.6c-0.8,1.9-0.8,4.1-0.1,6s2.3,3.5,4.2,4.3c1,0.4,2,0.6,3.1,0.6c3.2,0,6-1.9,7.3-4.8l7.9-18.9h332.9
		l7.9,18.9h0c1.2,2.9,4.1,4.8,7.3,4.8c1.1,0,2.1-0.2,3.1-0.6c4-1.7,5.9-6.3,4.2-10.3l-5.4-12.7h37.5L458.1,200.5z M197.4,255.7
		c0,3.2-1.9,6.1-4.9,7.3c-3,1.2-6.4,0.5-8.6-1.7c-2.3-2.3-2.9-5.7-1.7-8.6c1.2-3,4.1-4.9,7.3-4.9c2.1,0,4.1,0.8,5.6,2.3
		C196.6,251.6,197.5,253.7,197.4,255.7L197.4,255.7z M221.1,232c0,3.2-1.9,6.1-4.9,7.3c-3,1.2-6.4,0.5-8.6-1.7
		c-2.3-2.3-2.9-5.7-1.7-8.6c1.2-2.9,4.1-4.9,7.3-4.9C217.6,224.2,221.1,227.7,221.1,232L221.1,232z M221.1,279.4
		c0,3.2-1.9,6.1-4.9,7.3c-3,1.2-6.4,0.5-8.6-1.7c-2.3-2.3-2.9-5.7-1.7-8.6c1.2-2.9,4.1-4.9,7.3-4.9
		C217.6,271.6,221.1,275.1,221.1,279.4L221.1,279.4z M244.8,255.7L244.8,255.7c0,3.2-1.9,6.1-4.9,7.3c-3,1.2-6.4,0.5-8.6-1.7
		c-2.3-2.3-2.9-5.7-1.7-8.6s4.1-4.9,7.3-4.9c2.1,0,4.1,0.8,5.6,2.3C244,251.6,244.9,253.7,244.8,255.7L244.8,255.7z M150,255.7
		L150,255.7c0,3.2-1.9,6.1-4.9,7.3c-2.9,1.2-6.3,0.5-8.6-1.7c-2.2-2.3-2.9-5.6-1.7-8.6c1.2-2.9,4.1-4.9,7.3-4.9
		c2.1,0,4.1,0.8,5.6,2.3C149.2,251.6,150.1,253.7,150,255.7L150,255.7z M173.8,232c0,3.2-1.9,6.1-4.9,7.3c-2.9,1.2-6.3,0.5-8.6-1.7
		c-2.2-2.3-2.9-5.6-1.7-8.6c1.2-2.9,4.1-4.9,7.3-4.9C170.2,224.2,173.7,227.7,173.8,232L173.8,232z M173.8,279.4
		c0,3.2-1.9,6.1-4.9,7.3c-2.9,1.2-6.3,0.5-8.6-1.7c-2.2-2.3-2.9-5.6-1.7-8.6c1.2-2.9,4.1-4.9,7.3-4.9
		C170.2,271.5,173.8,275.1,173.8,279.4L173.8,279.4z M55.3,255.7c0,3.2-1.9,6.1-4.9,7.3c-3,1.2-6.4,0.5-8.6-1.7
		c-2.3-2.3-2.9-5.7-1.7-8.6c1.2-3,4.1-4.9,7.3-4.9c2.1,0,4.1,0.8,5.6,2.3C54.5,251.6,55.3,253.7,55.3,255.7L55.3,255.7z
		 M102.7,255.7L102.7,255.7c0,3.2-1.9,6-4.9,7.3c-2.9,1.2-6.3,0.5-8.6-1.7c-2.2-2.3-2.9-5.6-1.7-8.6c1.2-2.9,4.1-4.9,7.3-4.9
		c2.1,0,4.1,0.8,5.6,2.3C101.9,251.6,102.7,253.7,102.7,255.7L102.7,255.7z M79,232c0,3.2-1.9,6.1-4.9,7.3c-2.9,1.2-6.4,0.6-8.6-1.7
		c-2.3-2.3-2.9-5.7-1.7-8.6s4.1-4.9,7.3-4.9C75.4,224.2,78.9,227.7,79,232L79,232z M126.4,232c0,3.2-1.9,6.1-4.9,7.3
		c-2.9,1.2-6.3,0.6-8.6-1.7s-3-5.6-1.7-8.6c1.2-3,4.1-4.9,7.3-4.9C122.8,224.1,126.4,227.7,126.4,232L126.4,232z M79,279.4
		c0,3.2-1.9,6.1-4.9,7.3c-2.9,1.2-6.4,0.6-8.6-1.7c-2.3-2.3-2.9-5.7-1.7-8.6c1.2-3,4.1-4.9,7.3-4.9C75.4,271.5,78.9,275.1,79,279.4
		L79,279.4z M126.4,279.4c0,3.2-1.9,6.1-4.9,7.3c-2.9,1.2-6.3,0.6-8.6-1.7c-2.3-2.2-3-5.6-1.7-8.6c1.2-3,4.1-4.9,7.3-4.9
		C122.8,271.5,126.4,275.1,126.4,279.4L126.4,279.4z M434.4,255.7c0,3.2-1.9,6.1-4.9,7.3c-3,1.2-6.4,0.5-8.6-1.7
		c-2.3-2.3-2.9-5.7-1.7-8.6c1.2-3,4.1-4.9,7.3-4.9c2.1,0,4.1,0.8,5.6,2.3S434.4,253.7,434.4,255.7L434.4,255.7z M387,255.7
		c0,3.2-1.9,6-4.9,7.3c-2.9,1.2-6.3,0.5-8.6-1.7c-2.2-2.2-2.9-5.6-1.7-8.6c1.2-2.9,4.1-4.9,7.2-4.9c2.1,0,4.1,0.8,5.6,2.3
		C386.2,251.6,387,253.6,387,255.7L387,255.7z M410.7,232c0,3.2-1.9,6.1-4.9,7.3c-3,1.2-6.4,0.6-8.6-1.7s-2.9-5.7-1.7-8.6
		c1.2-3,4.1-4.9,7.3-4.9C407.2,224.2,410.7,227.7,410.7,232z M410.7,279.4c0,3.2-1.9,6.1-4.9,7.3c-3,1.2-6.4,0.6-8.6-1.7
		s-2.9-5.7-1.7-8.6s4.1-4.9,7.3-4.9C407.2,271.5,410.7,275.1,410.7,279.4z M268.5,232c0,3.2-1.9,6.1-4.9,7.3
		c-2.9,1.2-6.3,0.6-8.6-1.7s-2.9-5.6-1.7-8.6c1.2-2.9,4.1-4.9,7.3-4.9C265,224.1,268.5,227.7,268.5,232L268.5,232z M268.5,279.4
		c0,3.2-1.9,6.1-4.9,7.3c-2.9,1.2-6.3,0.6-8.6-1.7c-2.3-2.2-2.9-5.6-1.7-8.6c1.2-2.9,4.1-4.9,7.3-4.9c2.1,0,4.1,0.8,5.6,2.3
		C267.7,275.3,268.5,277.3,268.5,279.4L268.5,279.4z M292.3,255.7L292.3,255.7c0,3.2-1.9,6.1-4.9,7.3s-6.4,0.5-8.6-1.7
		c-2.3-2.3-2.9-5.7-1.7-8.6c1.2-3,4.1-4.9,7.3-4.9c2.1,0,4.1,0.8,5.6,2.3C291.4,251.6,292.3,253.7,292.3,255.7L292.3,255.7z
		 M339.6,255.7L339.6,255.7c0,3.2-1.9,6.1-4.9,7.3c-2.9,1.2-6.3,0.5-8.6-1.7c-2.2-2.3-2.9-5.6-1.7-8.6c1.2-2.9,4.1-4.9,7.3-4.8
		c2.1,0,4.1,0.8,5.6,2.3C338.8,251.6,339.6,253.7,339.6,255.7L339.6,255.7z M197.5,303.1c0,3.2-1.9,6.1-4.9,7.3
		c-3,1.2-6.4,0.6-8.6-1.7c-2.3-2.3-3-5.7-1.7-8.6c1.2-3,4.1-4.9,7.3-4.9C193.9,295.2,197.4,298.8,197.5,303.1L197.5,303.1z
		 M244.8,303.1c0,3.2-1.9,6.1-4.9,7.3c-3,1.2-6.4,0.6-8.6-1.7c-2.3-2.3-2.9-5.7-1.7-8.6c1.2-3,4.1-4.9,7.3-4.9
		c2.1,0,4.1,0.8,5.6,2.3C244,299,244.8,301,244.8,303.1L244.8,303.1z M150,303.1c0,3.2-1.9,6.1-4.9,7.3c-2.9,1.2-6.3,0.6-8.6-1.7
		c-2.3-2.3-2.9-5.6-1.7-8.6c1.2-2.9,4.1-4.9,7.3-4.9c2.1,0,4.1,0.8,5.6,2.3C149.2,299,150,301,150,303.1z M55.3,303.1L55.3,303.1
		c0,3.2-1.9,6.1-4.8,7.3c-3,1.2-6.4,0.6-8.6-1.7c-2.3-2.3-3-5.7-1.7-8.6c1.2-3,4.1-4.9,7.3-4.9C51.7,295.2,55.3,298.8,55.3,303.1
		L55.3,303.1z M102.7,303.1c0,3.2-1.9,6.1-4.8,7.3c-2.9,1.2-6.3,0.6-8.6-1.7s-2.9-5.6-1.7-8.6c1.2-2.9,4.1-4.9,7.3-4.9
		c2.1,0,4.1,0.8,5.6,2.3C101.8,299,102.7,301,102.7,303.1L102.7,303.1z M434.4,303.1c0,3.2-1.9,6.1-4.9,7.3c-3,1.2-6.4,0.6-8.6-1.7
		c-2.3-2.3-2.9-5.7-1.7-8.6c1.2-3,4.1-4.9,7.3-4.9C430.9,295.3,434.4,298.8,434.4,303.1L434.4,303.1z M387,303.1
		c0,3.2-1.9,6.1-4.8,7.3c-2.9,1.2-6.3,0.6-8.6-1.7c-2.3-2.2-2.9-5.6-1.7-8.6c1.2-2.9,4.1-4.9,7.2-4.9c2.1,0,4.1,0.8,5.6,2.3
		C386.2,299,387,301,387,303.1L387,303.1z M292.3,303.1c0,3.2-1.9,6.1-4.9,7.4c-3,1.2-6.4,0.6-8.6-1.7c-2.3-2.3-3-5.7-1.7-8.6
		c1.2-3,4.1-4.9,7.3-4.9C288.7,295.3,292.2,298.8,292.3,303.1L292.3,303.1z M339.6,303.1c0,3.2-1.9,6.1-4.9,7.3
		c-2.9,1.2-6.3,0.6-8.6-1.7c-2.3-2.3-2.9-5.6-1.7-8.6c1.2-2.9,4.1-4.9,7.3-4.9c2.1,0,4.1,0.8,5.6,2.3S339.6,301,339.6,303.1
		L339.6,303.1z M315.9,232c0,3.2-1.9,6.1-4.9,7.3c-2.9,1.2-6.3,0.5-8.6-1.7c-2.3-2.2-2.9-5.6-1.7-8.6c1.2-2.9,4.1-4.9,7.3-4.9
		C312.4,224.2,315.9,227.7,315.9,232z M363.3,232c0,3.2-1.9,6.1-4.9,7.3c-3,1.2-6.4,0.6-8.6-1.7c-2.3-2.3-3-5.7-1.7-8.6
		c1.2-3,4.1-4.9,7.3-4.9C359.8,224.1,363.3,227.7,363.3,232z M315.9,279.4c0,3.2-1.9,6.1-4.9,7.3c-2.9,1.2-6.3,0.5-8.6-1.7
		c-2.3-2.2-2.9-5.6-1.7-8.6c1.2-2.9,4.1-4.9,7.3-4.9C312.4,271.5,315.9,275.1,315.9,279.4z M363.3,279.4c0,3.2-1.9,6.1-4.9,7.3
		c-3,1.2-6.4,0.6-8.6-1.7c-2.3-2.3-3-5.7-1.7-8.6c1.2-3,4.1-4.9,7.3-4.9C359.8,271.5,363.3,275.1,363.3,279.4z M197.4,350.5
		c0,3.2-1.9,6.1-4.9,7.3c-3,1.2-6.4,0.6-8.6-1.7c-2.3-2.3-2.9-5.7-1.7-8.6c1.2-3,4.1-4.9,7.3-4.9
		C193.9,342.6,197.4,346.2,197.4,350.5L197.4,350.5z M221.1,326.8c0,3.2-1.9,6.1-4.9,7.3c-3,1.2-6.3,0.5-8.6-1.7
		c-2.2-2.3-2.9-5.7-1.7-8.6s4.1-4.9,7.3-4.8C217.6,319,221.1,322.5,221.1,326.8L221.1,326.8z M221.1,374.2c0,3.2-1.9,6.1-4.9,7.3
		c-2.9,1.2-6.3,0.5-8.6-1.7c-2.3-2.3-2.9-5.7-1.7-8.6c1.2-2.9,4.1-4.9,7.3-4.9c2.1,0,4.1,0.8,5.6,2.3
		C220.3,370.1,221.2,372.1,221.1,374.2L221.1,374.2z M244.8,350.5c0,3.2-1.9,6.1-4.9,7.3c-3,1.2-6.4,0.6-8.6-1.7s-2.9-5.7-1.7-8.6
		c1.2-3,4.1-4.9,7.3-4.9C241.3,342.6,244.8,346.2,244.8,350.5z M150,350.5c0,3.2-1.9,6.1-4.9,7.3c-2.9,1.2-6.3,0.5-8.6-1.7
		c-2.2-2.3-2.9-5.6-1.7-8.6c1.2-2.9,4.1-4.9,7.3-4.9c2.1,0,4.1,0.8,5.6,2.3C149.2,346.4,150,348.4,150,350.5L150,350.5z
		 M173.8,326.8L173.8,326.8c0,3.2-1.9,6-4.9,7.3c-2.9,1.2-6.3,0.5-8.6-1.7c-2.2-2.3-2.9-5.6-1.7-8.6c1.2-2.9,4.1-4.9,7.3-4.9
		C170.2,318.9,173.8,322.5,173.8,326.8L173.8,326.8z M173.8,374.2L173.8,374.2c0,3.2-1.9,6.1-4.9,7.3s-6.3,0.5-8.6-1.7
		s-2.9-5.6-1.7-8.6c1.2-2.9,4.1-4.9,7.3-4.9c2.1,0,4.1,0.8,5.6,2.3S173.8,372.1,173.8,374.2L173.8,374.2z M55.3,350.5
		c0,3.2-1.9,6.1-4.9,7.3s-6.4,0.6-8.6-1.7c-2.3-2.3-2.9-5.7-1.7-8.6c1.2-3,4.1-4.9,7.3-4.9C51.7,342.6,55.3,346.2,55.3,350.5
		L55.3,350.5z M102.7,350.5L102.7,350.5c0,3.2-1.9,6.1-4.9,7.3c-2.9,1.2-6.3,0.5-8.6-1.7s-2.9-5.6-1.7-8.6c1.2-2.9,4.1-4.9,7.3-4.9
		c2.1,0,4.1,0.8,5.6,2.3C101.8,346.4,102.7,348.4,102.7,350.5L102.7,350.5z M79,326.8L79,326.8c0,3.2-1.9,6.1-4.9,7.3
		c-2.9,1.2-6.3,0.5-8.6-1.7c-2.3-2.3-2.9-5.7-1.7-8.6c1.2-2.9,4.1-4.9,7.3-4.9C75.4,318.9,79,322.5,79,326.8L79,326.8z M126.4,326.8
		L126.4,326.8c0,3.2-1.9,6.1-4.9,7.3s-6.3,0.6-8.6-1.7c-2.3-2.2-2.9-5.6-1.7-8.6c1.2-3,4.1-4.9,7.3-4.9c2.1,0,4.1,0.8,5.6,2.3
		C125.5,322.7,126.4,324.7,126.4,326.8L126.4,326.8z M79,374.2c0,3.2-1.9,6.1-4.9,7.3c-2.9,1.2-6.3,0.6-8.6-1.7
		c-2.3-2.3-2.9-5.7-1.7-8.6c1.2-3,4.1-4.9,7.3-4.9c2.1,0,4.1,0.8,5.6,2.3C78.1,370.1,79,372.1,79,374.2L79,374.2z M126.4,374.2
		c0,3.2-1.9,6.1-4.9,7.3c-2.9,1.2-6.3,0.6-8.6-1.7c-2.3-2.3-3-5.6-1.7-8.6c1.2-3,4.1-4.9,7.3-4.9c2.1,0,4.1,0.8,5.6,2.3
		C125.6,370.1,126.4,372.1,126.4,374.2L126.4,374.2z M434.4,350.5c0,3.2-1.9,6.1-4.9,7.3c-3,1.2-6.4,0.5-8.6-1.7
		c-2.3-2.3-2.9-5.7-1.7-8.6c1.2-3,4.1-4.9,7.3-4.9C430.9,342.6,434.4,346.2,434.4,350.5L434.4,350.5z M387,350.5
		c0,3.2-1.9,6-4.9,7.3c-2.9,1.2-6.3,0.5-8.6-1.7c-2.3-2.2-2.9-5.6-1.7-8.6c1.2-2.9,4.1-4.9,7.2-4.9c2.1,0,4.1,0.8,5.6,2.3
		C386.2,346.4,387,348.4,387,350.5L387,350.5z M410.7,326.8c0,3.2-1.9,6.1-4.9,7.3c-3,1.2-6.4,0.5-8.6-1.7c-2.3-2.3-2.9-5.7-1.7-8.6
		c1.2-3,4.1-4.9,7.3-4.9C407.2,318.9,410.7,322.5,410.7,326.8L410.7,326.8z M410.7,374.2c0,3.2-1.9,6.1-4.9,7.3
		c-3,1.2-6.4,0.6-8.6-1.7c-2.3-2.3-2.9-5.7-1.7-8.6c1.2-3,4.1-4.9,7.3-4.9c2.1,0,4.1,0.8,5.6,2.3
		C409.9,370.1,410.8,372.1,410.7,374.2L410.7,374.2z M268.5,326.8c0,3.2-1.9,6.1-4.9,7.3c-2.9,1.2-6.3,0.5-8.6-1.7
		c-2.3-2.2-2.9-5.6-1.7-8.6c1.2-2.9,4.1-4.9,7.3-4.9c2.1,0,4.1,0.8,5.6,2.3C267.7,322.7,268.5,324.7,268.5,326.8L268.5,326.8z
		 M268.5,374.2c0,3.2-1.9,6.1-4.9,7.3c-2.9,1.2-6.3,0.6-8.6-1.7c-2.3-2.2-2.9-5.6-1.7-8.6c1.2-2.9,4.1-4.9,7.3-4.9
		c2.1,0,4.1,0.8,5.6,2.3C267.7,370.1,268.6,372.1,268.5,374.2L268.5,374.2z M292.3,350.5c0,3.2-1.9,6.1-4.9,7.3
		c-3,1.2-6.4,0.6-8.6-1.7c-2.3-2.3-2.9-5.7-1.7-8.6c1.2-3,4.1-4.9,7.3-4.9C288.7,342.6,292.2,346.2,292.3,350.5z M339.6,350.5
		c0,3.2-1.9,6.1-4.9,7.3c-2.9,1.2-6.3,0.5-8.6-1.7c-2.2-2.3-2.9-5.6-1.7-8.6c1.2-2.9,4.1-4.9,7.3-4.9c2.1,0,4.1,0.8,5.6,2.3
		C338.8,346.4,339.6,348.4,339.6,350.5L339.6,350.5z M197.4,397.9c0,3.2-1.9,6.1-4.9,7.3c-3,1.2-6.4,0.6-8.6-1.7
		c-2.3-2.3-2.9-5.7-1.7-8.6c1.2-3,4.1-4.9,7.3-4.9C193.9,390,197.4,393.5,197.4,397.9z M244.8,397.9c0,3.2-1.9,6.1-4.9,7.3
		c-3,1.2-6.4,0.6-8.6-1.7c-2.3-2.3-2.9-5.7-1.7-8.6c1.2-3,4.1-4.9,7.3-4.9C241.3,390,244.8,393.6,244.8,397.9z M150,397.9
		c0,3.2-1.9,6.1-4.9,7.3c-2.9,1.2-6.3,0.5-8.6-1.7c-2.2-2.3-2.9-5.6-1.7-8.6c1.2-2.9,4.1-4.9,7.3-4.9c2.1,0,4.1,0.8,5.6,2.3
		C149.2,393.8,150,395.8,150,397.9L150,397.9z M55.3,397.9L55.3,397.9c0,3.2-1.9,6.1-4.9,7.3c-3,1.2-6.4,0.6-8.6-1.7
		s-2.9-5.7-1.7-8.6c1.2-3,4.1-4.9,7.3-4.9C51.7,390,55.3,393.5,55.3,397.9L55.3,397.9z M102.7,397.9c0,3.2-1.9,6.1-4.9,7.3
		c-2.9,1.2-6.3,0.5-8.6-1.7s-2.9-5.6-1.7-8.6c1.2-2.9,4.1-4.9,7.3-4.9c2.1,0,4.1,0.8,5.6,2.3C101.8,393.8,102.7,395.8,102.7,397.9z
		 M434.4,397.9c0,3.2-1.9,6.1-4.9,7.3s-6.4,0.6-8.6-1.7c-2.3-2.3-2.9-5.7-1.7-8.6c1.2-3,4.1-4.9,7.3-4.9
		C430.9,390,434.4,393.6,434.4,397.9L434.4,397.9z M387,397.9c0,3.2-1.9,6.1-4.9,7.3c-2.9,1.2-6.3,0.6-8.6-1.7
		c-2.3-2.2-2.9-5.6-1.7-8.6s4.1-4.9,7.2-4.9c2.1,0,4.1,0.8,5.6,2.3C386.2,393.8,387,395.8,387,397.9L387,397.9z M292.3,397.9
		c0,3.2-1.9,6.1-4.9,7.3c-3,1.2-6.4,0.6-8.6-1.7s-2.9-5.7-1.7-8.6c1.2-3,4.1-4.9,7.3-4.9C288.7,390,292.2,393.6,292.3,397.9z
		 M339.6,397.9c0,3.2-1.9,6.1-4.9,7.3c-2.9,1.2-6.3,0.5-8.6-1.7c-2.2-2.3-2.9-5.6-1.7-8.6c1.2-2.9,4.1-4.9,7.3-4.9
		c2.1,0,4.1,0.8,5.6,2.3C338.8,393.8,339.6,395.8,339.6,397.9L339.6,397.9z M315.9,326.8L315.9,326.8c0,3.2-1.9,6-4.9,7.3
		s-6.3,0.5-8.6-1.7c-2.2-2.3-2.9-5.6-1.7-8.6s4.1-4.9,7.3-4.9c2.1,0,4.1,0.8,5.6,2.3C315.1,322.7,315.9,324.7,315.9,326.8
		L315.9,326.8z M363.4,326.8L363.4,326.8c0,3.2-1.9,6.1-4.9,7.3c-3,1.2-6.4,0.6-8.6-1.7s-2.9-5.7-1.7-8.6c1.2-3,4.1-4.9,7.3-4.9
		c2.1,0,4.1,0.8,5.6,2.3C362.5,322.7,363.3,324.7,363.4,326.8L363.4,326.8z M315.9,374.2c0,3.2-1.9,6.1-4.9,7.3
		c-2.9,1.2-6.3,0.5-8.6-1.7c-2.2-2.3-2.9-5.6-1.7-8.6c1.2-2.9,4.1-4.9,7.3-4.9c2.1,0,4.1,0.8,5.6,2.3
		C315.1,370.1,315.9,372.1,315.9,374.2L315.9,374.2z M363.3,374.2c0,3.2-1.9,6.1-4.9,7.3s-6.4,0.6-8.6-1.7c-2.3-2.3-3-5.7-1.7-8.6
		c1.2-3,4.1-4.9,7.3-4.9c2.1,0,4.1,0.8,5.6,2.3S363.4,372.1,363.3,374.2L363.3,374.2z M197.4,445.3c0,3.2-1.9,6.1-4.9,7.3
		c-3,1.2-6.4,0.5-8.6-1.7s-2.9-5.7-1.7-8.6c1.2-3,4.1-4.9,7.3-4.9C193.9,437.4,197.4,441,197.4,445.3L197.4,445.3z M221.1,421.6
		c0,3.2-1.9,6.1-4.8,7.3c-3,1.2-6.4,0.6-8.6-1.7c-2.3-2.3-2.9-5.7-1.7-8.6c1.2-3,4.1-4.9,7.3-4.9
		C217.6,413.8,221.1,417.3,221.1,421.6L221.1,421.6z M244.8,445.3c0,3.2-1.9,6.1-4.9,7.3c-3,1.2-6.4,0.5-8.6-1.7
		c-2.3-2.3-2.9-5.7-1.7-8.6s4.1-4.9,7.3-4.9c2.1,0,4.1,0.8,5.6,2.3C244,441.2,244.8,443.2,244.8,445.3L244.8,445.3z M150,445.3
		c0,3.2-1.9,6-4.9,7.3c-2.9,1.2-6.3,0.5-8.6-1.7c-2.2-2.3-2.9-5.6-1.7-8.6c1.2-2.9,4.1-4.9,7.3-4.9c2.1,0,4.1,0.8,5.6,2.3
		C149.2,441.2,150,443.2,150,445.3z M173.7,421.6L173.7,421.6c0,3.2-1.9,6.1-4.8,7.3c-2.9,1.2-6.3,0.6-8.6-1.7
		c-2.3-2.3-2.9-5.6-1.7-8.6s4.1-4.9,7.3-4.9C170.2,413.7,173.7,417.2,173.7,421.6L173.7,421.6z M102.7,445.3c0,3.2-1.9,6-4.9,7.3
		c-2.9,1.2-6.3,0.5-8.6-1.7c-2.2-2.3-2.9-5.6-1.7-8.6c1.2-2.9,4.1-4.9,7.3-4.9c2.1,0,4.1,0.8,5.6,2.3
		C101.8,441.2,102.7,443.2,102.7,445.3L102.7,445.3z M79,421.6c0,3.2-1.9,6.1-4.8,7.3c-2.9,1.2-6.4,0.6-8.6-1.7
		c-2.3-2.3-3-5.7-1.8-8.6c1.2-3,4.1-4.9,7.3-4.9C75.4,413.7,78.9,417.2,79,421.6L79,421.6z M126.4,421.6c0,3.2-1.9,6.1-4.8,7.3
		s-6.4,0.6-8.6-1.7c-2.3-2.2-3-5.6-1.8-8.6c1.2-3,4.1-4.9,7.3-4.9C122.8,413.7,126.3,417.2,126.4,421.6z M387,445.3
		c0,3.2-1.9,6-4.9,7.2c-2.9,1.2-6.3,0.5-8.6-1.7c-2.2-2.2-2.9-5.6-1.7-8.6c1.2-2.9,4.1-4.9,7.2-4.9c2.1,0,4.1,0.8,5.6,2.3
		C386.2,441.2,387,443.2,387,445.3L387,445.3z M410.7,421.6c0,3.2-1.9,6.1-4.8,7.4c-3,1.2-6.4,0.6-8.6-1.7c-2.3-2.3-3-5.7-1.7-8.6
		c1.2-3,4.1-4.9,7.3-4.9C407.2,413.7,410.7,417.2,410.7,421.6L410.7,421.6z M268.5,421.6L268.5,421.6c0,3.2-1.9,6.1-4.8,7.3
		c-2.9,1.2-6.3,0.6-8.6-1.7c-2.3-2.2-3-5.6-1.8-8.6s4.1-4.9,7.3-4.9c2.1,0,4.1,0.8,5.6,2.3C267.7,417.5,268.5,419.5,268.5,421.6
		L268.5,421.6z M292.3,445.3L292.3,445.3c0,3.2-1.9,6.1-4.9,7.3s-6.4,0.5-8.6-1.7c-2.3-2.3-2.9-5.7-1.7-8.6c1.2-3,4.1-4.9,7.3-4.9
		C288.7,437.4,292.3,441,292.3,445.3L292.3,445.3z M339.6,445.3L339.6,445.3c0,3.2-1.9,6-4.9,7.3c-2.9,1.2-6.3,0.5-8.6-1.7
		c-2.2-2.3-2.9-5.6-1.7-8.6c1.2-2.9,4.1-4.9,7.3-4.8c2.1,0,4.1,0.8,5.6,2.3C338.8,441.2,339.6,443.2,339.6,445.3L339.6,445.3z
		 M315.9,421.6L315.9,421.6c0,3.2-1.9,6.1-4.8,7.3c-2.9,1.2-6.3,0.6-8.6-1.7c-2.3-2.2-2.9-5.6-1.7-8.6c1.2-2.9,4.1-4.9,7.3-4.9
		C312.4,413.7,315.9,417.2,315.9,421.6L315.9,421.6z M363.4,421.6L363.4,421.6c0,3.2-1.9,6.1-4.8,7.4c-3,1.2-6.4,0.6-8.6-1.7
		c-2.3-2.2-3-5.7-1.8-8.6c1.2-3,4.1-4.9,7.3-4.9C359.8,413.7,363.3,417.2,363.4,421.6L363.4,421.6z"/>
</g>
</svg>
