<?xml version="1.0" encoding="utf-8"?>
<!-- Generator: Adobe Illustrator 26.3.1, SVG Export Plug-In . SVG Version: 6.00 Build 0)  -->
<svg version="1.1" id="Layer_1" xmlns="http://www.w3.org/2000/svg" xmlns:xlink="http://www.w3.org/1999/xlink" x="0px" y="0px"
	 viewBox="0 0 31.2 31.2" style="enable-background:new 0 0 31.2 31.2;" xml:space="preserve">
<style type="text/css">
	.st0{fill:#E9E7DC;}
</style>
<path class="st0" d="M28.6,14h-4.5l-3.7-5.6C20.1,8,19.5,7.9,19,8.2c-0.5,0.3-0.6,0.9-0.3,1.4l3,4.4H9.5l3-4.4
	c0.3-0.5,0.2-1.1-0.3-1.4c-0.5-0.3-1.1-0.2-1.4,0.3L7.1,14H2.6c-0.6,0-1,0.4-1,1s0.4,1,1,1h1.1l0.8,9.2c0.1,1.5,1.4,2.8,3,2.8h16.3
	c1.5,0,2.9-1.2,3-2.8l0.8-9.2h1.1c0.6,0,1-0.4,1-1S29.2,14,28.6,14z M11.6,24c0,0.6-0.4,1-1,1s-1-0.4-1-1v-5c0-0.6,0.4-1,1-1
	s1,0.4,1,1V24z M16.6,24c0,0.6-0.4,1-1,1c-0.6,0-1-0.4-1-1v-5c0-0.6,0.4-1,1-1c0.6,0,1,0.4,1,1V24z M21.6,24c0,0.6-0.4,1-1,1
	s-1-0.4-1-1v-5c0-0.6,0.4-1,1-1s1,0.4,1,1V24z"/>
</svg>
