<svg xmlns="http://www.w3.org/2000/svg" id="Layer_1" data-name="Layer 1" viewBox="0 0 100 100"><path d="M20 73.7a2.17 2.17 0 1 0 1.39 2.74A2.17 2.17 0 0 0 20 73.7ZM22.51 63.77a2.17 2.17 0 1 0 1.39 2.74A2.19 2.19 0 0 0 22.51 63.77ZM28.93 70.45a2.17 2.17 0 1 0 1.39 2.74A2.17 2.17 0 0 0 28.93 70.45Z"/><path d="M96.46,27.15c-.36-3.91-2.82-7.35-6.94-9.69C81.78,13.06,68.2,13,67.56,13h-.13a138.9,138.9,0,0,0-20.33,3.4C41.23,17.75,20.37,23,10.31,32.24,6.37,34.55,3.9,38.08,3.55,42s1.39,7.8,4.91,11V79.86A7.15,7.15,0,0,0,15.61,87H49.27a7.13,7.13,0,0,0,3.53-.94L89.67,69.73l0,0a.6.6,0,0,0,.11-.06l.18-.12.09-.08a1.71,1.71,0,0,0,.18-.2l0,0s0,0,0,0a.25.25,0,0,0,0-.07,7.07,7.07,0,0,0,1.18-3.91V38C95.05,34.79,96.81,31,96.46,27.15Zm-3,.28c.27,2.95-1.23,6-4.22,8.57L59.82,48.46a11.46,11.46,0,0,0,1.52-6.63c-.36-3.91-2.82-7.36-6.94-9.69-7.74-4.41-21.32-4.47-22-4.47h0A73.31,73.31,0,0,0,20.9,28.74C33,22.43,49,19.08,49.24,19a1.3,1.3,0,0,0,.39-.14,143.85,143.85,0,0,1,18-2.86c1,0,13.58.18,20.4,4.06C91.25,21.93,93.17,24.53,93.44,27.43ZM88.51,65.19a4,4,0,0,1-.52,2l-31.7,14a7.34,7.34,0,0,0,.13-1.34V53.19l32.09-13.6ZM15.61,84a4.12,4.12,0,0,1-4.12-4.11V52.5s0,0,0-.08A1.49,1.49,0,0,0,11,51.14c-3.11-2.62-4.67-5.78-4.38-8.9S8.76,36.59,12,34.77c7.06-4,20.33-4.07,20.46-4.07h0c.13,0,13.4.05,20.46,4.07,3.23,1.83,5.15,4.44,5.42,7.33S57,48.21,53.93,50.82a1.5,1.5,0,0,0-.53,1.28s0,.06,0,.09V79.86A4.12,4.12,0,0,1,49.27,84Z"/><path d="M84.91,24.88a5.49,5.49,0,0,1,1.53,6.19,1.51,1.51,0,0,0,.87,2,1.47,1.47,0,0,0,.54.1,1.52,1.52,0,0,0,1.42-1A8.56,8.56,0,0,0,87,22.7a1.52,1.52,0,1,0-2.11,2.18Z"/></svg>