<svg xmlns="http://www.w3.org/2000/svg" id="Layer_1" data-name="Layer 1" viewBox="0 0 100 100"><path d="M51.07,26.18a11.37,11.37,0,0,0-1.82.49,1.52,1.52,0,1,0,1.06,2.85,9.36,9.36,0,0,1,1.31-.36c3.43-.63,6.61,1,7.1,3.71a4.76,4.76,0,0,1-2,4.5,1.52,1.52,0,0,0,1.91,2.37,7.76,7.76,0,0,0,3-7.42C60.92,28,56.14,25.25,51.07,26.18Z"/><path d="M79.35,35.63a11.31,11.31,0,0,0,3.25-7.82c0-6.89-6.66-12.5-14.84-12.5a17.67,17.67,0,0,0-1.92.12C65.17,9,58.62,4,50.64,4S35.88,9.21,35.42,15.76Q34.7,15.7,34,15.7c-8.18,0-14.84,5.6-14.84,12.5a11,11,0,0,0,2.32,6.7C14.41,35.86,9,41,9,47.22c0,6.89,6.66,12.5,14.84,12.5a17.29,17.29,0,0,0,6.41-1.22c1.41,2.84,10.27,21.41,8.9,35.84a1.5,1.5,0,0,0,.39,1.16,1.52,1.52,0,0,0,1.12.5h20.1a1.53,1.53,0,0,0,1.51-1.66c-1.35-14.23,6.77-31.85,8.27-35a17,17,0,0,0,5.62,1c8.18,0,14.84-5.6,14.84-12.49C91,41.86,86,36.86,79.35,35.63ZM59.12,93H42.3C43,77.82,34.41,60,33,57.1a13.4,13.4,0,0,0,3.44-3.22,13.78,13.78,0,0,0,6,5.31l6,11.92a1.53,1.53,0,0,0,1.34.84h0a1.51,1.51,0,0,0,1.33-.8l6.67-12.23a1.45,1.45,0,0,0,.09-.22,13.56,13.56,0,0,0,5.2-5,13.6,13.6,0,0,0,4.7,4.42C66.12,61.5,58.4,78.23,59.12,93ZM46.46,60.49a17,17,0,0,0,7.07-.13l-3.7,6.8Zm29.7-3.2c-5.88,0-10.89-3.52-11.68-8.18a1.52,1.52,0,0,0-3-.11c-.45,4.92-5.62,8.77-11.76,8.77C44,57.77,39.09,54.5,38.08,50a1.52,1.52,0,0,0-3,0c-1.5,4-6.12,6.72-11.28,6.72-6.51,0-11.8-4.24-11.8-9.46s5.29-9.46,11.8-9.46l1,0a1.52,1.52,0,0,0,1-2.73,1.67,1.67,0,0,0-.23-.23,8.57,8.57,0,0,1-3.4-6.63c0-5.22,5.29-9.46,11.8-9.46a15.15,15.15,0,0,1,2.33.19,1.43,1.43,0,0,0,.65.17h.18a1.53,1.53,0,0,0,1.33-1.7,6.54,6.54,0,0,1-.06-.89C38.41,11.28,43.9,7,50.64,7s12.22,4.24,12.22,9.46v.24a1.52,1.52,0,0,0,1.22,1.53,1.49,1.49,0,0,0,1.18.29,14.89,14.89,0,0,1,2.5-.21c6.5,0,11.8,4.24,11.8,9.46,0,3-1.83,5.85-4.88,7.63a1.56,1.56,0,0,0-.71.5,1.5,1.5,0,0,0,1.67,2.44h.52c6.51,0,11.8,4.24,11.8,9.46S82.67,57.29,76.16,57.29Z"/></svg>