<svg xmlns="http://www.w3.org/2000/svg" viewBox="0 0 512 512"><defs><style>.cls-1{fill:#E8D2D2;}.cls-2{fill:#211915;}</style></defs><path id="_49" d="M92.34,195.81v19a14.07,14.07,0,0,0,14.07,14.07h11.92l17.78,154.92a21.85,21.85,0,0,0,21.7,19.35H388.5a21.85,21.85,0,0,0,21.7-19.35L428,228.9h11.92A14.07,14.07,0,0,0,454,214.83v-19a14.07,14.07,0,0,0-14.08-14.07H353.82l88.42-88.42a5.38,5.38,0,0,0,0-7.61l-6.54-6.54a5.39,5.39,0,0,0-7.6,0L325.53,181.74H220.77L118.21,79.17a5.39,5.39,0,0,0-7.6,0l-6.54,6.54a5.38,5.38,0,0,0,0,7.61l88.42,88.42H106.41A14.07,14.07,0,0,0,92.34,195.81Z" class="cls-1" data-name="49"/><g id="_50" data-name="50"><path d="M236.94 199.68H203.62a2.5 2.5 0 0 1 0-5h33.32a2.5 2.5 0 0 1 0 5zM308.38 199.68H267.89a2.5 2.5 0 0 1 0-5h40.49a2.5 2.5 0 0 1 0 5z" class="cls-2"/><path d="M422.74,246.85H89.26a16.59,16.59,0,0,1-16.57-16.58v-19a16.59,16.59,0,0,1,16.57-16.58h86.08a2.5,2.5,0,0,1,0,5H89.26a11.59,11.59,0,0,0-11.57,11.58v19a11.59,11.59,0,0,0,11.57,11.58H422.74a11.59,11.59,0,0,0,11.57-11.58v-19a11.59,11.59,0,0,0-11.57-11.58H336.66a2.5,2.5,0,0,1,0-5h86.08a16.59,16.59,0,0,1,16.57,16.58v19A16.59,16.59,0,0,1,422.74,246.85Z" class="cls-2"/><path d="M105 279.82a2.5 2.5 0 0 1-2.48-2.22l-3.78-33a2.5 2.5 0 1 1 5-.57l3.79 33a2.51 2.51 0 0 1-2.2 2.77zM371.34 421.11H140.66a24.34 24.34 0 0 1-24.19-21.56l-8.73-76.16a2.5 2.5 0 1 1 5-.57L121.44 399a19.33 19.33 0 0 0 19.22 17.13H371.34A19.33 19.33 0 0 0 390.56 399l17.78-154.92a2.5 2.5 0 1 1 5 .57L395.53 399.55A24.34 24.34 0 0 1 371.34 421.11z" class="cls-2"/><path d="M194.35 421.11h-20a2.5 2.5 0 0 1-2.5-2.5V320.06a12.5 12.5 0 0 1 25 0v98.55A2.5 2.5 0 0 1 194.35 421.11zm-17.5-5h15V320.06a7.5 7.5 0 0 0-15 0zM337.65 421.11h-20a2.5 2.5 0 0 1-2.5-2.5V320.06a12.5 12.5 0 0 1 25 0v98.55A2.5 2.5 0 0 1 337.65 421.11zm-17.5-5h15V320.06a7.5 7.5 0 0 0-15 0zM266 421.11H246a2.5 2.5 0 0 1-2.5-2.5V320.06a12.5 12.5 0 1 1 25 0v98.55A2.5 2.5 0 0 1 266 421.11zm-17.5-5h15V320.06a7.5 7.5 0 1 0-15 0zM213.06 242a21.21 21.21 0 1 1 21.21-21.21A21.23 21.23 0 0 1 213.06 242zm0-37.41a16.21 16.21 0 1 0 16.21 16.2A16.22 16.22 0 0 0 213.06 204.56z" class="cls-2"/><path d="M194.8 219.15a2.48 2.48 0 0 1-1.76-.73L85.15 110.53a7.87 7.87 0 0 1 0-11.14l6.53-6.54a7.89 7.89 0 0 1 11.14 0l107.9 107.9a2.5 2.5 0 0 1-3.54 3.53L99.29 96.39a2.89 2.89 0 0 0-4.07 0l-6.54 6.54a2.87 2.87 0 0 0 0 4.06L196.57 214.88a2.5 2.5 0 0 1-1.77 4.27zM298.94 242a21.21 21.21 0 1 1 21.21-21.21A21.23 21.23 0 0 1 298.94 242zm0-37.41a16.21 16.21 0 1 0 16.21 16.2A16.22 16.22 0 0 0 298.94 204.56z" class="cls-2"/><path d="M317.19 219.15a2.5 2.5 0 0 1-1.76-4.26L423.32 107a2.87 2.87 0 0 0 0-4.06l-6.54-6.54a2.89 2.89 0 0 0-4.07 0l-23.78 23.78a2.5 2.5 0 1 1-3.53-3.54l23.78-23.78a7.89 7.89 0 0 1 11.14 0l6.53 6.54a7.87 7.87 0 0 1 0 11.14L319 218.42A2.49 2.49 0 0 1 317.19 219.15zM303.05 205a2.5 2.5 0 0 1-1.77-4.26l60.39-60.4a2.5 2.5 0 0 1 3.54 3.54l-60.39 60.39A2.49 2.49 0 0 1 303.05 205z" class="cls-2"/></g></svg>