<svg xmlns="http://www.w3.org/2000/svg" id="Layer_1" data-name="Layer 1" viewBox="0 0 100 100"><path d="M95.3,51.47c-.58-6.37-1.37-12.57-3.94-18.17l-.06-.12A28,28,0,0,0,88,27.81C80,17.47,68.8,11.82,54.71,11a9.21,9.21,0,0,0-7,2.33l-1.45,1.23C34.57,24.47,22.51,34.69,10.38,44.41,5.8,48.07,4.75,51.84,4.53,56.74c-.06,1.27,0,7.13,0,13.34.05,6,.1,12.76,0,13.75A4.89,4.89,0,0,0,5.79,87.9,4.63,4.63,0,0,0,9.09,89a12.22,12.22,0,0,0,1.51-.1c8.9-1.08,18-2.08,26.75-3l16.22-1.79c10.72-1.19,21.8-2.42,32.7-3.54a5.84,5.84,0,0,0,5.45-4.33C94.84,67.37,96,59.28,95.3,51.47Zm-83-4.69C24.42,37,36.48,26.8,48.16,16.9l1.44-1.22a6.32,6.32,0,0,1,4.94-1.63c13.2.76,23.67,6,31.13,15.64a24.82,24.82,0,0,1,2.08,3.15c-4.9,1.13-10.43,2.37-15.94,3.61-6.15,1.39-12.29,2.77-17.51,4a1.48,1.48,0,0,0-1,.86,1.55,1.55,0,0,0,.07,1.36c2.57,4.6,2.12,6.47.4,8.31a5.33,5.33,0,0,1-6.07,1.48,6.82,6.82,0,0,1-3.24-2.81,8.79,8.79,0,0,1-.69-3.14c-.07-.63-.14-1.28-.25-1.94a1.54,1.54,0,0,0-.66-1A1.42,1.42,0,0,0,42,43.3a1.27,1.27,0,0,0-.34,0l-8.73,2.07c-8.17,2-17.41,4.17-24.2,5.58A11.72,11.72,0,0,1,12.25,46.78Zm76.64,28.4A2.9,2.9,0,0,1,86,77.51c-10.92,1.12-22,2.35-32.73,3.54L37,82.84c-8.78,1-17.86,2-26.78,3-1.69.21-2.22,0-2.38-.18A2.47,2.47,0,0,1,7.6,84c.06-1,0-6.2,0-14-.05-5.89-.09-12,0-13.18h0A22.64,22.64,0,0,1,7.82,54a1.53,1.53,0,0,0,.85.07c6.89-1.41,16.49-3.71,25-5.73,2.52-.61,4.93-1.18,7.1-1.69,0,0,0,.09,0,.13a11.21,11.21,0,0,0,1.06,4.31,9.77,9.77,0,0,0,4.81,4.16,8.26,8.26,0,0,0,9.31-2.23c2.61-2.81,2.93-5.82.95-10.1,4.77-1.1,10.18-2.31,15.59-3.53,5.77-1.3,11.56-2.61,16.64-3.78,2,4.85,2.67,10.25,3.21,16.11C93,59.11,91.86,66.77,88.89,75.18Z"/><path d="M74.89 41.37h0A9 9 0 0 0 68.51 44a8.71 8.71 0 0 0-2.62 6.21A9 9 0 0 0 74.49 59h.24a8.73 8.73 0 0 0 6.06-2.53 8.81 8.81 0 0 0-5.9-15.13Zm3.81 13A5.68 5.68 0 0 1 74.57 56a6 6 0 0 1-5.68-5.81 5.71 5.71 0 0 1 1.73-4 5.88 5.88 0 0 1 4.12-1.72h.09a5.76 5.76 0 0 1 3.87 9.91ZM40.36 63.29a7.73 7.73 0 0 0-5.58 2.35 8 8 0 0 0 5.67 13.44h.14a7.76 7.76 0 0 0 5.54-2.5 8 8 0 0 0 2.17-5.8A7.78 7.78 0 0 0 40.36 63.29Zm3.58 11.2A4.73 4.73 0 0 1 40.53 76h-.08a5 5 0 0 1-3.5-8.3 4.78 4.78 0 0 1 3.45-1.42h0a4.78 4.78 0 0 1 4.88 4.58A4.92 4.92 0 0 1 43.94 74.49ZM65.93 63.3c-3.43-.16-5.8 1.89-6.29 5.5a5.92 5.92 0 0 0 1.63 4.68 5.7 5.7 0 0 0 4.11 1.92h.37a5.92 5.92 0 0 0 5.89-5.89.92.92 0 0 0 0-.16C71.53 65.67 69.45 63.47 65.93 63.3Zm-.41 9.06a2.72 2.72 0 0 1-2.06-1 2.87 2.87 0 0 1-.84-2.19c.34-2.49 1.75-2.88 2.9-2.88h.27c1.94.09 2.77 1 2.85 3C68.48 71.28 67.52 72.21 65.52 72.36ZM35.7 57.74a5.91 5.91 0 1 0-5.9 6A5.94 5.94 0 0 0 35.7 57.74Zm-5.9 2.93a2.94 2.94 0 1 1 2.9-2.93A2.92 2.92 0 0 1 29.8 60.67ZM21 69.18a5.26 5.26 0 1 0 5.2 5.26A5.24 5.24 0 0 0 21 69.18Zm0 7.48a2.22 2.22 0 1 1 2.19-2.22A2.21 2.21 0 0 1 21 76.66Z"/></svg>