<?xml version="1.0" encoding="UTF-8"?><svg id="a" xmlns="http://www.w3.org/2000/svg" viewBox="0 0 194.53 140.45"><defs><style>.b{fill:#fff;}.c{fill: #e9e7dc;}</style></defs><path class="b" d="M62.46,127.15h-.01v.03h0v.04s0-.04,.01-.06h0Z"/><g><path class="b" d="M171.03,10.18c-.07,.16-.04,.1,0,0h0Zm.1-.25l.02-.04s-.01,.03-.02,.04Zm-6.96-4.75h.04c.29,.04,.02,0-.04,0Zm-56.12,70.85c-.11,.02-.23,.05-.32,.04-.01,0,.24-.03,.32-.04ZM25.33,131.53c.08,0,.15,.02,.23,.03-.07-.01-.15-.02-.23-.03Zm.31,.04s.05,.01,.08,.02c-.03,0-.05-.01-.08-.02Zm1.52,1.69c-.02,.06-.03,.12-.06,.2,.02-.07,.04-.15,.06-.23h0s-.04,.05-.07,.09c.02-.04,.05-.07,.07-.11,0-.02,0-.04,0-.06,0-.02,0-.04,0-.05,0,.03,.01,.05,.01,.07,0-.01,0-.02,0-.03,0-.02,.01-.03,.02-.04,0,.02,0,.05-.01,.08,.02-.03,.04-.06,.06-.09-.02,.03-.03,.06-.06,.1h0c.03,.2,0,.18-.01,.07Z"/><path class="b" d="M189.25,103.78c-.06,.07-.1,.15-.11,.2l.02-.02s.04-.05,.07-.08c0-.01,.01-.03,.01-.04,0-.02,0-.04,.01-.05Z"/><path class="b" d="M95.22,75.77h0Z"/><path class="b" d="M107.01,56.31s-.02-.08-.02-.16c.01,.08,.03,.16,.02,.16Zm-4.82-4.92s0-.06,0-.06c0,0,0,.02,0,.06Zm-.29-1.04c-.05-.11-.14-.31-.13-.29,.05,.09,.09,.18,.13,.29Zm-8.24,.29s0-.07,.01-.11c0,.08,0,.13-.01,.11Zm.02,.38s.03,.21,.04,.34c-.04-.13-.06-.26-.04-.34Zm.2,.93s.01,.03,.03,.08c-.01-.03-.03-.06-.03-.08Zm3.33,2.31h0Zm1.37-.34s.09-.04,.14-.06c-.05,.02-.09,.04-.14,.06Zm13.17-12.37c0-.06-.02-.11-.01-.11,0,0,0,.05,.01,.11Z"/><g><path class="c" d="M147.54,6.02c5.21-.38,10.45-1.37,15.69-.93,.33,.03,.66,.06,.99,.1,.3,.04,0,0-.05,0,.16,.03,.33,.05,.49,.08,.65,.11,1.29,.25,1.93,.43,1.42,.39,2,.62,3.21,1.29,1.29,.72,2.02,1.27,3.02,2.24,.49,.47,.96,.98,1.39,1.5,.13,.16,.26,.32,.39,.47,.03,.03-.24-.35-.16-.21,.02,.04,.06,.07,.07,.11,.1,.19,.22,.38,.31,.57,.06,.12,.1,.25,.16,.36-.06-.1-.29-.72-.14-.33,.03,.08,.06,.15,.09,.23,.28,.73,.53,1.48,.76,2.24,.67,2.18,1.22,4.39,1.76,6.6,1.56,6.46,2.86,12.98,4.1,19.5,1.48,7.82,2.83,15.66,4.05,23.53,.6,3.87,1.17,7.75,1.7,11.63,.02,.14,.13,.96,.03,.25,.03,.21,.06,.42,.08,.63,.06,.48,.13,.96,.19,1.44,.12,.91,.23,1.82,.35,2.73,.21,1.7,.41,3.41,.6,5.11,.57,5.21,1.17,10.51,.98,15.76-.01,.4-.03,.81-.07,1.21-.01,.18-.03,.36-.05,.54-.06,.65,.13-.71,.01-.08-.05,.28-.1,.56-.17,.83-.03,.11-.08,.22-.1,.32-.07,.34,.36-.73,.11-.28-.22,.39-.11-.15,.24-.27-.12,.04-.23,.25-.33,.35-.29,.3-.59,.59-.91,.87-.93,.83-1.89,1.47-3.12,2.15-2.43,1.34-5,2.17-7.83,2.93-6.54,1.77-13.16,3.26-19.75,4.83-7.21,1.71-14.44,3.36-21.69,4.93-14.47,3.13-29,5.96-43.61,8.36-14.54,2.39-29.14,4.35-43.8,5.78-6.71,.65-14.01,3.02-20.61,.62-.12-.04-.23-.09-.35-.13-.39-.15,.3,.14-.08-.03-.25-.11-.5-.23-.75-.36-.54-.28-1.07-.59-1.57-.93-.09-.06-.77-.58-.39-.27-.2-.16-.39-.33-.58-.5-.43-.39-.84-.8-1.22-1.23-.17-.19-.33-.38-.49-.58,.31,.37-.17-.23-.26-.36-.33-.47-.65-.96-.93-1.47-.27-.48-.53-.96-.77-1.46-.11-.23-.22-.47-.33-.71-.06-.14-.12-.27-.18-.41,.14,.33,.02,.04-.05-.13-1.72-4.42-2.54-9.1-3.68-13.69-1.82-7.28-3.5-14.6-5.03-21.94-1.5-7.2-2.83-14.42-4.1-21.67-1.07-6.14-2.05-12.03-2.09-18.3-.02-3.12,.18-6.08,.81-9.01,.55-2.58,1.3-5.13,2.62-7.32,.08-.13,.17-.24,.24-.37,.22-.36-.5,.56-.04,.06,.24-.26,.48-.52,.74-.76,.14-.13,.28-.25,.42-.37,.07-.06,.14-.11,.21-.17,.39-.33-.5,.36-.16,.12,.36-.25,.72-.52,1.1-.76,.85-.54,1.73-1.02,2.63-1.47,.52-.26,1.04-.51,1.56-.74,.25-.11,.5-.22,.75-.33,.15-.06,.29-.14,.44-.19-.43,.15-.36,.15-.03,.01,2.68-1.1,5.41-2.04,8.17-2.9,6.97-2.17,14.1-3.87,21.23-5.41,8.41-1.82,16.88-3.39,25.36-4.83,8.79-1.49,17.61-2.84,26.44-4.08,1.08-.15,2.17-.3,3.25-.45,.52-.07,1.04-.14,1.56-.21,.24-.03,.48-.07,.73-.1,.16-.02,1.06-.14,.47-.06,2.1-.28,4.19-.56,6.29-.83,3.89-.5,7.78-.98,11.67-1.44,6.47-.76,12.95-1.47,19.43-2.06,2.21-.2,4.42-.39,6.63-.55,1.34-.1,2.49-1.08,2.49-2.49,0-1.27-1.14-2.59-2.49-2.49-5.41,.39-10.8,.93-16.19,1.51-7.66,.82-15.31,1.74-22.95,2.73-8.98,1.17-17.95,2.43-26.9,3.82-8.93,1.39-17.85,2.9-26.73,4.62-7.97,1.54-15.92,3.23-23.78,5.3-6.13,1.61-12.26,3.42-18.06,6-1.9,.84-3.79,1.79-5.47,3.02-2,1.46-3.29,3.05-4.3,5.33-5.39,12.21-2.72,25.96-.52,38.59,1.31,7.51,2.75,15.01,4.34,22.47,1.5,7.06,3.27,14.04,4.91,21.07,1.13,4.84,2.11,9.75,4.31,14.24,2.3,4.72,6.21,8.31,11.28,9.83,7.14,2.14,14.69-.14,21.88-.85,7.51-.74,15-1.62,22.48-2.63,15.08-2.02,30.08-4.52,45.01-7.42,14.84-2.88,29.61-6.14,44.31-9.65,3.7-.88,7.4-1.79,11.09-2.7,2.86-.71,5.74-1.34,8.56-2.21,2.87-.89,5.74-2.01,8.26-3.67,1.33-.87,2.62-1.88,3.71-3.04,.31-.33,.61-.68,.82-1.08,.76-1.51,.85-3.3,.91-4.96,.08-2.29-.03-4.6-.18-6.89-.45-6.91-1.33-13.78-2.26-20.64-1.1-8.04-2.37-16.07-3.75-24.06-1.3-7.5-2.7-14.99-4.28-22.43-1.08-5.1-2.15-10.25-3.76-15.21-.5-1.54-1.04-3.03-2.05-4.31-3.75-4.77-9.14-7.22-15.11-7.69-5.2-.42-10.39,.56-15.57,.94-1.34,.1-2.49,1.07-2.49,2.49,0,1.27,1.14,2.59,2.49,2.49Z"/><path class="c" d="M5.32,37.29c5.13,3.73,10.36,7.33,15.68,10.79,6.76,4.41,13.67,8.61,20.73,12.53,7.74,4.29,15.67,8.23,23.84,11.63,7.62,3.17,15.48,5.88,23.58,7.51,7.01,1.41,14.55,2.27,21.63,.83,6.24-1.27,12.06-4.39,17.23-8.02,6.02-4.22,11.45-9.24,16.46-14.61,5.19-5.55,9.95-11.51,14.4-17.66,3.9-5.4,7.55-10.98,10.87-16.74,2.43-4.21,4.75-8.54,6.51-13.08,.26-.68,.51-1.36,.71-2.06,.38-1.29-.46-2.71-1.74-3.06-1.32-.36-2.68,.44-3.06,1.74-.2,.7-.45,1.38-.71,2.06-.07,.19-.15,.39-.23,.58-.04,.09-.08,.18-.11,.28-.02,.05-.04,.09-.06,.14-.15,.37,.08-.2,.11-.26-.21,.42-.38,.87-.57,1.31-.97,2.14-2.04,4.22-3.15,6.29-2.96,5.47-6.27,10.76-9.77,15.9-2.01,2.94-4.1,5.84-6.26,8.67-.13,.16-.25,.33-.38,.49-.37,.48,.09-.11-.18,.23-.3,.38-.6,.77-.9,1.15-.56,.71-1.13,1.42-1.7,2.12-1.17,1.44-2.36,2.86-3.58,4.26-4.77,5.49-9.91,10.72-15.59,15.28-.3,.24-.61,.49-.92,.73-.34,.27,.27-.2-.19,.14-.18,.14-.36,.27-.54,.41-.69,.52-1.38,1.02-2.09,1.51-1.34,.94-2.72,1.83-4.13,2.66-1.35,.79-2.73,1.53-4.15,2.2-.34,.16-.68,.31-1.02,.46-.16,.07-.31,.14-.47,.2,.52-.23,.04-.02-.19,.07-.67,.27-1.35,.52-2.04,.75-1.35,.46-2.73,.83-4.13,1.11-.34,.07-.67,.13-1.01,.18-.14,.02-.33,.09-.46,.07-.02,0,.56-.07,.28-.04-.13,.01-.26,.03-.39,.05-.74,.08-1.49,.13-2.23,.16-1.74,.08-3.48,.06-5.22-.03-.91-.05-1.83-.12-2.74-.21-.45-.04-.89-.09-1.34-.14-.21-.02-.41-.05-.62-.08-.1-.01-.21-.03-.31-.04,.22,.03,.31,.04,.04,0-7.92-1.14-15.63-3.42-23.1-6.24-.97-.37-1.93-.74-2.89-1.12-.48-.19-.96-.39-1.44-.59-.22-.09-.44-.18-.67-.28-.09-.04-.89-.37-.51-.21-1.97-.83-3.92-1.7-5.87-2.6-3.9-1.8-7.74-3.72-11.53-5.72-7.27-3.85-14.37-8.02-21.32-12.42-5.71-3.62-11.33-7.39-16.85-11.3-1.07-.76-2.14-1.53-3.2-2.3-1.09-.79-2.78-.19-3.41,.89-.74,1.26-.2,2.61,.89,3.41h0Z"/><path class="c" d="M74.89,73.08c-7.93,7.4-15.6,15.08-22.99,23.03-7.39,7.95-14.49,16.16-21.29,24.61-2.01,2.5-4,5.03-5.96,7.58-.87,1.13-1.92,2.22-2.29,3.62-.2,.77-.24,1.61,0,2.38,.43,1.38,1.6,2.1,2.98,2.21,1.3,.11,2.55-1.22,2.49-2.49-.06-1.44-1.1-2.38-2.49-2.49,.51,.04,.94,.18,1.31,.55l.3,.38c.18,.48,.23,.6,.17,.36,.17,.68,.06,.59,.06,.34,0-.27,.14-.27-.05,.31,.03-.1,.05-.21,.08-.32,.08-.28,.25-.32-.09,.18,.13-.19,.23-.4,.38-.59,.38-.51,.77-1.01,1.16-1.51,.11-.14,.21-.27,.32-.41-.04,.05-.34,.44-.07,.09,.25-.32,.49-.64,.74-.96,1.59-2.05,3.21-4.09,4.84-6.11,3.26-4.04,6.59-8.03,9.98-11.96,6.83-7.9,13.93-15.57,21.29-22.99,4.15-4.18,8.37-8.28,12.68-12.29,.96-.89,.97-2.63,0-3.52-1.02-.94-2.5-.95-3.52,0h0Z"/><path class="c" d="M132.76,68.7c7.53,3.68,14.9,7.7,22.15,11.9,7.5,4.34,14.89,8.9,22.15,13.64,3.89,2.54,7.74,5.13,11.55,7.79,1.07,.75,2.81,.23,3.41-.89,.67-1.27,.25-2.61-.89-3.41-6.88-4.8-13.9-9.39-21.02-13.82-7.36-4.57-14.84-8.96-22.46-13.1-4.08-2.22-8.2-4.36-12.37-6.4-1.17-.57-2.75-.36-3.41,.89-.59,1.12-.36,2.8,.89,3.41h0Z"/><path class="c" d="M105.88,47.55c-.11,.15-.22,.31-.33,.46-.05,.07-.38,.5-.14,.2,.25-.32-.14,.18-.2,.25-.13,.17-.27,.33-.41,.49-.47,.55-.96,1.07-1.48,1.58-.53,.52-1.09,1.02-1.67,1.49-.06,.05-.12,.1-.19,.15-.33,.27,.08-.06,.13-.09-.13,.09-.25,.19-.38,.29-.32,.24-.66,.47-1,.68-.3,.19-.6,.36-.91,.52-.17,.09-.34,.17-.51,.25-.07,.03-.15,.06-.22,.1,.11-.06,.46-.18,.15-.07-.35,.12-.7,.24-1.06,.32-.15,.03-.32,.04-.46,.09,.05-.02,.63-.06,.2-.03-.1,0-.21,.02-.31,.02-.18,0-.36,0-.55,0-.1,0-.63-.05-.22-.01,.42,.04-.09-.03-.18-.06-.16-.04-.31-.1-.46-.14-.39-.12,.51,.26,.15,.06-.12-.07-.25-.13-.37-.2-.12-.07-.24-.15-.36-.23-.32-.2,.45,.39,.07,.06-.21-.19-.42-.38-.61-.59-.07-.08-.35-.43-.08-.08,.28,.36-.05-.09-.12-.2-.14-.22-.27-.46-.39-.7-.03-.07-.09-.15-.1-.22-.01-.05,.21,.57,.14,.31-.04-.16-.11-.31-.16-.47-.05-.18-.23-.6-.18-.78,.02-.06,.05,.64,.05,.36,0-.06-.01-.12-.02-.18-.01-.16-.02-.33-.02-.49,0-.14,.03-.29,.02-.43-.02-.27-.05,.42-.05,.36,0-.06,.03-.19,.04-.24,.06-.29,.14-.56,.24-.84,.14-.39-.25,.5-.06,.13,.07-.13,.13-.26,.2-.39,.07-.13,.15-.25,.23-.37,.03-.05,.08-.1,.11-.15,.14-.23-.43,.49-.12,.16,.18-.2,.36-.4,.56-.59,.09-.09,.19-.16,.28-.25,.23-.2-.45,.33-.21,.16,.07-.05,.14-.1,.21-.15,.23-.15,.46-.29,.7-.42,.13-.07,.27-.13,.4-.19,.21-.1-.31,.13-.3,.13,.02,.01,.26-.1,.3-.11,.26-.09,.52-.16,.79-.22,.11-.02,.65-.11,.17-.04-.47,.06,.05,0,.17,0,.29-.02,.59-.02,.88,0,.06,0,.13,.01,.19,.02,.24,.02-.36-.06-.35-.05,.08,.07,.39,.07,.5,.1,.28,.07,.55,.16,.82,.26,.29,.11-.51-.24-.23-.09,.06,.03,.12,.06,.18,.09,.16,.08,.31,.16,.46,.26,.11,.07,.22,.14,.33,.21,.06,.04,.14,.12,.22,.15,.02,.01-.44-.36-.24-.19,.23,.21,.47,.4,.68,.63,.11,.11,.21,.23,.31,.34,.04,.05,.08,.1,.13,.15,.2,.23-.32-.44-.15-.19,.18,.26,.35,.51,.5,.79,.08,.14,.15,.27,.22,.41,.03,.06,.05,.12,.08,.18,.12,.24-.14-.32-.12-.29,.16,.27,.24,.65,.31,.95,.03,.13,.06,.26,.09,.39,.02,.09,.03,.18,.05,.26,.05,.24-.05-.33-.04-.33,0,0,.05,.92,.05,1.01-.03,1.79-.43,3.49-.02,5.28,.41,1.79,1.73,3.36,3.41,4.06,.95,.4,2.07,.5,3.05,.14,1.12-.4,1.91-1.1,2.6-2.04,.89-1.2,1.5-2.68,2.09-4.05,.7-1.6,1.34-3.22,1.87-4.88,1.02-3.18,1.85-6.58,1.4-9.93-.42-3.15-2.06-5.93-4.48-7.98-4.67-3.95-11.23-5.86-17.31-5.41-4.85,.36-9.44,2.1-12.99,5.45-2.67,2.52-4.67,5.8-5.74,9.31-1.12,3.69-1.15,7.78,.07,11.44,1.54,4.66,4.75,8.36,8.63,11.27,1.06,.79,2.17,1.51,3.32,2.16,1.13,.65,2.78,.3,3.41-.89,.63-1.19,.31-2.71-.89-3.41-1.17-.67-2.3-1.4-3.37-2.21-.06-.04-.11-.09-.17-.13-.03-.02,.44,.35,.23,.18-.12-.1-.25-.2-.37-.3-.24-.2-.48-.39-.71-.6-.45-.39-.89-.8-1.3-1.22-.39-.39-.76-.79-1.11-1.21-.17-.19-.32-.39-.49-.59-.25-.31,.39,.53,.07,.09-.08-.11-.16-.21-.24-.32-.59-.81-1.11-1.67-1.55-2.57-.1-.2-.2-.41-.29-.62-.05-.1-.23-.54-.04-.08,.19,.45,.01,.02-.03-.08-.17-.44-.32-.88-.46-1.34-.13-.43-.23-.86-.32-1.29-.04-.21-.08-.41-.12-.62-.02-.11-.03-.22-.05-.33-.04-.26,.06,.51,.06,.42,0-.06-.02-.13-.02-.19-.1-.86-.13-1.73-.1-2.6,.02-.42,.05-.84,.1-1.26,0-.02,.03-.15,.02-.18-.01-.04-.09,.64-.06,.43,.02-.11,.03-.21,.05-.32,.03-.21,.07-.43,.12-.64,.16-.81,.38-1.61,.65-2.39,.07-.2,.14-.4,.22-.6,.03-.09,.07-.17,.1-.25,.2-.49-.2,.45-.07,.18,.17-.37,.34-.74,.52-1.11,.38-.73,.8-1.44,1.27-2.12,.11-.16,.22-.32,.34-.47,.06-.08,.12-.17,.19-.25,.2-.27-.43,.54-.14,.19,.26-.32,.52-.64,.8-.94,.53-.58,1.09-1.13,1.68-1.63,.14-.12,.29-.24,.43-.35,.04-.03,.1-.07,.13-.11,.05-.06-.52,.4-.34,.26,.09-.07,.18-.14,.27-.2,.31-.22,.62-.44,.94-.64,.32-.2,.64-.39,.97-.56,.16-.08,.32-.16,.47-.24,.1-.05,.2-.09,.29-.14,.07-.03,.15-.07,.22-.1,.49-.23-.38,.15-.08,.03,1.33-.52,2.69-.93,4.1-1.17,.18-.03,.37-.05,.55-.09,.02,0-.55,.07-.27,.04,.1-.01,.21-.03,.31-.04,.37-.04,.74-.07,1.11-.09,.71-.04,1.43-.05,2.15-.02,.35,.01,.69,.03,1.03,.06,.19,.02,.37,.03,.56,.05,.19,.02,.87,.15,.13,0,.71,.14,1.42,.23,2.12,.4,.7,.17,1.39,.36,2.07,.59,.33,.11,.65,.23,.98,.35,.17,.07,.34,.15,.52,.21,0,0-.48-.21-.23-.1,.12,.05,.24,.11,.36,.16,1.19,.54,2.33,1.17,3.38,1.94,.08,.06,.15,.12,.23,.17,.02,.01-.43-.34-.22-.17,.11,.09,.22,.18,.33,.27,.27,.23,.54,.47,.79,.71,.22,.21,.43,.44,.63,.66,.09,.11,.18,.21,.27,.32,.36,.44-.29-.4,.04,.05,.37,.51,.68,1.06,.95,1.63,.19,.39-.2-.52,0-.01,.06,.16,.12,.33,.17,.49,.12,.37,.21,.75,.28,1.14,.01,.08,.03,.17,.04,.25,.05,.28-.04-.25-.03-.25,0,0,.05,.51,.05,.58,.02,.39,.03,.78,.02,1.18-.01,.37-.04,.73-.07,1.1-.01,.11-.04,.23-.04,.34,0,0,.08-.52,.03-.24-.03,.2-.06,.39-.09,.59-.27,1.55-.7,3.07-1.18,4.57-.24,.74-.5,1.48-.77,2.2-.14,.38-.29,.75-.44,1.13-.03,.08-.07,.16-.1,.24-.11,.26,.08-.2,.08-.2-.06,.22-.19,.43-.28,.63-.32,.71-.65,1.41-1.01,2.11-.16,.31-.31,.61-.48,.91-.08,.14-.17,.29-.26,.43-.3,.45,.28-.28,0,0-.07,.07-.49,.45-.15,.18,.29-.23,.1-.08,.03-.04-.34,.2,.18-.08,.22-.08-.04,0-.15,.04-.19,.05-.26,.1,.39-.09,.35-.04-.03,.04-.23-.03-.25,0,.03-.04,.64,.13,.29,.03-.39-.12,.48,.28,.12,.07-.08-.05-.54-.36-.19-.09,.35,.26-.07-.1-.14-.17-.27-.27,.3,.46,0,.01-.07-.11-.14-.36-.24-.42,0,0,.19,.51,.11,.28-.02-.07-.05-.13-.07-.19-.05-.16-.08-.32-.11-.48-.06-.28,.05,.24,.03,.24-.03-.01-.02-.39-.02-.43-.02-.78,.08-1.56,.15-2.33,.14-1.51,.08-3.06-.43-4.5-.52-1.46-1.3-2.79-2.38-3.91-2.2-2.3-5.32-3.25-8.43-2.67-2.67,.5-5.31,2.42-6.41,4.94-.7,1.59-.88,3.16-.62,4.87,.2,1.26,.75,2.53,1.52,3.55,1,1.33,2.2,2.29,3.75,2.92,1.54,.62,3.34,.59,4.93,.2,1.57-.38,3.08-1.17,4.39-2.1,1.3-.92,2.54-1.95,3.67-3.09,1.12-1.14,2.13-2.39,3.05-3.7,.75-1.07,.23-2.82-.89-3.41-1.28-.68-2.61-.25-3.41,.89h0Z"/></g></g></svg>