<?xml version="1.0" encoding="UTF-8"?><svg id="a" xmlns="http://www.w3.org/2000/svg" viewBox="0 0 94.07 94.07"><defs><style>.b{fill:#e9e7dc;}</style></defs><path class="b" d="M67.03,5.35l.61-.47c.46,.07,.83,.32,1.19,.61-.18,.61-1.08,1.04-.33,1.71,.41,.07,.52-.39,.85-.36,.23-.37-.17-.67-.15-1.14,.68,.18,1.17,.56,1.72,.89-.02,.43-.71,.48-.45,1.07,.11,.09,.32,.26,.63,.26,.42-.2,.11-.67,.38-.99,.81,.54,1.78,.86,2.33,1.77,.17,.28,.27,.28,.9,.43-.02,.11-.05,.22-.07,.33-.01,.08,0,.16,0,.22,.16,.41,.54-.19,.68,.16,.18,.45,.68-.13,.91,.32,.13,.26,.47,.42,.72,.62,3.19,2.63,6.01,5.61,8.39,8.98,.41,.59,1.21,1.07,.89,2,.74,.63,.18,1.46,.35,2.27,.56-.47,.69-.98,.48-1.66,.18,.27,.37,.54,.53,.81,2.76,4.64,4.63,9.63,5.68,14.93,.11,.54,.35,1.11-.13,1.68-.18,.21-.03,.69-.03,1.04q.49,.44,.67,1.03c-.07,.13-.18,.11-.3,.1-.12-.01-.24-.02-.33,.17,0,.02-.07,.12-.04,.17,.4,.62,.25,1.43,.68,2.04,.27,.38-.27,.75-.06,.96,.25,.27,.35,.52,.33,.84-.04,.49,.18,1-.36,1.42-.35,.27-.03,.86-.31,1.23,.09,.29,.31,.46,.59,.54,.08,.65,.07,1.24-.05,1.83-.12,.57-.38,1.15-.97,1.23-.6,.09-.92,.53-1.54,.72,.44,.33,.86,.14,1.21,.27-.02,.41,.22,.45,.59,.38-.11,.28-.47,.07-.58,.31l-.1,.9c-.24,.33-.61,.18-.95,.36-.27,.75-.96,1-1.78,1.16,.73,.03,.82,.83,1.38,1.02-.11,.43-.44-.17-.58,.12-.2-.2-.16-.49-.28-.77-.72,.12-1.45,.61-2.14,.05-.73,.29-.49,.91-.52,1.4-.01,.21,.18,.43,0,.66-.47-.34-.89-.36-1.24,.23,.42,.2,.77,.19,1.11-.08q.96,.45,1.12,1.36c.11,.03,.22,.06,.33,.1-.45,.4-2.21,.83-2.75,.65-.39,.24-.69,.6-.99,.94-.09,.35,.36,.44,.3,.76-.53,.38-1.09,.61-1.75,.21-.04,.5-.43,.62-.74,.78-.2,.43,.29,.94-.29,1.21q.79,.81,.23,1.74c.99,.14,1.16,.8,.95,1.62,.62,.13,.75,1.01,1.56,.63-.16,.41-.37,.21-.5,.34-.15,.2-.09,.43-.05,.67,0,.06,0,.11,0,.17-.41,.41-.56,.02-.65-.26-.18-.59-.57-.99-1.02-1.29,0-.49,.59-.89,.04-1.34-.37,.36-.73,.65-1.13,.8-.59,0-.43-.44-.49-.73-.2-.1-.4-.07-.59-.02h0l.19-.3c.06-.27-.32-.22-.31-.46,.27-.81,.46-1.68,1.22-2.2-.17-1.21,.82-2.02,.95-2.92,.37-.42,.77-.19,1-.45,.01-.41-.36-.31-.64-.48,1.26-3.26,1.89-6.7,2.35-9.97,.3-.48,.79-.09,.93-.69,0-.28-.49,.02-.59-.27-.32-1.25-.37-5.43-.09-6.62l-.38-.61c-.06-.4,.35-.63,.2-.93-.08-.28-.22-.21-.37-.13q-.03-.63,.3-1.24c-.43-.12-.66-.39-.71-.88-.09-.71-.3-1.4-.48-2.1-.18-.69-.4-1.38-.61-2.08,.06-.42,.52-.58,.69-1.03-.17-.59-.49-1.29,.36-1.74-.25-.27-.16-.53,.01-.8-.27-.3-.65-.4-1.06-.49,0-1.04,.87-1.11,1.45-1.52,.19,.34,.03,.8,.5,.9,.2-.04,.31-.18,.38-.39-.01-.29-.18-.51-.37-.76-.39-.14-.86,.03-1.16-.21-.82,.22-1.15,1.18-2.12,1,.03,.47,.84,.74,.26,1.24-.31,.09-.45-.11-.56-.33-.68-1.35-1.33-2.72-2.04-4.06-.23-.44-.62-.8-.9-1.23-3.73-5.6-8.57-9.98-14.53-13.11-4.07-2.13-8.38-3.47-12.94-4.06-3.27-.42-6.53-.45-9.79-.01-4.78,.64-8,1.61-12.64,3.82-.24-.1-.12-.53-.47-.54-.52,.78-1.17,1.42-1.98,1.9-3.21,1.92-6.07,4.27-8.64,6.99-.52,.55-1.01,1.12-1.47,1.72-.38,.49-.76,.92-1.39,.85-.23,.33,.05,.48,.11,.68-1.34,1.95-2.59,3.94-3.65,6.06-1.04,2.08-1.81,4.24-2.47,6.47-.68,2.31-1.11,4.67-1.36,7.04-.25,2.36-.17,4.75,.03,7.13,.2,2.36,.55,4.73,1.22,6.96,.66,2.22,1.55,4.41,2.57,6.54,1.03,2.14,2.43,4.05,3.69,6.16-.77,.27-1.48,.51-1.94,1.16l.3,1.18c.72-.22,.9-.78,.98-1.39,.33-.26,.78-.19,.99-.56,.45,.41,.61,.74,.47,1.32-.1,.42-.36,1.09,.29,1.43,.79-.06,.54-.6,.5-1.12,.56,.37,.85,.88,1.15,1.18,.17,.6-.51,.62-.41,1.05l-.63,.18c-.09-.33-.12-.69-.42-.82-.33-.07-.42,.31-.69,.19-.12-.19,.03-.49-.26-.62-.18,.09-.34,.19-.36,.5,.06,.25,.38,.52,.19,1.1-.02,.26-.62,.07-.92,.54,.71-.1,.88,.42,1.11,.68,.37,.09,.58,0,.76-.17-.19,.52-.8,.84-.7,1.5,.07,.53-.91,.9-.09,1.72,.68-.64,1.45-1.2,1.99-2.03,.21,.26,.5,.33,.89,.38,.18-.42,.48-.79-.23-.99-.02-.06-.03-.11-.05-.17,0-.42,.29-.44,.6-.42,.05,.22-.04,.48,.23,.66,.09,0,.21,.03,.32,.01,.12-.02,.22-.08,.24-.25-.03-.37-.45-.33-.65-.55-.07-.75-.64-.23-.91-.44-.25,.32-.15,.64-.22,.93-.61,0,0-.52-.28-.66-.24-.08-.53,.16-.76-.09,.6-.09,1.04-.33,.97-1.04,.41-.2,.89,.58,1.26-.08,1.03,.46,1.12,1.57,1.64,2.43,.2-.14,.36-.25,.52-.37,.54,.05,.65,.44,.7,.96,.46,.05,.9,.17,1.32,.48,5.05,3.83,10.73,6.24,16.98,7.33,.35,.06,.72,.05,.99,.35-.19,.13-.48,0-.69,.25-.03,.41,.58,.4,.59,.78,.63-.07,.77-.5,.71-.96,.86-.38,1.31,.31,1.97,.44,.2-.21,.45-.48,.84-.31,.54,.23,.38,.69,.26,1.05,.24,.14,.39,.14,.56,.06,.08-.32,.19-.64-.11-1.03,.9-.14,1.67-.28,2.33,.41,.41-.35,.8-.73,1.36-.46,.21,.1,.34,.02,.53-.06,.97-.4,1.92-.35,2.84,.16,.08,.32-.06,.42-.37,.45-.36,.03-.55-.31-.91-.37-.11,.46-.15,.94-.6,1.33,.72,.34,1.08,1.04,1.85,1.22,.15,.36,.09,.73,.02,1.1-.42,.08-.54-.43-.91-.32-.24,.82-.24,.83,.56,.87,.67,.64,.1,1.92,1.23,2.29,.42-.42,.04-.53-.15-.71,.02-.33,.46-.29,.55-.72-.38-.65-.23-1.56-.62-2.34-.07-.15-.05-.41,.03-.56,.46-.92,.45-1.93,.49-2.94,.5-.12,.19,.66,.49,.54,.57-.13,.32-.48,.33-.66,.82-.53,1.66-.34,2.52-.29,.18,.15,.13,.6,.55,.61,.37-.36-.13-.73-.02-1.11,.57-.35,1.21-.41,1.73-.64,.33,.15,.16,.61,.53,.63,.43-.2-.07-.51,.27-.89l2.31-.95c.42,.26,.54,.91,1.13,.87,.21-.25,.16-.41-.05-.52-.21-.11-.24-.3-.29-.49,1.14-.87,2.39-1.53,3.97-2.16,.16-.3,.65-.68,1.19-1.02,.54-.34,1.05-.72,1.55-1.07,.48-.08,.76,.24,1.07,.47l.66-.35c-.43-.18-.57-.52-.86-.9,.85,.09,1.01,.73,1.3,1.24h0c-.63,.08-.98,.6-1.45,.84,.04,.57,.45,.29,.64,.41,.24,.4-.04,.93,.41,1.3,.23,.19,.13,.6-.11,.87-.26,.3-.46,.65-.51,1.05-.4,.05-.55-.24-.71-.51,.42-.8,.35-1.36-.27-2.03,0,.39,.04,.77-.01,1.14-.05,.39-.1,.83-.32,1.13-.5,.7-.14,1.36-.07,2.04h0c-.13,.02-.27,.1-.25,.21,.13,.64-.24,1.32,.1,1.93,.58,.2,.83-.99,1.51-.19-.8,1.27-2.29,1.56-3.46,2.36-.88-.59-1.89-.72-2.71-1.32l-.15,.2c.26,.63,.52,1.25,.78,1.88-1.01,.74-4.44,1.99-6.87,2.5-.28-.15,.04-.35-.08-.59-.88-.01-1.07,1.34-1.95,1.11-.58,.02-.2-.61-.61-.65-.43,.1-.53,.4-.47,.88-.83,.11-1.66,.4-2.46-.11-.34,.03-.4,.35-.62,.6-.88-.29-1.7,.3-2.61,.27-.92-.03-1.84,.03-2.76,.03-.92,0-1.84,.03-2.75-.05-.78-.06-1.52-.49-2.36-.24-.02-.81,.36-.99,1.25-.83-.89-.74-.29-1.69-.79-2.39,.37-.23,.57-.55,.55-1.08-.3,.06-.57-.12-.77,.12l.07,.82-1.12,.44c-.35-.29,.04-.57-.12-.85l-.46-.09c-.11-.08-.14,.09-.07-.05,.01-.02,.07-.03,.1-.03,.46-.03,1,.05,1.01-.67-1.03-.25-1.26-.17-2.12,.68,.02,.22,.19,.33,.32,.49,.1,.34-.43,0-.34,.27-.12,.38,.26,.37,.35,.58-.05,.48-.69,.38-.79,.83,.08,.26,.36,.23,.55,.36,.24-.21,.3-.57,.71-.73,.27,.52,.08,1.52,1.15,1.36,.14,.22,.16,.44-.03,.75-.65-.39-1.37-.29-2.13-.2-.1-.4,.17-.89-.41-1.09-.51-.03-.3,.64-.67,.82-.52,.05-.98-.2-1.53-.3l.35-.95c-.65-.73-1.56-.2-2.43-.65,.23,.84,1.02,.4,1.26,1.02-.91-.41-1.82,0-2.69-.31-.86-.31-1.73-.6-2.61-.86-.4-.12-.38-.62-.96-.74,0,0-.06,.34-.44,.14-.36-.55-.9-1.04-1.81-.81-.22,.05-.52-.16-.76-.27-2.39-1.12-4.66-2.46-6.83-3.97-.37-.25-.67-.51-.51-.88-.35-.36-.44-.01-.61,0-.21-.06-.34-.2-.45-.46,.42-.55,.43-1.24,.46-1.94,.04-.31-.07-.54-.41-.69l-1.77,.82c.46,.29,.91,.13,1.33,.18-.16,.86-.46,1.08-1.01,.65-.91-.71-1.83-1.41-2.51-2.37-.11-.16-.18-.42-.33-.48-1.33-.55-1.88-1.9-2.91-2.74l-.08-1.19c-.33-.27-.41,.2-.73,.06-.66-.66-.94-1.21-.98-2.02-.17-.25-.36,.08-.57-.02-.38-.26-.6-.69-.87-1.09-1.91-2.81-3.5-5.8-4.77-8.95-.28-.69-.27-1.49-.6-2.11-.98-1.81-1.3-3.8-1.74-5.75-.44-1.94-.74-3.91-.81-5.91-.01-.35,0-.73-.25-1.03v-5.04c.22-.31,.21-.68,.25-1.03,.17-1.58,.35-3.15,.54-4.73,.13-1.06,.47-2.01,1.57-2.44-.16-.43-.75-.34-.83-.79-.04-.34,.48-.31,.42-.66-.18-1.08,.34-2.01,.62-2.99,.31-1.1,.81-2.06,2-2.34,.05-.29,.03-.47-.07-.66-.33-.63-.32-1.26,.05-1.88,.18-.31,.34-.63,.5-.95h-.01c.26,.51,.74,.2,1.12,.3-.09,.43,.29,.57,.51,.81-.37,.26-.6,.59-.59,1.07,.11,.07,.2,.15,.3,.2,.09,.04,.24-.05,.3,.23-.12,.64-.46,1.35-.36,2.15,.55-.15,1.14-.15,1.32-.84l-.58-.26c.33-.62,.06-1.25-.02-1.88,.24-.55,.76-.74,1.34-.94-.39-.25-.72-.14-1.02-.18-.26-.03-.3-.21-.33-.41,.13-.27,.67-.21,.58-.73-.42,0-.72,.23-1.04,.4-.14-.17-.02-.46-.11-.55-.66-.62-.27-1.25-.06-1.87,.11-.33,.34-.63,.52-.94,1.14-1.88,2.42-3.67,3.8-5.38,.08,.24-.06,.58,.31,.68,.16,.05,.31,.01,.44-.09-.15-.28,.02-.58-.02-.87l-.35-.09c1.16-1.39,2.32-2.78,3.71-3.93,.42,.16,.81,.39,.98-.21-.04-.24-.39-.06-.43-.32,.72-.59,1.28-1.37,2.19-1.86,.15,.37,.57,.47,.73,.67,.3,.6,.02,1.04-.06,1.57,.55,.13,.67,.72,1.06,1.03,.32-.14,.55-.31,.61-.62-.19-.37-.5-.54-.91-.8,.65,.05,.57-.32,.47-.61-.14-.4-.46-.74-.42-1.21h.5c.12,.42,.19,.86,.6,1.13,.38-.07,.6-.32,.73-.66-.3-.41-.63-.74-1.03-1.02-.26,.11-.52,.21-.81,.13l-.44-.37c.33-.49,.74-.75,1.34-.49h0c.03,.38,.39,.31,.71,.55-.09-.69,.79-.57,.79-1.19,.52,.02,.91-.18,1.09-.74l-.61-.32c-.02,.39-.46,.36-.58,.68-.03,.07-.03,.16-.05,.23l-.23-.54c.49-.63,1.28-.58,1.91-.88,.36-.93,1.3-1.07,2-1.52l.4,.34c.14-.5,.82-.27,.93-.67,.17-.62,.7-.7,1.14-.91,.68-.32,1.37-.73,2.09-.85,.79-.14,1.38-.64,2.12-.88,2.31-.75,4.65-1.44,7.04-1.83,2.02-.32,4.04-.88,6.08-.38,.2-.14,.15-.3,.13-.45h4.8c.35,.3,.97,.17,1.06,.82,.52-.2,.83-.47,1.37-.43,1.91,.14,3.76,.5,5.51,.9,.21,.26-.14,.48,.14,.61,.38,.13,.35-.41,.67-.39,.97,.17,1.92,.44,2.84,.79,.21,.42,.08,.8-.02,1.19,.24,.21,.51,.25,.69-.06,.4-.7,.99-.57,1.56-.39,.6,.2,1.21,.38,1.75,.74-.15,0-.31,0-.42,.14,.03,.25,.25,.37,.38,.55-.35,.04-.63-.37-1.08-.1-.19,.15-.06,.58-.52,.79-.18,.02-.49,.05-.8,.12-.1,.02-.19,.14-.17,.28,.1,.38,.48,.17,.68,.32l.37,1.23c.13-.87,.77-.17,1.08-.73,0-.56,.42-1.11,.58-1.76,.2-.13,.4-.26,.43-.54,.37-.02,.68,.14,.95,.34-.03,.31-.36,.29-.48,.47,.15,.28,.46,.12,.63,.3-.77,.41-1.05,.82-.87,1.42,.05,.18,.09,.48,.41,.53l.56-.28c-.52-.54-.22-1.02,.04-1.51ZM33.45,89.7c.11-.23,.37-.48-.14-.72-.12,.35-.68,.38-.68,.86,.29,.32,.47,.09,.67,0,.25,.49,.88,.44,1.18,.84,.29-.14,.64-.18,.75-.55l-.55-.58c-.52-.21-.85,.1-1.24,.16Zm-20.79-15.45c.03,.19-.04,.4,.13,.55,.97,.03,.79-.97,1.35-1.3-.38-.47-1.06-.23-1.15-.85-.56,.35-.44,.77-.33,1.18-.48,.23-.6-.43-1.02-.41l-.31,.3c-.02,.43,.35,.68,.43,1.04-.48,.17-.95,.27-1.19,.74q.36,.23,1.41-.02c.2-.31,.34-.62,.33-.99,0-.2,.16-.24,.33-.22Zm1.67-59.68c-.37,.03-.66,.23-.95,.51,.34,.96-.55,1.94,0,3.01,.75-.44,.25-1.23,.63-1.69,.42-.5,.35-1.11,.46-1.68,.29-.06,.64,.08,.88-.21,.08-.33,.12-.66-.08-1.08-.36,.43-.39,1.02-.93,1.14ZM62.24,88.39l.4,.77c-.52,.38-.72,1.29-.41,1.71h.83c.29-.43,.67-.75,.74-1.31-.32-.06-.37-.32-.38-.62-.01-.26,.07-.55-.16-.8-.35,.37-.8-.41-1.16,.1-.35,.17-.31-.46-.77-.26-.29,.46-.26,.99,.05,1.71,.33-.53,.91-.67,.86-1.31ZM10.76,22.05c.26,.71-.35,1.23-.73,1.85,.35,.18,.61,.19,.83,.12,.22-.13,.07-.32,.17-.45,.58-.08,1.11-.28,1.43-.87l-.34-.3c.23-.11,.56,.06,.72-.27,.09-.37,.07-.77,.05-1.18-.02-.34,.62-.67,.21-1.15-1.22,.26-1.69,1.3-2.34,2.27ZM57.32,89.5c.23,.37,.57,.26,.62,.41,.26,.8-.69,1.47,.01,2.19,.32-.23,.07-.64,.41-.93,.69,.24,.78-.58,1.25-.86,.22-.08,.45,.29,.67-.06l-.21-1.22c-.58,.04-.55,.53-.77,.85,.18-.65-.19-1.1-.43-1.66-.65,.37-.82,1.08-1.56,1.28Zm-37.91-8.19c.35-1.14-.95-1.35-1.16-2.2-.6,.19-1.1,.49-1.57,.82-.08,.06-.06,.14,.05,.21,.29,.27,.55-.17,.86-.07,.3,.35,.62,.7,.34,1.33l1.01-.39c.07,.16,.03,.45,.48,.31ZM87.99,30.47c-.17,.66-.58,1.16-1.23,1.37-.44,.14-.45,.36-.32,.71,.42,.03,.83,.25,1.28,.07,.41-.63,.61-1.35,.76-2.07-.15-.15-.31-.11-.49-.08ZM5.23,31.79c-.22-.27,.19-.44,.06-.68q-.64-.72-.87-.57c-.14,.26,.29,.37,.16,.64-.08,.23-.53-.12-.5,.4,.56,.22,.8,.99,1.54,1.09,.19-.38,.67-.45,.82-.85-.12-.22-.36-.25-.57-.34-.2,.1-.23,.47-.64,.31Zm2.46,2.27c.8,.12,.06,1.19,.91,1.43,.14-.97,.66-1.86,.19-2.83-.2-.04-.36-.07-.58,.08,.44,.62-.39,.77-.51,1.33Zm-4.96,4.86c-.7,.49-.36,1.25-.46,1.88-.04,.23,.39,.33,.75,.24,.17-.32,.52-.6,.62-1.03-.43-.28-.55-.78-.91-1.1ZM21.16,17.69c-.16-.95,.44-1.79,.15-2.84-.73,.75-.62,1.78-1.19,2.41,.2,.48,.48,.61,1.04,.43Zm58.17,2.67c.47-.44,.5-1.09,.78-1.6-.42-.6-.76-.12-1.2,.04,.15,.38-.3,.62-.19,1,.15,.25,.34,.45,.6,.56Zm9.11,18.79c.37-.58,.74-1.11,.05-1.69-.38,.13-.75,.27-1.09,.58,.49,.22,.29,.97,1.04,1.12Zm-22.11,44.6c-.75-.34-.51-.94-.4-1.43-.19-.22-.35-.32-.56-.19-.34,.38,.07,.84-.14,1.23-.25,.49-.05,.8,.42,.98,.1,.04,.19,.15,.34,0l.34-.6Zm-17.13,6.28c-.3-.23-.45-.62-.88-.73l-.75,.56c.4,.42,.75,.87,1.36,1.04l.28-.87ZM83.7,25.73c.7-.25,.77-.78,.8-1.41-.5-.16-.93-.24-1.24,.32-.06,.41,.52,.59,.44,1.09Zm-35.74,61.75c.04,.41,.27,.31,.42,.42-.14,.19-.51,.04-.54,.36,.39,.19,.84,.22,1.01-.19,.18-.43,.63-.91,.15-1.49-.5,.22-.79,.58-1.05,.91Zm20.21-.91c-.22-.3-.12-.67-.41-.89-.36-.05-.74-.15-1.06,.14,.47,1.25,.51,1.27,1.47,.75ZM5.77,36.22c.76,.06,1.01-.48,1.39-.83-.12-.26-.3-.45-.57-.56-.63,.22-.93,.63-.83,1.39Zm86.28,.53c-.34-.63,.17-1.19-.29-1.76-.5,.14-.89,.35-1,.97,.56-.1,.6,.59,1.29,.78ZM9.99,71.14c.37-.6,.99-.68,1.28-1.17-.79-.56-.87-.53-1.64,.52l.36,.65Zm2.41-42.57l-1.11-.17c.49,.47-.18,.9,.03,1.31,.29-.13,.38,.28,.64,.21,.29-.39,.41-.83,.44-1.35Zm79.39,21.77c.44-.87,.07-1.61-.25-2.35-.37,.08-.43,.3-.37,.47,.2,.62,.18,1.32,.62,1.89ZM11.97,26.08q.31,.95,1.06,1.19c-.37-.59,.15-1.42-.71-1.8l-.35,.61Zm52.49,61.75c.33-.57,.08-1.01-.31-1.49-.93,.3-.08,1.05-.52,1.4,.32,.19,.55,.14,.82,.08ZM17.32,17.89c.45-.14,.5-.19,1.08-1.28-.26-.14-.52-.14-.8-.02-.29,.39-.51,.79-.28,1.29Zm29.81,74.94c-.48-.19-.13-.72-.47-.91-.25-.04-.4,.08-.59,.39,.58,.32-.02,.99,.34,1.48,.45-.16,.48-.56,.72-.96Zm9.1-5.29c.23-.24,.34-.53,.73-.6-.31-.44-.21-.97-.38-1.46-.32,.09-.5,.28-.67,.61l.35,.26c-.04,.36-.28,.71-.03,1.19Zm3.27-79.51c-.34-.32-.37-.82-.55-1.3-.36,.43-.52,1.17-.31,1.44,.29,.38,.58,.31,.86-.14Zm4.51,2.05c.09-1.01-.07-1.44-.51-1.44-.21,.24-.45,.48-.37,.88l.88,.56ZM9.82,26.65c.82,.06,1.09-.29,1.25-.81q-.41-.26-.98-.34c-.04,.36,0,.74-.28,1.15Zm78.44,28.52c.12-.29,.11-.48-.08-.72-.37,.26-.82-.04-1.32,.08l.57,.85,.82-.22Zm-24.98,29.51c.01-.16,0-.28,.04-.39,.06-.16,.07-.3,.01-.45q-.84-.06-.89,.83c.24,.11,.5,.14,.84,.01Zm25.84-38.33c-.02,.26,.12,.42,.25,.55,.19,.2-.21,.45,.05,.61,.22,.08,.4,.07,.58-.1-.05-.35,.05-.7,.17-1.04-.36-.14-.66-.13-1.05-.02Zm-6.9-18.3c.33-.66,.92-.72,1.32-1.05,0-.31-.14-.47-.39-.56-.36,.43-1.26,.49-.93,1.6Zm5.14-1.29c.31-.4,.61-.67,.68-1.03-.3-.38-.61-.2-.91-.19-.07,.38-.18,.75,.23,1.22ZM33.69,4.85c-.19,.28-.21,.56,.05,.91,.3-.62,.7,.31,1.08-.16-.07-.7-.69-.59-1.12-.75ZM14.49,78.75c-.29,.51,.39,.63,.26,.98-.1,.17-.42,.19-.15,.59,.56,.07,.6-.42,.72-.83-.22-.3-.44-.57-.83-.74ZM5.79,38.48c.16-.13,.25-.19,.33-.28,.04-.05,.04-.13,.06-.2q-.71-.69-1.42-.14c.49,.01,.68,.36,1.04,.62Zm-.01,25.38c.58-.53,.65-.75,.28-.98-.31,.03-.58,.15-.78,.41,.02,.34,.19,.51,.5,.56Zm6.77,2.97c-.03,.21-.47-.05-.48,.33,.2,.26,.35,.61,.81,.52,0-.51,.35-1-.03-1.43-.56,.05-.1,.39-.3,.58Zm36.96,24.82c.65,.2,.75-.18,.83-.67l-.84-.18c-.12,.33-.12,.56,.01,.85Zm-.75,.6c-.2,.5,.1,.77,.38,1.19,.19-.33,.53-.39,.49-.74-.18-.35-.5-.42-.86-.45ZM68.65,9.4c-.55-.13-.94-.09-.96,.54,0,.17,.17,.34,.42,.33,.25-.19,.54-.35,.54-.87Zm21.47,33.44c-.36,.8,.18,1.17,.81,1.78,.09-.93-.77-1.17-.81-1.78Zm-2.34-15.88c-.63-.31-.74,.17-.88,.5-.13,.31,.07,.49,.41,.58,.17-.34,.42-.64,.47-1.08ZM5.97,34.66c-.39-.68-.75-.24-1.16,.02,.16,.26,.32,.48,.6,.58,.25-.13,.45-.31,.56-.59Zm60.33,52.34c-.16-.75-.38-1.08-1.05-1.04,.08,.58,.38,.81,1.05,1.04Zm13.36-68.83c-.12-.32-.32-.51-.6-.63-.43,.28-.52,.57,.01,.92l.59-.29ZM7.1,52.8c-.38,.38,.08,.6,.26,1.21,.02-.6,.48-.57,.49-.92-.17-.31-.43-.36-.75-.28Zm-.83-19.06l-.74-.96c-.32,.67-.08,.99,.35,1.3l.38-.34ZM53.04,6.83c-.34,.49-.42,.81,.04,1.13,.33-.35,.31-.66-.04-1.13Zm-8.82,82.53c-.14,.33-.18,.61,.08,.88,.22,.03,.46,.09,.6-.27-.15-.25-.42-.41-.68-.61Zm18.88-3.58c.36,.49,.68,.33,.99,.25,.03-.3,.05-.49-.18-.61-.29-.03-.48,.18-.81,.35Zm1.48-1.71c-.89,.14-1,.29-.62,.86,.13-.32,.6-.33,.62-.86Zm-49.86-8.26c.03-.51,0-.98-.54-1.39-.08,.64,.09,1.06,.54,1.39Zm74.82-22.86c-.18-.23-.13-.53-.42-.58-.24,.14-.45,.29-.51,.57,.06,.17,.19,.26,.34,.33l.6-.31Zm-.66,2.77c-.04,.28,.11,.45,.26,.63,.32-.11,.7-.15,.83-.63h-1.09ZM12.15,72.75q.43-.48-.1-.94c-.51,.38-.07,.63,.1,.94Zm-5.51-2.47c.7-.17,.59-.63,.48-1.15-.55,.26-.43,.74-.48,1.15ZM59.31,3.63c.65,.34,.97-.02,1.61-.18-.65-.14-1.01-.25-1.61,.18ZM13.78,24.19c.25-.09,.42-.23,.39-.52-.09-.18-.21-.34-.41-.39-.06-.02-.14,.04-.26,.08,.09,.28,.07,.59,.28,.83Zm-4.71,6.48c.1,.41-.4,.55-.12,.94,.27-.04,.53-.07,.65-.36,.02-.24-.13-.36-.53-.57Zm28.42,59.64l-.25-1.28c-.37,.45-.49,.85,.25,1.28Zm26.74-2.06c-.27,.47-.27,.82-.07,1.2q.37-.73,.07-1.2Zm-4.34,.14v-.99c-.24-.1-.42-.08-.58,.09,.21,.24,0,.71,.58,.91ZM10.91,64.31c-.59,.5-.28,.8,.1,1.24,.08-.47,.17-.8-.1-1.24Zm16.81,25.02c.39,.27,.67,.32,1.14,0-.44,0-.62-.56-1.14,0ZM69.1,8.45c.01-.39,.56-.71-.14-.97-.11,.29-.55,.54,.14,.97Zm-34.69,.84q.44-.39,0-.84c-.16,.29-.22,.56,0,.84Zm-10.8,.14q-.03,.52,.36,.77c.15-.39,.06-.65-.36-.77Zm47.21,2.23q.33,.41,.69,.03c-.22-.28-.45-.24-.69-.03Zm12.13,9.73c.39,.29,.64,.36,.83-.06-.28-.31-.51-.3-.83,.06ZM3.03,37.14q.05-.51-.35-.79c-.16,.39-.08,.66,.35,.79Zm-1.21,7.67c.2-.2,.2-.43,.01-.59-.16-.14-.4-.19-.56,.08,.09,.28,.26,.45,.55,.51Zm88.54,1.01c.02-.31,.49-.33,.53-.7q-.8,.13-.53,.7ZM3.37,62.3c.32,.08,.6-.09,.89-.22-.16-.25-.36-.38-.62-.33-.2,.13-.32,.26-.27,.55Z"/><path class="b" d="M56.24,15.18c.2-.13,.39-.24,.65-.24,1.66,0,3.31,0,5.01,0-.73,1.22-.7,1.34,.3,1.63,.39-.16,.16-.7,.49-.86,.08-.09,.13-.06,.19,.03,.23,.37,.17,.77,.17,1.17,0,3.16,0,6.32,0,9.48,0,.28,0,.57-.05,.84-.13,.64-.49,.99-1.14,1.03-1.23,.08-2.48,.21-3.69-.08-.4-.1-.67,.15-1.02,.16-1.11,.02-2.2-.09-3.31-.13-.3-.01-.31-.51-.67-.36-.15,.1-.23,.27-.18,.41,.51,1.34,.08,2.72,.21,4.07,.04,.43-.07,.88,.11,1.31,.38,.31,.84,.2,1.27,.2,2.28,.01,4.56,0,6.84,.01,1.44,0,1.78,.35,1.67,1.81-.15,2.11-.36,4.22-.55,6.33-.03,.31-.15,.61-.22,.9-.39,.11-.71-.11-1.16-.08,.18,.61,.86,.55,1.16,1.29-.07,.96-.13,2.27-.28,3.58-.1,.87-.44,1.18-1.31,1.25-1.11,.09-2.22,.23-3.32-.1-.04-.01-.08-.06-.1-.05-1.43,.45-2.93,.05-4.41,.33-.31,.53-.07,1.12-.25,1.71-.81,.07-1.34,.61-1.73,1.31,.01,.24,.12,.44,.32,.59,.3-.19,.08-.64,.41-.84l1-.3c.03,.14,.07,.25,.07,.36,0,1,.01,2,0,3-.01,1.21,.23,2.46-.64,3.45,.18,.26,.34,.18,.5,.18,.49,.5-.1,.67-.28,.93-.01,.3,.28,.3,.37,.48,.02,.26-.27,.38-.28,.42,.52,2.08,.28,4.01,.34,5.99-.24-.12-.15-.36-.35-.38-.04,0-.08,0-.2,0-.35,.59-.04,.87,.52,1.02,.06,.35-.32,.59-.16,.94l-.43,.43c-.52,.23-.58-.59-1.17-.44,.14,.42-.54,.99,.35,1.27l-.38,.42c.05,.33,.15,.62,.48,.87,.32-.06,.68,.2,1.05,.06,.05-.09,.12-.15,.13-.22,.02-.18-.1-.28-.24-.37,0-.27,.2-.38,.41-.52,0,2.08,0,4.14,0,6.21,0,.39,.07,.81-.34,1.07l-.07-.83c-.4-.1-.72-.33-1.08-.29-.55,.7,.49,.71,.45,1.2-.01,.13,.24,.31,.46,.13,.03-.02,.07-.04,.1-.05,.26,.23,.5,.42,.49,.86-.02,.71-.07,1.4-.24,2.09-.21,.09-.26-.35-.43-.17-.44,.16-.16,.65-.66,.87h-4.29l-.13-1.74c-.21-.35-.67-.25-.84-.6,.26-.36,.28-.72,0-1.08,.32-.3,.23-.63,.09-1-.15-.04-.31-.07-.45-.12-.18-.07-.34-.22-.62-.12l-.47,.41c-.1-.24-.31-.28-.5-.23-.52,.15-.93,.73-.92,1.3,.02,.57,.07,1.15,.12,1.76,.41,.34,.67,.82,.85,1.29,.28,.04,.47,.07,.63-.18-.08-.48-.54-.8-.68-1.25-.35-.59,.56-.99,.25-1.56,.35-.51,1.01-.53,1.51-1.04l.03,.61c-.46,.44-.46,.89,0,1.34-.22,.27-.29,.56-.13,.89,.19,.4,.2,.82,.2,1.32h-3.1c-.28-.12-.1-.51-.19-.53-.48-.14-.7,.03-.87,.15-1.1,.78-2.3,.46-3.46,.31-.6-.07-.94-.58-.95-1.22,0-.43-.09-.88,.09-1.32,.39,.02,.37,.65,.84,.54,.45-.92,.31-1.13-.88-1.26-.1-.43-.04-.87-.01-1.3,.26-.32,.63-.45,1.14-.57-.4-.35-.75-.21-1.1-.23v-6.07c.03-.16,.5,.02,.59-.33,.04-.39-.49-.34-.63-.85,.12-1.48-.06-3.15-.03-4.82,.03-1.72,0-3.43,0-5.04,.12-.38,.49-.25,.59-.5-.03-.32-.39-.36-.57-.62v-1.39c.36,.01,.61,.48,1.06,.13-.18-.5-.47-.91-1.04-1.06-.16-1.06,.15-2.07,.04-3.12-.11-1.05-.35-2.1-.24-3.17-.51-.01-.45,.51-.94,.64-.74,.01-1.65,.3-2.55,.04-.49-.14-.4-.71-.5-1.11-.71,.14-.74,1.05-1.59,1-.57-.23-.58-.84-.58-1.45,0-1.72,0-3.44,0-5.16,0-2.2-.01-4.4,0-6.6,.01-1.46,.3-1.74,1.78-1.75,1.04-.01,2.08,0,3.12,0,.39,0,.8,.05,1.14-.11,.34-.37,.23-.79,.24-1.18,.02-1.56-.07-3.13,.06-4.68,.35-4.15,1.84-7.76,5.32-10.3,1.8-1.32,3.85-2.06,6.04-2.39,1.66-.25,3.34-.3,5.02-.25,.35,.01,.76-.09,.89,.42,.4-.48,.83-.51,1.31-.32-.34,.03-.72-.01-.84,.44l.6,.52c-.21,.05-.47-.04-.64,.21-.08,.29-.15,.58,.14,.83,.6-.02,.61-.46,.64-.89,.54-.22,.57-.33,.24-.96Zm-16.81,53.15c-.24-.34-.51-.62-.96-.33,.09,.49,.48,.44,.83,.47,.18,.24,.45,.29,.72,.34,.14-.23,.17-.44-.04-.63-.23-.11-.38,.04-.54,.15Zm1.55-26.18c-.3,.06-.59,.13-.61,.54,.21,.24,.42,.47,.73,.12,.49-.07,.57-.39,.57-.79-.3-.1-.52-.1-.69,.12Zm-1.55,17.28c-.23-.16,.02-.46-.19-.63-.19-.07-.37-.08-.54,.09,.17,.29,.02,.69,.34,.93l-.14,.37c.4,.14,.75,.15,1.39-.1-.61-.1-.32-.72-.86-.67Zm11.53-31.65c-.16-.67-.74-.5-1.23-.7-.08,.66-.33,1.24,.29,1.85,.2-.48,.16-1.07,.79-1.01,.06,.29-.3,.48-.15,.83,.68,.53,.81,1.6,1.69,2.02,.49-.26,.61-.66,.76-1.2-.53,.16-.95,.12-1.31-.15,.19-.52,.03-.83-.85-1.64Zm-.56,47.82c.44-.19,.32-.5,.12-.75-.25-.33-.66-.36-.97-.16-.26,.17-.43,.44-.79,.42-.11,0-.15-.01-.14-.09,.21-.15,.53-.19,.49-.55-.17-.2-.49-.05-.69-.41,.01-.36-.04-.83-.54-1.05-.56,.52-.12,1.3-.56,1.86l.4,.38c-.21,.36-.6-.06-.85,.21,.14,.37,.07,.74,.6,1,.99,.5,.96,.66,.6,1.8-.02,.07,0,.15,0,.34,1.24-.03,.38,.78,.42,1.25l.83,.1c.53-.52,.35-1.28,.69-1.82,.53,.19,.83-.16,.82-.52,0-.44,.32-.65,.46-.99-.63-.05-.55-.7-.89-.99h0Zm-4.74-35.89c-.04-.92,1.1-.35,1.17-1.18-.37-.17-.4-.65-.64-.86-.32-.07-.52-.03-.65,.13-.1,.11-.2,.26-.2,.4-.02,.45-.13,.93,.33,1.5Zm5.67,22.7c.04,.59-.1,1.04-.37,1.36,.26,.49,.73,.24,.84,.35,.29,.28-.15,.64,.43,.65,.33-.68,.02-1.39,.05-2.12l-.96-.25Zm-4.69-4.6c-.39-1.11-1.15-1.71-1.89-2.38,.3,0,.47-.13,.37-.35-.21-.47-.59-.35-.98-.22-.12,.67,.36,.95,.76,1.33,.38,.36,.88,.72,.82,1.4l.92,.23Zm-6.86-4.13c-.85,.02-.74,.81-1.38,1.07,.64,.23,.85,.68,1.18,.96,.87-.63,.04-1.3,.2-2.03Zm2.98,25.58c-.15-.21-.29-.92-.35-1.28-.05-.27-.14-.58-.4-.74-.12-.07-.31-.03-.45,.14l.38,.96-.42,1.06c.44-.01,.82,.5,1.24-.15Zm-9.87-33.73c-.47-.38-.01-.89-.34-1.37-.61,.64-.31-.72-.85-.37-.4,.73,.53,1.26,.17,2.02l1.02-.28Zm10.35-16.2c-.22-.12-.27-.35-.46-.23-.17,.11-.22,.41-.54,.21-.37-.22-.63,.04-.71,.35-.08,.3,.16,.49,.45,.57q.73-.31,1.27-.91Zm8.29,2.75c-.46-.62-.83-1.33-1.78-1.08,.06,.36,.28,.46,.5,.53,.32,.1,.06,.54,.42,.66,.23,0,.5,.06,.86-.11Zm-.02,34.76c.17-.55-.1-1.12,.44-1.37,.1,.09,.17,.28,.36,.13,.05-.19,.1-.38-.12-.56-.48-.21-.82,.24-1.36,.26,.5,.45-.06,1.11,.67,1.54Zm-3.02-1.43c.24-.03,.18,.47,.47,.17,.17-.63-.06-1.03-.68-1.23-.46,.44-.38,.9-.23,1.34,.34,.14,.41-.02,.44-.28Zm-7.63,3.48c-.57,.56-1.02,.84-1.22,1.31,.23,.38,.5,.46,.83,.32,.37-.4,.28-.88,.39-1.63ZM59.48,17.58c-.47-.63-.94-.17-1.42-.14,.4,.34,.7,.72,1.01,1.11,.33-.34,.31-.69,.41-.97Zm-18.04,33.51c-.25,.26-.23,.48-.09,.7,.97,.06,1.4,.02,1.58-.22-.46-.35-1.03-.29-1.49-.48Zm1.45,11.15c.21,.72,.49,1.15,1.27,1.01-.79-.3,.09-1.33-.73-1.61-.24,.18-.03,.62-.54,.6Zm-3.89,2.32c-.03,.31,.03,.65-.35,.89,.4,.1,.71,.34,1.12,.28,.13-.29,.16-.54,.04-.84-.22-.17-.44-.38-.81-.33Zm4.64-11.69c.57-.45,.58-.92,.31-1.46-.35-.02-.57,.07-.72,.35,.23,.29,.04,.7,.41,1.11Zm5.27-8.76q.07-1.06-.97-1.41c.3,.42,.18,.81,.34,1.13,.09,.05,.15,.1,.22,.13,.11,.05,.22,.08,.41,.15Zm-2.69-9.3c-.83,.45-.84,.48-.53,1.21,.24-.26,.57-.33,.88-.43,.1-.3,.03-.55-.35-.78Zm-11.71,5.47c-.32,.27-.3,.6-.16,.88,.27,.54,.97,.07,1.28,.72,.14-.97-.54-.85-.87-.99-.17-.22,.17-.46-.25-.6Zm16.7,34.35q.95-.18,.67-1.05c-.35,.27-.99,.22-.67,1.05Zm-4.43-10.81c-.17-.41-.19-.79-.02-1.15-.47-.17-.71-.03-.89,.3,.16,.36,.19,.85,.9,.86Zm-1.45,9.03c-.22-.57-.22-.57-.66-.95-.13,.27-.07,.55-.08,.83,0,.16,.04,.31,.17,.43,.22,.07,.38-.02,.56-.31Zm4.45-30.86c-.44,0-.59-.32-.92-.26-.25,.16-.52,.31-.54,.69,.49,.21,.9,.06,1.46-.43Zm-5.77-18.9c-.26-.37-.48-.65-.85-.86l-.37,.71c.34,.22,.65,.55,1.23,.15Zm2.61,10.38q-.4-.57-.94-.5c.13,.19-.17,.44,.16,.66,.08,0,.23,.02,.38,0,.11-.01,.21-.08,.4-.16Zm.83,34.72c.84,.57,.94,.57,1.68,.01-.52-.17-1.01-.13-1.68-.01Zm-2.04-40.02c-.18,.44-.16,.83,.31,1.1,.05,.03,.15,0,.27-.02l.07-.71c-.37,.13-.3-.4-.65-.37Zm3.12,22.73c-.48-.86-.99-.3-1.51-.48,.4,.7,.89,.46,1.51,.48Zm1.34,21.05c-.35,.47-.63,.77-.36,1.18,.21,.12,.4,.11,.58-.03l-.23-1.15Zm-1.42-10.24c-.33-.02-.71-.29-.96,.24,.28,.34,.63,.27,.9,.38,.16-.24,.12-.39,.07-.62Zm-4.64-.99q.4-1.18-.56-1.13l.56,1.13Zm10.97-34.53c-.28-.45-.65-.26-.91-.4-.26-.13-.35-.02-.33,.31,.39-.03,.71,.51,1.24,.08Zm-3.52,8.11l-.6,.85c.2,.19,.4,.28,.65,.28,.16-.34,.16-.67-.04-1.13Zm-8.82,9.27c-.25-.41,.33-.88-.1-1.29-.35,.48-.67,.91,.1,1.29Zm-1.79,3.7c.27,.03,.51,.11,.63-.22-.07-.36-.43-.43-.65-.67-.15,.31-.16,.56,.02,.89Zm4.35,26.17c-.36-.03-.61,.15-.84,.37-.03,.03,.02,.14,.03,.23h.9c.06-.22,.07-.37-.09-.6Zm-5.59-21.53c-.17,.43-.16,.84,0,1.28,.61-.44,.56-.85,0-1.28Zm10.34,17.68c-.39,.02-.58,.22-.54,.61,.26,.19,.46,.19,.69-.01,.05-.2,.1-.41-.15-.59Zm-7.87-.65c.16-.42,.5-.61,.52-.99-.79,.05-.91,.23-.52,.99Zm7.51-46.29c-.12-.23-.27-.4-.57-.32-.21,.27-.22,.55,.06,.98,.07-.37,.39-.41,.51-.66Zm5.75,4.61c-.36,.19-.93-.21-1.27,.61,.54-.29,1.03-.05,1.27-.61Zm-9.96,9.67c0-.31,.34-.61,.06-.93q-.48,.35-.06,.93Zm2.02,17.21q.84-.54,.65-1.27l-.65,1.27Zm.56,6.75c.36-.07,.66-.09,.9-.29-.09-.25-.24-.42-.55-.38-.18,.13-.39,.25-.36,.67Zm-8.15,13.67c-.25-.43-.51-.57-.93-.32,.13,.27,.25,.54,.68,.6l.25-.28Zm13.36-54.54c-.24,.11-.68-.02-.64,.5,.45,.21,.63-.01,.64-.5Zm-2.49,5.86c.24-.28,.46-.47,.38-.78-.03-.09-.16-.17-.32-.12-.27,.23-.22,.51-.06,.9Zm-8.4,49.08q.56,.34,.99-.06c-.34-.1-.66-.15-.99,.06Zm9.72-2.34c-.26,.39-.38,.64,.13,.84,.2-.28,.27-.5-.13-.84Zm-7.94-5.93c.13-.45,.17-.77-.03-1.13-.43,.4-.44,.73,.03,1.13Z"/><path class="b" d="M75.13,74.41v.41c.51,.13,1.12,.15,1.26,.77,.38,.1,.54-.23,.75-.28,.41,.13,.48,.55,.75,.71,.65-.2,.2-.66,.26-1.01,.4,.03,.67,.22,.9,.57,.73-.68,1.03,.12,1.53,.52-.12-.51,.47-.75,.29-1.22h0c.62,.19,1.03-.26,1.54-.51l.17,.61c-.07,.34-.42,.28-.55,.6,.42,.62,.3,1.33-.05,2.06l.43,.36c-.72,.98-1.58,1.84-2.51,2.64l.02,.02c.14-1.03-.87-1.01-1.38-1.42,.2-.33,.39-.03,.62-.12-.05-.66,.74-1.35-.03-2.04-.35,.04-.47,.3-.6,.62-1.04-.66-2.07,.25-3.18-.1,.06-.54-.33-.88-.55-1.27-.94-.12-.32,.71-.65,.95h0c-.04-.29-.15-.53-.43-.77-.37,.3-.82,.51-1.4,.35,.04-.39,.38-.54,.64-.78,.38-.07,.64,.5,1.13,.17,.33-.31-.09-.67-.11-.92,.2-.65,.83-.57,1.13-.94h0Zm5.77,3.73c-.4-.36,.1-1.22-.86-1.34-.2,.53-.32,1.04,.05,1.53,.22,.28,.47,.21,.81-.19Z"/><path class="b" d="M84.95,70.28c0-.06,0-.11,0-.17l.77-.29c.29,.23-.02,.43-.02,.59,.23,.68,.9,.63,1.35,.91-.16,.54-.31,1.07-.7,1.47-.28,.16-.73-.27-.87,.3-.02-.33,.04-.68-.38-.81-.16,0-.36,.16-.33,.24,.29,.76-.29,1.55,.14,2.33-.43,.77-.86,1.55-2.03,1.87,.75-.77,.62-1.65,.92-2.38-.46-.49-.77-1.08-1.48-1.15h0c.51-.43-.1-.67-.16-.98,.15-.35,.97-.61,.05-1.04-.35-.16-.16-.92-.78-.96-.32-.34-.57-.87-1.53-.38,.9,.05,.4,.97,1.14,1.03-.11,.7-.93,1.07-.77,1.79-.27,.15-.26-.05-.34-.09-.09-.06-.21-.07-.29-.09-.18-.83-.11-1.72-.54-2.68-.26,.68-.44,1.23-.2,2.07l-.89-1.14,2.41-3.56c.26,.09,.39,.43,.71,.27h0c-.16,.27-.51,.41-.5,.76,.06,.23,.21,.42,.39,.44,.6,.07,.86,.49,1.13,.95,.36,.61,.68,1.21,.66,1.96,0,.3,.25,.47,.62,.44l.31-.58c.41-.16,.91,.09,1.16-.4,.23,.24-.22,.75,.49,.72,.18-.37,.16-.8,.07-1.22-.05-.24-.29-.23-.49-.23Z"/><path class="b" d="M88.79,64.9l.41,.09c.18-.3,.46-.57,.33-.99-.22-.17-.62-.06-.74-.47,.74-.7,1.8-.77,2.66-1.25-.24,.84-1.34,.44-1.62,1.22-.24,.35-.07,.72,.06,1.07-.07,.29-.4,.43-.4,.68,.04,.43,.45,.48,.59,.77-.31,.97-.78,1.84-1.47,2.6-.22,.19-.29-.25-.5-.12-.15,.28-.13,.33,.3,.79l-.5,.71c-.45-.11-.13-.58-.42-.8l-.78,.2c-.22-.13-.25-.28-.23-.5,.13-.33,.71-.11,.83-.73,0-.01-.2-.04-.33-.2,.57-.49,.77-1.1,.29-1.88,.55,.2,.97,.36,.98-.4,0-.29,.13-.63,.52-.78Z"/><path class="b" d="M72.49,78.71c.48-.2,.93-.65,1.42-.19,.33-.14,.23-.67,.69-.54,.24,.19-.15,.46,.11,.66,.27-.05,.56-.07,.85,.01l.2-.44c.54,.21,.53,1.02,1.36,.99-.4,.28-.76,.05-.97,.35,.18,.43,.47,.79,.8,1.12,.08,.35-.03,.72,.17,1.07-.38,.37-.71,.59-1.07,.06-.08-.25,.2-.34,.22-.57-.52-.42-1.09-.83-1.21-1.54-.43-.08-.83-.2-1.1,.06-.35,.34-.57-.03-.84-.03-.27,.01-.16,.44-.57,.42,.48-.52,.07-.95-.06-1.42h0Z"/><path class="b" d="M75.12,74.4c.16-.17,.29-.27,.58-.27,.33,0,.7,.26,1.06-.08-.31-.27-.74-.48-.67-1.1l1.41-1.49c.41,.61,.32,1.53,1.4,1.65-.75,.46-1.71,.39-1.75,1.42-.71,.08-1.37,.13-2.02-.12h0Z"/><path class="b" d="M83.87,65.01c.83-.17,.65-1.47,1.66-1.31,.33,.3,.05,.55,.04,.83-.48-.17-.7,.34-1.26,.34,.37,.48,.69,.82,.65,1.33q.71-.41,1.3,.83c-1.35,.36-1.79,.12-1.96-1.13-.04-.31-.25-.48-.43-.89Z"/><path class="b" d="M79.92,74.41c-.58-.12-.34-.69-.58-1.03,.31,.22,.6,.4,.93,.51,.34-.49,.82-.8,1.29-1.07,.33,.05,.45,.41,.76,.38h0c-.07,.9-.83,.97-1.44,1.21h0c.03-.16,.07-.32-.16-.47-.17,.3-.69-.04-.79,.46h0Z"/><path class="b" d="M72.24,85.21c-.31-.03-.43,.31-.71,.37l-1.45-.61h0c.47-.22,.29-.85,.72-1.1l.38,.2c.2,.32,.57,.17,.84,.29,.3,.23,.22,.54,.21,.84h0Z"/><path class="b" d="M79.92,80.64c-.43,.57-.97,1.01-1.46,1.46-.41-.29-.11-.66-.26-.92-.13-.19-.52,0-.53-.36,.48-.35,.89,.25,1.36,.08,.24-.08,.19-.32,.28-.49l.63,.26-.02-.02Z"/><path class="b" d="M75.37,83.96l-1.12,.12c-.22-.81,.19-1.53,.58-2.45,.05,.89-.22,1.7,.53,2.21v.12Z"/><path class="b" d="M92.25,57.13c-.33-.07-.23-.5-.53-.59,.27-.26,.42-.77,1.02-.45-.02,.4-.25,.73-.5,1.04Z"/><path class="b" d="M72.24,85.2c.4,.23,.4,.96,1.17,.73-.33,.36-.6,.55-.96,.6-.36-.41-.15-.89-.22-1.33h0Z"/><path class="b" d="M74.4,81.36c-.43,.26-.74,.13-1.13,.22l.34-.57c.25,.07,.56,.01,.79,.35Z"/><path class="b" d="M41.82,91.75c.15-.37,.34-.56,.69-.43,.13,.09,.16,.23,.1,.31-.18,.25-.39,.46-.8,.12Z"/><path class="b" d="M86.82,63.74c-.19-.21-.69-.15-.54-.65,.2-.2,.4-.17,.59,.02,.11,.23,.02,.43-.05,.64Z"/><path class="b" d="M80.88,74.4v.47h0c-.7,.2-.92,.09-.96-.47h0c.32,.38,.63,.07,.95,0h0Z"/><path class="b" d="M74.16,77.28c-.27,.3-.54,.61-.98,.12l.97-.13h0Z"/><path class="b" d="M78.05,79.52c-.04,.37-.12,.68-.68,.34l.68-.34Z"/><path class="b" d="M52.11,68.39l.43-.43c.29,.24,.2,.52,.09,.8-.28,.02-.4-.17-.52-.36Z"/><path class="b" d="M75.37,83.96v-.12h.58q-.19,.44-.58,.12Z"/><path class="b" d="M5.04,26.16l.46-1.03c.28,.12,.3,.36,.39,.54-.12,.46-.54,.38-.87,.47h.01Z"/><path class="b" d="M19.92,9.35c.12-.31-.04-.8,.66-.86l-.65,.87h0Z"/><path class="b" d="M50.39,75.61c-.41,.23-.61,1.01-1.38,.44,.43-.34,.74-.85,1.39-.45h0Z"/></svg>