<?xml version="1.0" encoding="UTF-8"?><svg id="a" xmlns="http://www.w3.org/2000/svg" viewBox="0 0 94 94.09"><defs><style>.b{fill:#e9e7dc;}</style></defs><path class="b" d="M81.21,79.25c-1.63,1.94-3.55,3.57-5.54,5.11-2.66,2.06-5.52,3.82-8.57,5.24-.57-.19-1.15-.31-1.56-.81-.33,.46,.31,.75-.09,1.17-.29,.1-.75-.18-1.14,.11-.02,.28,.33,.2,.38,.48-.03,.25-.32,.24-.51,.32-2.2,.85-4.44,1.55-6.74,2.08-.49,.11-.93,.18-1.3-.26l-.27,.54c-1.86,.44-3.77,.67-5.68,.76-3.43,.16-6.88,.19-10.28-.46-1.42-.27-2.86-.42-4.25-.82-1.42-.41-2.85-.76-4.23-1.31-.39-.15-.75-.26-.86-.71-.44,.02-.79,.15-1.19-.02-3.32-1.41-6.49-3.07-9.42-5.19-.06-.04-.09-.12-.13-.18,.06-.09,.22-.14,.11-.32-.27-.23-.69,.04-1.03-.29,.06-.94-1.11-.73-1.42-1.39-1.1-.2-1.66-1.14-2.4-1.82-.43-.4-.86-.81-1.3-1.2-.86-.77-.93-1.11-.39-2.16,.14-.28,.15-.42-.14-.56-.31,0-.29,.33-.41,.5-.14,.19-.2,.43-.6,.6-1.56-1.77-3.12-3.59-4.38-5.66,.29-.52,1.23-.5,1.02-1.3,.38-.25,.82,0,1.07-.36,.01-.32,.19-.71-.28-.82-.27,.15-.03,.44-.29,.53-.32,.04-.28-.33-.46-.44q-.84,.22-1.33,1.08c.2,.38,.13,.78,.1,1.17q-.33-.59-.37-1.21c-.77-.43-1.38-1.25-1.19-2.14-.27-.15-.57-.21-.75-.57-.97-1.93-1.88-3.88-2.6-5.96,.29-.49,.57-1.01,.45-1.68-.5,.11-1.08,.31-1.13-.55,.01-.28,.51-.27,.41-.64-.11-.42-.56-.4-.91-.69,.12-.89-.35-1.71-.57-2.59-.23-.93-.35-1.88-.54-2.82-.07-.33-.13-.63,.24-.82-.62-.96-.85-2.92-.75-6.27,.18-.14,.38-.27,.55-.42,.05-.04,.04-.15,.06-.21,0-.35-.39-.23-.56-.51,.39-.43,.06-.95,.07-1.46,.02-1.32,.16-2.63,.39-3.92,.04-.23,.08-.47,.1-.7q.09-.94,.72-1.69c-.11-1.48,0-2.33,.49-3.69,.28-.49,1.43-.02,1.17-1.09-.31-.07-.51,.35-.87,0-.02-.27,.25-.59,.32-.93l.71-.19c.04-.38-.41-.52-.34-.88-.01-.27,.23-.26,.39-.33-.08-1.03,.91-3.13,1.99-5.22,.64,.14,.81-.83,1.56-.54,.05-.65,.51-1.17,0-1.73,.31-.38,.17-.9,.43-1.31,1.15-1.78,2.38-3.5,3.74-5.13,.22-.26,.43-.6,.87-.47,.43-1.41,4-4.92,5.18-5.11,.3-.2,.13-.61,.47-.88,3.64-2.82,7.49-5.25,11.8-6.93,1.19-.46,2.38-.91,3.58-1.35,.65-.24,1.32-.25,2-.32,.54-.06,.64,.23,.88,.79,.12,.08,.46-.07,.76-.07,.32-.4,.12-.84,.29-1.29,.72-.4,1.51-.62,2.41-.24,.54-.72,1.31-.63,2.07-.51,.22,.42-.17,.63-.15,1-.26-.29-.28-.73-.74-.64-.33,.24-.07,.49,.04,.73-.23,.11-.4,.19-.57,.28,0,.07-.03,.17,0,.2,.46,.46,.76,.97,.68,1.66-.04,.31,.09,.61,.56,.78-.02-.84,1.02-1.27,.79-2.06-.2-.72,.47-1.4-.18-2.02q.82-.24,1.51,.14c.23-.28,.51-.42,.9-.39,.25,.02,.58,.11,.68-.29h1.68l.15,1.42c.34,0,.39-.25,.54-.33,.46,.15,.91,.27,1.45,.02-.4-.38-.85-.6-.93-1.11h1.92c.34,.26,.76,.25,1.15,.25,1.08,0,2.13,.22,3.2,.36l.29,.52c.86-.78,1.71-.01,2.4-.05,1,.47,.29,1.97,1.57,2.09q.62-.77-.09-1.28c.34-.39,.73-.35,1.17-.19,.78,.28,1.57,.49,2.34,.8,.66,.26,1.42,.38,2.11,.65,.92,.36,1.82,.77,2.74,1.13,.37,.14,.55,.42,.72,.76,.62-.05,1.27-.17,1.45,.71,.41,.08,.86,.08,1.2,.42,.03,.88,.07,.91,1.27,.71,.44,.39,.21,.87,.23,1.28-.3,.24-.49-.13-.78,.01-.15,.09-.35,.22-.31,.53-.26,.27-.71-.03-.99,.35,.13,.53,.67,.54,1.06,.76,.31-.17,.17-.76,.66-.71,.44-.08,.33,.55,.81,.5,.53-.53,.4-1.32,.52-2.15,.74,.5,1.36,1.02,2.06,1.36,.74,.36,.94,1.24,1.82,1.51,.67,.21,1.34,.76,1.77,1.74,.11,.06,.55,.02,.84,.31l-.6,.97c-.17-.02-.24,.01-.61,.27,.62,.08,.95,.51,1.34,.88,.44-.57,.52-1.1,.3-1.69,.97,1.01,1.97,1.98,2.9,3.03,.9,1.01,1.75,2.07,2.58,3.14,.83,1.08,1.68,2.16,2.1,3.49,.39,1.23,1.86,1.83,1.91,3.28l-.42,.31c.15,.55,.67,.34,1.09,.58,.33,1.17,1.54,2.16,1,3.75,.54,.16,.84,.52,1.04,1.09,1.14,3.33,1.94,6.73,2.34,10.23,.3,2.63,.3,5.25,.24,7.89-.01,.58-.24,1.13-.11,1.61l-1.57,.21c.15,.87,.66,.08,.92,.33,.1,.29-.02,.59,.15,.9,.58,1.07,.24,1.55-.99,1.48q.22,.63,1.02,.55c0,.41-.45,.53-.55,.87q.39,.57,0,2.06c-.27,.33-.85,.24-1,.73h0c-.23-.04-.6-.14-.63,.09-.08,.49-.53,.23-.75,.47,.08,.49,.82,.51,.7,1.06,.24,.02,.38-.13,.53-.02q.4,1.16-.23,2.26c-.44-.15-.1-.46-.13-.69-.38-.55-.85-.96-1.57-.83-.15-.4,.31-.29,.36-.53-.06-.25-.13-.51-.4-.76-.44-.16-.9,.02-1.45,.21,.3,.73,.9,1.22,1.29,1.85,.07,.11,.44,.46,.72,.03,.15,.63,.17,1.32,1.05,1.32-.18,.79-.45,1.4-.71,1.99-.59,.02-1.07-.03-1.07-.7-.8-.05-.61,1.17-1.39,.96-.19,.17-.08,.3,0,.34,.37,.2,.36,.51,.23,.81-.13,.32-.5,.52-.76,.44-.4-.13-.76,.06-1.12,0l-.28-.55c-.29,.08-.15,.45-.44,.57-.47,.08-.63-.5-1.01-.55-.1-.23,.2-.45-.12-.56-.07,.02-.14,.04-.21,.07-.22,.11,.08,.78-.54,.5-.07-.03-.28,.25-.43,.39,.03,.65,.45,.87,1.02,.99l.58-.52c.23,.08,.51,.08,.49,.49,.92-.62,1.76-.13,2.66-.06l.37-.41,.12,.46h0c-.23,0-.35,.15-.45,.34,.06,.34,.41,.47,.54,.77-.09,.37-.27,.71-.51,1.03-.1-.36-.18-.74-.32-1.09-.12-.28-.35-.39-.64-.16-.25-.32-.57-.18-1.05-.19,.4,.56-.03,1,0,1.5-.53-.04-.59,.37-.73,.69,.17,.37,.38,.03,.66,.19-.43,.76-.47,1.66-.88,2.46,0,.31,.35,.42,.4,.71-.08,.53-.58,.59-.91,.84-.31,.24-.7,.38-.89,.74-.32,.13-.62-.05-.87-.07-.13,.16-.15,.29-.04,.37,.3,.2,.61,.38,.8,.77-.76,.98-1.53,2-2.5,2.84-.09-.23,.25-.41,.03-.72-.23,.13-.54-.04-.81,.21,.03,.42,.27,.6,.69,.6ZM3.58,59.1c.32-.3,.23-.63,.12-.94-.21-.16-.39-.13-.58-.03-.02,.33,.13,.59,.31,.84-.15,.42-.75,.64-.55,1.37,.31-.47,1.05-.51,.7-1.24ZM78.21,15.77c-.27-.27-.6-.44-.95-.59-.14,.24-.18,.45,.07,.69l.75,.06c.46,.46,.86,.04,1.31,.03-.06-.37-.19-.59-.4-.77-.28,.18-.32,.66-.77,.59ZM28.54,87.18c.37-.12,.74,0,1.13,.12-.03-.45-.19-.7-.4-.91-.25-.05-.48-.07-.7,.02l-.18,.64c-.26,.18-.49,.38-.63,.67l.36,.92c.19-.6,.94-.84,.42-1.46ZM40.15,5.21c-.31-.39,.35-.49,.23-.82q-.73,0-.98,1.12c.31,.09,.62,.16,.87-.13l.29,.36c.22-.2,.38-.4,.31-.7l-.27-.21c-.21,.07-.34,.21-.44,.39ZM15.66,73.26c.05,.3-.33,.7,.19,.89,.29,.1,.43-.1,.56-.31-.08-.34-.14-.7-.61-.72-.03-.22,.04-.48-.2-.64q-.76,.11-1.14,.89l-.37,.09-.07,1.25,.68,.61,.52-.27c-.14-.57-.27-1.1-.61-1.55,.3-.29,.68-.25,1.05-.25Zm64.95-.23c.51,.31-.28,.81,.27,1.22,.12-.65,.86-1,.56-1.74-.47-.17-.74,.03-.95,.36-.17-.37-.65-.41-.82-.86-.06,.19-.12,.29-.13,.4,0,.15,.02,.31,.03,.43,.25,.2,.47,.37,.75,.38,.09,0,.19-.12,.28-.18ZM2.63,41.1c.16-.11,.3-.23,.35-.46-.28-.5-.67-.41-1.22-.26l.47,.33c-.36,.38-.53,.78-.1,1.24l.36-.2c.24,.04,.17,.35,.44,.44,.37-.15,.79-.29,.5-.88l-.81-.22Zm80.22,28.32c.37,.27,.29,.74,.5,1.11,.39-.84,.85-1.64,.7-2.59-.2-.09-.36-.22-.57-.18-.27,.39,.03,.88-.24,1.26-.14-.65-.55-.42-.98-.28,.34,.13,.34,.5,.59,.68Zm-14.87,11.39q-.47,1.26-1.42,1.51c.43,.49,.98,.2,1.44,.31-.33,.87,.4,1.71-.07,2.63,.66-.09,1.18-.35,1.74-.24,.04,.19-.02,.4,.13,.57,.26,.07,.42-.11,.71-.29-.33-.07-.07-.53-.48-.53l-.22,.11c-.35-.7-.97-1.22-1.23-1.99-.05-.16-.27-.26-.42-.39,.23-.25,.64,0,.82-.26,.13-.25-.02-.4-.09-.58-.07-.18-.03-.39-.19-.52l-.56-.19c.17-.11,.32-.23,.37-.43-.16-.44-.52-.42-.88-.4,.3-.22,.63-.37,.94-.6,.83-.61,1.55-1.44,2.66-1.66,.14-.03,.63-.12,.64-.69,0-.45,.57-.83,1.17-.79,.05,.22-.03,.48,.22,.65,.25,.05,.52,.15,.74-.09-.04-.51-.71-.27-.81-.69-.08-.27,.05-.46,.24-.62,1.51-1.31,2.79-2.83,4.03-4.38,.2-.24,.47-.21,.67-.34,.16-1.03,.86-1.71,1.43-2.37,.92,.27,.04,.86,.39,1.3,.35-.36,.71-.67,1.06-.83,.09-.51-.42-.57-.44-1-.04-1,.14-1.9,.89-2.6,.18-.17,.33-.29,.34-.56,.03-.74,.54-1.31,.78-1.98,.13-.37,.43-.43,.78-.39,.34,.59,.86,.68,1.5,.64,.14-.87-.35-1.59-.09-2.39l-.24-.03-.54,1.61-.48,.02c.11-.41-.29-.73-.21-1.22,.7-.34,.1-1.47,1.06-1.66-.28-.72-.25-.87,.48-2.86,.27-.07,.23,.31,.58,.3l.91-.35-1.39-.72c.12-.69,.44-1.33,.46-2.06,.02-.57-.1-1.24,.66-1.59,.22-.1,.04-.48-.16-.69,.15-.33,.64-.18,.82-.5-.27-.24-.63-.06-.87-.45,.36-5.8-.28-11.57-2.41-17.13-2.12-5.54-5.32-10.37-9.65-14.52,.28-.64-.09-1.23-.12-1.99-.51,.43-.45,.92-.51,1.4-.46-.39-.85-.74-1.26-1.06-.62-.47-.82-1.06-.55-1.79,.1-.27,.23-.5-.03-.75-.54,.22-.81,.68-1.01,1.16-1.81-1.12-3.44-2.43-5.31-3.36-.03-.01-.03-.07-.05-.11,.19-.2,.57,.03,.74-.38-.59-.32-.48-.86-.31-1.4l-.83-.27-.81,.6c0,.47,.32,.53,.62,.64-.23,.16-.45,.31-.76,.34l-2.28-1.02,.72-.14c-.14-.39-.26-.82-.09-1.16,.27-.53,.15-1.1,.26-1.64,.13-.62-.14-1.14-.55-1.1-.39,.04-.86,.07-1.19,.48-.33,.41-.21,.82-.16,1.25,.06,.62,.26,1.24-.01,1.91l-4.23-1.26c.1-.31-.1-.47-.38-.57-.76,.32-.77,.33-1.47,.2-2.44-.44-4.91-.59-7.39-.69-.96-.04-1.9,.31-2.9,.1-.29-.47-.68-.76-1.23-.54-.23,.32,.2,.42,.05,.74-.98,.12-2.01,.23-3.03,.37-.52,.07-1.08-.09-1.56,.36-.29,.28-.67,.11-.97-.14l-.08-.56c-.32-.19-.6-.2-.89-.03-.14,.23-.15,.44,.08,.67,.21,.06,.5-.17,.74,.05,0,.17-.04,.31-.22,.37-.61,.2-1.19,.46-1.84,.48-.27,0-.56-.08-.77,.19-.5,.63-1.15,.51-1.83,.3-.09,.5-.34,.77-.75,.91-.34,.12-.68,.22-1,.39-3.79,1.92-7.3,4.23-10.41,7.17-1.75,1.65-3.1,3.64-4.84,5.28-.72,1.73-1.98,3.15-2.77,4.84-.13,.28-.2,.61-.53,.75-.69-.27-.28-1.1-.77-1.46-.61,.88-.17,1.51,.52,2.01-.1,.4-.6,.14-.64,.61,.29,.31,.2,.67,.02,1.11-1.02,2.5-1.9,5.05-2.34,7.73-.24,1.46-.52,2.91-.57,4.39-.1,2.68-.22,5.37,.26,8.01,.26,1.44,.07,2.94,.67,4.32,.13,.29,.25,.58,.33,.89,.17,.65-.15,1.11-.81,.98-.45-.09-.74,.1-1.17,.29,.54,.22,.67,.86,1.15,1.06,.57-.03,.7-.77,1.36-.61,.17,.85-.76,1.07-.98,1.72,.13,.24,.11,.67,.62,.71,.19-.39-.02-1.14,.9-.99,.49,1.78,1.68,3.29,2.08,5.13,.04,.2,.11,.45,.4,.55,.33,.11,.43,.44,.55,.73,.02,.24-.35,.35-.2,.63,.8,.13,1.19,.62,1.3,1.59-.48-.35-.89-.59-1.33-.25q.44,.56,1.21,.95c-.29,.53-.35,1.08,.09,1.66,.39-.24,.67,.1,.93,.32,.37-.48-.21-1.02,.34-1.43,.7,.86,1.41,1.71,2.08,2.53l-.26,1.33c-.25,.39-.83,.04-.87,.58,.14,.39,.63,.34,.8,.8,.16,.45,.7,.39,1.08,.03-.38-.64,.19-.98,.47-1.74,.87,1.04,1.61,1.91,2.36,2.81-.07,.09-.74,.05-.33,.62,.18,.25,.64-.04,.75,.35-.15,.19-.43,.09-.56,.37,.46,.47-.15,1.4,.7,1.79,.55-.25,.82-.66,.93-1.17-.22-.37-.61-.68-.18-1.19,.49,.35,.97,.7,1.45,1.05,2.49,1.82,5.16,3.35,8.02,4.47,3.61,1.43,7.35,2.37,11.25,2.66,2.31,.17,4.62,.27,6.93-.03,.48-.06,.95-.09,1.26,.13,1.53-.53,2.95-.93,4.56-.67,.11-.72,.75-.63,1.25-.7,.4-.05,.73-.17,1.1-.33,1.17-.52,2.35-1.1,3.58-1.31,.71-.12,1.13-.75,1.84-.68,.96-.93,2.19-1.39,3.34-2l.44,.61ZM21.17,14.94c-.1,.2-.31,.41-.07,.6,.23,.19,.5,.14,.71-.1,.16-.25,.56,.02,.73-.4l-.36-.55q.47-.55-.27-1.24l-1.12,.78c-.15,.42,.06,.68,.38,.9ZM48.3,6.54c-.02,.58,.1,1.08,.76,1.29l.22-1.02-.83-.4c0-.19-.05-.4,.14-.54,.39-.03,.35,.49,.67,.53,.33-.26,.3-.71,.56-1.06,.19,.19,.26,.47,.6,.42l.3-.27c-.35-.89-1.07-1.42-1.57-1.1-.02,.19,.2,.4,.06,.62-.65,.14-1.17,.54-1.77,.85l.85,.67Zm20.55,4.66c-.23-.4,.15-.84-.11-1.27-.61-.21-.9,.33-1.54,.55,.64,.33,.84,.96,1.51,.87-.37,.36-.6,.82-.88,1.26l1.57,1.49c-.18-.75,1.21-.74,.74-1.57-.3,.04-.56,.23-.85,.02,0-.49,.15-1.05-.45-1.35ZM11.6,75.75l-.46,.15c.42,.37-.23,1.02,.46,1.33,.48-.27,.65-.75,.99-1.03-.16-.34-.38-.42-.62-.45,.12-.32,.55-.03,.71-.41-.34-.66,.11-1.11,.68-1.49-.29-.25-.51-.46-1.04-.4-.14-.01-.11,.47-.44,.45-.61-.4-1.46-.57-1.68-.27,0,.2-.11,.47,.1,.72,.22,.27,.69-.15,.81,.26,.12,.39,.46,.28,.79,.39-.43,.1-.71,.36-1.11,.14-.22-.13-.34,.1-.32,.33,.31,.35,.78,.07,1.12,.28Zm-4.78-11.77c.31,.48,.27,1.03,.16,1.48-.08,.32-.12,.5,.12,.69,.24,.19,.51,.18,.77,0,.34-.24,.5-.59,.6-.95,.41-.19,.85,.02,1.28-.29-.33-.11-.64-.34-.89-.28-.49,.12-.65-.05-.71-.44,.14-.49,.85-.34,.9-.99l-1.09-.07c-.27,.24-.08,.56-.33,.7-.24-.02-.48-.1-.81,.16ZM32.33,6.12c-.76-.36-1.42-.57-2.09-.32-.29,.28,.18,.54-.03,.76-.18,.14-.43,.07-.51,.3,.17,.37,.23,.85,.7,.83,.4-.14,.08-.49,.33-.6,.28,.15,.42,.49,.77,.55l.18-.4c.21-.32,.53,.16,.63-.32,.02-.31-.5-.19-.51-.52l.52-.28Zm5.02-1.52c-.89,.08-1.06,.66-1.14,1.23,.02,.28,.29,.15,.34,.34q-.17,.51,.02,1.1c.42-.31,.96-.16,1.4-.36-.02-.28-.35-.3-.3-.54-.05-.33,.49-.3,.4-.65q-.54-.37-.71-1.12ZM5.47,59.51c-.13,.79-.74,1.34-.67,2.13,.1,.05,.21,.16,.31,.15,.4-.04,.75-.29,1.12-.24,.29-.43,.22-.82,.14-1.23-.34-.18-.59-.46-.9-.82Zm76.31,13.65c1.29,.34,1.29,.33,1.83-1.11-.16-.21-.28-.46-.59-.47q-.46,.52-1.25,.74c-.14,.27,.1,.53,0,.84Zm-63.44,6.17v1.17c-.3,.12-.61,.19-.62,.64,.43-.05,.79-.19,1.13-.07,.63-.72,.7-1.47,.41-2.34l-.91,.6Zm-9.86-9.69c.8-.23,.64-1.04,.47-1.3-.36-.56,.13-.78,.28-1.14-.85-.58-.99,.3-1.49,.57,.62,.52,.13,1.38,.74,1.88Zm17.4,18.23c-.15-.65-.37-1.16-.1-1.67l-1.65-.31,.07,1.06,1.68,.92Zm-10.71-11.27c-.72-.33-1,.24-1.37,.62-.07,.46-.05,.88,.6,1.06,.12-.6,.65-.72,1.11-.88-.02-.38-.17-.61-.34-.8ZM43.87,4.01c.66-.4,1.43-.58,1.39-1.51-.13-.19-.27-.38-.59-.36l-.83,.6c-.1,.41-.12,.8,.03,1.27Zm-8.35-1.16c-.17,.64-1.07,.68-.99,1.45,.41,.49,.87,.3,1.3,.25q.28-.71-.32-1.69Zm23.2,86.1c.36,.18,.72,.25,.92-.03,.26-.35,.81-.3,.94-.82,.11-.41-.02-.58-.22-.65-.7,0-.3,1.01-1.05,.83-.15-.09-.01-.45-.36-.35-.42,.28-.31,.65-.23,1.02ZM47.56,5.49c.36-.47,.48-1.04,1.09-1.27l-.84-.6-.86,.29c.55,.41-.19,1.21,.62,1.58Zm-14.5-1.43c-.39-.88-1.25,0-1.65-.68-.14,.39-.17,.65,.08,.99,.48-.23,.71,.35,1.11,.47,.26-.22,.36-.47,.46-.78Zm38.04,6.76c-.78-.03-1.15-.43-1.65-.78-.2,.86,.05,1.36,.64,1.7,.41-.16,.46-.58,1.02-.92Zm-19.59-4.4c.52,.21,.86,.05,.97-.41,.14-.56-.1-.96-.93-1.22,.46,.66-.19,1.02-.04,1.63Zm33.62,55.82c-.08,.24,.31,.35,.34,.6-.18,.1-.5,.08-.34,.43,.66,.08,1.18-.2,1.19-.69l-.34-.66c-.21,.24-.49-.12-.86,.31ZM5.48,30.35c-.5-.27-.07-.83-.52-1.12-.54,.19-.68,.65-.77,1.12,.42,.61,.8,.1,1.29,0Zm82.9,31.64c-.08,.43-.43,.98,.44,1.36,.14-.56-.28-1.13,.14-1.57-.41-.31-.4-1.1-1.17-.75,.06,.41,.48,.56,.59,.97ZM6.58,58.41q-1.06-.21-1.54,.61l1.33,.21c0-.28,.39-.44,.22-.81Zm35.46,31.87c.02-.45,.2-.79,.35-1.15,.03-.07-.07-.2-.12-.32-.32,.24-.74,.06-1.07,.37,.3,.29,.02,.77,.37,1.07l.47,.03ZM73.2,11.14c.55-.23,.85-.54,1.1-.98-.41-.16-.6-.47-.94-.82,.02,.63-.46,1.07-.16,1.8ZM52.46,1.25c-.07,.57-.14,1.06,.06,1.57,.57-.18,.75-.59,.86-1.05-.16-.35-.47-.42-.92-.52Zm26.08,20.12l.28-.88c-.35-.13-.64-.32-1.04-.33-.04,.33,0,.67-.32,.9,.36,.1,.66,.32,1.08,.31ZM3.66,54.93c.06-.33,.46-.66,.06-1.15-.55,.06-.83,.46-1.15,.9,.36,.11,.6,.44,1.09,.25Zm18.52,30.91c.2-.33-.03-.61-.05-.85,.28-.08,.4-.18,.29-.46-.19-.11-.4-.15-.67,.05,0,.39-.47,.76-.21,1.23,.21,.17,.39,.15,.64,.03Zm62.22-16.82c.7-.1,.18,.86,.85,.81,.15-.55,.6-1.09-.05-1.7-.2,.37-.42,.63-.81,.89ZM57.89,9.6c.53-.2,.22-.65,.56-.73,.44-.1,.29-.36,.22-.63-.4-.04-.79-.12-1.17,.04-.23,.6,.52,.76,.38,1.33ZM8.19,60.23c-.31,.31-.86,.02-1.23,.63,.56-.14,.77,.33,1.18,.38l.61-.37c-.07-.26-.25-.41-.56-.64ZM61.16,6.3c-.44-.36-.81-.3-1.25-.29,.04,.39-.52,.75,.04,1.14l1.21-.85ZM4.26,33.95c-.06,.6-.62,.22-.81,.66l.68,.66c.22-.33,.73-.17,.78-.75l-.66-.57Zm.86-1.03q.68-.53,.24-1.43c-.2,.12-.46-.14-.65,.1-.1,.28,.13,.44,.29,.59,.22,.22-.09,.45,.13,.74Zm79.96-8.52c-.23-.46-.6-.66-1.2-.61,.07,.42-.08,.82,.36,1.18,.14-.36,.58-.18,.84-.58Zm-11.36-11.23c.03-.74,.01-1.31,.37-1.74-.29-.23-.5-.22-.76,.02,.02,.48-.26,1.05,.39,1.72Zm-12.14,75.3c.66,.04,.32,.83,.83,1.03,.16-.07,.36-.18,.32-.31-.12-.32-.04-.71-.33-.97-.33-.3-.56-.15-.81,.25ZM54.99,3.03c.11-.56,.61-1.18-.22-1.67-.29,.67-.25,1.2,.22,1.67ZM15.5,76c-.48-.39-.92-.66-1.59-.14,.55,.35,.93,.82,1.59,.14ZM9.09,24.71c.16-.4,.22-.75,.13-1.13-.62-.27-.75,.15-.89,.63,.19,.16,.3,.44,.77,.51Zm67.23-6.69c.61-.35,.24-.67-.01-1.01-.43,.08-.65,.31-.76,.67,.25,.15,.45,.37,.77,.34ZM23.64,81.08c-.3-.37-.22-.85-.57-1.12l-.58,.57c.24,.36,.46,.74,1.15,.55Zm-6.3-1.83q-.56,.01-.8,.59c.26,.15,.54,.21,.83,.22,.12-.31,.15-.57-.03-.81Zm-.29-.29c-.06-.57-.19-1.06-.3-1.15-.45,.32-.41,.71-.19,1.15h.5ZM54.98,4.84c.26-.39-.02-.79,.18-1.25-.71,.27-.88,.64-.66,1.23l.47,.02Zm-.2,1.89c-.18-.4-.03-.81-.03-1.28-.88,.61-.88,.73,.03,1.28Zm20.44,12.47c.55,.27,.92,.18,1.41-.41-.62-.12-1.04-.27-1.41,.41Zm-25.9,69.05c.05,.36,.22,.53,.58,.57,.23-.26,.53-.5,.11-.98-.21,.11-.47,.13-.69,.41ZM2.47,55.95c.03-.26,.33-.41,.23-.74-.21-.31-.47-.39-.91-.14,.49,.15-.18,.78,.68,.87Zm2.36,10.5c.22-.13,.41-.26,.35-.57-.27-.16-.5-.46-.96-.3-.03,.49,.27,.7,.61,.87ZM58.53,4.56c-.44-.38,.19-.88-.46-1.19-.11,.28-.38,.45-.34,.8,.12,.21,.25,.4,.81,.39Zm-2.83,1.16q.49-.57-.27-.93c-.2,.41-.17,.72,.27,.93Zm7.5,.76c.42-.03,.39-.38,.51-.64-.28-.11-.33-.47-.65-.44q-.05,.55,.14,1.08Zm3.16-.38l.22,1.27c.45-.47,.27-.93,.47-1.25-.22-.18-.4-.18-.7-.01Zm10.21,7.45c-.54-.12-1.14-.61-1.54,.28,.5-.24,1.05,.03,1.54-.28Zm4.29,9.25c.26,.01,.49,.11,.65-.21-.04-.38-.28-.58-.65-.68-.17,.26-.16,.52,0,.89Zm8.42,31.02c-.07,.41-.4,.69-.58,1.09l.7,.27c.07-.48,.16-.9-.13-1.36Zm-32.52,34.18c.03-.6,.69-.95-.07-1.4-.17,.39-.55,.72,.07,1.4ZM8.33,34.81c-.03,.95,.1,1.11,.61,.91v-.66l-.61-.26Zm78.58,29.28c.4,0,.25-.31,.41-.42,.17-.12,.44-.21,.29-.52q-.86,.1-.69,.94Zm-30.32,24.88q.65,.09,1.11-.26c-.09-.23-.22-.41-.55-.39l-.56,.65ZM52.32,8.18c.57-.49,.57-.84,0-1.18-.22,.36-.19,.7,0,1.18Zm-26.58,1.59c.17-.29,.2-.56-.09-.87-.17,.21-.56,.09-.56,.51,.11,.3,.38,.32,.65,.36Zm-9.87,8.96c.41-.02,.58-.21,.57-.57-.23-.25-.46-.23-.69-.03-.07,.19-.09,.38,.11,.6ZM57.56,86.28c.13,.43,.58,.49,.84,.77q.02-.89-.84-.77Zm6.55-.1c.19-.3,.61-.06,.79-.44-.25-.32-.52-.47-.89-.19-.06,.16-.08,.31,.1,.63Zm-33.74-.49c-.64-.79-.69-.8-1.23-.4,.38,.22,.73,.37,1.23,.4Zm-4.81-4.51c-.3,.11-.61-.26-.9,.06,.19,.31,.37,.63,.79,.6,.2-.15,.2-.34,.1-.66Zm49.46-3.8q-.62-.46-.92,.28c.31,0,.65,.23,.92-.28Zm1.38-2.83c.82-.66,.88-.97,.43-1.34-.27,.35-.13,.78-.43,1.34Zm9.94-16.09c.8-.05,.91-.17,.73-.91-.38,.21-.52,.59-.73,.91Zm-.91,1.96c-.15-.55-.46-.77-.72-1.13q-.08,.84,.72,1.13ZM9.97,69.19c-.04,.3-.04,.45,.08,.6,.27-.15,.58,.26,.86-.07l-.25-.53h-.7ZM44.26,1.97c.56-.33,.81-.69,1.06-1.13-.83-.04-.94,.43-1.06,1.13Zm-1.36,4.39c.16,.19,.38,.25,.61,.3,.15-.29,.22-.56-.03-.83-.3,.07-.46,.28-.58,.54Zm4.5,1.08c-.04-.34,.43-.46,.19-.91l-1.09,.29c.51,.11,.57,.42,.9,.62ZM4.38,37.87q-.59-.18-1.06-.01c.28,.4,.56,.43,1.06,.01Zm3.22,6.73c-.18-.21-.46-.24-.74-.37-.09,.44-.03,.73,.39,.85,.2-.11,.35-.23,.35-.48Zm48.91,44.72l.61,.89c.21-.07,.3-.19,.38-.4-.26-.17-.34-.6-.98-.49Zm4.31-4.89c-.33,.36-.31,.64,.04,.89,.08,.06,.15,.05,.25-.12-.02-.18,.18-.49-.29-.77Zm1.73-.7c.34-.14,.72-.1,.69-.64-.43-.1-.79-.19-.69,.64Zm23.22-19.41c-.05,.37-.41,.71-.09,1.16,.3-.39,.66-.73,.09-1.16ZM44.87,4.8c-.19,.43-.21,.76,.06,1.09,.06-.33,.56-.67-.06-1.09Zm-11.67,1.44c.14,.6,.32,.82,.78,.61,0-.49-.35-.46-.78-.61Zm-4.21,.55c-.52-.13-.71,.06-.81,.71,.36-.24,.68-.18,.81-.71Zm37.05,2.12q-.4,.49,.08,.85c.07-.28,.14-.52-.08-.85Zm-10.71,79.46c.33,.51,.62,.59,1.1,.16-.39-.19-.68-.26-1.1-.16ZM6.68,25.67q0,.54,.24,1.07c.29-.44,.3-.75-.24-1.07Zm-1.99,11.41c.07-.3-.11-.44-.38-.58-.11,.19-.27,.37-.25,.63,.23,.15,.44,.16,.63-.05Zm3.15,3.11q-.62-.27-.9,.08c.19,.1,.36,.31,.61,.23,.1-.03,.16-.16,.3-.3Zm-1.36,3.53q.7,.22,.99-.33l-.99,.33Zm.8,2.66c-.35,.09-.56,.26-.58,.64,.6,.12,.76-.09,.58-.64Zm.72,5.39c.12-.25,.18-.5-.17-.67-.34,.12-.25,.48-.41,.7,.2,.08,.39,.12,.58-.03Zm82.08,4.37c-.09-.39-.28-.59-.59-.66-.16,.09-.27,.19-.26,.37,.23,.13,.42,.35,.84,.29Zm-63.25,25.94c-.48,.17-.72,.38-1.01,.68,.57,.14,.87,.02,1.01-.68Zm-7.17-6.99c-.11,.41-.57,.61-.14,1.02,.1-.06,.24-.1,.28-.18,.09-.22,.11-.45-.14-.83Zm69.85-12.01c.38-.42,.4-.43,.26-.71-.04-.07-.18-.1-.3-.16-.11,.28-.16,.53,.04,.87Z"/><path class="b" d="M87.2,68.48c-.06,.34,.3,.5,.35,.76-.08,.33-.47,.25-.59,.51-.32-.5,.24-.83,.23-1.28Z"/><path class="b" d="M89.44,67.21l-.2-.64c.18-.3,.48-.4,.91-.7-.29,.57-.35,1.02-.74,1.32l.03,.02Z"/><path class="b" d="M87.1,69.91c.28-.04,.54,.3,.83,.04,.02,.28-.02,.54-.31,.69-.34-.13-.29-.53-.53-.73Z"/><path class="b" d="M6.02,24.26c-.02-.18,.1-.31,.29-.41,.13,.18,.14,.37,0,.53-.05,.06-.22,.04-.3-.13Z"/><path class="b" d="M88.71,67.43l.73-.23-.03-.02c-.02,.23-.01,.46-.28,.58-.2-.03-.32-.18-.44-.32h0Z"/><path class="b" d="M22.19,70.29c-1.18-1.02-1.84-2.38-2.47-3.7-.05-.62,.78-.77,.59-1.38-.02-.06-.11-.11-.18-.17-.37-.08-.47,.32-.76,.49-.07-.15-.21-.31-.18-.43,.14-.64-.07-1.19-.3-1.76-.2-.5-.47-1.02,.15-1.49,.23-.17,.14-.51,.02-.78-.23-.04-.22,.17-.31,.28-.02,0-.07,.01-.08,0-.21-.33,.06-.86,.63-1.2l-.23-.49c.31,.05,.59,.27,.9,.04-.1-.27-.43-.5-.24-.86-.37-.14-.7-.16-.99,.15-.13-.3-.19-.86,0-.86,.57,0,.3-.71,.8-.75,.22-.02,.17-.54,.49-.64-.18-.51-.75-.15-1.08-.62-.09-.68-.29-1.51-.31-2.34-.04-2.68-.02-5.36-.01-8.04,0-.23,.05-.47,.05-.45,.21-.65,.74-.48,.91-.82-.1-.68-.59-.03-.83-.26-.19-.28-.18-.62-.13-.92,.22-1.18-.07-2.34-.02-3.52,.05-1.16-.06-2.32,.03-3.48,.12-1.66-.05-3.31,.01-4.96,.23-5.78,4.55-10.66,8.9-12.14,1.69-.58,3.36-.95,5.13-.95,3.52,0,7.04,0,10.55,0,.2,0,.39,.04,.49,.05,.38,.18,.11,.4,.17,.57,.14,.19,.33,.15,.53,.09,.29-.14,.04-.44,.21-.64,.4,0,.84-.17,1.15,.23,.01,.43-.48,.05-.51,.37,.59,.51,.67,.47,1.19-.58,.38-.15,.77-.11,1.14-.03,.37,.18,.12,.64,.42,.83,.28-.16,.09-.54,.34-.74,.4-.2,.84-.15,1.28-.15,1.56,0,3.12-.07,4.68,.02,1.38,.08,2.74-.04,4.11-.01,1.36,.03,2.72-.02,4.08,.04,2.03,.08,3.92,.66,5.68,1.69,.61,.36,1.12,.88,1.84,1.07-.01,.82-.98,1.5-.17,2.28-.12,.25-.6,.04-.59,.52,.27,.25,.63-.11,.92,.09,.2-.71,.41-1.39,.36-2.23,1.25,.83,1.99,1.95,2.73,3.07,1.52,2.3,2.23,4.85,2.18,7.59-.03,1.55,.1,3.1-.09,4.66-.06,.51,.1,1.09,.1,1.64,0,3.5,0,7,0,10.5,0,1.38-.01,2.76,0,4.14,0,.49-.02,.96-.4,1.23,.56,1.21,.57,2.32,.08,3.55,.49,.54,.31,1.29,.27,1.91-.24,.54-.7,.37-1,.54,.13,.55,.81,.61,.99,1.18-.58,.44-1.32,.35-2.06,.52,.43,.64,1.18,.02,1.6,.72-.12,.38,.35,1.03-.23,1.56-1.09,.25-1.22,.59-.55,1.48,.46-.33,.36-.94,.69-1.33-.14,1.61-.81,2.92-1.73,3.38-.12,.3,.02,.59-.21,.95-1.36,2.1-3.14,3.73-5.42,4.7-1.96,.83-3.94,1.49-6.2,1.34-1.5-.1-3.08,.02-4.61,.04-8.03,.07-16.05,.03-24.08,.04-1.61,0-3.17-.26-4.61-.82-.3-.4-.05-.86-.31-1.21-.34,.17-.2,.71-.72,.79-.5-.16-.95-.54-1.46-.82-.56-.3-1.29-.52-1.54-1.04-.24-.49-.51-.93-.86-1.36-.31,.08-.68,.26-.82-.27,.47-.58,.78-1.32,1.26-1.83,1.1-1.16,1.2-1.13,1.4-2.61,.02-.18-.05-.41,.34-.57,1.69,2.79,4.3,4.14,7.57,4.3-.24,.63,.27,1.17-.11,1.7-.34,.19-.85,.12-1.1,.57l.24,.29c.8-.34,1.62-.64,2.36-1.11,.06-.23,.08-.47-.08-.78-.01-.28-.59,.25-.55-.3,.22-.47,.68-.42,1.11-.42,1.1,0,2.19,.03,3.29,.02,4.75-.05,9.51-.02,14.26-.02,.43,0,.88-.08,1.18,.07,.43,.24,.39,.75,.83,.81,.31-.18,.04-.64,.44-.83,.49-.07,1.04-.09,1.57,0,.09,.22-.12,.45,.12,.59,.51,.07,.65-.51,1.09-.64,1.12,0,2.28,0,3.44,0,2.23-.01,4.25-.6,5.99-2.05,.16-.13,.3-.43,.59-.18-.35,.28-.23,.67-.33,.99,.31,.09,.5,.09,.64-.08,.11-.29,.03-.55-.15-.78,.23-.03,.49,.05,.63-.21,.22-.37-.24-.66-.07-1.12,.99-1.25,1.44-2.85,1.77-4.41,.53-.13,1.12,.2,1.36-.47-.43-.3-.94,.02-1.29-.32-.08-.24-.13-.47,.07-.67,.4,.53,.73,.54,1.23,.01-.3-.49-.68-.45-1.1-.16-.44-.98-.4-1.41,.19-1.73,.38,.31-.04,.73,.14,1.06,.66,.29,.9-.24,1.26-.59-.41-.33,.05-.85-.27-1.2-.44-.09-.74,.46-1.39,.17,.34-1.17-.67-2.38-.05-3.57,.36-.18,.47,.24,.76,.08-.21-.74,.68-1.52-.08-2.31l-.37,.5h0c-.07-.43-.51-.68-.48-1.18,.08-1.49,.09-2.97,.12-4.48l.54-.03,.43,.68c.18-.39,.75,.01,.89-.71-.47,.24-.8-.08-1.18-.12-.13-.29-.41-.39-.68-.5l.37-.48c-.79-.89-.41-1.93-.46-2.89-.06-1.04-.05-2.08,0-3.12,.04-.92-.09-1.87,.35-2.73-.44-.24-.36-.67-.36-1.06,0-1.16,.04-2.32-.02-3.48-.04-.91-.04-1.88-.34-2.71-.64-1.76-1.59-3.37-3.24-4.42-.42-.27-.72-.6-.78-1.1-1.36,.18-2.47-.49-3.65-.57-.16-.65,.53-.98,.18-1.5,.23-.07,.46,.01,.64-.22l.09-.53c.33-.47,.24-.95,.06-1.47-.45,.25-1.04-.04-1.34,.57,.21,.23,.66,.31,.63,.75-.26,.29-.38-.1-.59-.12-.35,.24-.6,.61-1.06,.76,.09,.84-.22,1.43-1.07,1.83-1.14-.24-2.46,.35-3.67-.39-1.19,.27-2.38,.69-3.57,.03,.06-.97-1.41-.73-1.23-1.89-.68,1.06-.69,1.26-.25,2.03h0c-.65,.19-1.87,.16-2.57-.06-.04-.37-.23-.65-.46-.9-.26-.04-.49-.07-.6,.3,.19,.35,.42,.69,.92,.74-.51,.31-1.01-.14-1.49-.06-1.33,.22-2.66,.17-3.99,.17-3.32,0-6.64,0-9.95,0-1.42,0-2.82,.27-4.01,.97-3.11,1.83-4.61,4.6-4.56,8.26,.06,5.08,.02,10.15,.02,15.23,0,.59-.15,1.2-.09,1.76,.15,1.32,0,2.63,.09,3.94,.03,.48-.12,.85-.43,1.2-.04,.04,0,.15,0,0,.04,.45,.3,.28,.41,.51v6.51c-1.19,.59-.09,1.42-.29,2,.23,.43,.73,.15,.85,.56l-.76,.66c-.4-.03-.76-.18-1.16,.07,.3,.4-.35,.54-.26,.97,.23,.31,.76,.39,.84,.88-.09,.17-.26,.15-.41,.19-.2,.06-.32,.21-.4,.43,.08,.12,.18,.24,.27,.37,.12,.18,.12,.37,.1,.57q-.64,.64-.67,1.51ZM54.94,20.58c-.14-.65-.54-.47-.98-.36,.24,.33,.51,.47,.84,.5,0,.46-.81,.53-.58,1.03l.57,.27c-.26,.18-.49,.37-.62,.67q.48,.4,1.12-.08l-.34-.46c.34-.52,.55-1.05,0-1.57Zm-6.14,1.01c.12-.27,.34-.48,.31-.85-.45-.15-.5-.69-.88-1.05-.15,.21-.54,.1-.56,.3-.02,.47,.23,.44,.43,.51-.46,.33-.44,.8-.43,1.42,.4-.37,.79-.27,1.13-.33Zm21.44,42.89l1.57,1.76c.45-.7,.47-.73,.18-1.06-.39-.43-.93-.69-1.22-1.14-.32,.06-.43,.21-.52,.43Zm-2.96-40.14c.71,.72,1.19,0,1.67,.12,.37-.8-.32-1.08-.52-1.61-.31,.4-.07,.84-.3,1.25l-.84,.24ZM21.62,51.85l-1.03,1.35c.27,.6,.73,.22,1.28,.23-.39-.57,.09-.86,.36-1.26l-.61-.32Zm50.88-24.02c.21-.14,.47-.15,.63-.42-.06-.27-.14-.55-.44-.79-.37-.03-.77-.12-1.41,.18,.73,.13,.72,.73,1.22,1.03Zm-31.75-5.06c-.17-.3-.35-.54-.62-.65-.49,.09-.8,.33-.79,.88l.93,.31c.23-.11,.37-.24,.48-.54Zm33.64,35.76l-1.04,1.22c.6-.01,1.02-.03,1.35,.21,.14-.21,.3-.39,.29-.64l-.59-.79Zm-52.14,9.36c-.4-.54-.8-.48-1.22-.09-.12,.38,.01,.63,.39,.83,.18-.33,.69-.29,.83-.74ZM65.97,22.78c-.46-.07-.75,.1-.81,.58,.65,.53,.98,.53,1.19,0-.12-.2-.13-.46-.38-.59Zm-2.1,48.67c.14,.37-.11,.76,.39,1.02,.17-.62,.7-1.02,.58-1.68-.51,0-.54,.49-.97,.65ZM23.63,53.65c-.15-.29-.14-.61-.16-.92-.02-.4-.22-.66-.64-.68-.11,0-.22,.02-.27,.15,.11,.25,.46,.29,.52,.6-.05,.3-.36,.62-.01,.95,.15,.04,.3,.07,.57-.1Zm50.34-2.01c-.23,.02-.24,.47-.57,.28-.23-.13-.45-.18-.54,.23,.25,.42,.95,.03,1.15,.67,.03-.4,.37-.39,.52-.67-.27-.08-.37-.35-.56-.51Zm1.36-3.05c-.31-.22-.43-.66-1.09-.56,.38,.44,.11,.94,.38,1.34,.36-.11,.57-.32,.7-.78Zm-11.97-24.81c.87-.62,.9-.67,.51-1.51,.02,.56-.76,.81-.51,1.51Zm-27.65,46.33c.05,.86,.05,.87,.9,.69-.13-.41-.16-.88-.9-.69Zm-15.2-21.77c-.38-.24-.67-.56-1.1-.25,.05,.23,.09,.46,.28,.61,.36,.13,.62,.04,.82-.36Zm51.89-17.93c.42,.2,.7,.1,.9-.28-.09-.21-.21-.39-.55-.38-.17,.12-.42,.23-.35,.66Zm1.9,17.02c.22,.25,.34,.42,.59,.32l.32-.65c-.15-.19-.29-.4-.64-.24l-.28,.57Zm-54.25-4.81c-.31-.54-.64-.26-.95-.26-.03,.3-.16,.57,.16,.79l.8-.53Zm6.66,26.36c-.45,.31-.87,.66-.56,1.32,.58-.29,.46-.85,.56-1.32Zm3.76,1.34c-.33-.03-.55,.16-.79,.39,.27,.47,.62,.24,.92,.24,.07-.31,.07-.49-.13-.63ZM68.49,20.89q-.79,.12-.39,.73c.26-.14,.33-.38,.39-.73ZM20.41,30.37c.35,.53,.68,.44,.99,.29,.18-.08,.08-.26,0-.39-.3-.12-.56,.08-.99,.1Zm2.7,27.61l.75,1.34c.15-.68,.13-1.1-.75-1.34Zm44.01,13.89c-.38,.41-.39,.74-.27,1.1,.25-.27,.69-.48,.27-1.1Zm3.71-6.35c-.36-.02-.46,.15-.56,.32,.03,.23,.12,.44,.29,.61,.04,.04,.14,.02,.28,.03v-.96Zm-49.88-10.87c-.07-.32-.23-.53-.58-.56-.14,.22-.15,.43,.04,.62,.19,.08,.37,.07,.54-.06Zm1.95,5.02c-.29-.52-.56-.53-.88-.02,.3,.24,.57,.21,.88,.02Zm-3.75,.89c.17,.38,.37,.56,.71,.28,.07-.06,.1-.18,.14-.28-.26-.18-.51-.18-.85,0Z"/><path class="b" d="M41.27,29.1c1.12-.86,2.41-1.03,3.78-.98,.18,.5-.57,.43-.43,.86,.33,.18,.64-.11,.87-.03,.39-.28,.24-.66,.4-.95,.12-.04,.23-.09,.34-.1,1.08-.06,2.16,0,3.18,.4,.25,.1,.47,0,.69,0,1.07-.01,2.08,.16,2.96,.82q-.61,.72-.45,1.69l.99-.82c.2,.02,.2,.28,.34,.41,.36,.16,.26-.81,.82-.25l-.91,1.29c.26,.26,.25,.84,.73,.85,.52,0,1.12,.08,1.57-.3,.32-.27,.65-.51,1.02-.6-.01-.28-.3-.23-.27-.44,.05-.03,.13-.11,.17-.09,.69,.29,1.2,.75,1.25,1.59l-.49,.24c-.12,.26,.29,.23,.24,.49-.3,.18-.73,.2-.97,.48-.19,.73,1.1,.49,.81,1.28-.26,.21-.3,.49-.36,.76,.48,.18,.69,.03,.75-.37,.19-.02,.4,.02,.57-.12,.42-.44-.58-.9,.01-1.34-.25-.54-.07-1.09-.15-1.75,.52,.22,.89,.49,1.03,.88,.16,.46,.73,.35,.85,.91,0,.34-.67,.21-.75,.73,.95,.34,.94,1.32,1.31,2.14-.52,.5-1.32-.22-1.9,.28,.27,.33,.72,.05,1.06,.37,.29,.53-.74,1.41,.4,1.85l.61-.3c.08-.2,.06-.4,0-.59h0c.2,.05,.39,.06,.6-.02,.61-.61,.05-1.51,.56-2.25,.51,.64,.87,1.34,1.26,2.09-.44,.44-.8,.92-.46,1.47-.17,.4-.68,.31-.69,.79,.27,.17,.55,.42,.75,.79,.61-.53,.61-1.28,.84-2.04,1.11,2.43,1.5,4.92,1.53,7.43-.08,.4-.47,.05-.61,.35,.26,.68,.77,1.33,.38,2.18-.07,.08-.36,0-.35,.41,.49,.64,0,1.3-.17,2.02-.34,1.51-.89,2.92-1.67,4.24-.2,.34-.32,.74-.73,.94-.34-.18-.35-.6-.63-.85-.33-.16-.67-.07-1.12-.01,.17,.55,.35,1.05,.22,1.54l.84,.55c-.49,.56-.94,1.11-1.42,1.63-.32,.34-.59,.81-1.2,.53-.25,.68-.38,1.41-1.33,1.24-.31-.06-.02,.48-.37,.44-.05-.26,.06-.56-.18-.83-.2,.23-.44,.42-.38,.75,.09,.19,.26,.18,.41,.22-.18,.46-.6,.59-.97,.74-.42-.13-.26-.58-.5-.78-.46-.2-.75,.1-1.06,.27-.28,.46,.21,.76,.12,1.32-4.45,2.17-9.11,2.26-13.92,.89q.31-.55,.38-1.24l.99-.79-.71-.93c-.28,.52-.46,1.03-.43,1.59-.23,0-.45,0-.67-.15-.52-.33-1.09-.4-1.69-.28l-.43-.2c.23-.48,.92-.09,1.13-.57-.05-.24-.22-.22-.37-.25-.17-.03-.28-.13-.35-.27,.07-.42,.55-.21,.74-.49l-.13-.3c.36-1.05,.13-1.55-.75-1.65,.2,.51,.69,.9,.6,1.51-.44,.26-1.06,.29-1.11,.95-.63-.03-.77-.52-1.08-.82l-.98,.19c-.23,.23-.15,.47-.11,.7h0q-1.04-.6-.53-2.2c-.62,.18-1.07,.42-1.22,1.04-.91-.61-.95-.7-.7-1.46,.32-.94,.1-1.64-.76-2.43-.44,.41,.35,.91-.11,1.3-1.31-.46-1.33-.45-1.94-1.52-2.64-4.58-3.35-9.45-1.92-14.55,1.51-5.41,4.85-9.35,9.87-11.87,.41-.21,.81-.54,1.34-.39,.22,.42-.24,.91,.16,1.31,.18,.09,.36,.11,.61-.1,.03-.46,.15-.98,.33-1.48Zm-10.01,23.63c-.74-.04-.87,.11-.8,.98,.43-.16,.68-.51,.95-.85,.15-.39,.68-.79,.02-1.23-.23,.38-.11,.75-.17,1.1Zm13.21-20.02c.21,.38,.57,.51,.94,.62,.48-.19,.9-.44,1.22-.85-.19-.13-.44-.4-.59-.22-.43,.5-.95,.24-1.43,.3l.62-.55c-.25-.37-.04-.86-.25-1.21-.23-.15-.41-.15-.66,.03-.02,.59-.28,1.25,.16,1.87Zm8.06,30.48c.3-.06,.64,.09,.9-.24,.08-.53,.1-1.06-.4-1.46-.29,.11-.62,.16-.79,.57,.21,.26,.15,.62,.16,.97-.31-.23-.61-.08-.9-.03-.07,.35,.14,.45,.37,.6,.17-.2,.5-.13,.65-.41Zm5.37-4.45c-.45,.05-.48-.46-.82-.61-.02,.49-.71,.65-.52,1.32,.36,.25,.94,.39,1.03,1.01,.42-.21,.51-.47,.38-.82-.1-.26-.48-.06-.56-.36,.12-.29,.54-.1,.65-.41,.2-.4,.63-.8,.14-1.2l-.7,.54,.4,.53Zm-10.4-27.36c.16-.77,.68-1.53,.04-2.32-.56,.08-.92,.42-.72,.67,.12,.14,.42,0,.45,.29-.16,.29-.54,.05-.77,.36,.52,.2,.55,.75,.84,1.13,.28,.39-.11,.7-.13,1.04,.1,.31,.41,.34,.6,.51-.46,.12-1.01,.12-1.34,.39-.53,.42-.98,.45-1.46,.09-1,.7-1.38,.85-1.43,.58,.02-.24,.38-.16,.37-.5-.36-.09-.72-.13-1.1,.04-.45,.2-.09,.67-.34,.95-.42,.2-.83,.43-1.29,.22-.97,1.2-2.47,1.69-3.36,2.9-.3-.33-.62-.3-.84-.07-.32,.34-.73,.67-.69,1.19,.06,.65-.26,1.15-.56,1.67-1.84,3.25-1.81,6.7-1.07,10.22,.89,.96,.87,2.43,1.89,3.34,.53,.47,.53,1.39,1.34,1.7,.1,.04,.1,.36,.15,.55,.49-.21,.76,.13,1.05,.38,1.58,1.29,3.41,2.18,5.37,2.52,2.57,.44,5.18,.27,7.62-.88,.57-.27,1.11-.56,1.78-.22,.23-1.34,1.45-1.62,2.03-2.3,.46-.2,.72,.3,1.02-.02,.23-.26-.13-.44-.1-.6,.13-.45,.66-.46,.73-.96,.1-.66,.53-1.23,.81-1.84,.71-1.54,1.41-3.09,1.33-4.85-.02-.58,.31-.93,.83-1.31-.53-.6-.36-1.27-.26-1.74-.17-.53-.52-.14-.73-.45-.3-1.31-.76-2.66-1.52-3.89-.18-.29-.03-.49,.11-.75-.58-.12-.9-.45-1.15-1.02-.2-.45-.91-.58-1.12-1.13,.28-.6,.45-1.27,1.18-1.45-.02-.78-.7-.99-1.01-1.46,.2-.57-.31-.94-.31-1.49-.33,.2-.55,.35-.62,.64,.13,.2,.25,.4,.22,.35,.2,.76-.47,.58-.56,1.12-.12,.39,.49,.49,.69,.79-.14,.18-.34,.21-.34,.39,.13,.37,.65,.5,.6,.97-.97-.67-1.96-1.34-2.92-2.03-.4-.29-.98-.26-1.26-.74-1.21,.13-2.27-.5-3.52-.55,.18-.31,.05-.46-.08-.61,.45-.04,.9-.03,1.4,.15-.01-.53-.65-.93,.04-1.33-.5-.17-.7-.52-.95-.91-.28,.27-.68-.05-.96,.27Zm12.92,20.83l-.33,.59c.18,.31,.16,.73,.47,1.01,.68-.19,.83-.87,1.3-1.17-.01-.43,.08-.82-.11-1.24-.72-.25-1.42-.2-2.1,.09,.01,.56,.55,.29,.77,.72Zm1.6-3.15c-.33-.24-.84-.11-.77-.68,.13-.02,.24-.04,.35-.04,.14,0,.27,.2,.47,0l.18-.5q-1.14-.19-2.16,.34c.29,.77,.14,1.77,1.1,2.2,.65-.25,.68-.81,.84-1.32Zm-2.72,7.44c.71-.42,.73-1.25,1.34-1.66-.32-.15-.47-.44-.81-.25-.38,.22-.87,.29-.92,.9l.39,1.01Zm-17.2-24.11h-.91c-.16-.42-.18-.44-.67-.41,.04,.35-.2,.68-.03,1.09l1.27,.32c.24-.3,.24-.61,.34-.99Zm-5.62,4.09c.46-.8,.78-1.53,.55-2.44-.82,.47-.88,.76-.55,2.44Zm-5.76,14.39c.45,.08,.42-.33,.62-.49,.24-.19,.46-.4,.68-.59-.12-.21-.23-.37-.47-.36-.31,.01-.24,.4-.64,.54-.12,.04-.45-.27-.74,.08l.55,.82Zm29.39-10.5c-.29-.32-.65-.56-.81-.97-.4,.19-.49,.49-.38,.74,.16,.36,.23,.87,.83,.91l.36-.69Zm-25.01-.98c-.34-.1-.6-.14-.9,.12,.27,.51,.1,1.14,.34,1.7,1-.38,.16-1.24,.57-1.82Zm26.78,6.64c.43,.17,.65-.15,.94-.37-.05-.44,.2-.92-.38-1.42-.05,.45-.14,.74-.49,.92-.08,.04,.13,.57-.07,.87Zm-25.38,13.91c.74-.64,.51-1.13,.26-1.6-.27-.06-.46-.06-.64,.15l.38,1.45Zm7.74,3.36q-.08-.9-.94-.72l.09,1.29,.86-.57Zm-5.87-31.5c-.28-.25-.4-.51-.77-.58-.25,.51-.28,1.04-.22,1.63,.55-.17,.54-.71,.98-1.04Zm16.26,28.11c-.3-.33-.03-.92-.68-1.06-.22,.35-.38,.7-.16,1.14,.23,.09,.45,.09,.84-.08Zm-25.71-15.6l.96,.24,.22-.77c-.17-.17-.36-.28-.61-.28l-.57,.81Zm8.6-7.21c-.15-.43-.45-.52-.81-.35-.24,.11-.45,.31-.2,.71,.34-.05,.68-.17,1.01-.36Zm-6.2,11.58c.05-.36-.08-.5-.31-.64l-.85,.28c.28,.57,.68,.5,1.16,.37Zm3.43,6.03c.39,.97,.64,1.1,1.18,.64-.28-.21-.55-.42-.83-.61-.05-.04-.15-.02-.34-.03Zm7.14,5.22c-.73-.65-.92-.63-1.4,.15,.5,0,.93,0,1.4-.15Zm-4.57-2.67c.07,.4,.24,.6,.61,.57,.23-.2,.29-.42,.3-.66-.35-.13-.61-.15-.91,.09Zm-1.68-.73q-.7-.63-1.12-.21c.33,.18,.6,.52,1.12,.21Zm16.16,3.48c-.19-.23-.21-.69-.82-.59l.37,1c.24-.08,.34-.2,.44-.42Zm-9.28-30.44c-.42,.13-.49,.47-.53,.84,.19,.16,.37,.12,.63-.01-.31-.24,.24-.52-.1-.83Zm-7.79,5.92c-.03,.3-.06,.45-.06,.59,0,.21,.06,.38,.38,.38,.32-.36,.21-.64-.32-.97Zm22.94,1.9c-.17-.22-.06-.61-.4-.7-.26,.03-.36,.19-.45,.4,.18,.36,.45,.5,.86,.3Zm-23.19,16.36c.56,.36,.93,.36,1.41,.17-.39-.4-.75-.45-1.41-.17Zm3.39-19.89c.33-.21,.57-.36,.32-.76-.4,.08-.71,.16-.32,.76Zm-2.21,4.95c-.31-.6-.65-.29-1.07-.32,.3,.57,.64,.42,1.07,.32Zm24.96,3.18c-.22-.53-.53-.64-1.09-.62,.3,.46,.58,.63,1.09,.62Zm-29.4,.21c-.18,.36-.52,.58-.14,.89,.1,.08,.21,.07,.33-.03,.35-.3,0-.51-.19-.86Zm28.65,15.27q-.5-.39-.85,.11c.28,.04,.53,.13,.85-.11Zm-19,.81c-.25,.34-.51,.57-.62,1.05,.65-.17,.83-.44,.62-1.05Z"/><path class="b" d="M63.31,28.18c-.31,0-.43-.21-.59-.45l.27-.75-.34-.32,.3-.87c.13-.03,.24-.09,.36-.09,.31,.02,.54,.12,.92-.11,.69-.42,2.52,.38,2.85,1.21,.1,.25,.46,.32,.37,.63l-.3,.24,.2,.76c.2,.26,.56,.1,.74,.29,.74,.85-.4,3.28-1.94,4.19-.24,.01-.27-.41-.58-.27-.27,.13,.08,.37-.15,.59-.91,.26-1.87,.21-2.83-.17-.94-.38-1.44-1.21-1.9-1.98-.86-1.46-.29-3.49,1.23-4.74,.19,.66-.13,1.37,.35,1.82-.4,.68-1.01-.3-1.2,.14-.3,.56,.13,.68,.15,.96l-.33,.38c.12,.47,.68,.15,.76,.6,.42-.39,.41-.87,.62-1.2,.33-.27,.68-.21,.97-.3,.37,.53-.54,.53-.26,.93,.08,.42,.45,.43,.72,.58,.39-.03,.56-.43,.94-.53-.02-.39-.32-.84,.35-1.05l-1.13-.51c.17-.45,.19-.88-.08-1.34-.55,.33-.17,.91-.46,1.35Zm2.06,4.2c.55-.19,1.1-.08,1.27-.69-.06-.31-.24-.49-.59-.51-.42,.21-.56,.61-.68,1.2Z"/><path class="b" d="M55.18,30.05c.33-.03,.59-.01,.82,.15,.4,.43-.38,.79-.05,1.2-.21,.08-.45,.01-.68,.3-.18-.65-.11-1.15-.1-1.65Z"/><path class="b" d="M36.14,61.44c.28,.17,.51-.15,.77-.1,.26,.31-.1,.84,.45,1.06-.62-.12-1.11-.31-1.24-.95h0Z"/><path class="b" d="M38.55,62.43l.43,.2-.08,.64c-.36-.16-.73-.09-.98-.35,.08-.37,.34-.45,.62-.48Z"/><path class="b" d="M61.38,34.75c.3,.15,.41,.34,.5,.57-.09,.18-.28,.21-.45,.26-.32-.22-.33-.47-.04-.82Z"/><path class="b" d="M50.78,23.52c.08-.17,.08-.39,.24-.47,.22-.14,.37,.01,.44,.09,.16,.18-.07,.33-.08,.52l-.58-.14h0Z"/><path class="b" d="M70.46,52.57c.11,.42-.07,.69-.43,.89-.08-.41-.11-.79,.42-.9h0Z"/><path class="b" d="M61.34,38.4c-.28-.25-.15-.54-.11-.88,.55,.28,.05,.6,.12,.87h0Z"/></svg>