<svg xmlns="http://www.w3.org/2000/svg" xml:space="preserve" id="Layer_1" width="512" height="512" x="0" y="0" version="1.1" viewBox="0 0 512 512"><g id="_x31_1._hot_x2C__pepper_x2C__food_x2C__supermarket_x2C__shop_x2C__cooking_x2C__vegetable"><path fill="#D7E9FF" d="M377.816,140.2c0,0-35.068,31.308-59.263,7.27c-24.28-23.961-12.62-103.112-12.62-103.112 S138.21,140.2,138.21,307.928v13.884c21.629,10.576,54.91,58.24,84.86,74.689l127.665-30.668 c31.229-8.946,57.351-18.603,98.962-42.407v-15.498C449.697,206.571,377.816,140.2,377.816,140.2z"/><path fill="#94C1FF" d="M377.816,140.2c0,0-3.635,3.221-9.329,6.805c17.799,19.335,65.236,78.585,65.236,160.922v24.195 l15.974-8.697v-15.498C449.697,206.571,377.816,140.2,377.816,140.2z"/><path fill="#FFF" d="M154.184 330.228v-22.3c0-134.435 107.683-222.629 150.456-252.37.663-6.879 1.294-11.2 1.294-11.2S138.21 140.2 138.21 307.928v13.884L154.184 330.228zM345.868 355.85l-1.209 19.646c-63.685 18.275-116.659 3.401-134.567-5.373v-22.261c0-87.859 53.514-114.374 53.514-114.374s2.395 66.453 53.825 33.632C317.431 267.12 345.868 291.954 345.868 355.85z"/><path fill="#D7E9FF" d="M8.424,263.197c52.952,54.956,88.495,59.184,88.495,59.184c-10.39,6.076-20.607,17.175-24.203,31.714 h-0.078C60.814,323.426,4.43,277.416,4.43,277.416L8.424,263.197z"/><path fill="#FFF" d="M8.424,271.191c38.062,39.506,67.046,52.742,80.383,57.094c2.613-2.293,5.351-4.29,8.112-5.904 c0,0-35.543-4.228-88.495-59.184L4.43,277.416c0,0,0.725,0.601,1.817,1.513L8.424,271.191z"/><path fill="#94C1FF" d="M506.799,303.935c-99.032,243.124-392.315,166.765-431.93,79.946c-4.149-10.942-4.392-21.004-2.153-29.786 c3.595-14.539,13.813-25.638,24.203-31.714c6.31-3.674,12.697-5.507,17.564-5.187c1.365-0.164,2.8-0.242,4.157-0.242 c20.606,0,41.214,18.853,71.164,35.302c35.379,19.413,83.94,35.621,160.931,13.579c31.229-8.946,67.171-24.116,108.782-47.921 c10.943-6.311,22.361-13.182,34.107-20.686C499.85,293.312,510.559,294.193,506.799,303.935z"/><path fill="#D7E9FF" d="M72.716,370.068c3.595-14.539,13.813-25.638,24.203-31.714c6.31-3.674,12.697-5.507,17.564-5.187 c1.365-0.164,2.8-0.242,4.157-0.242c20.606,0,41.214,18.852,71.164,35.302c35.379,19.413,83.94,35.621,160.931,13.579 c31.229-8.946,67.171-24.117,108.782-47.921c10.943-6.311,22.361-13.182,34.107-20.685c3.003-1.888,7.027-2.621,9.992-1.825 c1.068-2.465,2.152-4.906,3.182-7.441c3.76-9.741-6.949-10.623-13.174-6.708c-11.746,7.504-23.164,14.375-34.107,20.686 c-41.611,23.805-77.553,38.975-108.782,47.921c-76.99,22.042-125.551,5.834-160.931-13.579 c-29.95-16.449-50.558-35.302-71.164-35.302c-1.357,0-2.792,0.078-4.157,0.242c-4.867-0.32-11.255,1.513-17.564,5.187 c-10.39,6.076-20.607,17.175-24.203,31.714c-1.498,5.889-1.748,12.401-0.585,19.327C72.326,372.307,72.443,371.145,72.716,370.068 z"/><path fill="#5C9EFF" d="M503.617,295.402C401.651,529.438,114.07,453.821,74.869,367.908c-1.365-3.604-2.168-7.067-2.738-10.46 c-1.412,7.972-0.905,16.832,2.738,26.433c39.614,86.818,332.897,163.178,431.93-79.946 C508.749,298.896,506.791,296.26,503.617,295.402z"/><path fill="#116FFF" d="M267.201,471.636c-86.951,0-173.995-37.954-195.967-86.093c-0.913-2.013-0.031-4.376,1.981-5.297 c1.997-0.912,4.375-0.03,5.289,1.974c18.641,40.854,101.294,83.176,194.641,81.366c61.883-1.279,174.049-23.914,229.957-161.156 c0.827-2.052,3.167-3.034,5.203-2.191c2.043,0.834,3.025,3.158,2.191,5.201c-57.624,141.479-173.34,164.815-237.188,166.126 C271.272,471.612,269.229,471.636,267.201,471.636z"/><path fill="#116FFF" d="M506.799,307.928c-0.476,0-0.959-0.086-1.436-0.265c-2.059-0.796-3.08-3.104-2.285-5.163 c0.547-1.42,0.663-2.621,0.297-2.926c-1.045-0.873-4.711-0.811-7.628,1.03c-1.856,1.193-4.329,0.608-5.507-1.248 c-1.17-1.872-0.608-4.337,1.256-5.507c4.805-3.034,12.378-4.204,16.957-0.444c1.521,1.256,4.78,4.937,2.074,11.965 C509.919,306.953,508.406,307.928,506.799,307.928z"/><path fill="#116FFF" d="M280.929,380.473c-41.003,0-70.439-12.315-93.05-24.717c-9.29-5.102-17.838-10.529-25.388-15.318 c-18.742-11.887-33.156-20.989-47.531-19.281c-2.121,0.352-4.173-1.295-4.438-3.486c-0.266-2.191,1.294-4.181,3.486-4.438 c16.972-2.122,33.507,8.244,52.765,20.458c7.808,4.961,15.888,10.085,24.951,15.062c32.595,17.877,79.993,35.543,157.912,13.243 c32.938-9.438,69.245-25.435,107.9-47.546c11.887-6.856,22.985-13.588,33.937-20.584c1.849-1.201,4.337-0.655,5.515,1.209 c1.186,1.864,0.647,4.329-1.217,5.515c-11.053,7.066-22.253,13.86-34.257,20.786c-39.225,22.439-76.124,38.686-109.679,48.295 C324.902,377.385,301.465,380.473,280.929,380.473z"/><path fill="#116FFF" d="M74.869,387.875c-1.607,0-3.128-0.982-3.729-2.574c-4.165-10.975-4.937-21.808-2.293-32.189 c3.424-13.852,13.166-26.636,26.051-34.178c6.895-4.017,14.086-6.178,19.85-5.725c2.2,0.147,3.869,2.043,3.72,4.25 c-0.14,2.2-2.027,3.869-4.243,3.721c-4.056-0.25-9.835,1.467-15.303,4.648c-11.052,6.474-19.405,17.401-22.33,29.226 c-2.238,8.79-1.56,18.002,2.012,27.408c0.78,2.067-0.257,4.368-2.316,5.155C75.82,387.789,75.345,387.875,74.869,387.875z"/><path fill="#116FFF" d="M72.638 358.088c-1.607 0-3.12-.975-3.728-2.559-11.302-29.326-66.453-74.564-67.007-75.018-1.708-1.396-1.966-3.915-.569-5.623 1.388-1.708 3.899-1.965 5.615-.569 2.34 1.911 57.351 47.04 69.409 78.34.796 2.06-.226 4.368-2.285 5.163C73.598 358.002 73.114 358.088 72.638 358.088zM96.919 326.374c-.156 0-.312-.008-.476-.03-1.505-.18-37.571-5.031-90.897-60.37-1.529-1.591-1.482-4.122.102-5.65 1.599-1.529 4.118-1.482 5.647.101 51.049 52.979 85.765 57.948 86.108 57.995 2.184.28 3.736 2.27 3.471 4.453C100.624 324.893 98.907 326.374 96.919 326.374z"/><path fill="#116FFF" d="M4.43 281.409c-.359 0-.717-.047-1.084-.148-2.121-.601-3.361-2.8-2.761-4.921l3.993-14.223c.601-2.122 2.8-3.343 4.922-2.766 2.121.597 3.361 2.801 2.769 4.93l-3.993 14.211C7.776 280.255 6.177 281.409 4.43 281.409zM449.697 311.922c-2.207 0-3.993-1.786-3.993-3.994 0-87.797-55.564-149.52-68.106-162.33-14.281 11.333-42.048 24.397-61.859 4.703-20.825-20.544-17.089-76.679-14.788-98.14-31.487 20.412-158.747 111.844-158.747 255.767 0 2.208-1.786 3.994-3.993 3.994s-3.993-1.786-3.993-3.994c0-168.102 168.036-266.065 169.736-267.037 1.318-.76 2.964-.69 4.228.168 1.264.862 1.927 2.367 1.7 3.88-.109.772-11.084 77.423 11.473 99.688 21.263 21.098 52.484-6.232 53.803-7.406 1.536-1.369 3.861-1.35 5.366.047.733.675 73.169 68.734 73.169 170.66C453.691 310.136 451.905 311.922 449.697 311.922z"/><path fill="#116FFF" d="M210.092,351.855c-2.207,0-3.993-1.785-3.993-3.993c0-89.31,53.459-116.823,55.729-117.954 c1.225-0.597,2.651-0.53,3.813,0.148c1.17,0.694,1.903,1.93,1.95,3.284c0.016,0.292,1.264,29.046,16.278,36.916 c7.737,4.063,18.313,1.864,31.417-6.505c1.856-1.201,4.321-0.647,5.515,1.225c1.186,1.856,0.639,4.329-1.217,5.515 c-15.709,10.007-28.977,12.308-39.436,6.832c-14.008-7.355-18.485-26.667-19.896-36.994 c-13.002,9.271-46.167,39.584-46.167,107.534C214.085,350.07,212.299,351.855,210.092,351.855z"/><path fill="#116FFF" d="M345.868,359.843c-2.207,0-3.993-1.786-3.993-3.993c0-61.368-26.8-85.484-27.072-85.719 c-1.662-1.451-1.825-3.978-0.375-5.639c1.451-1.658,3.971-1.825,5.632-0.383c1.217,1.068,29.802,26.776,29.802,91.74 C349.861,358.057,348.076,359.843,345.868,359.843z"/></g></svg>