<?xml version="1.0" encoding="UTF-8"?><svg id="Layer_1" xmlns="http://www.w3.org/2000/svg" viewBox="0 0 504 504"><path d="M252,504C113.05,504,0,390.95,0,252S113.05,0,252,0s252,113.05,252,252-113.05,252-252,252Zm0-492.66C119.3,11.34,11.34,119.3,11.34,252s107.96,240.66,240.66,240.66,240.66-107.96,240.66-240.66c0-132.7-107.96-240.66-240.67-240.66h.01Z"/><path d="M44.19,162.13c-23.69,55.41-23.58,115.18-4.08,167.73l204.48-78.05L44.19,162.13Zm19.69,49.71c-4.61-2.07-6.69-7.49-4.62-12.11s7.49-6.69,12.1-4.62c4.62,2.07,6.69,7.49,4.62,12.1-2.06,4.62-7.5,6.7-12.11,4.63h0Zm.98,81.87c-6.82-3.06-9.88-11.07-6.83-17.89,3.06-6.83,11.08-9.88,17.89-6.83,6.83,3.05,9.89,11.07,6.84,17.89-3.05,6.82-11.08,9.88-17.9,6.83h0Zm51.34-38c-5.33-2.39-7.72-8.64-5.34-13.96,2.39-5.34,8.64-7.72,13.97-5.34,5.34,2.39,7.72,8.64,5.34,13.98-2.39,5.32-8.66,7.71-13.98,5.32h0Zm68.71-3.78c-3.48-1.56-5.05-5.66-3.5-9.13,1.57-3.5,5.66-5.05,9.14-3.5,3.49,1.56,5.05,5.65,3.49,9.14-1.55,3.49-5.65,5.05-9.14,3.49h0Z"/><path d="M168.87,42.15c-52.19,20.48-96.83,60.22-122.36,114.8l200.4,89.68L168.87,42.15Zm-80.81,115.66c-4.92-2.21-7.12-7.98-4.93-12.9,2.21-4.92,7.97-7.12,12.9-4.92,4.92,2.2,7.12,7.98,4.92,12.9-2.2,4.92-7.97,7.12-12.9,4.92h0Zm45.98-55.8c3.27-7.29,11.82-10.56,19.12-7.29,7.29,3.25,10.54,11.81,7.29,19.1-3.27,7.29-11.82,10.56-19.1,7.3-7.3-3.26-10.56-11.82-7.3-19.11h0Zm2.47,68.07c-2.96-1.33-4.28-4.8-2.96-7.76s4.79-4.29,7.75-2.96c2.97,1.32,4.29,4.79,2.96,7.75-1.32,2.96-4.79,4.29-7.75,2.97h0Zm39.38,20.46c-4.27-1.91-6.18-6.92-4.27-11.19,1.91-4.27,6.92-6.18,11.2-4.27,4.26,1.9,6.18,6.91,4.27,11.19-1.91,4.27-6.92,6.18-11.19,4.27h0Z"/><path d="M257.07,257.38l78.05,204.49c52.19-20.47,96.82-60.22,122.36-114.81l-200.42-89.68Zm145.59,96.01c2.07-4.62,7.5-6.69,12.11-4.62,4.61,2.07,6.69,7.49,4.62,12.11-2.07,4.61-7.49,6.68-12.11,4.61-4.62-2.06-6.7-7.49-4.62-12.11h0Zm-63.9,48.04c3.06-6.83,11.07-9.89,17.89-6.84,6.83,3.06,9.89,11.07,6.83,17.9-3.06,6.82-11.07,9.88-17.9,6.82-6.82-3.05-9.88-11.06-6.82-17.89h0Zm-4.38-59.68c2.39-5.34,8.65-7.72,13.96-5.34,5.32,2.39,7.72,8.64,5.33,13.98-2.38,5.32-8.64,7.71-13.96,5.32-5.32-2.38-7.72-8.64-5.33-13.96h0Zm-41.12-48.93c1.56-3.48,5.66-5.04,9.14-3.48,3.48,1.55,5.04,5.63,3.48,9.13-1.56,3.48-5.66,5.04-9.14,3.48-3.48-1.56-5.04-5.65-3.48-9.14h0Z"/><path d="M259.39,252.21l200.4,89.68c23.68-55.42,23.59-115.17,4.09-167.73l-204.49,78.05Zm167.16,46.38c2.2-4.92,7.98-7.12,12.89-4.93,4.92,2.2,7.12,7.98,4.93,12.9-2.21,4.92-7.98,7.12-12.9,4.93-4.91-2.21-7.11-7.98-4.91-12.9h0Zm-3.21-51.27c-7.29-3.26-10.56-11.83-7.3-19.12,3.27-7.29,11.83-10.55,19.11-7.29,7.29,3.27,10.57,11.82,7.3,19.11-3.27,7.29-11.83,10.55-19.11,7.3h0Zm-36.26,28.45c1.32-2.96,4.79-4.29,7.76-2.95,2.95,1.32,4.29,4.79,2.95,7.75-1.32,2.96-4.79,4.29-7.75,2.96-2.97-1.32-4.3-4.79-2.97-7.76h0Zm-42.8-19.16c1.9-4.27,6.91-6.18,11.18-4.27,4.28,1.91,6.18,6.92,4.27,11.19-1.91,4.28-6.91,6.19-11.19,4.29-4.26-1.91-6.18-6.93-4.26-11.2h0Z"/><path d="M157.09,457.19l89.27-199.5L41.9,335.73c20.75,51.91,60.59,96.22,115.18,121.46h0Zm41.51-139.02c2.97,1.32,4.3,4.8,2.97,7.76-1.32,2.96-4.8,4.29-7.76,2.96-2.96-1.33-4.28-4.8-2.96-7.76,1.32-2.95,4.8-4.29,7.75-2.96h0Zm-50.18,97.78c-1.55,3.47-5.65,5.04-9.13,3.48-3.48-1.55-5.04-5.65-3.48-9.13,1.56-3.49,5.65-5.05,9.12-3.49,3.49,1.56,5.06,5.65,3.49,9.14h0Zm11.51-46.31c-2.07,4.61-7.49,6.68-12.1,4.62-4.62-2.07-6.69-7.5-4.62-12.11,2.07-4.62,7.49-6.68,12.11-4.62,4.62,2.07,6.68,7.49,4.62,12.11h0Zm6.51-59.43c3.94,1.77,5.71,6.39,3.94,10.33-1.76,3.94-6.38,5.71-10.32,3.94-3.94-1.77-5.71-6.39-3.95-10.33,1.77-3.94,6.38-5.71,10.33-3.94h0Zm-63,37.13c5.32,2.38,7.71,8.64,5.32,13.97-2.39,5.32-8.64,7.71-13.96,5.33-5.33-2.39-7.72-8.64-5.33-13.98,2.39-5.34,8.64-7.71,13.97-5.33h0Z"/><path d="M329.55,464.47l-78.05-204.46-89.27,199.5c55.2,23.89,114.79,24.08,167.32,4.97h0Zm-88.35-120.82c-1.32,2.96-4.79,4.29-7.76,2.96-2.96-1.33-4.28-4.8-2.96-7.76,1.33-2.96,4.79-4.3,7.76-2.97,2.96,1.33,4.29,4.81,2.96,7.77h0Zm-33.29,91.32c3.5,1.56,5.05,5.66,3.5,9.14-1.56,3.48-5.65,5.04-9.14,3.49-3.49-1.56-5.05-5.66-3.5-9.14,1.56-3.49,5.65-5.04,9.14-3.49h0Zm29.85-40.56c4.61,2.07,6.69,7.48,4.61,12.1-2.07,4.62-7.49,6.69-12.11,4.62-4.62-2.06-6.69-7.49-4.62-12.11,2.07-4.62,7.5-6.7,12.12-4.62h0Zm31.8-29.52c-1.77,3.95-6.39,5.71-10.33,3.95-3.93-1.76-5.7-6.38-3.93-10.32,1.76-3.94,6.38-5.71,10.32-3.94,3.94,1.76,5.71,6.38,3.95,10.31h0Zm15.68,75.38c-2.39,5.32-8.64,7.72-13.96,5.32-5.34-2.39-7.72-8.64-5.34-13.96,2.39-5.34,8.64-7.72,13.98-5.33,5.32,2.39,7.71,8.64,5.32,13.97h0Z"/><path d="M346.9,46.82l-89.26,199.5,204.46-78.04c-20.75-51.91-60.6-96.21-115.2-121.45h0Zm-41.51,139.02c-2.96-1.33-4.29-4.79-2.95-7.75,1.31-2.96,4.78-4.3,7.75-2.96,2.96,1.32,4.28,4.79,2.96,7.75-1.32,2.95-4.79,4.29-7.75,2.96Zm50.18-97.77c1.55-3.48,5.65-5.04,9.13-3.48,3.5,1.56,5.05,5.66,3.5,9.14-1.56,3.49-5.66,5.05-9.14,3.49-3.48-1.56-5.05-5.65-3.48-9.14Zm-11.5,46.32c2.07-4.62,7.5-6.69,12.12-4.62,4.61,2.07,6.69,7.49,4.62,12.11-2.07,4.62-7.5,6.69-12.11,4.62-4.62-2.07-6.69-7.49-4.62-12.11h0Zm-6.51,59.41c-3.93-1.76-5.69-6.38-3.93-10.32,1.76-3.94,6.38-5.71,10.32-3.95,3.94,1.76,5.71,6.38,3.94,10.33-1.76,3.94-6.38,5.7-10.32,3.94h0Zm63.01-37.12c-5.34-2.39-7.73-8.64-5.34-13.98,2.38-5.32,8.64-7.71,13.97-5.32,5.32,2.39,7.72,8.64,5.33,13.96-2.38,5.34-8.64,7.71-13.97,5.34h0Z"/><path d="M174.45,39.55l78.04,204.46L341.75,44.51c-55.2-23.89-114.79-24.08-167.3-4.96h0Zm88.33,120.8c1.33-2.96,4.8-4.29,7.76-2.96,2.96,1.32,4.29,4.8,2.96,7.76-1.33,2.96-4.81,4.29-7.77,2.96-2.95-1.32-4.28-4.79-2.96-7.76Zm33.29-91.32c-3.48-1.55-5.04-5.65-3.48-9.14,1.55-3.48,5.65-5.04,9.13-3.49,3.48,1.56,5.05,5.66,3.49,9.13-1.56,3.5-5.66,5.06-9.14,3.5h0Zm-29.84,40.57c-4.61-2.07-6.69-7.49-4.62-12.11,2.07-4.62,7.49-6.69,12.11-4.62,4.62,2.07,6.69,7.49,4.62,12.11-2.06,4.62-7.49,6.69-12.11,4.62h0Zm-31.8,29.5c1.77-3.94,6.38-5.7,10.32-3.94,3.94,1.77,5.71,6.39,3.95,10.33-1.76,3.94-6.38,5.7-10.33,3.94-3.94-1.77-5.7-6.39-3.94-10.32h0Zm-15.68-75.36c2.39-5.32,8.64-7.71,13.96-5.33,5.33,2.38,7.72,8.64,5.33,13.97s-8.64,7.72-13.96,5.33c-5.33-2.39-7.72-8.64-5.33-13.97Z"/></svg>