<svg xmlns="http://www.w3.org/2000/svg" id="Layer_1" data-name="Layer 1" viewBox="0 0 100 100"><path d="M65.66 28.61a1.53 1.53 0 0 0-.33 3c5.74.65 11 5.27 13.39 11.78a1.5 1.5 0 0 0 1.4 1 1.37 1.37 0 0 0 .52-.1 1.52 1.52 0 0 0 .88-2C78.73 34.78 72.5 29.39 65.66 28.61ZM25.06 46c0-3.53-2.4-6.39-5.35-6.39S14.36 42.44 14.36 46s2.4 6.39 5.35 6.39S25.06 49.5 25.06 46Zm-5.35 3.34c-1.28 0-2.36-1.53-2.36-3.34s1.08-3.34 2.36-3.34 2.36 1.53 2.36 3.34S21 49.31 19.71 49.31ZM14.14 56.33c-2.25 0-4.09 2.16-4.09 4.8s1.84 4.8 4.09 4.8 4.09-2.15 4.09-4.8S16.39 56.33 14.14 56.33Zm0 6.55c-.52 0-1.1-.72-1.1-1.75s.58-1.75 1.1-1.75 1.1.72 1.1 1.75S14.66 62.88 14.14 62.88ZM26.16 53.06c-2.26 0-4.09 2.15-4.09 4.8s1.83 4.8 4.09 4.8 4.09-2.15 4.09-4.8S28.41 53.06 26.16 53.06Zm0 6.55c-.52 0-1.1-.72-1.1-1.75s.58-1.75 1.1-1.75 1.1.72 1.1 1.75S26.68 59.61 26.16 59.61Z"/><path d="M94.51,35c0-1.65-.18-5.52-2-7.19A3.17,3.17,0,0,0,89.72,27c-2.86.5-4.53,3-5.33,4.57-4.58-6.86-12-10.73-19.51-9.27l-45,8.8A17,17,0,0,0,12,35c-5.38,4-9,11.45-9,20,0,12.7,8,23,17.83,23A14.19,14.19,0,0,0,25,77.36a1.57,1.57,0,0,0,.57.12l.28,0L73.5,68.28C83.4,66.34,89.89,55.74,88.76,44a8.91,8.91,0,0,0,3.69.9,6,6,0,0,0,2.64-.6,3.24,3.24,0,0,0,1.81-2.25C97.48,39.61,95.45,36.33,94.51,35ZM6,55c0-7.35,3-13.76,7.36-17.23a1.61,1.61,0,0,0,.3-.21l.32-.27A11.85,11.85,0,0,1,20.83,35C29,35,35.67,44,35.67,55S29,75,20.83,75,6,66,6,55Zm67,10.31-41.26,8c4.24-4.22,7-10.84,7-18.26,0-10.3-5.26-19-12.49-22L65.44,25.3c9-1.75,18,5.79,20,16.81S81.91,63.53,72.94,65.28ZM94,41.35c0,.08,0,.13-.18.21-2.19,1.06-5-1-5.09-1.06a1.48,1.48,0,0,0-.59-.26,26.72,26.72,0,0,0-2-5.62,1.54,1.54,0,0,0,.53-.74s1.17-3.44,3.57-3.86c.17,0,.2,0,.26.06.73.65,1.05,3.23,1,5a1.59,1.59,0,0,0,.06.81,1.47,1.47,0,0,0,.41.7C93,38.09,94.22,40.39,94,41.35Z"/></svg>