<?xml version="1.0" encoding="utf-8"?>
<!-- Generator: Adobe Illustrator 26.3.1, SVG Export Plug-In . SVG Version: 6.00 Build 0)  -->
<svg version="1.1" id="Layer_1" xmlns="http://www.w3.org/2000/svg" xmlns:xlink="http://www.w3.org/1999/xlink" x="0px" y="0px"
	 viewBox="0 0 337.7 343.7" style="enable-background:new 0 0 337.7 343.7;" xml:space="preserve">
<style type="text/css">
	.st0{fill:#E9E7DC;}
</style>
<g>
	<path class="st0" d="M337.7,325.6l-81.8-81.8c21.8-25.8,35.3-58.8,35.3-94.6c0-80.6-65.5-145.6-145.6-145.6C65,3.6,0,69.1,0,149.2
		c0,80.6,65.5,145.6,145.6,145.6c36.4,0,69.4-13.4,94.6-35.3l81.8,81.8L337.7,325.6z M21.8,149.2C21.8,80.9,77.3,26,145,26
		c68.3,0,123.2,55.4,123.2,123.2S212.8,272.4,145,272.4C77.3,272.4,21.8,217,21.8,149.2L21.8,149.2z"/>
</g>
</svg>
