<?xml version="1.0" encoding="UTF-8"?><svg id="a" xmlns="http://www.w3.org/2000/svg" viewBox="0 0 117.23 184.21"><defs><style>.b{fill:#fff;}.c{fill: #e9e7dc;}</style></defs><path class="b" d="M54.64,78.71c-.02-.1,0-.06,0,0h0Zm-.11-4.36c.03-.23,0-.07,0,0h0ZM5.04,27.11h0c.04-.28,0-.05,0,0Z"/><path class="c" d="M44.48,4.61c4.22-.2,8.03,.72,11.54,2.89,2.92,1.81,5.43,4.45,7.19,7.38,.41,.69,.79,1.4,1.14,2.13,.08,.17,.15,.34,.23,.51,.17,.38-.11-.3,.08,.21,.13,.33,.25,.67,.36,1,.44,1.27,.86,2.54,1.27,3.81,1.04,3.24,1.98,6.52,2.77,9.83,.44,1.81,.83,3.63,1.16,5.46,.17,.91,.32,1.82,.45,2.73,.03,.22,.06,.44,.09,.66-.06-.41,.03,.26,.05,.37,.06,.47,.11,.94,.16,1.41,.18,1.8,.29,3.61,.28,5.43,0,.88-.04,1.76-.1,2.64-.03,.39-.07,.79-.11,1.18-.01,.1-.02,.19-.03,.29,0-.03,.06-.4,.02-.13-.03,.22-.07,.44-.1,.66-.13,.79-.3,1.58-.52,2.36-.1,.35-.2,.69-.32,1.03-.06,.17-.12,.33-.18,.5-.04,.1-.26,.64-.14,.37,.11-.26-.12,.25-.17,.36-.07,.15-.15,.31-.23,.46-.17,.32-.35,.64-.55,.95-.18,.28-.37,.55-.56,.82-.15,.21,.1-.13,.11-.14-.05,.06-.1,.13-.16,.19-.14,.17-.29,.33-.44,.49-.23,.24-.46,.47-.71,.69-.12,.11-.25,.21-.38,.32-.19,.17,.12-.09,.13-.1-.1,.07-.2,.15-.31,.22-.36,.25-.73,.47-1.11,.67-.23,.12-.46,.24-.69,.34-.1,.05-.7,.3-.38,.17-1.84,.74-3.75,1.25-5.62,1.91-4.06,1.43-7.78,3.76-8.57,8.33-.78,4.48,.4,9,1.48,13.33,1.25,5.03,2.54,10.05,4.14,14.99,1.47,4.53,3.18,9.1,5.64,13.2,2.16,3.61,5.12,6.67,9.18,8.04,3.88,1.32,8.18,.82,12.1-.02,2.57-.55,4.97-1.69,7.57-2.11-.36,.06,.2-.02,.31-.03,.27-.03,.54-.05,.81-.06,.51-.02,1.01-.03,1.52,0,.47,.02,.94,.06,1.41,.11-.34-.04,.23,.04,.33,.05,.31,.05,.62,.11,.93,.18,.97,.22,1.92,.51,2.84,.88,.25,.1,.05,.02,0,0,.11,.05,.22,.1,.32,.15,.21,.1,.43,.2,.64,.31,.49,.25,.96,.52,1.43,.81,.91,.58,1.2,.8,1.99,1.57,.82,.8,1.09,1.12,1.64,2,.24,.39,.45,.79,.65,1.2,0,0,.16,.34,.07,.14-.11-.24,.11,.28,.1,.26,.16,.41,.33,.82,.49,1.24,.45,1.15,.88,2.3,1.29,3.46,.67,1.9,1.27,3.82,1.78,5.76,.91,3.52,1.48,7.12,2.2,10.68,.4,1.98,.81,3.95,1.13,5.95,.19,1.15,.25,1.58,.36,2.7,.09,.95,.15,1.92,.13,2.87,0,.2-.01,.39-.03,.59,0,.09-.07,.65-.03,.33,.05-.32-.05,.25-.07,.33-.07,.34-.16,.68-.25,1.01-.31,1.1-.5,1.59-.99,2.53-.22,.42-.46,.82-.71,1.22-.15,.23-.3,.45-.46,.67-.07,.09-.14,.19-.21,.28,.15-.19-.01,.01-.07,.08-.64,.74-1.3,1.45-2.03,2.11-1.48,1.34-3.05,2.39-4.92,3.54-1.81,1.11-3.65,2.18-5.6,3.02,.24-.1-.29,.12-.36,.15-.23,.09-.46,.18-.69,.27-.51,.19-1.02,.37-1.53,.54-1.05,.35-2.11,.65-3.19,.91-2.16,.53-4.23,.87-6.25,1.08-2.27,.23-4.56,.31-6.85,.26-1.17-.02-2.34-.08-3.5-.17-.94-.07-2.32-.22-2.99-.31-2.25-.31-4.48-.76-6.68-1.35-1.02-.27-2.03-.58-3.03-.92-.51-.17-1.01-.35-1.52-.55-.23-.09-.46-.18-.68-.27-.11-.05-.23-.09-.34-.14-.37-.15,.25,.11-.12-.05-8.28-3.56-15.44-9.54-20.45-16.88-2.85-4.18-4.87-8.8-6.95-13.4-2.16-4.78-4.25-9.6-6.22-14.46-3.78-9.32-7.15-18.8-10.08-28.42-3.04-9.99-5.61-20.12-7.9-30.31-2.14-9.52-2.89-19.25-3.2-29.05-.14-4.64-.28-9.35,.07-13.99,.04-.5,.08-1,.14-1.5,.03-.24,.06-.49,.09-.73,.04-.27,0-.04,0,.01,.02-.16,.05-.31,.07-.47,.15-.97,.34-1.94,.57-2.9,.21-.89,.47-1.78,.76-2.65,.13-.38,.27-.76,.41-1.14,.07-.18,.14-.37,.22-.55-.17,.41,.05-.12,.12-.25,.64-1.42,1.42-2.77,2.33-4.03,.07-.09,.41-.54,.24-.33-.18,.23,.15-.18,.2-.24,.24-.29,.48-.57,.73-.84,.49-.54,1.01-1.05,1.56-1.53,.25-.22,.5-.43,.76-.65,.18-.15,.37-.28,.06-.05,.15-.12,.31-.23,.46-.35,.58-.42,1.18-.81,1.8-1.18,.59-.35,1.2-.68,1.82-.98,.32-.16,.65-.31,.98-.46,.08-.03,.56-.24,.26-.12-.28,.12,.25-.1,.35-.14,2.72-1.08,5.58-1.78,8.46-2.27,.38-.06,.75-.12,1.13-.18,.17-.03,.35-.05,.52-.08,.21-.03,.66-.09,.18-.03,.76-.1,1.53-.19,2.3-.27,1.51-.16,3.02-.28,4.53-.38,2.87-.19,5.75-.3,8.62-.45,1.24-.06,2.29-1.01,2.29-2.29,0-1.19-1.05-2.36-2.29-2.29-6.27,.33-12.57,.51-18.77,1.59-6.09,1.07-12.12,3.19-16.78,7.38C3.39,13.97,1,21.22,.3,28.45-.15,33.18,0,38,.14,42.74c.15,5.21,.47,10.41,1,15.59,.51,4.93,1.18,9.85,2.25,14.69,1.18,5.36,2.47,10.69,3.84,16,2.59,9.98,5.56,19.85,9.02,29.56,3.61,10.14,7.74,20.1,12.19,29.9,2.13,4.69,4.23,9.36,7.22,13.57,2.76,3.89,6,7.43,9.71,10.45,7.37,5.99,16.04,9.75,25.44,11.06,9.21,1.28,19.08,.82,27.76-2.78,4.19-1.74,8.25-4.16,11.73-7.07,3.33-2.79,5.99-6.65,6.71-11,.69-4.17-.36-8.61-1.17-12.69-.73-3.67-1.35-7.37-2.2-11.02-1.01-4.36-2.49-8.6-4.2-12.72-1.78-4.29-5.37-7.28-9.61-9.01-4.19-1.71-8.91-1.94-13.25-.64-2.51,.75-4.92,1.57-7.53,1.97-.2,.03-.56,.07-1.06,.12-.53,.05-1.06,.08-1.6,.09-.44,0-.87,0-1.31-.01-.25-.01-.49-.03-.74-.05-.15-.01-.76-.1-.32-.03-.86-.14-1.7-.34-2.52-.64-.15-.05-.55-.23-.19-.07-.21-.1-.42-.19-.63-.3-.39-.2-.76-.42-1.13-.66-.1-.06-.58-.41-.44-.3,.14,.11-.27-.22-.34-.28-.36-.31-.7-.63-1.03-.97-.83-.86-1.17-1.32-1.8-2.28-2.59-3.93-4.19-8.22-5.64-12.66-1.67-5.07-2.99-10.24-4.28-15.41-.51-2.05-1.01-4.1-1.35-6.19-.08-.48-.04-.27-.03-.16-.02-.13-.03-.26-.05-.39-.03-.26-.06-.52-.08-.77-.05-.6-.08-1.19-.07-1.79,0-.5,.03-.99,.08-1.48,.03-.28,0-.04,0,.01,.02-.12,.04-.23,.06-.35,.06-.3,.13-.6,.22-.9,.03-.11,.21-.59,.16-.47-.05,.13,.17-.33,.23-.42,.12-.21,.26-.43,.41-.62-.24,.31,.16-.15,.25-.24,.14-.15,.3-.29,.45-.42,.08-.07,.16-.14,.24-.2-.08,.07-.32,.21,.04-.01,.4-.24,.78-.49,1.19-.71,.19-.1,.39-.2,.59-.29,.05-.02,.47-.21,.23-.11-.21,.09,.13-.05,.14-.06,.46-.18,.93-.35,1.4-.52,1-.34,2-.65,3-.98,1.95-.64,3.97-1.33,5.67-2.51,1.45-1,2.64-2.22,3.64-3.66,1.97-2.83,2.78-6.28,3.17-9.65,.42-3.65,.2-7.36-.27-10.99-.93-7.23-2.79-14.31-5.07-21.23-1.01-3.07-2.1-6.06-3.94-8.74-2.29-3.34-5.27-6.23-8.82-8.22C53.56,.84,49.02-.19,44.48,.03c-1.24,.06-2.29,1.01-2.29,2.29,0,1.2,1.05,2.35,2.29,2.29Z"/></svg>