<?xml version="1.0" encoding="UTF-8"?><svg id="a" xmlns="http://www.w3.org/2000/svg" viewBox="0 0 94.1 94.09"><defs><style>.b{fill:#e9e7dc;;}</style></defs><path class="b" d="M88.89,33.04c.01-.43-.08-.86,.14-1.22-.26-.33-.47,.02-.76-.06-.18-.41-.09-.87-.07-1.3,.4-.26,.47,.28,.94,.13,.09-.05,.34-.24,.41-.51,.03-.22-.07-.32-.18-.34-.28-.06-.52-.16-.72-.37-.19-.2-.08-.35,.05-.51,.16,.07,.05,.39,.36,.36,.6-.66,.24-1.44,.15-2.23,1.14,1.02,1.49,2.42,.9,3.41,.22,.23,.54,.08,.86,.28-.07,.47,.41,.86,.33,1.41-.45-.33-.87-.35-1.39,.15h1.25c-.23,.14-.54,.18-.61,.51,.2,.36,.72,.3,.91,.7-.45,.23-1.07-.13-1.38,.42-.24,.31,.14,.53,.09,.77,.05,.36-.48,.33-.39,.71,.18,.23,.47,.11,.72,.17h0l-.66,.71c.09,.47-.13,.95,.03,1.42-.65,.31-.11,1.03-.51,1.46-.23,.25-.14,.59-.04,.88,.31,.03,.23-.32,.56-.38-.28,.35,.34,.62-.07,.99-.38,.34,.76,.72-.11,1.06l.56,.27c-.2,.61-.46,1.24,.07,1.71,.63,.33,.85-.51,1.52-.25-.59,.3-.28,1.04-.9,1.32-.48,.22-.83,.69-1.37,.7-.11,.31,.03,.42,.2,.54,.12,.09,.21,.22,.33,.35l.37-.44c.38-.33,.59,.23,.88-.04,.36-.32,.82-.58,.9-1.17,.04-.3,.34-.41,.62-.49h0c-.07,.28-.08,.54,0,.83,.2,.32,.69,.12,.89,.47,.05,.51-.67,.19-.68,.64-.12,.33,.23,.56,.2,.88l-.46,.04c-.27,.15-.02,.55-.37,.66-.23,.07-.62-.01-.48,.64,.49-.43,.83,.04,1.21,.23,.37-.48,.67-.9,.25-1.43,.28,.04,.44-.16,.64-.3v2.64c-.35,.1-.19,.38-.21,.59-.1,.91,0,1.84-.23,2.74-.07,.31-.09,.64-.39,.76,.24,1.8-.35,3.45-.69,5.16l-.49-.86c-.92-.13-1.29,.54-1.81,1.09,.29,.5,.82,.97,.4,1.67,.51,.27,.82,.66,.96,1.24-.27,.81-.39,1.76-1.37,2.08-.11,.39,.26,.54,.26,.91-.38,.69-.44,1.63-1.18,2.21,.27,.83-.81,1.03-.81,1.78,0,.74-.57,1.3-.9,1.92-.19,.35-.35,.72-.63,.92-.37,.14-.59-.17-.89-.14-.2,.22-.09,.6-.36,.79,.55,.83,.25,1.49-1.14,2.57-.34-.49-.79-.74-1.35-.73-.31,.25,.07,.37,.06,.39-.08,.39-.39,.25-.44,.38-.16,.33-.17,.63-.06,.88,.14,.31-.31,.48-.1,.78,.83,.22,.66-.67,1.03-.96l.4,.16c-.25,.61-.77,.99-1.12,1.56-.21-.4-.37-.74-.88-.44-.17,.37-.22,.76,.22,1.02-.34,.87-1.11,1.01-1.85,1.31-.01-.61,.47-1.1,.38-1.69h0c.31,.05,.63,.12,.97-.14-.27-1.08-1.22-.98-2.11-1.14,.19-.46,.47-.89,.22-1.4-.16-.32-.46-.24-.8-.57,.16,.85-.44,1.23-.57,1.81l-.56-.2c-.35,.91-.06,1.73,.2,2.52,.49,.25,1.06-.03,1.43,.5l-.08,.48c-.45-.07-.88-.21-1.31,.06,.41,.75,1.14,.43,1.7,.6q-.1,.61-.7,1.07c-.26,0-.24-.3-.42-.39-.52,.3-.41,.87-.53,1.32-.55,.6-1.17,1.09-1.83,1.59-.21-.45-.28-.89-.64-1.17,.62-.45-.54-1.05,.2-1.49-1.11-.49-.88,1.02-1.68,.93-.1,.55-.08,1.05-.03,1.45,.33,.39,.59-.11,.87,.16,.12,.4-.38,.77-.04,1.17l-.84,.59c-.37-.03-.48-.44-.86-.5-.21,.35,.21,.82-.16,1.16-.29,.26-.56,.51-.95,.62-.11-.52,.42-.47,.51-.77-.79-.17-.24-1.01-.7-1.37,.25-.15,.63-.13,.7-.52l-.61-.52c.26-.03,.55-.17,.44-.42-.24-.5,.08-.97,0-1.46h-.97c.03,.64,.46,1.13,.4,1.73-.79,.25-.84,1.12-1.43,1.66,.72,.22,.39,.66,.31,1.05h0c-.58-.09-.94,.34-1.38,.55,.05,.22,.23,.21,.36,.29q-.02,1-.42,1.55c-.64-.31-1.28-.79-1.96-.45-.42-.06-.34-.55-.88-.51-.36,.15-.69,.62-1.2,.77q.19,.77,.73,1.11c-.29,.43-.76,.7-.99,1.26-.87-.49-1.35,1.17-2.3,.37,.21-.98,.98-1.59,1.45-2.28-.41-.44-.69-.07-.94-.21-.27,.07-.09,.46-.36,.53-.31-.15-.23-.82,.19-1.49l-.52-.23c-.08,.08-.18,.14-.17,.18,.16,.91-.95,1.65-.33,2.61-.32,.26-.36,.75-.81,.86,.04,.3,.36,.42,.48,.75-.86,.45-1.79,.68-2.75,.87-.03-.43,.45-.95-.33-1.06,.04-.11,.13-.29,.1-.31-.41-.29-.52-.88-1.05-1.04-.5,.65-.51,.85,.04,1.18,.22,.14,.46,.31,.75,.3-.09,.43-.23,.82-.62,1.04-.43-.29,.06-.62-.15-.92-.34-.38-.77-.26-1.32-.17,.65,.44,.72,.96,.38,1.54-4.47,.99-6.87,1.19-7.68,.66-.89,.58-3.32,.57-4.12-.02-.36,.18-.69,.61-1.17,.25-.04-.32,.33-.43,.37-.75,0-.2-.12-.33-.39-.46-.2,.59-.71,.84-1.25,1.03-.58,.21-1.17,.04-1.71,.03-.35-.4-.11-.85-.31-1.23-.29-.29-.65-.13-.87-.15-.2,.08-.22,.2-.13,.22,.44,.12,.58,.37,.43,.81-.33,.23-.67,.15-1.12,0-.22-.05,.17-.46-.26-.56-1.03,.47-2.11,.15-3.2-.15-.96-.26-1.91-.57-2.88-.79-1.04-.23-1.82-.69-1.94-1.82q-.91-.08-.94,.78c-3.53-1.38-6.8-3.13-9.86-5.28-3.05-2.15-5.8-4.65-8.29-7.42-2.5-2.79-4.42-5.97-6.35-9.15,.53-.35,.98-.88,1.63-.34,.34,.27-.26,.59,.05,.86,.08,.02,.18,.09,.21,.06,.24-.2,.46-.41,.67-.61,.08-.34-.26-.38-.37-.6,.17-.4,.36-.84-.16-1.13-.6-.34-1.03,.09-1.5,.42,.21-.39,.48-.71,.6-1.12q-.24-.59-1.08-1.23l-.76,.24c0,.18,.09,.23,.21,.25,.52,.1,.45,.56,.41,.85-.05,.33-.35,.53-.83,.12-.35-.77-1.03-1.59-1.22-2.7,.08-.31,.27-.59,.59-.84-.32-.68-1.28-.81-1.42-1.66,.34-.43,.69-.94,.7-1.7-1.59,.09-1.01-1.35-1.5-2.08,.26-.22,.49-.52,.59-1.01l-1.13-.62c.07-.44,.53-.54,.76-.87-.32-.36-.73-.06-1.06-.12-.32-.55-.25-1.12-.25-1.72,.49-.37,1.14-.62,1.3-1.33-.42-.23-.9-.38-1.41-.43-.17-.36,.28-.46,.26-.74-.11-.23-.36-.07-.52-.18-.03-.07-.07-.15-.08-.22-.08-2.36-.17-4.72,.02-7.08,.42-5.17,1.6-10.16,3.68-14.93,3.03-6.98,7.48-12.9,13.34-17.77,.59-.49,1.29-.8,1.83-1.39,.53-.57,1.27-.96,1.94-1.4,.66-.44,1.34-.87,2.03-1.28,.69-.41,1.38-.81,2.09-1.18,.7-.38,1.42-.73,2.14-1.07,.72-.34,1.46-.66,2.2-.96,.74-.3,1.49-.58,2.24-.84,.75-.26,1.52-.5,2.28-.73,.77-.23,1.53-.44,2.31-.63,.78-.19,1.55-.37,2.34-.49,1.58-.24,3.15-.54,4.75-.59,.39-.01,.81,.02,1.15-.25h5.04c.39,.27,.84,.23,1.28,.26,5.4,.36,10.54,1.74,15.47,3.93,.36,.16,.91,.19,.83,.92,.74-.33,1.3,.05,1.85,.42,.14,.17-.07,.17-.18,.35,.13,.29,.52,.34,.77,.61l.49-.3c1.04,.2,1.66,1.11,2.55,1.56,.89,.46,1.11,1.61,2.09,2.01l.26-.28c1.86,.73,7.42,6.09,9.39,9.06-.06,.19-.41,.08-.39,.36,1.07,.26,1.42,.61,2.25,2.32-.41,.26-.35-.54-.83-.27,.03,.33,.1,.67,.33,1.02-.34,.16-.69-.43-1.12,0,.01,.36,.31,.64,.49,1.04-.02,.21-.38,.17-.47,.43l.44,.22c.03,.27-.39,.42-.17,.75,.3,.26,.67,.05,.99,.13-.6,.4-.13,1.43-.96,1.63-.06,.4,.5,.19,.29,.8-.02,.05-.35-.09-.58,.03-.15,.22-.02,.47-.06,.7-.22,.15-.45,.1-.7,.03,.18-.32,.32-.74,.01-.94-.51-.32-.36-.84-.51-1.27q-.42,.34-.1,2.63c.95-.32,1.19,.94,2.13,.97,.88-1.15,.43-2.75,1.28-3.93l.86,.29c.31-.23,.34-.68,.77-.78,.17,.12,.4,.24,.03,.48-.25,.17-.36,.51-.76,.47-.37-.04-.39,.33-.54,.58,.58,.54,.63,1.3,.84,2.01-.2-.29-.27-.72-.89-.57,.43,.99-.69,1.47-.74,2.38,.13,.35,.68,.49,.62,1.05-.44,0-.51-.36-.64-.57-.46-.14-.84-.15-1.12,.24-.21,.31-.34,.63-.09,.98,.24,.34-.19,.79,.2,1.16,.75-.12,1.08-.81,1.58-1.26,.18,.11,.23,.39,.19,.4-.72,.13-.73,.88-1.22,1.28-.45-.17-.95-.41-1.34-.7-.27,.04-.38,.14-.51,.36,.04,.54,.79,1.14,.09,1.75-.53-.87-.55-1.93-.99-2.84-.06-.13-.06-.35,.01-.47,.4-.65,.08-1.22-.21-1.86l-.53,1.03c-.3-.64-.56-1.21-.83-1.77,.08,0,.15,0,.23,0,.77-.2,.88-.35,.92-1.05,.04-.56-.08-.96-.72-.94-.29,0-.31-.35-.59-.34l-.24,.52c-.67-.07-1.08-.44-1.32-1.08,0-.42,.35-.9-.14-1.3,.6-1.21,.56-1.31-.56-1.85-.12,.3-.43,.44-.64,.64,.09,.23,.24,.35,.43,.45-.19,.18-.36,.29-.58,.02-.7-.87-1.42-1.73-2.12-2.6-1.62-1.99-3.6-3.6-5.6-5.19-1.25-.99-2.62-1.8-3.97-2.63-.4-.25-.86-.43-.94-.93-1.28-.24-2.46-.5-3.24-1.63l-.28,.26c-1.35-.46-2.7-.95-4.07-1.36-1.34-.39-2.7-.69-4.06-1.04-.16-.25,.16-.64-.24-.85-.39-.02-.52,.23-.57,.65l-.73-.58c-.28-.11-.24,.26-.48,.31l-.6-.37c-.4,.47-.95,.46-1.51,.42-1.68-.14-3.35-.12-5.03-.03-5.64,.31-10.96,1.77-15.89,4.48-10.59,5.82-17.2,14.67-19.87,26.45-.56,2.49-.79,5.01-.79,7.56,0,.56,0,1.11,0,1.64-.45,.1-.58-.27-.84-.41l-1,.68,.24,1.08c-.15,.45-.61,.65-.97,.95-.2,.68-.02,1.25,.5,1.78,.75-.15,1.13-.7,1.38-1.29,.4-.08,.58,.19,.91,.32,.36,2.31,.73,4.67,1.53,6.98l-1.08,.5c-.19,.26,.04,.57-.18,.74,.3,.49,.63,.49,1.59,.05,.16,.1,.13,.27,.18,.41-.14,.3-.44,.12-.67,.28-.25,.28-.07,.72-.28,1.04,.27,.26,.57,.15,.83,.18-.07,.32-.53,.28-.59,.62l.33,.3c.23-.33,.94-.4,.42-1.05-.17-.27-.4-.55,.12-.75,.07,.08,.17,.15,.21,.25,.42,1.14,.83,2.28,1.48,3.31,.28,.45,.29,.9,0,1.29,.17,.44,.45,.03,.74,.26,.27,.69,.9,1.3,1.31,2.06-.09,.23-.35,0-.51,.21,.02,.3,.22,.65-.23,.96-.27,.19-.52,.72-.45,1.01,.1,.41-.07,.77-.02,1.1,.1,.64-.23,1.03-.52,1.49,.08,.25,.1,.55,.42,.64,.93-.58,1.17-1.62,1.6-2.68l-.18-.55c.07-.17,.18-.19,.29-.14,.38,.15,.5-.09,.58-.5l.93,1.15c-.21,.77,.18,1.44,.32,2.19,.5-.06,.42-.59,.77-.73,.67,.71,1.47,1.34,1.98,2.16,.51,.8,1.73,.94,1.67,2.02,.83,.39,1.66,.57,1.87,1.4,1.5,.56,2.57,1.73,3.9,2.47,1.33,.73,2.65,1.48,4.04,2.16-.09,.92-.08,1.84-.34,2.73-.08,.29-.1,.28-.8,.6-.04,.23,.17,.34,.22,.51,0,.37-.62,.25-.55,.65,.08,.38,.64-.08,.6,.45l-.62-.08c-.19-.36-.25-.9-.79-1.04q-.12,.54,.22,1.09c-.11,.04-.22,.07-.32,.12-.03,.01-.03,.07-.05,.12-.05,.4,.46,.37,.58,.81,.64-.58,1.53-.3,2.27-.85-.63-.75,.13-1.59-.19-2.36,.31-.26,.7-.02,.94-.33,.05-.46-.27-.59-.76-.72,.54-.03,.62-.37,.75-.69-.05-.23-.24-.37-.55-.54,.23,0,.36-.03,.46,0,2.59,1.06,5.23,1.94,8,2.4,.4,.07,.4,.09,1,.72l.29-.47,2.84,.34c.56,.28,.23,.82,.65,1.01,.58-.07,.21-.56,.34-.84,.21-.15,.47-.11,.69-.07,.67,.11,1.45-.3,2.02,.39,.25-.26,.49-.55,.9-.3,.02,.53,.13,.88,.37,1.2-.45,.04-.56,.36-.59,.75,.4,.19,.82,.21,1.05-.21,.33-.59,.1-1.14-.43-1.71,.95-.22,1.76-.53,2.52,.07l.64-.47c-.19,.64,.09,1.11,.34,1.66,.75-.52,.74-1.62,1.63-2,.7-.09,1.39-.5,2.17-.34,0,.28-.38,.13-.34,.4,.07,.51,.42,.47,.78,.37,.47,.64,.77,1.44,1.72,1.63-.35,.51-.54,1.04-.17,1.65,.54-.13,.45-.66,.65-.95,.14-.2,.58-.5,.23-.98-.18-.24,.77-.29,.37-.85-.36,.05-.72,.19-1.1,.44-.39-.59-.25-1.47-1.12-1.91,1.92-1.07,4.1-1.22,5.78-2.39l.86,.27c.17,.21,.14,.45,.14,.69-.31-.01-.43-.5-.88-.28-.13,.45,.18,.76,.48,1.17,.53-.29,1.02-.03,1.53,.19l.31-.58c.34-.11,.47,.1,.58,.41,.3-.62,.86-.5,1.29-.7l1.54,.65c.42,.75-.81,.93-.43,1.68,.51,0,.96-.34,1.55-.13-.1-.69-.18-1.22-.25-1.71-.56-.69-1.58-.57-2.07-1.38-.94,.39-1.88,.58-2.89,.49,.04-.52-.48-.68-.64-1.11,.21-.37,.64-.42,.97-.65,.47,.2,.76,.85,1.47,.61-.07-.41-.29-.81-.23-1.24,1.29-.84,2.58-1.68,3.87-2.53,.07,.59,.63,.55,1.07,.98-.05-.48,.09-.76-.16-1-.25-.13-.53-.07-.8-.08,.48-.45,1.09-.61,1.65-.83,.23,.33,.13,.62,.18,.89l-.16,.79c.27-.15,.39,.24,.7,0l.06-.55,.6-.25c.02,.63,.23,1.27-.28,1.99,.9-.17,1.06,.45,1.38,.89l1.75-1.04c-.1-.3-.52-.11-.55-.48,.29-.5,1.05-.28,1.34-.81,.13-.58-.07-.99-.63-1.21-.4,.32,.22,.88-.32,1.16-.46-.36-.39-1.07-.91-1.39,.14-.09,.22-.21,.16-.41l-.89-.31c-.27,.4,.1,.8-.07,1.17-.25,.1-.35-.08-.46-.24-.15-.57-.06-1.16-.22-1.75-.13-.47,.25-.89,.76-1.19,.14,.29,.21,.68,.58,.77,.3,.08,.62,.1,.95,.14,.16-.11,.18-.31,.26-.52-.21-.39-1.01,.03-1.01-.68,.47-.35,.31,.3,.29,.29,.54,.07,.68-.15,.83-.32,.13-.15,.22-.34,.24-.37,.48-.01,.28,.39,.59,.37,.23-.26,.11-.57,.11-.9-.34-.22-.67-.46-.91-.94,1.09-.99,1.77-2.35,2.82-3.57,.27,.88-.93,1.45-.2,2.2-.35,.22-.71,.03-.96,.25-.24,.49,.4,.42,.42,.74-.03,.35-.06,.71-.09,1.08-.1,.29-.57,.29-.58,.68,.13,.24,.3,.45,.58,.53,.92-.52,1.18-1.37,1.09-2.32-.07-.73,.05-1.4,.27-2.08,.06-.19,.18-.37,.19-.56,.05-.84-.36-1.8,.66-2.37-.02-.91,.69-1.46,1.02-2.31q.12,.73-.29,1.28l.32,.7c.59-.05,1.17,.04,1.1,.88-.19-.3-.38-.61-.85-.31,.09,.35,.21,.72-.12,1.04-.46-.25-.79,.06-1.21,.21,.17,.73-.05,1.41-.25,2-.34,1.02,.21,1.45,.81,2.08,.27-.38,.48-.68,.64-.89-.03-.36-.36-.44-.29-.73l.53-.25q-.57-.58-.6-1.7l.49-.55c.34,.43-.31,.8-.06,1.23,.49,.37,.85,.99,1.69,.85-.23,.61-.7,.94-.76,1.49-.04,.21,.42,.27,.11,.73l-.73,.6c-.61-.5-1.25-.91-2.07-.92-.24,.25-.41,.5-.41,.83,.27,.24,.59,.43,.78,.71,.23,.33,.44,.63,.84,.59,.51-.22,.23-.89,.73-1.06,.16,.23,.32,.46,.85,.38,.19,.01,.09-.55,.48-.56l.3,.63c.21-.6,.65-.47,1.11-.31-.11-.85-.74-1.5-.23-2.21-.3-.41-.59-.75-.66-1.18,.15-.33,.37-.62,.39-.96-.28-.67-.76-1.03-1.47-1.01l.08-.55c.5-.23,.54-.83,.39-1.09-.33-.59-.13-1.16-.14-1.72-.01-.67-.09-1.27-.71-1.69,.08-.44,.25-.81,.51-1.17,.43,.33,.46,.79,.64,1.17,.24,.07,.22-.13,.28-.28,.54,.84,.57,1.66-.1,2.47l.42,.17-.34,.82,.57,.24c-.08,.38-.73,.71-.09,1.17,.43,.28,1.17,.02,1.5,.76,.11,.25,.59,.05,.92,.09,.18,.27,.04,.89,.71,.66,.26-.3-.35-.27-.21-.48-.1-.5,.54-.36,.49-.9-.62-.52,.6-1.58-.4-2.28-.48,.7-.65,1.37-.29,2.09-.66,.23-.29-.52-.77-.51-.29,.12-.72,.09-1.24,.46,.26-.91,.23-1.66,.65-2.29-.15-.26-.5-.29-.6-.62,.04-.07,.08-.18,.16-.26,.29-.34,.78-.02,1.09-.31,.03-.27-.44-.26-.31-.57,.16,.12,.31,.25,.59,.12l-.2-.86c-.32,.04-.57,.1-.76,.33-.42-.5-.42-1.18-.71-1.74,.5-.56-.02-1.38,.5-1.93-.51-.82-.96,.14-1.48,0-.2-.2,.03-.41,.09-.62,.7-2.33,1.29-4.69,1.54-7.12,.04-.39,.18-.77,.28-1.15,.04,.15,.05,.32,.25,.44l.91-.11c0-.5,.89-.56,.54-1.32-.49,.02-1.09-.49-1.44,.35-.26,.03-.37-.11-.34-.35,.07-.7,.15-1.39,.23-2.04,.34-.39,.46,.23,.7,.1,.52-.18,.53-.67,.83-1.13-.58-.03-.93-.49-1.58-.28-.3-1.69-.12-3.4-.54-5.13l.45,.1c.29,.41,1.06,.88,1.25,.75,.11-.26,.13-.52-.06-.77-.33-.18-.7-.07-1.04-.12l.33-.51c1.01-.38,1.37,.36,1.66,1.09,.49-.09,.41-.51,.67-.69l-.44-.7c-.13-.46,.32-.44,.27-.74l-.3-.14c.03-.68,.64-1.1,.83-1.71-.42-.65-.89-1.28-.17-2.06-.25-.31-.49-.56-.95-.27,.01-.6,.12-1.15,.45-1.58-.1-.42-.58-.37-.65-.76,.04-.27,.25-.43,.5-.55,.33,.08,.25,.5,.53,.61,.36,.38,.84,.15,1.21,.36,.13-.3,.12-.47-.05-.63-.33,.14-.67,.15-1.02,.12ZM3.79,56.23c.1,.16,.22,.31,.47,.36,.11-.28,.48-.48,.28-.85-.43-.24-.44,.18-.61,.33-.33-.34-.79-.23-1.18-.32-.18-.04-.38,.24-.3,.52,.14,.2,.38,.23,.66,.36,.07-.4,.36-.44,.7-.41Zm16.06,25.92q.41,.74,.99,.35c.05-.24-.3-.22-.3-.43,.1-.27,.61-.23,.48-.66-.24-.17-.53-.07-.79-.14-.11-.13-.24-.2-.45-.12l-.53,1.14c.29,.12,.44,0,.59-.13ZM79.38,19.85c-.33,.07-.06-.61-.52-.4-.39,.28-.1,.57,.02,.86-.23,.21-.49,.4-.64,.75,.31,.1,.05,.56,.43,.7,.12-.37,.25-.7,.54-.92,.28-.22,.32-.53,.3-.85,.14-.04,.32-.02,.43-.29l-.34-1.13-.17,.02-.07,1.26Zm-31.19,72.62c.44,.15,.22,.93,.86,.9q.11-.87-.72-1.05c.15-.14,.48-.12,.42-.55-.16-.37-.89-.55-.65-1.23,.36-.07,.49,.38,.73,.38,.51-.15,.85-.33,.56-.89l-.65-.16c.11-.61,.88-.76,.99-1.42-.43-.25-.82-.23-1.14-.09-.21,.29,.05,.44,0,.63-.84,.23-.87,.31-.64,1.42-.32,.42-.64,.85-1.01,1.34l1.25,.73Zm43.44-39.28c-.32,.3-.32,.63,0,.91,.34,.31,.56,.19,.62-.25l.55-.08c.11-.43-.3-.67-.24-1.04,.26-.15,.65-.11,.77-.51-.23-.65-.01-1.61-1.09-1.75-.28,.37-.27,.89-.65,.97-.13,.53,.37,.61,.46,1.01-.48,.06-.4,.43-.42,.74Zm-8.41-32.24c.28,.23-.14,.61,.2,.84,.55-.23,.38-.74,.55-1.1-.3-.14-.45,.01-.62,.11-.46-.54,.21-1.01,.1-1.53-.37-.37-.85-.37-1.32-.41-.1,0-.14-.07-.12-.17,.08-.26,.86-.08,.42-.7-.67,.02-.97,.53-1.34,.93,.14,.41,.54,.39,.72,.65-.14,.06-.36,.09-.4,.19-.25,.61-.39,1.26,.03,1.83,.44,.59,.44,1.27,.53,1.92,.4,.31,.74,.23,1.05-.1-.16-.25-.06-.52-.05-.77-.2-.24-.57,0-.75-.31,.18-.29,.72-.14,.77-.57,.06-.19-.29-.16-.15-.45l.37-.34ZM23.9,85.19c.92-.91,1.36-1.61,1.21-1.88-.29-.15-.67-.14-.8-.36-.02-.37,.36-.27,.34-.57-.36-.24-.85,0-1.22-.28-.15,.41-.62,.33-.92,.67,.24,.58-.04,1.15-.19,1.75-.19,.74-.02,1.29,.37,1.62,.27-.41-.16-.88,.02-1.24,.53-.26,.83,.06,1.2,.29Zm21.27,4.56c-.83-.25-1.39-1.08-2.36-.76-.03,.91,.79,1.5,.63,2.45,.39-.38,.69-.66,1.12-.24l-.28,1.18c.36,.11,.71,.16,1.07-.07-.37-.78-.15-1.62-.17-2.56Zm-10.38,1.61c.88-.17,1.55-.61,2.18-1.14l.17-1.12c-.36-.18-.63,.27-.94,.04-.35-.26,.37-.81-.26-.99-1.16,.78-1.06,2.01-1.15,3.21ZM8.4,56.05c-.88-.26-.34-1.26-1.15-1.54-.19,.74,.37,1.83-1.01,1.92,.48,.61-.1,1.37,.43,1.92,.57-.1,.75-.61,1.08-.9,.32-.28,.15-.88,.65-1.39Zm57.41,30.7c-.1-.65,.17-1.18,.77-1.53-.89-.64-1.04-.66-1.64-.29-.33,.21-.72,1.39-.56,1.87,.08,.25,.3,.46,.59,.52l.83-.58Zm26.64-36.47c-.14-1.24-.93-1.95-1.08-3.2l-.33,1.06-.84-.27c-.48-.28-.23-.77-.65-1.02-.08,.48-.1,.87-.02,1.2,.34,.69,1.02,.65,1.48,.77,.32,.41-.19,.67,0,.99,.27,.19,.37-.23,.61-.17l.83,.64Zm-23.33,29.8c.11,.54,.29,.99,.52,1.4-.27,.16-.4,.29-.46,.5,.36,.33,.63,.85,1.32,.55l.55-.83c-.94-.36-.59-1.48-1.24-1.96-.26,.03-.47,.12-.69,.35Zm17.5-26.53c.59-.1,.99-.44,1.43-.22l.21-.84c.59-.28,.75,.15,.99,.46-.16,.16-.44,.25-.31,.55,.37,.06,.6-.15,.82-.34,.09-.25,.09-.48,0-.72-.47-.58-1.48-.19-1.77-1.07-.55,.61-1.06,1.13-1.38,2.17Zm-35.42,35.75c.15-.06,.22-.1,.3-.12,.97-.36,1.09-.77,.31-1.4-.26-.21-.28-.7-.78-.66-.32,.23-.64,.49-.83,.86,.34,.46,.65,.86,1,1.33Zm37.54-29.59c.59-1.23,.44-1.85-.6-2.51-.5,.27-.14,.77-.27,1.16-.25,.77-.05,.95,.87,1.35Zm-32.96,29.85c-.02-.69,1.09-1.01,.58-1.89-.19-.14-.38-.11-.56-.02-.12,.17,.2,.38-.05,.53-.29,.05-.22-.43-.53-.36-.27,.06-.51,.17-.71,.39-.06,.33-.14,.67,.07,.98,.34,.03,.42-.37,.72-.39,.11,.22-.24,.41-.04,.64,.12,.14,.28,.11,.51,.11Zm5.68-4.72q.44-.43,.39-1.04c-.25,.35-.77,0-1.02,.59-.14,.34-.6,.6-.62,1.1-.01,.49,.46,.56,.67,.85l.57-.54v-.96ZM3.04,53.04c-.47-.09-.71,.07-.88,.38-.12,.57,.26,1.12,.07,1.71,.27,.12,.47,.44,.82,.26,.11-.27-.28-.38-.13-.78,.07-.25,.66-.22,.73-.69l-.61-.89Zm89.05,4.3c.58-1.53,.58-1.55-.48-2.1-.59,.14-.67,.64-.8,1.13,.5,.17,.74,.69,1.29,.97ZM5.27,50.92l-1.08-.22c-.43,.17-.25,.64-.52,.83,.2,.67,.57,1.04,1.38,.72,.01-.39,.38-.72,.22-1.33Zm7.03,24.09c-.33-.19-.55-.44-.94-.33-.07,.38-.41,.61-.64,1.03,.56,.28,.54,.85,.68,1.47,.4-.32,.64-.48,.53-1-.07-.32,.22-.72,.37-1.16Zm-1.73-2.91c-.36-.11-.41-.65-.82-.78-.33,.21,.03,.49-.14,.7-.26,.25-.85,.06-.86,.66,.46,.25,1.14-.14,1.52,.58,.1-.41,.41-.6,.3-1.16Zm80.5-9.71c-.35-.4-.54-.86-.62-1.46-.4,.42-.62,.76-.29,1.2-.16,.26-.51,.29-.59,.65l.81,.56,.68-.96ZM5.46,55.38c.3-.62,.92-1.08,.93-1.88-.5,.54-1.53-.17-1.86,.82q.87,.1,.92,1.06Zm17.88,26.17c.6-.33,1.2-.23,1.69-.63-.3-.49-.79-.21-1.08-.43-.21-.23-.26-.58-.61-.72-.17,.51-.12,1,0,1.78Zm63.1-23.9c.21-.59,.66-.91,1.05-1.34-.62-.29-1.13-.59-1.6,.07-.05,.51,.51,.76,.55,1.26Zm-30.98,28.18l-1.21,.46c-.04,.41-.13,.83,.16,1.41,.27-.79,1.33-.91,1.05-1.88Zm-44.37-15.11c-.38-.8-.15-1.56,.18-2.21-.18-.28-.33-.39-.59-.33-.61,.65,.16,1.49-.35,2.14,.27,.17,.36,.43,.76,.4Zm51.57,14.65c.45,.22,.76,.56,1.19,.2,.15-.48-.11-.8-.37-1.08-.8-.12-.56,.55-.81,.89ZM3.18,48.66c-.46,0-.76-.36-1.21-.36-.07,.38-.59,.54-.5,1.04l.82,.13c.17-.37,.59-.42,.89-.81Zm17.29,28.92l.31,.95c-.23,.22-.58,.25-.49,.67l.84,.17c.14-.67-.02-1.25,.2-1.77-.31-.17-.53-.16-.86-.02Zm65.63-16.86c-.38-.02-.6,.11-.59,.45,.02,.53,.36,.88,.73,1.36,.46-.77,.02-1.27-.14-1.81Zm-60.15,27.56c-.03-.42,.04-.79,.22-1.1-.27-.28-.43-.66-.85-.5-.25,.34,.07,.56,.09,.83,.02,.27-.2,.52-.06,.78,.09,.03,.17,.06,.24,.07,.08,0,.15-.03,.36-.07ZM72.66,9.08c.19-.37,.21-.73-.12-1.04-.26-.08-.5,.19-.75,.01q0,.98,.87,1.03Zm-25.79,79.96c.09,.49-.45,1.04,.31,1.42,.6-.38,.44-.88,.27-1.42h-.58ZM55.88,4.75q.42-.67-.57-1.09c-.15,.17-.28,.35-.28,.62,.19,.31,.51,.43,.85,.47Zm31.16,65.33c-.36-.02-.7-.18-.88,.24,.15,.39,.37,.68,.82,.72,.27-.29,.23-.58,.06-.96Zm-71.44,5.2c-.39-.56-1.07-.13-1.4-.57-.24,.2-.34,.36-.15,.7,.46-.25,1,.46,1.55-.12ZM76.46,14.79c-.64-.3-.77,.08-.96,.43-.22,.39-.19,.65,.32,.82,.06-.44,.34-.77,.64-1.25ZM10.67,66.47c.28,.79,.73,1.15,1.05,.89,.12-.13,.1-.29,.05-.55-.39,.09-.64-.35-1.1-.34Zm75.98-7.3c.04-.46-.29-.63-.58-.82-.24,.11-.41,.26-.38,.56,.23,.4,.53,.55,.96,.27Zm-5.22-42.09c-.26,.24-.67,.4-.41,1.01,.34-.31,.77-.26,1.13-.46-.09-.44-.39-.49-.71-.55ZM3.97,58.55c.65-.43,.31-.94,.22-1.68-.49,.68-.71,1.13-.22,1.68Zm35.19,30.17l-.61-.85c-.27,.37-.6,.68-.28,1.13,.34,.14,.52-.15,.89-.29ZM71.51,8.71q-.65,.82-.1,1.37c.3-.44,.2-.88,.1-1.37Zm-3.26,1.32q.33-.13,.66-.52c-.25-.29-.6-.23-.89-.34-.21,.43-.08,.68,.23,.86Zm8.47,5.61c-.23,.21-.4,.44-.38,.79,.29,.13,.49,.54,.99,.25-.42-.24-.08-.83-.61-1.05ZM4.58,59.98c.05,.46-.5,.82,.08,1.19,.31-.1,.51-.29,.59-.6l-.67-.59Zm.58-14.59q-.41,.96-.01,1.44c.29-.41,.23-.79,.01-1.44Zm34.48,44.11c.42,.1,.72,.08,.88-.34-.22-.18-.32-.45-.6-.53-.13,.24-.36,.43-.28,.86Zm-8.91-.36c-.37-.49-.66-.47-.93,0,.12,.28,.29,.51,.64,.57l.29-.57ZM55.92,8.45c.27,.25,.44,.41,.7,.36,.35-.19,.38-.51,.49-.94-.55,.08-.68,.6-1.19,.58Zm21.02,4c-.62,.01-.99-.15-1.36,.19,.06,.25,.14,.44,.42,.49,.16-.27,.47-.35,.94-.69Zm-3.83,5.27q.4-.48-.08-1.06c-.36,.38-.31,.73,.08,1.06Zm2.66-.02q.12-.71-.38-1.04c-.07,.44-.16,.84,.38,1.04ZM36.21,87.53c-.08-.25-.07-.58-.38-.9-.07,.46-.36,.75-.27,1.16,.32,.11,.49,0,.65-.26Zm-1.55-3.15c-.43,.57-.11,.9-.01,1.29,.77-.38,.3-.76,.01-1.29ZM1.99,51.29q.73,.01,.82-.67c-.45,.03-.69,.26-.82,.67Zm88.39,6.09c.22-.45,.25-.8,0-1.21-.51,.39-.51,.72,0,1.21ZM8.99,66.75c.45-.36,.54-.64,.27-.97-.29-.07-.44,.1-.58,.35l.31,.63ZM55.37,1.72c-.32,.11-.5,.31-.61,.57,.16,.14,.07,.49,.43,.48,.09-.29,.19-.58,.28-.88,0-.03-.03-.07-.1-.18Zm12.81,4.26c-.59,.05-.76,.25-.66,.74,.47-.01,.65-.2,.66-.74Zm10.47,8.3c.4-.28,.48-.52,.5-.84-.78-.07-.75,.26-.5,.84Zm8.28,30.53c.2,.12,.4,.16,.66-.04-.21-.21-.04-.57-.34-.78-.18,.24-.42,.44-.32,.82ZM3.64,46.48c-.18-.25-.42-.31-.69-.35-.12,.43,.13,.64,.31,.88,.19-.1,.36-.2,.38-.53Zm29.54,39.86c.29-.02,.53-.07,.64-.35-.15-.2-.09-.57-.55-.55-.09,.28-.2,.56-.1,.9ZM2.15,46.89c-.54-.02-.64,0-.7,.13,.05,.34,.23,.53,.62,.5,.2-.18,.18-.4,.09-.62Zm74.18,29.28c-.41-.19-.75-.22-1.18,.03,.42,.25,.72,.66,1.18-.03Zm-60.18-.25c-.11,.19-.1,.36,.05,.59,.29-.14,.57-.3,.81-.61-.32-.13-.59-.2-.87,.02Zm-.23-1.23c-.18,.51-.05,.77,.41,.87l.25-.33c-.15-.23-.3-.45-.66-.54Zm-3.53-6.08c-.1,.25-.48,.07-.53,.43l.57,.53c.13-.29,.49-.5-.04-.96Zm-3.05-8.06c-.5-.24-.78,0-1.16,.38,.54,.1,.94,.18,1.16-.38ZM81.61,24.35c.38,.3,.54,.05,.68-.23-.06-.19-.18-.27-.34-.32-.16,.11-.34,.2-.34,.56Zm-40.69,62.97c.18-.08,.37-.14,.32-.4-.17-.23-.35-.45-.65-.15-.07,.3,.11,.43,.33,.56Zm-19.85-1.73c-.05-.28-.06-.58-.29-.83-.17,.3-.34,.58-.23,.93,.22,.02,.38,.06,.53-.09Zm8.26-.6c.31-.17,.3-.41,.15-.69-.17-.15-.35-.11-.57-.03,.14,.23,.09,.56,.42,.72Zm40.8-1.73c-.31-.27-.49-.58-.98-.39,.23,.34,.35,.76,.98,.39Zm6.93-2l-.23-.03-.19,1.22c.66-.41,.44-.82,.43-1.19Zm-58.31-3.36c.26,.15,.47,.24,.69-.12-.27-.02-.03-.45-.41-.43-.19,.11-.33,.24-.28,.55Zm-4.76-3.95c.33-.21,.57-.36,.3-.79-.35,.12-.7,.18-.3,.79Zm-4.62-4.19c.08-.39-.16-.6-.34-.85-.21,.13-.35,.21-.32,.4,.15,.21,.27,.47,.66,.45Zm-2.25-7.85q.41-.32,0-.71c-.18,.24-.27,.47,0,.71Z"/><path class="b" d="M67.31,89.21c.32-.47,.92-.42,1.21-.86,.23,.2,.28,.4-.03,.54-.37,.17-.7,.48-1.18,.31Z"/><path class="b" d="M80.89,77.53c-.53,.03-1.13,.24-1.33-.59,.64-.18,.87,.48,1.34,.58h0Z"/><path class="b" d="M71.06,85.92l.31,.14c.15,.26-.09,.34-.21,.48-.25-.17,.06-.44-.11-.61h0Z"/><path class="b" d="M27.44,55.84c-.01-.37-.23-.51-.55-.42-.33,.09-.64,.26-.96,.4-.33-.41-.47-.86-.45-1.42,.19-.4,.71-.66,.82-1.28-.45-.54-.92-1.15-1.55-1.58,.01-.52,.78-.33,.72-.88-.03-.37-.25-.44-.63-.47-.38-.02-.18-.57-.52-.79l-.53,.04h-.01q-.19-.67-1.14-.91c-.91-1.53-1.26-3.24-1.41-5-.15-1.7,.39-2.14,2.2-1.82-.09-.63-.6-1.04-.71-1.6,.06-.31,.45-.13,.56-.37,.21-.5,.02-.91-.31-1.28-.55,.15-.29,.44-.13,.7-.02,.11-.09,.13-.17,.06-.82-.66-1.01-1.63-1.14-2.57-.36-2.62-.19-5.18,1.03-7.55,.34-.4,.93-.38,1.17-.84,.05-.26-.3-.23-.31-.44,.66-.5,.92-.55,1.42-.16,.28,.22,.51,.5,.75,.77,4.86,5.54,10.91,9,18.11,10.5,.89,.18,1.74,.56,2.68,.45,.19-.02,.4,.02,.64-.21,.15-1.06-.03-2.22,.2-3.35,.24-1.14,.7-2.19,1.16-3.26,.47-1.09,1.11-2,1.84-2.88,.74-.9,1.63-1.64,2.61-2.27,1.01-.65,2.08-1.17,3.24-1.53,1.11-.34,2.25-.58,3.41-.61,1.14-.03,2.29,.06,3.41,.3,1.17,.25,2.3,.65,3.36,1.22,1.03,.55,1.96,1.23,2.8,1.98,1.53-.07,2.81-.97,4.37-1.09,.62-.73,1.6-1.19,2.62-1.46,.95-.25,1.57,.55,1.31,1.53-.17,.62-.41,1.21-.67,1.64-.24,.31-.58,0-.73,.44,.53,.55-.77,1.07-.1,1.73-.16,.15-.36,.24-.37,.49,.21,.27,.48,.14,.74,.11,.31-.22,.12-.62,.32-.9,.25-.25,.61-.32,.93-.44,.68,.21,.39,.99,.81,1.34h0c0,.95-.18,1.82-1.03,2.41-.18-.04-.22-.35-.47-.25-.05,.05-.15,.12-.14,.15,.12,.31,.22,.62-.04,.89-.35,.36-.59,.97-1.14,.93-.53-.03-.25,.43-.5,.53-.36-.02-.12-.52-.49-.59-.36,0-.55,.31-.72,.62,.13,.34,.43,.42,.84,.48-.48,.48-.81,.97-1.51,.63-.22,.62-.71,1.13-.74,1.81,.11,.39,.54,.31,.79,.57-.13,3.74-.8,7.4-2.12,10.94-.98,2.62-2.22,5.12-3.81,7.43-2.15,3.14-4.64,5.95-7.71,8.24-.39,.29-.75,.61-1.29,.44-.03-.35-.18-.62-.61-.91,.05,.53-.18,.97,.46,1.05,.06,.38-.17,.58-.45,.76-1.38,.88-2.79,1.71-4.31,2.36l-1.07-.36c-.01-.49-.4-.99-.13-1.73-.69,.31-.66,.9-.61,1.22,.08,.52,.24,1.17,1.15,1.13-.95,.49-1.82,.79-2.69,1.06-.87,.28-1.75,.54-2.64,.76-.93,.23-1.86,.44-2.8,.6-.9,.15-1.82,.3-2.73,.3-.86,0-1.73,.08-2.4,.18-.51-.35-.3-.76-.54-1.02l-.77,.2c-.04,.44,.55,.12,.5,.63-.61-.16-1.23,.6-1.89-.07-.04-.04-.2,.06-.31,.08-1.25,.19-2.46-.07-3.68-.27-.29-.05-.59-.23-.79-.56-.28,.12-.47,.4-.88,.31-2.84-.67-5.61-1.55-8.22-2.86-.18-.45-.35-.88-.51-1.3-.43,.13-.53,.4-.33,.91-.84-.48-1.54-.85-2.2-1.28-1-.64-1.03-1.31-.21-2.14,2.01-.22,3.96-.01,5.86-.11,.32,.11,.21,.46,.43,.58,.29-.15,.11-.54,.38-.7,.85-.39,1.85-.07,2.68-.56l.25,.29c.4,.05,.14-.56,.4-.51,.56-.11,.73,.47,1.18,.4,.58-.1,.43-.52,.45-.92l1.69-.73c.43,.19,.25,.65,.53,.92,.46-.22,.32-.54,.13-.92,.37-.05,.74-.09,1.07-.45l-1.02-1.09c-.85,.33-1.43-.23-2.03-.51-.36-.29-.11-.78-.46-.99-.1-.09-.23-.15-.32-.06-.34,.36-.62,.23-.93-.09-.19-.28,.31-.8-.28-.99l-.22-.65c.13-.28-.08-.64,.22-.87,.23-.02,.43,.28,.7,.01-.1-.31,.2-.64-.02-1.05-.35-.04-.68-.41-1.06-.25-.27,.39,.21,.52,.13,.77l-.66,.79,.2,.32h0c-.3-.15-.52,.15-.82,.15-.59-.53-1.09-1.13-1.08-1.98-.3-.05-.51-.13-.58-.32-.17-.39,.19-.55,.23-.81,.24-.13,.53,.25,.75-.09,.13,.67,.56,.45,1.05,.37l-.6-.92-.3,.4Zm21.7-20.97c.11,.29-.36,.53-.08,.85,.33,.16,.47-.08,.61-.31-.13-.23-.13-.52-.38-.68l-.41-.84c-.26,.12-.6,.06-.82,.33,.23,.44,.65,.55,1.08,.64Zm-8.95,31.08l.13-.37c-.36-.15-.68-.18-1.07,.11,.17,.43-.43,.7-.32,1.23,.76,.18,.69-.67,1.12-.84,.14,.69-.56,1.06-.64,1.67-.02,.12-.03,.23,.07,.35,.27,.16,.56,.17,.88-.06-.05-.36-.3-.7,0-1.12,.16-.22,.16-.69-.16-.98Zm7.51,1.08c.03,.45,.33,.68,.68,.87,.23-.11,.4-.25,.36-.55-.2-.32-.68-.12-.89-.45,.02-.66,.41-1.28,.19-1.86l1.66-1.36c-.95-.29-1.58,.44-2.37,.43l.08,.42c-.18,.08-.4-.05-.58,.14-.4,.94,.74,1.58,.4,2.58l.45-.21Zm-10.81,4.55c-.2,.33-.36,.66,.11,.96,.31-.27,.49-.52,.47-.84-.1-.23-.28-.21-.42-.25,.66-1.23,.53-2.58,.72-3.86l-1.25-.33c-.05,.37,.02,.76-.25,1.08l.65,.28c-.26,.34-.47,.69-.46,1.06-.27,.17-.57,.07-.69,.35-.06,.22-.08,.46,.04,.68,.19,.26,.54,.08,.77,.28,.14,.17,.05,.47,.3,.6Zm3.69-9.89c-.1,.76-.14,1.4-.19,2.02-.06,.67,.83,1.05,.68,1.79,.44,.13,.71,.49,1.14,.42,.17-.33-.13-.69,.1-1,.2,0,.41,.33,.55,.1,.14-.78-.86-.21-.8-.81,.05-.61-1.01-.28-.74-1.03l1.64-.34c.11-.42-.17-.61-.3-.86-.49,.2-1,.22-1.35,.63-.23-.33-.32-.65-.71-.92Zm32.06-27.8c.61-1.73,.51-2.14-.57-2.62-.27,.49-.75,.56-1.27,.5,0,.78,.92,.67,1.02,1.27-.06,.23-.46,.36-.23,.74l1.05,.11Zm-19.79,32.97c.24-.25,.57-.42,.67-.83-.45-.39-.06-.97-.33-1.61-.33,.45-.71-.06-1.07,.2q-.38,.74,.34,1.39c-.02,.35-.39,.35-.55,.59,.15,.54,.39,1,.99,1.11,.18-.15,.21-.29,.2-.46,0-.17-.1-.29-.24-.39Zm-7.62,2.74c-.07,.69-.43,1.07-1.13,1.19,.34,.67,1.06,.8,1.54,1.22,.21,.18,.52-.06,.66-.35l-.35-1.15c.14-.23,.28-.51,.3-.83-.29-.19-.61-.13-1.03-.08Zm28.52-34.52c1.06-.14,1.72-.56,2.03-1.45-.12-.19-.11-.47-.41-.53-.56-.12-.68,.43-.97,.67-.24-.11-.4-.25-.62-.13-.63,.46,.26,.91-.03,1.44ZM29.69,52.23c-.06-.7,.54-.71,.59-1.16-.19-.29-.48-.39-.78-.46-.36,.14-.56,.44-.79,.71-.25-.21-.49-.43-.86-.32-.09,.52,.23,.9,.13,1.3,.63,.22,.92-.68,1.71-.07Zm-1.83,16.54q.63,.77,.61,1.52c.35,.1,.69,.14,1.08-.08-.18-.4,.13-.81-.01-1.22-.5-.38-.98-.75-1.47-1.13-.26,.29,.05,.64-.21,.9Zm14.14,3.68c-.03-.87,1.15-.58,1.38-1.38-.45-.02-.56-.43-.75-.73-.39,.33-.78,.57-1.06,.9-.28,.34-.46,.78-.69,1.18,.36,.15,.67,.12,1.11,.03Zm27.83-32.02c.44,.5,.78,1.04,1.52,1.03,.31-.47-.11-.75-.18-1.1,.09-.12,.33,0,.39-.33-.11-.34-.38-.61-.79-.71-.54,.24-.55,.81-.95,1.11Zm-39.61,31.21c.34,.2,.61,.31,.81,.48,.22,.19,.32,.58,.73,.23,.16-.14,.42,.4,.65-.07-.49-.66-.74-1.59-1.85-1.75-.16,.41,.32,.9-.34,1.11Zm40.13-29.38q.03,1.44,.79,2.17c.6-.65,.23-1.43,.43-2.21-.46,.23-.8,.2-1.22,.04Zm-8.9-8.08c.24-.47-.07-.79-.35-1.11,.36-.23,.54-.55,.76-.86-.32-.18-.59-.12-.78,.13-.49,.64-.88,1.34-1.02,2.26l1.38-.42Zm-7.16,33.65c.28,.38,.03,.87,.29,1.26,.21,.03,.37,.31,.7,.09-.34-.48,.15-.84,.21-1.33-.27-.3-.06-.92-.78-1.11,.11,.49-.3,.72-.42,1.09Zm10.27-29.78c.19,.82,.45,1.14,.89,1.04l.58-.85c-.18-.2-.17-.48-.4-.58-.47-.11-.76,.16-1.06,.38Zm-14.92-5.91c-.57,.92-.46,1.11,.78,1.37,.37-.78,.16-1.14-.78-1.37Zm15.49-.7c-.2-.33-.46-.34-.72-.49-.21,.48-.5,.9-1.01,1.07,.14,.27,.16,.48,.34,.57l.77-.23,.62-.92Zm3.41,5.52c.19-.38,.55-.59,.64-1.01-.22-.28-.12-.75-.63-1.01-.14,.71-.53,1.32,0,2.02Zm-42.54,4.53c-.89,.56-1,.87-.43,1.19l.84-.28c.03-.42-.13-.69-.42-.91Zm23.45,24.63c.92,.3,.31,1.29,.88,1.77,.49-1.12,.23-1.76-.88-1.77Zm-26.17-30.43c.14-.52-.02-.8-.46-.92-.47,.16-.57,.52-.63,.92,.34,.18,.68,.16,1.09,0Zm38.33,6.8c-.33-.07-.64-.16-.86,.16,.44,.67,.99,.94,1.43,.68l-.57-.84Zm-29.17,2.47c.03-.29,.43-.46,.12-.79-.17-.09-.35-.08-.54,.02,0,.44-.29,.88-.01,1.35,.38,.16,.67,.1,.83-.29-.05-.21-.25-.16-.41-.29Zm35.2-.86c.1-1.04-.09-1.34-.99-1.46,.31,.52,.2,1.2,.99,1.46Zm-.94,3.21c.48-.17,.33-.61,.49-.96-.46-.1-.83-.19-1.17,.1,.04,.47,.35,.65,.68,.86Zm1.24-7.42c0,.43,.13,.73,.54,.98l.67-.97c-.5-.48-.83-.04-1.21,0Zm8.33-12.77c-.35-.42-.72-.36-1.2-.1,.18,.49,.52,.77,1.06,1.15-.1-.46,.05-.75,.14-1.05Zm-16.08,5.51c.04-.39,.67-.38,.49-.98-.45,.21-.99-.29-1.49,.31,.43,.1,.57,.46,.99,.67Zm-26.17,35.26c-.02,.36-.03,.68,.18,.97,.29,.03,.56,.26,.88,.1,.05-.79-.77-.64-1.06-1.07Zm2.16-8.35c-.23-.07-.43-.09-.6,.05l-.17,.89c.27,.04,.54,.12,.79-.09,.15-.25,.14-.51-.02-.85Zm-2.22-10.81c-.17,.31-.44,.52-.29,.87,.3,.16,.58,.18,.86-.02q-.03-.53-.57-.86Zm-2.18,12.61c.52,.07,.99,.32,1.32,0,.09-.43-.24-.28-.34-.41-.13-.15-.26-.29-.5-.18l-.47,.59Zm8.08-1.49c-.63,.02-.95,.32-1.2,.81l.69,.33c0-.45,.53-.58,.51-1.13Zm-7.78-2.5c.3-.22,.61-.46,.81-.85l-.32-.33c-.4,.19-.65,.49-.86,.82,.07,.16,.17,.28,.37,.36Zm3.09,14.62c.19-.16,.28-.36,.31-.61-.29-.13-.34-.54-.7-.57-.3,.13-.35,.38-.39,.76,.38-.09,.55,.21,.78,.42Zm36.01-24.43c-.44,.24-.5,.58-.57,.92,.34,.03,.08,.61,.52,.51q.29-.51,.04-1.43Zm-13.46,18.23c.47-.62,.38-1.16,.18-1.88-.55,.67-.53,1.21-.18,1.88Zm-18.9,4.51l1.02-.23c-.33-.3,.16-.7-.22-.98-.55,.2-.61,.66-.8,1.21Zm18.82-32.96q.57-.73,.05-1.29c-.55,.41,.07,.85-.05,1.29Zm-16.67,34.03c.43-.55,.1-.91-.01-1.26-.24-.04-.39-.05-.56,.08l.58,1.18Zm-11.87-23.42c.55,.21,.85,.05,.92-.55-.65-.33-.79,.08-.92,.55Zm34.8,7.57l.61,.88c.13-.57,.29-1.05-.27-1.38-.23,.11-.24,.33-.34,.5Zm-14.69,5.84c-.29-.46-.59-.55-.96-.25,0,.36,.17,.57,.39,.81l.57-.56Zm-7.51,7.33c.1-.3,.18-.52-.05-.72-.26-.11-.51-.12-.8,.07,.17,.3,.32,.6,.85,.65Zm22.72-28.79c-.09,.32-.62,.34-.56,.82,.33,.2,.58,.23,.77-.15,.13-.26,.21-.5-.21-.67Zm-30.03,32.07c-.4,.2-.47,.46-.48,.7,.15,.26,.31,.34,.55,.28,.22-.31,.23-.61-.07-.99Zm11.92-3.85c.01-.25-.02-.38-.27-.44l-.93,.35c.47,.6,.83,.08,1.2,.08Zm-4.29,1.4c.3,.39,.58,.5,.94,.22,.04-.2,.08-.39-.1-.54-.25,.09-.55,.06-.83,.32Zm31.23-37.62q.55-.77,.22-1.62l-.22,1.62Zm-20.52,2.83c.14-.22,.16-.42-.08-.64-.22,0-.51-.11-.56,.3,.13,.29,.38,.33,.65,.35Zm9.43,6.04c.4-.06,.55-.29,.7-.53-.08-.22-.13-.45-.38-.57-.12,.33-.31,.62-.32,1.1Zm-1.42-.81c.38,.17,.33,.6,.68,.85l.21-.9c-.32-.12-.54-.14-.88,.05Zm11.06,3.59c.07,.18,.14,.36,.39,.34,.22-.15,.44-.29,.47-.6-.38-.23-.65-.09-.86,.26Zm-43.12,11.5c.14-.41,.59-.62,.26-1.01-.31-.08-.45,.1-.59,.34l.33,.68Zm21.95,13.56c-.57,.1-.79,.29-.59,.78,.44-.04,.64-.23,.59-.78Zm-4.61-2.74q-.49,.65,.07,1.02c.04-.37,.14-.7-.07-1.02Zm-12.45,5.22c-.77,.04-.94,.14-.82,.47l.26,.2c.25-.14,.46-.29,.56-.67ZM51.06,31.35q-.59-.4-.86-.03c.28,.23,.56,.22,.86,.03Zm17.91-.08c.07,.32,.23,.53,.62,.56,.07-.22,.14-.43-.08-.62-.19-.08-.37-.07-.54,.06Zm-16.09,.18c-.31,.19-.61,.41-.51,.91,.5-.14,.55-.5,.51-.91Zm-31.19,4.63c.07,.26,.02,.6,.49,.65,.14-.26,.13-.51,.01-.75-.2-.02-.36-.06-.5,.1Zm.93,2.05q.69-.22,.29-.65c-.21,.12-.4,.26-.29,.65Zm5.33,4.34c.52-.3,.51-.66,.24-1.08,.04,.36-.5,.58-.24,1.08Zm2.59,11.82c-.17,.67,.07,.79,.6,.63-.02-.35-.22-.51-.6-.63Zm11.62,12.69q-.42,.5,.04,.84c.15-.25,.15-.5-.04-.84Zm-5.94-1.07c.05,.33,.18,.49,.5,.52,.09-.16,.38-.23,.23-.55-.22-.12-.45-.12-.73,.03Zm17.1,4.49c.29-.39,.35-.64-.06-.83-.31,.28-.3,.51,.06,.83Zm-6.09-.01q.6-.19,.4-1.02l-.4,1.02Z"/><path class="b" d="M85.29,40.04c-.38-1.51-.75-3.01-1.13-4.52,.21-.28,.48-.17,.8-.07,.05,.39,.1,.83,.56,.92,.47,1.08-.19,2.06-.12,2.8,.14,.67,.63,.65,.83,1.05-.33-.16-.61-.18-.93-.17Z"/><path class="b" d="M73.95,77.55c.11,.16,.21,.34,.46,.24,.71,.08,.09,.82,.67,.99-.39,.13-.66,.18-.8-.05-.21-.35-.53-.41-.86-.51l-.6,.25-.04-.24c.06-.79,.68-.62,1.17-.69Z"/><path class="b" d="M86.83,36.69c.2-.63-.53-.96-.78-1.45,.22-.39,.57-.21,.62-.09,.32,.69,.99,1.13,1.22,1.86,.02,.06-.04,.14-.07,.21-.31-.17-.63-.33-.99-.52Z"/><path class="b" d="M87.14,23.28v.34c.13,.28,.6-.27,.63,.36-.26,.31-.81,.28-1.06,.7-.29-.33-.46-.65-.82-.82,.31-.44,.8-.46,1.24-.58h0Z"/><path class="b" d="M90.5,35.52l.4-.26c-.08-.3-.29-.61,.11-.94l.66,.62c-.81,.09-.52,.79-.63,1.24-.5-.05,0-.69-.52-.65h0Z"/><path class="b" d="M29.31,59.32l.22,.65c-.06,.14-.05,.31-.24,.42-.36-.05-.55-.35-.76-.61-.09-.33,.36-.42,.29-.73h0c.16,.08,.26,.28,.49,.27Z"/><path class="b" d="M7.66,49.73l.45-.53,.23,1.58c-.37-.26-.62-.57-.68-1.05Z"/><path class="b" d="M23.78,49.45c0,.38,.4,.64,.31,1.06-.53-.35-.53-.35-.81-.99,.12-.32,.34,.04,.49-.08h.01Z"/><path class="b" d="M13.97,69.58c.22-.24,.27-.54,.39-.81,.33,.02,.25,.32,.35,.5-.13,.31-.43,.3-.73,.32Z"/><path class="b" d="M87.13,23.27c.04-.38-.54-.51-.37-.93q.42,.42,.37,.94h0Z"/><path class="b" d="M81.58,28.81c-.08,0-.15,0-.23,0-.19-.2-.34-.41-.37-.77,.4,.14,.55,.42,.6,.77Z"/><path class="b" d="M78.26,32.16c.31-.23,.28-.6,.36-.98q.02,.66-.35,.99h0Z"/><path class="b" d="M92.89,44.15c.08-.24-.24-.24-.25-.42,.18-.3,.35-.22,.53-.02,.05,.24-.15,.32-.27,.45h0Z"/><path class="b" d="M9.25,59.52c.14-.37,.31-.39,.51-.09-.15,.28-.35-.09-.51,.09Z"/></svg>