<?xml version="1.0" encoding="utf-8"?>
<!-- Generator: Adobe Illustrator 26.3.1, SVG Export Plug-In . SVG Version: 6.00 Build 0)  -->
<svg version="1.1" id="Layer_1" xmlns="http://www.w3.org/2000/svg" xmlns:xlink="http://www.w3.org/1999/xlink" x="0px" y="0px"
	 viewBox="0 0 627 492.8" style="enable-background:new 0 0 627 492.8;" xml:space="preserve">
<style type="text/css">
	.st0{fill:#E9E7DC;}
</style>
<g>
	<path class="st0" d="M365.3,252.2c37.4-16,65.3-48.5,75.5-87.9c10.2-39.4,1.6-81.3-23.3-113.5c-24.9-32.2-63.3-51-104-51
		s-79.1,18.8-104,51C184.6,83.1,176,125,186.2,164.4c10.2,39.4,38.1,71.8,75.5,87.9c-47.9,11.7-90.5,39.1-121,77.8
		c-30.5,38.8-47.1,86.6-47.2,135.9c0,6.5,0.3,12.7,0.9,19c0,0.2,0.1,0.5,0.1,0.7l0.1,0.3v0c0.1,0.5,0.3,1,0.4,1.4
		c1.4,3.4,4.8,5.5,8.5,5.1h145.7h0c4.6,0,8.4-3.8,8.4-8.4c0-4.6-3.8-8.4-8.4-8.4H110.6c-0.2-3.2-0.3-6.5-0.3-9.8
		c0.1-53.7,21.4-105.2,59.3-143.2c37.9-38.1,89.3-59.6,143-59.9h0.9h0.9c53.7,0.3,105.1,21.8,143,59.9
		c37.9,38.1,59.2,89.6,59.3,143.3c0,3.3-0.1,6.6-0.3,9.8H377.7c-4.6,0-8.4,3.8-8.4,8.4c0,4.6,3.8,8.4,8.4,8.4h145.7h0
		c0.3,0,0.5,0,0.8,0c0.2,0,0.4-0.1,0.6-0.1h0c0.6,0,1.3-0.2,1.9-0.4c0.3-0.1,0.5-0.2,0.8-0.3c0.7-0.3,1.3-0.7,1.9-1.2
		c0.2-0.2,0.4-0.3,0.6-0.5h0c0.6-0.6,1.1-1.2,1.5-1.9c0.1-0.2,0.2-0.3,0.3-0.5c0.4-0.8,0.6-1.7,0.8-2.6c0-0.1,0.1-0.1,0.1-0.2
		c0.6-6.4,0.9-12.6,0.9-19v0c-0.1-49.3-16.7-97.2-47.2-135.9C455.8,291.3,413.2,263.9,365.3,252.2L365.3,252.2z M198.8,131.3
		c0-30.4,12.1-59.5,33.5-81.1c21.5-21.5,50.6-33.6,81-33.7c30.4-0.1,59.6,12,81.1,33.4s33.7,50.5,33.8,80.9
		c0.1,30.4-11.9,59.6-33.3,81.2c-21.4,21.6-50.5,33.8-80.9,33.9h-1.1c-30.3-0.2-59.3-12.3-80.7-33.8
		C210.8,190.7,198.8,161.7,198.8,131.3L198.8,131.3z"/>
</g>
</svg>
