<?xml version="1.0" encoding="utf-8"?>
<!-- Generator: Adobe Illustrator 26.3.1, SVG Export Plug-In . SVG Version: 6.00 Build 0)  -->
<svg version="1.1" id="a" xmlns="http://www.w3.org/2000/svg" xmlns:xlink="http://www.w3.org/1999/xlink" x="0px" y="0px"
	 viewBox="0 0 94.9 87.8" style="enable-background:new 0 0 94.9 87.8;" xml:space="preserve">
<style type="text/css">
	.st0{clip-path:url(#SVGID_00000021085343653376459620000004137016169080041383_);}
	.st1{fill:#e9e7dc;}
</style>
<g>
	<defs>
		<rect id="SVGID_1_" width="94.9" height="87.8"/>
	</defs>
	<clipPath id="SVGID_00000125598685008950409350000005004363281234055299_">
		<use xlink:href="#SVGID_1_"  style="overflow:visible;"/>
	</clipPath>
	<g style="clip-path:url(#SVGID_00000125598685008950409350000005004363281234055299_);">
		<g id="c">
			<path id="d" class="st1" d="M81.4,14.2C62.6-6,29.4-4.6,13.9,17.9C3,32.1,0.5,51.9,10.7,68.2c12.6,20.2,40,24.9,59.8,13.1
				C94.2,67.2,100.4,34.8,81.4,14.2 M14.6,65.9C3,48.9,8.9,28.7,22.1,15.3c5.8-5.4,13-9.1,20.8-10.6C55.9,2.1,69,8.4,78.1,17.5
				C97,36.2,87.5,66,66.7,78.3C49,88.7,26,82.6,14.6,65.9"/>
			<path id="e" class="st1" d="M40.2,39.4c0.1-0.1,0.2-0.3,0.3-0.4c0.2-0.2,0.4-0.3,0.5-0.6c1.5-3.2,1.6-6.8,0.4-10.1
				c-0.4-1.2-2-2.2-3.2-1.3c-3.7,2.9-1.9,6.9-1.7,10.9c0,1.2,1,2.2,2.2,2.2C39.3,40,39.9,39.7,40.2,39.4"/>
			<path id="f" class="st1" d="M58.9,39.3c0.1-0.1,0.2-0.3,0.3-0.4c0.2-0.2,0.4-0.3,0.5-0.6c1.5-3.2,1.6-6.8,0.4-10.1
				c-0.4-1.2-2-2.2-3.2-1.3c-3.7,2.9-1.9,6.9-1.7,10.9c0,1.2,1,2.2,2.2,2.2C58,40,58.5,39.7,58.9,39.3"/>
			<path id="g" class="st1" d="M77.2,52.2c0.7,0,1.2-0.6,1.2-1.3c0-0.1,0-0.2,0-0.3c-0.4-1.7-2.6-2.6-4.1-3.2
				c-1.4-0.7-3-0.5-4.2,0.4c-0.1,0.1-0.1,0.4,0,0.5c0.6,0.5,1.3,1,2,1.3c0,0,0,0,0,0c-2.9,8.8-12.9,12.4-21.1,14
				C39.4,66,30.6,60.1,24.3,50.6c1.1-0.6,2-1.5,2.7-2.5c0.1-0.2,0-0.5-0.2-0.6c0,0-0.1,0-0.1,0c-1.8-0.4-3.6,0-5.1,1.1
				c-0.8,0.5-1.5,1.1-2.2,1.8c-0.4,0.6-0.7,1.2-0.8,1.9c0,0.2,0.1,0.4,0.3,0.5c0.1,0,0.1,0,0.2,0c0.6-0.1,1.3-0.3,1.9-0.4
				c0.2-0.1,0.4-0.2,0.6-0.3C25.8,64.1,38,69.5,50,68.3c10.1-1,22.1-6.2,24.9-16.8C75.6,52,76.4,52.3,77.2,52.2"/>
		</g>
	</g>
</g>
</svg>
